<svg width="120" height="91" viewBox="0 0 120 91" fill="none" xmlns="http://www.w3.org/2000/svg">
<mask id="path-1-outside-1_13379_8720" maskUnits="userSpaceOnUse" x="-0.648438" y="0" width="121" height="92" fill="black">
<rect fill="white" x="-0.648438" width="121" height="92"/>
<path d="M20.8089 78.1112C18.0285 75.9601 14.8459 72.5719 13.3131 68.738C12.4359 66.5439 11.9215 64.3187 11.633 61.9819C10.9349 62.9415 8.79008 66.8836 7.5311 66.0763C5.72582 64.9187 8.31009 57.3609 8.77301 55.9672C9.16609 54.7838 9.4877 53.7803 9.4877 53.7372C9.4877 53.6941 8.45001 54.4469 7.1817 55.4101C4.50669 57.4416 4.14674 57.6237 3.66656 57.1882C3.23557 56.7973 3.24281 56.4713 3.7132 55.079C4.57601 52.5257 6.98118 48.2043 9.11888 45.3666C10.1496 43.9984 8.80056 44.9367 7.94963 45.3308C7.07589 45.7353 6.18832 46.0417 5.97729 46.0115C4.45046 45.7931 7.40431 41.819 11.7516 38.2428C13.8983 36.4769 17.4925 33.3138 17.422 33.2526C17.3914 33.226 16.755 33.3135 16.0079 33.4469C13.3881 33.9145 11.8254 33.6632 12.31 32.8521C12.4178 32.6716 13.9257 31.8215 15.6607 30.963L18.8152 29.4021L17.1384 29.3187C15.3603 29.2301 14.8755 29.0221 15.2099 28.4908C15.3143 28.3248 15.5978 28.1309 15.8397 28.0599C20.649 26.6498 24.1001 25.3369 23.8907 24.9972C23.836 24.9085 22.7535 24.5819 22.6666 23.9743C22.6257 23.6878 23.9419 21.8449 25.6367 20.7071C28.6218 18.7031 31.1988 17.236 35.4781 16.9611C35.0576 16.796 33.8481 16.5364 33.8481 15.9815C33.8481 15.675 34.0333 15.6363 35.7498 15.5839C37.6205 15.5269 41.0833 15.8067 42.0911 16.0964C42.3738 16.1776 42.6446 16.2044 42.6928 16.1562C42.8319 16.0168 35.7796 9.14155 35.1443 8.79703C34.3759 8.38036 33.6535 8.3945 33.2142 8.83475C32.6979 9.3522 32.7645 9.93682 33.4405 10.8198C34.7388 12.5156 34.8442 12.7072 34.8442 13.3716C34.8442 14.0488 34.54 14.4709 33.8832 14.7049C33.4822 14.8479 32.3761 14.4037 31.7873 13.8634C31.2348 13.3564 29.9366 11.3642 29.4337 10.2515C28.1174 7.33955 30.403 4.11512 33.7834 4.11512C36.0528 4.11512 37.3693 5.01548 42.46 10.0493C45.7588 13.3112 46.6468 14.0952 47.0786 14.1266C48.0809 14.1995 49.1742 14.0993 49.0781 13.9437C48.8668 13.6002 46.1308 11.7966 46.4278 10.6086C47.3687 8.377 55.7998 10.2835 57.2658 10.6541L59.4926 11.2171L60.3448 10.6067C62.8404 8.81923 67.3241 6.3386 69.8908 5.32543C71.7915 4.57512 74.4255 3.86036 74.6888 4.02345C74.7893 4.08563 74.3033 4.63786 73.6088 5.25042C72.9142 5.86296 72.3721 6.39043 72.4042 6.42252C72.4362 6.45468 73.4324 6.15722 74.6178 5.76165C77.1084 4.93064 79.7367 4.36788 81.9403 4.19383C83.2697 4.08877 83.5206 4.11492 83.741 4.38099C84.1654 4.89351 83.7705 5.20962 81.6539 6.0518L79.6712 6.84068L82.4785 6.7307C85.2986 6.62028 89.9029 6.88979 90.757 7.21533C91.0749 7.33647 91.1813 7.49664 91.1395 7.79124C91.0935 8.11653 90.8611 8.26638 89.995 8.52939C85.3471 9.94067 83.3886 10.5749 83.3865 10.6694C83.3852 10.7301 84.0257 10.8238 84.81 10.8776C85.5942 10.9314 86.4093 11.0686 86.6212 11.1822C87.2534 11.5213 87.1036 12.0764 86.2803 12.4458L85.5542 12.7716L86.2871 13.1029C86.6903 13.2852 87.5265 13.6042 88.1453 13.812C89.0708 14.1227 89.2815 14.2685 89.3329 14.6334C89.3712 14.9051 89.2709 15.1682 89.0745 15.3122C88.6855 15.5973 88.7634 15.6946 89.4981 15.8419C89.9505 15.9325 90.1531 15.8633 90.5263 15.489C90.9025 15.112 90.9911 14.8484 90.9911 14.1072V13.1914H90.2795C88.9383 13.1914 88.9238 12.059 89.9112 11.5541C90.5916 11.2062 90.6349 11.1388 90.5313 10.5858C90.3897 9.82873 90.7549 9.48003 91.5144 9.64722C91.9589 9.74498 92.0903 9.69244 92.269 9.34559C92.6238 8.6567 93.2043 8.10864 93.5793 8.10864C93.7727 8.10864 94.2278 8.43426 94.5908 8.83223C95.2264 9.52915 95.2755 9.54888 95.9256 9.36898C96.9633 9.08179 97.4037 9.39087 97.2579 10.3043L97.1448 11.0131H97.8596C99.2719 11.0131 99.9729 11.6674 99.2261 12.2886C98.9834 12.4904 99.0288 12.5933 99.5883 13.1068C99.9402 13.4298 100.228 13.7793 100.228 13.8834C100.228 14.1317 99.3433 14.8251 99.0264 14.8251C98.7323 14.8251 98.7253 14.9113 98.9543 15.7117C99.2606 16.7819 98.6276 17.3235 97.6705 16.8101C97.3726 16.6504 97.247 16.6973 96.9448 17.0824C96.4796 17.6751 96.0065 17.674 95.5395 17.0781C95.0925 16.5086 94.8479 16.6239 94.6877 17.4797C94.5067 18.4461 95.0442 18.9157 96.2976 18.8864C97.2737 18.8637 98.959 18.2585 99.345 17.7922C99.4633 17.6494 99.6086 17.0318 99.6677 16.4198C99.7815 15.2421 100 14.9847 100.479 15.4645C100.64 15.6259 100.776 15.7316 100.781 15.6995C100.785 15.6673 101.012 14.7908 101.284 13.7516C102.034 10.8843 102.725 10.7342 102.924 13.3955L103.035 14.896L103.992 14.0433C104.519 13.5743 105.071 13.1905 105.221 13.1905C105.733 13.1905 105.738 13.7887 105.231 14.6978C104.958 15.1881 104.772 15.627 104.818 15.673C104.864 15.7191 105.373 15.6688 105.949 15.5629C107.36 15.3015 108.112 15.3187 108.36 15.6182C108.703 16.0325 108.386 16.4483 107.314 16.9917L106.296 17.5083L107.111 17.7256C108.35 18.0561 109.103 18.4628 109.103 18.8022C109.103 19.3733 108.699 19.544 107.346 19.544C106.619 19.544 106.024 19.586 106.024 19.6372C106.024 19.6885 106.118 19.8819 106.234 20.067C106.349 20.252 106.389 20.5469 106.321 20.722C106.225 20.9738 106.077 21.0149 105.614 20.9182C102.774 20.3259 100.953 20.9677 100.953 22.5603C100.953 23.6303 101.685 24.6213 103.797 26.4116C104.873 27.3227 106.975 29.2515 108.469 30.6977L111.186 33.3271L110.32 33.3336C109.843 33.3378 109.173 33.2225 108.831 33.0791C108.219 32.8231 108.236 32.8599 109.773 35.1213C111.497 37.6604 112.422 39.4567 112.331 40.0942C112.243 40.722 111.592 40.7111 110.657 40.0663L109.847 39.5077L110.851 41.6427C115.377 51.2711 119.721 66.0012 113.7 76.0456C112.873 77.4256 110.083 80.2288 107.91 81.8632C100.122 87.7213 83.1445 88.2018 66.5931 87.6633C47.2173 87.0328 28.7283 84.238 20.8089 78.1112Z"/>
</mask>
<path d="M20.8089 78.1112C18.0285 75.9601 14.8459 72.5719 13.3131 68.738C12.4359 66.5439 11.9215 64.3187 11.633 61.9819C10.9349 62.9415 8.79008 66.8836 7.5311 66.0763C5.72582 64.9187 8.31009 57.3609 8.77301 55.9672C9.16609 54.7838 9.4877 53.7803 9.4877 53.7372C9.4877 53.6941 8.45001 54.4469 7.1817 55.4101C4.50669 57.4416 4.14674 57.6237 3.66656 57.1882C3.23557 56.7973 3.24281 56.4713 3.7132 55.079C4.57601 52.5257 6.98118 48.2043 9.11888 45.3666C10.1496 43.9984 8.80056 44.9367 7.94963 45.3308C7.07589 45.7353 6.18832 46.0417 5.97729 46.0115C4.45046 45.7931 7.40431 41.819 11.7516 38.2428C13.8983 36.4769 17.4925 33.3138 17.422 33.2526C17.3914 33.226 16.755 33.3135 16.0079 33.4469C13.3881 33.9145 11.8254 33.6632 12.31 32.8521C12.4178 32.6716 13.9257 31.8215 15.6607 30.963L18.8152 29.4021L17.1384 29.3187C15.3603 29.2301 14.8755 29.0221 15.2099 28.4908C15.3143 28.3248 15.5978 28.1309 15.8397 28.0599C20.649 26.6498 24.1001 25.3369 23.8907 24.9972C23.836 24.9085 22.7535 24.5819 22.6666 23.9743C22.6257 23.6878 23.9419 21.8449 25.6367 20.7071C28.6218 18.7031 31.1988 17.236 35.4781 16.9611C35.0576 16.796 33.8481 16.5364 33.8481 15.9815C33.8481 15.675 34.0333 15.6363 35.7498 15.5839C37.6205 15.5269 41.0833 15.8067 42.0911 16.0964C42.3738 16.1776 42.6446 16.2044 42.6928 16.1562C42.8319 16.0168 35.7796 9.14155 35.1443 8.79703C34.3759 8.38036 33.6535 8.3945 33.2142 8.83475C32.6979 9.3522 32.7645 9.93682 33.4405 10.8198C34.7388 12.5156 34.8442 12.7072 34.8442 13.3716C34.8442 14.0488 34.54 14.4709 33.8832 14.7049C33.4822 14.8479 32.3761 14.4037 31.7873 13.8634C31.2348 13.3564 29.9366 11.3642 29.4337 10.2515C28.1174 7.33955 30.403 4.11512 33.7834 4.11512C36.0528 4.11512 37.3693 5.01548 42.46 10.0493C45.7588 13.3112 46.6468 14.0952 47.0786 14.1266C48.0809 14.1995 49.1742 14.0993 49.0781 13.9437C48.8668 13.6002 46.1308 11.7966 46.4278 10.6086C47.3687 8.377 55.7998 10.2835 57.2658 10.6541L59.4926 11.2171L60.3448 10.6067C62.8404 8.81923 67.3241 6.3386 69.8908 5.32543C71.7915 4.57512 74.4255 3.86036 74.6888 4.02345C74.7893 4.08563 74.3033 4.63786 73.6088 5.25042C72.9142 5.86296 72.3721 6.39043 72.4042 6.42252C72.4362 6.45468 73.4324 6.15722 74.6178 5.76165C77.1084 4.93064 79.7367 4.36788 81.9403 4.19383C83.2697 4.08877 83.5206 4.11492 83.741 4.38099C84.1654 4.89351 83.7705 5.20962 81.6539 6.0518L79.6712 6.84068L82.4785 6.7307C85.2986 6.62028 89.9029 6.88979 90.757 7.21533C91.0749 7.33647 91.1813 7.49664 91.1395 7.79124C91.0935 8.11653 90.8611 8.26638 89.995 8.52939C85.3471 9.94067 83.3886 10.5749 83.3865 10.6694C83.3852 10.7301 84.0257 10.8238 84.81 10.8776C85.5942 10.9314 86.4093 11.0686 86.6212 11.1822C87.2534 11.5213 87.1036 12.0764 86.2803 12.4458L85.5542 12.7716L86.2871 13.1029C86.6903 13.2852 87.5265 13.6042 88.1453 13.812C89.0708 14.1227 89.2815 14.2685 89.3329 14.6334C89.3712 14.9051 89.2709 15.1682 89.0745 15.3122C88.6855 15.5973 88.7634 15.6946 89.4981 15.8419C89.9505 15.9325 90.1531 15.8633 90.5263 15.489C90.9025 15.112 90.9911 14.8484 90.9911 14.1072V13.1914H90.2795C88.9383 13.1914 88.9238 12.059 89.9112 11.5541C90.5916 11.2062 90.6349 11.1388 90.5313 10.5858C90.3897 9.82873 90.7549 9.48003 91.5144 9.64722C91.9589 9.74498 92.0903 9.69244 92.269 9.34559C92.6238 8.6567 93.2043 8.10864 93.5793 8.10864C93.7727 8.10864 94.2278 8.43426 94.5908 8.83223C95.2264 9.52915 95.2755 9.54888 95.9256 9.36898C96.9633 9.08179 97.4037 9.39087 97.2579 10.3043L97.1448 11.0131H97.8596C99.2719 11.0131 99.9729 11.6674 99.2261 12.2886C98.9834 12.4904 99.0288 12.5933 99.5883 13.1068C99.9402 13.4298 100.228 13.7793 100.228 13.8834C100.228 14.1317 99.3433 14.8251 99.0264 14.8251C98.7323 14.8251 98.7253 14.9113 98.9543 15.7117C99.2606 16.7819 98.6276 17.3235 97.6705 16.8101C97.3726 16.6504 97.247 16.6973 96.9448 17.0824C96.4796 17.6751 96.0065 17.674 95.5395 17.0781C95.0925 16.5086 94.8479 16.6239 94.6877 17.4797C94.5067 18.4461 95.0442 18.9157 96.2976 18.8864C97.2737 18.8637 98.959 18.2585 99.345 17.7922C99.4633 17.6494 99.6086 17.0318 99.6677 16.4198C99.7815 15.2421 100 14.9847 100.479 15.4645C100.64 15.6259 100.776 15.7316 100.781 15.6995C100.785 15.6673 101.012 14.7908 101.284 13.7516C102.034 10.8843 102.725 10.7342 102.924 13.3955L103.035 14.896L103.992 14.0433C104.519 13.5743 105.071 13.1905 105.221 13.1905C105.733 13.1905 105.738 13.7887 105.231 14.6978C104.958 15.1881 104.772 15.627 104.818 15.673C104.864 15.7191 105.373 15.6688 105.949 15.5629C107.36 15.3015 108.112 15.3187 108.36 15.6182C108.703 16.0325 108.386 16.4483 107.314 16.9917L106.296 17.5083L107.111 17.7256C108.35 18.0561 109.103 18.4628 109.103 18.8022C109.103 19.3733 108.699 19.544 107.346 19.544C106.619 19.544 106.024 19.586 106.024 19.6372C106.024 19.6885 106.118 19.8819 106.234 20.067C106.349 20.252 106.389 20.5469 106.321 20.722C106.225 20.9738 106.077 21.0149 105.614 20.9182C102.774 20.3259 100.953 20.9677 100.953 22.5603C100.953 23.6303 101.685 24.6213 103.797 26.4116C104.873 27.3227 106.975 29.2515 108.469 30.6977L111.186 33.3271L110.32 33.3336C109.843 33.3378 109.173 33.2225 108.831 33.0791C108.219 32.8231 108.236 32.8599 109.773 35.1213C111.497 37.6604 112.422 39.4567 112.331 40.0942C112.243 40.722 111.592 40.7111 110.657 40.0663L109.847 39.5077L110.851 41.6427C115.377 51.2711 119.721 66.0012 113.7 76.0456C112.873 77.4256 110.083 80.2288 107.91 81.8632C100.122 87.7213 83.1445 88.2018 66.5931 87.6633C47.2173 87.0328 28.7283 84.238 20.8089 78.1112Z" fill="#3F5679"/>
<path d="M20.8089 78.1112C18.0285 75.9601 14.8459 72.5719 13.3131 68.738C12.4359 66.5439 11.9215 64.3187 11.633 61.9819C10.9349 62.9415 8.79008 66.8836 7.5311 66.0763C5.72582 64.9187 8.31009 57.3609 8.77301 55.9672C9.16609 54.7838 9.4877 53.7803 9.4877 53.7372C9.4877 53.6941 8.45001 54.4469 7.1817 55.4101C4.50669 57.4416 4.14674 57.6237 3.66656 57.1882C3.23557 56.7973 3.24281 56.4713 3.7132 55.079C4.57601 52.5257 6.98118 48.2043 9.11888 45.3666C10.1496 43.9984 8.80056 44.9367 7.94963 45.3308C7.07589 45.7353 6.18832 46.0417 5.97729 46.0115C4.45046 45.7931 7.40431 41.819 11.7516 38.2428C13.8983 36.4769 17.4925 33.3138 17.422 33.2526C17.3914 33.226 16.755 33.3135 16.0079 33.4469C13.3881 33.9145 11.8254 33.6632 12.31 32.8521C12.4178 32.6716 13.9257 31.8215 15.6607 30.963L18.8152 29.4021L17.1384 29.3187C15.3603 29.2301 14.8755 29.0221 15.2099 28.4908C15.3143 28.3248 15.5978 28.1309 15.8397 28.0599C20.649 26.6498 24.1001 25.3369 23.8907 24.9972C23.836 24.9085 22.7535 24.5819 22.6666 23.9743C22.6257 23.6878 23.9419 21.8449 25.6367 20.7071C28.6218 18.7031 31.1988 17.236 35.4781 16.9611C35.0576 16.796 33.8481 16.5364 33.8481 15.9815C33.8481 15.675 34.0333 15.6363 35.7498 15.5839C37.6205 15.5269 41.0833 15.8067 42.0911 16.0964C42.3738 16.1776 42.6446 16.2044 42.6928 16.1562C42.8319 16.0168 35.7796 9.14155 35.1443 8.79703C34.3759 8.38036 33.6535 8.3945 33.2142 8.83475C32.6979 9.3522 32.7645 9.93682 33.4405 10.8198C34.7388 12.5156 34.8442 12.7072 34.8442 13.3716C34.8442 14.0488 34.54 14.4709 33.8832 14.7049C33.4822 14.8479 32.3761 14.4037 31.7873 13.8634C31.2348 13.3564 29.9366 11.3642 29.4337 10.2515C28.1174 7.33955 30.403 4.11512 33.7834 4.11512C36.0528 4.11512 37.3693 5.01548 42.46 10.0493C45.7588 13.3112 46.6468 14.0952 47.0786 14.1266C48.0809 14.1995 49.1742 14.0993 49.0781 13.9437C48.8668 13.6002 46.1308 11.7966 46.4278 10.6086C47.3687 8.377 55.7998 10.2835 57.2658 10.6541L59.4926 11.2171L60.3448 10.6067C62.8404 8.81923 67.3241 6.3386 69.8908 5.32543C71.7915 4.57512 74.4255 3.86036 74.6888 4.02345C74.7893 4.08563 74.3033 4.63786 73.6088 5.25042C72.9142 5.86296 72.3721 6.39043 72.4042 6.42252C72.4362 6.45468 73.4324 6.15722 74.6178 5.76165C77.1084 4.93064 79.7367 4.36788 81.9403 4.19383C83.2697 4.08877 83.5206 4.11492 83.741 4.38099C84.1654 4.89351 83.7705 5.20962 81.6539 6.0518L79.6712 6.84068L82.4785 6.7307C85.2986 6.62028 89.9029 6.88979 90.757 7.21533C91.0749 7.33647 91.1813 7.49664 91.1395 7.79124C91.0935 8.11653 90.8611 8.26638 89.995 8.52939C85.3471 9.94067 83.3886 10.5749 83.3865 10.6694C83.3852 10.7301 84.0257 10.8238 84.81 10.8776C85.5942 10.9314 86.4093 11.0686 86.6212 11.1822C87.2534 11.5213 87.1036 12.0764 86.2803 12.4458L85.5542 12.7716L86.2871 13.1029C86.6903 13.2852 87.5265 13.6042 88.1453 13.812C89.0708 14.1227 89.2815 14.2685 89.3329 14.6334C89.3712 14.9051 89.2709 15.1682 89.0745 15.3122C88.6855 15.5973 88.7634 15.6946 89.4981 15.8419C89.9505 15.9325 90.1531 15.8633 90.5263 15.489C90.9025 15.112 90.9911 14.8484 90.9911 14.1072V13.1914H90.2795C88.9383 13.1914 88.9238 12.059 89.9112 11.5541C90.5916 11.2062 90.6349 11.1388 90.5313 10.5858C90.3897 9.82873 90.7549 9.48003 91.5144 9.64722C91.9589 9.74498 92.0903 9.69244 92.269 9.34559C92.6238 8.6567 93.2043 8.10864 93.5793 8.10864C93.7727 8.10864 94.2278 8.43426 94.5908 8.83223C95.2264 9.52915 95.2755 9.54888 95.9256 9.36898C96.9633 9.08179 97.4037 9.39087 97.2579 10.3043L97.1448 11.0131H97.8596C99.2719 11.0131 99.9729 11.6674 99.2261 12.2886C98.9834 12.4904 99.0288 12.5933 99.5883 13.1068C99.9402 13.4298 100.228 13.7793 100.228 13.8834C100.228 14.1317 99.3433 14.8251 99.0264 14.8251C98.7323 14.8251 98.7253 14.9113 98.9543 15.7117C99.2606 16.7819 98.6276 17.3235 97.6705 16.8101C97.3726 16.6504 97.247 16.6973 96.9448 17.0824C96.4796 17.6751 96.0065 17.674 95.5395 17.0781C95.0925 16.5086 94.8479 16.6239 94.6877 17.4797C94.5067 18.4461 95.0442 18.9157 96.2976 18.8864C97.2737 18.8637 98.959 18.2585 99.345 17.7922C99.4633 17.6494 99.6086 17.0318 99.6677 16.4198C99.7815 15.2421 100 14.9847 100.479 15.4645C100.64 15.6259 100.776 15.7316 100.781 15.6995C100.785 15.6673 101.012 14.7908 101.284 13.7516C102.034 10.8843 102.725 10.7342 102.924 13.3955L103.035 14.896L103.992 14.0433C104.519 13.5743 105.071 13.1905 105.221 13.1905C105.733 13.1905 105.738 13.7887 105.231 14.6978C104.958 15.1881 104.772 15.627 104.818 15.673C104.864 15.7191 105.373 15.6688 105.949 15.5629C107.36 15.3015 108.112 15.3187 108.36 15.6182C108.703 16.0325 108.386 16.4483 107.314 16.9917L106.296 17.5083L107.111 17.7256C108.35 18.0561 109.103 18.4628 109.103 18.8022C109.103 19.3733 108.699 19.544 107.346 19.544C106.619 19.544 106.024 19.586 106.024 19.6372C106.024 19.6885 106.118 19.8819 106.234 20.067C106.349 20.252 106.389 20.5469 106.321 20.722C106.225 20.9738 106.077 21.0149 105.614 20.9182C102.774 20.3259 100.953 20.9677 100.953 22.5603C100.953 23.6303 101.685 24.6213 103.797 26.4116C104.873 27.3227 106.975 29.2515 108.469 30.6977L111.186 33.3271L110.32 33.3336C109.843 33.3378 109.173 33.2225 108.831 33.0791C108.219 32.8231 108.236 32.8599 109.773 35.1213C111.497 37.6604 112.422 39.4567 112.331 40.0942C112.243 40.722 111.592 40.7111 110.657 40.0663L109.847 39.5077L110.851 41.6427C115.377 51.2711 119.721 66.0012 113.7 76.0456C112.873 77.4256 110.083 80.2288 107.91 81.8632C100.122 87.7213 83.1445 88.2018 66.5931 87.6633C47.2173 87.0328 28.7283 84.238 20.8089 78.1112Z" stroke="white" stroke-width="6.35983" mask="url(#path-1-outside-1_13379_8720)"/>
<path d="M64.9562 37.1102C67.937 37.1102 70.1521 37.6298 71.6015 38.6689C73.0509 39.6808 73.7755 41.2805 73.7755 43.4683C73.7755 44.6715 73.5294 45.7107 73.0372 46.5858C72.5723 47.4609 71.9843 48.2676 71.2733 49.006C70.5897 49.717 69.8786 50.4553 69.1403 51.221C68.4293 51.9594 67.8003 52.8208 67.2534 53.8053C66.7338 54.7624 66.4193 55.9383 66.3099 57.333H61.4285C61.3738 55.8837 61.5242 54.6257 61.8797 53.5592C62.2353 52.4653 62.7001 51.5082 63.2744 50.6878C63.8761 49.8674 64.4777 49.129 65.0793 48.4727C65.6809 47.789 66.1868 47.1464 66.597 46.5448C67.0346 45.9431 67.2807 45.3278 67.3354 44.6989C67.4174 43.7417 67.1577 43.0581 66.556 42.6479C65.9544 42.2103 64.9426 41.9915 63.5205 41.9915C62.1532 41.9915 61.0183 42.0052 60.1159 42.0326C59.2408 42.0326 58.4341 42.0599 57.6957 42.1146C56.9847 42.142 56.1643 42.1693 55.2345 42.1966L55.0294 38.1357C55.7951 37.9716 56.4925 37.8349 57.1214 37.7255C57.7777 37.6161 58.4477 37.5204 59.1314 37.4383C59.8424 37.3289 60.6491 37.2469 61.5516 37.1922C62.4814 37.1375 63.6163 37.1102 64.9562 37.1102ZM64.5871 60.0814C65.3801 60.0814 65.9271 60.2454 66.2279 60.5736C66.5287 60.8744 66.6791 61.4214 66.6791 62.2144V64.1834C66.6791 64.9764 66.5287 65.537 66.2279 65.8652C65.9271 66.166 65.3801 66.3164 64.5871 66.3164H63.1103C62.3173 66.3164 61.7704 66.166 61.4695 65.8652C61.1687 65.537 61.0183 64.9764 61.0183 64.1834V62.2144C61.0183 61.4214 61.1687 60.8744 61.4695 60.5736C61.7704 60.2454 62.3173 60.0814 63.1103 60.0814H64.5871Z" fill="white"/>
</svg>
