<svg width="328" height="140" viewBox="0 0 328 140" fill="none" xmlns="http://www.w3.org/2000/svg">
<circle cx="164" cy="50" r="50" fill="#E2DBC3"/>
<mask id="path-2-outside-1_0_597" maskUnits="userSpaceOnUse" x="125.445" y="26.7573" width="82" height="42" fill="black">
<rect fill="white" x="125.445" y="26.7573" width="82" height="42"/>
<path fill-rule="evenodd" clip-rule="evenodd" d="M145.346 29.7597C146.463 29.7133 147.783 30.3302 148 31.7154C148.051 32.0393 147.847 32.3686 147.51 32.4283C147.169 32.4889 146.869 32.2421 146.818 31.9151C146.736 31.3944 146.177 30.9701 145.394 31.0027C144.67 31.0328 143.986 31.4695 143.833 32.4246C143.781 32.7514 143.48 32.997 143.139 32.935C142.803 32.8738 142.6 32.5438 142.652 32.2201C142.916 30.5747 144.168 29.8087 145.346 29.7597ZM147.522 31.7901C147.357 30.7357 146.338 30.2023 145.367 30.2427C144.383 30.2836 143.351 30.9108 143.129 32.2966C143.115 32.3869 143.173 32.4499 143.226 32.4594C143.273 32.4681 143.342 32.4353 143.356 32.3481C143.55 31.1369 144.451 30.5581 145.374 30.5197C146.313 30.4807 147.164 30.9977 147.295 31.8404C147.309 31.9278 147.378 31.9609 147.425 31.9524C147.478 31.9431 147.537 31.8805 147.522 31.7901ZM166.277 45.5226C166.277 46.1409 166.183 46.7055 165.995 47.2162C165.82 47.7136 165.498 48.1437 165.027 48.5066C164.57 48.8561 163.932 49.1317 163.112 49.3333C162.305 49.5349 161.277 49.6357 160.027 49.6357C158.777 49.6357 157.742 49.5349 156.922 49.3333C156.102 49.1317 155.457 48.8561 154.986 48.5066C154.529 48.1437 154.207 47.7136 154.019 47.2162C153.844 46.7055 153.756 46.1409 153.756 45.5226V38.6473C153.756 38.029 153.844 37.4712 154.019 36.9739C154.207 36.4631 154.529 36.0262 154.986 35.6633C155.457 35.3004 156.102 35.0181 156.922 34.8165C157.742 34.6149 158.777 34.5141 160.027 34.5141C161.277 34.5141 162.305 34.6149 163.112 34.8165C163.932 35.0181 164.57 35.3004 165.027 35.6633C165.498 36.0262 165.82 36.4631 165.995 36.9739C166.183 37.4712 166.277 38.029 166.277 38.6473V45.5226ZM165.998 64.134C166.186 63.6232 166.28 63.0587 166.28 62.4404V55.5651C166.28 54.9468 166.186 54.3889 165.998 53.8916C165.823 53.3808 165.501 52.944 165.03 52.5811C164.573 52.2182 163.935 51.9359 163.115 51.7343C162.309 51.5326 161.28 51.4318 160.03 51.4318C158.78 51.4318 157.745 51.5326 156.925 51.7343C156.105 51.9359 155.46 52.2182 154.99 52.5811C154.533 52.944 154.21 53.3808 154.022 53.8916C153.847 54.3889 153.76 54.9468 153.76 55.5651V62.4404C153.76 63.0587 153.847 63.6232 154.022 64.134C154.21 64.6313 154.533 65.0615 154.99 65.4244C155.46 65.7738 156.105 66.0494 156.925 66.251C157.745 66.4526 158.78 66.5535 160.03 66.5535C161.28 66.5535 162.309 66.4526 163.115 66.251C163.935 66.0494 164.573 65.7738 165.03 65.4244C165.501 65.0615 165.823 64.6313 165.998 64.134ZM158.639 62.4C158.437 62.2119 158.337 61.9834 158.337 61.7145V56.2909C158.337 56.0355 158.437 55.8205 158.639 55.6457C158.841 55.4575 159.304 55.3634 160.03 55.3634C160.756 55.3634 161.22 55.4575 161.421 55.6457C161.623 55.8205 161.724 56.0355 161.724 56.2909V61.7145C161.724 61.9834 161.623 62.2119 161.421 62.4C161.22 62.5748 160.756 62.6622 160.03 62.6622C159.304 62.6622 158.841 62.5748 158.639 62.4ZM174.596 66.2509H171.329C171.074 66.2509 170.886 66.1971 170.765 66.0896C170.657 65.9686 170.604 65.7804 170.604 65.5251V55.6254H167.64C167.384 55.6254 167.196 55.5717 167.075 55.4641C166.968 55.3432 166.914 55.155 166.914 54.8996V52.46C166.914 52.2046 166.968 52.0231 167.075 51.9156C167.196 51.7946 167.384 51.7341 167.64 51.7341H178.285C178.541 51.7341 178.722 51.7946 178.83 51.9156C178.951 52.0231 179.011 52.2046 179.011 52.46V54.8996C179.011 55.155 178.951 55.3432 178.83 55.4641C178.722 55.5717 178.541 55.6254 178.285 55.6254H175.322V65.5251C175.322 65.7804 175.261 65.9686 175.14 66.0896C175.033 66.1971 174.851 66.2509 174.596 66.2509ZM180.692 66.2509H183.817C184.072 66.2509 184.254 66.1971 184.361 66.0896C184.482 65.9686 184.543 65.7804 184.543 65.5251V61.0491H187.91V65.5251C187.91 65.7804 187.964 65.9686 188.071 66.0896C188.192 66.1971 188.38 66.2509 188.636 66.2509H191.761C192.016 66.2509 192.198 66.1971 192.305 66.0896C192.426 65.9686 192.487 65.7804 192.487 65.5251V52.46C192.487 52.2046 192.426 52.0231 192.305 51.9156C192.198 51.7946 192.016 51.7341 191.761 51.7341H188.636C188.38 51.7341 188.192 51.7946 188.071 51.9156C187.964 52.0231 187.91 52.2046 187.91 52.46V56.8352H184.543V52.46C184.543 52.2046 184.482 52.0231 184.361 51.9156C184.254 51.7946 184.072 51.7341 183.817 51.7341H180.692C180.437 51.7341 180.248 51.7946 180.127 51.9156C180.02 52.0231 179.966 52.2046 179.966 52.46V65.5251C179.966 65.7804 180.02 65.9686 180.127 66.0896C180.248 66.1971 180.437 66.2509 180.692 66.2509ZM194.617 66.2509H200.988C202.279 66.2509 203.294 65.9485 204.033 65.3436C204.786 64.7253 205.162 63.8449 205.162 62.7024V60.5853C205.162 59.4563 204.873 58.6498 204.295 58.1659C203.717 57.682 202.958 57.3728 202.017 57.2384L199.012 56.8352C198.838 56.8217 198.703 56.7545 198.609 56.6335C198.515 56.5126 198.468 56.3647 198.468 56.19C198.468 56.0152 198.515 55.8741 198.609 55.7666C198.703 55.6456 198.838 55.5851 199.012 55.5851H203.71C203.966 55.5851 204.147 55.5314 204.255 55.4238C204.376 55.3028 204.436 55.1147 204.436 54.8593V52.46C204.436 52.2046 204.376 52.0231 204.255 51.9156C204.147 51.7946 203.966 51.7341 203.71 51.7341H198.065C196.761 51.7341 195.739 52.0433 195 52.6616C194.261 53.2665 193.891 54.1402 193.891 55.2827V57.3997C193.891 58.5288 194.174 59.3353 194.738 59.8192C195.316 60.3031 196.076 60.6122 197.016 60.7466L200.041 61.17C200.215 61.1835 200.343 61.244 200.424 61.3515C200.518 61.459 200.565 61.627 200.565 61.8556C200.565 62.0168 200.518 62.158 200.424 62.279C200.343 62.3865 200.215 62.4403 200.041 62.4403H194.617C194.362 62.4403 194.174 62.5007 194.053 62.6217C193.945 62.7292 193.891 62.9107 193.891 63.1661V65.5251C193.891 65.7804 193.945 65.9686 194.053 66.0896C194.174 66.1971 194.362 66.2509 194.617 66.2509ZM152.067 66.2509H141.639C141.384 66.2509 141.195 66.1971 141.074 66.0896C140.967 65.9686 140.913 65.7804 140.913 65.5251V52.46C140.913 52.2046 140.967 52.0231 141.074 51.9156C141.195 51.7946 141.384 51.7341 141.639 51.7341H144.764C145.019 51.7341 145.201 51.7946 145.308 51.9156C145.429 52.0231 145.49 52.2046 145.49 52.46V62.4403H152.067C152.323 62.4403 152.504 62.5007 152.612 62.6217C152.733 62.7292 152.793 62.9107 152.793 63.1661V65.5251C152.793 65.7804 152.733 65.9686 152.612 66.0896C152.504 66.1971 152.323 66.2509 152.067 66.2509ZM129.171 66.2509H135.542C136.833 66.2509 137.847 65.9485 138.587 65.3436C139.339 64.7253 139.716 63.8449 139.716 62.7024V60.5853C139.716 59.4563 139.427 58.6498 138.849 58.1659C138.271 57.682 137.511 57.3728 136.571 57.2384L133.566 56.8352C133.392 56.8217 133.257 56.7545 133.163 56.6335C133.069 56.5126 133.022 56.3647 133.022 56.19C133.022 56.0152 133.069 55.8741 133.163 55.7666C133.257 55.6456 133.392 55.5851 133.566 55.5851H138.264C138.52 55.5851 138.701 55.5314 138.809 55.4238C138.929 55.3028 138.99 55.1147 138.99 54.8593V52.46C138.99 52.2046 138.929 52.0231 138.809 51.9156C138.701 51.7946 138.52 51.7341 138.264 51.7341H132.619C131.315 51.7341 130.293 52.0433 129.554 52.6616C128.815 53.2665 128.445 54.1402 128.445 55.2827V57.3997C128.445 58.5288 128.727 59.3353 129.292 59.8192C129.87 60.3031 130.629 60.6122 131.57 60.7466L134.595 61.17C134.769 61.1835 134.897 61.244 134.978 61.3515C135.072 61.459 135.119 61.627 135.119 61.8556C135.119 62.0168 135.072 62.158 134.978 62.279C134.897 62.3865 134.769 62.4403 134.595 62.4403H129.171C128.916 62.4403 128.727 62.5007 128.607 62.6217C128.499 62.7292 128.445 62.9107 128.445 63.1661V65.5251C128.445 65.7804 128.499 65.9686 128.607 66.0896C128.727 66.1971 128.916 66.2509 129.171 66.2509ZM152.379 47.2162C152.567 46.7055 152.661 46.1409 152.661 45.5226V38.6473C152.661 38.029 152.567 37.4712 152.379 36.9739C152.204 36.4631 151.881 36.0262 151.411 35.6633C150.954 35.3004 150.316 35.0181 149.496 34.8165C148.689 34.6149 147.661 34.5141 146.411 34.5141C145.161 34.5141 144.126 34.6149 143.306 34.8165C142.486 35.0181 141.841 35.3004 141.37 35.6633C140.913 36.0262 140.591 36.4631 140.402 36.9739C140.228 37.4712 140.14 38.029 140.14 38.6473V45.5226C140.14 46.1409 140.228 46.7055 140.402 47.2162C140.591 47.7136 140.913 48.1437 141.37 48.5066C141.841 48.8561 142.486 49.1317 143.306 49.3333C144.126 49.5349 145.161 49.6357 146.411 49.6357C147.661 49.6357 148.689 49.5349 149.496 49.3333C150.316 49.1317 150.954 48.8561 151.411 48.5066C151.881 48.1437 152.204 47.7136 152.379 47.2162ZM161.533 31.7154C161.316 30.3302 159.995 29.7133 158.879 29.7597C157.701 29.8087 156.449 30.5747 156.185 32.2201C156.133 32.5438 156.336 32.8738 156.672 32.935C157.013 32.997 157.314 32.7514 157.366 32.4246C157.519 31.4695 158.203 31.0328 158.927 31.0027C159.71 30.9701 160.269 31.3944 160.351 31.9151C160.402 32.2421 160.701 32.4889 161.043 32.4283C161.38 32.3686 161.584 32.0393 161.533 31.7154ZM158.899 30.2427C159.871 30.2023 160.89 30.7357 161.055 31.7901C161.069 31.8805 161.011 31.9431 160.958 31.9524C160.911 31.9609 160.842 31.9278 160.828 31.8404C160.696 30.9977 159.846 30.4807 158.907 30.5197C157.984 30.5581 157.083 31.1369 156.889 32.3481C156.875 32.4353 156.806 32.4681 156.759 32.4594C156.706 32.4499 156.648 32.3869 156.662 32.2966C156.884 30.9108 157.916 30.2836 158.899 30.2427ZM138.466 49.3332H133.546C131.866 49.3332 130.616 48.9971 129.796 48.325C128.989 47.653 128.586 46.618 128.586 45.2201V38.9496C128.586 37.5517 128.989 36.5167 129.796 35.8447C130.616 35.1592 131.866 34.8164 133.546 34.8164H138.466C138.721 34.8164 138.902 34.8769 139.01 34.9979C139.131 35.1054 139.191 35.2868 139.191 35.5422V37.9819C139.191 38.2372 139.131 38.4254 139.01 38.5464C138.902 38.6539 138.721 38.7077 138.466 38.7077H134.413C133.996 38.7077 133.687 38.7951 133.486 38.9698C133.284 39.1311 133.183 39.3798 133.183 39.7158V44.5144C133.183 44.8504 133.284 45.0991 133.486 45.2604C133.687 45.4083 133.996 45.4822 134.413 45.4822H138.466C138.721 45.4822 138.902 45.5427 139.01 45.6636C139.131 45.7712 139.191 45.9526 139.191 46.208V48.6073C139.191 48.8627 139.131 49.0509 139.01 49.1719C138.902 49.2794 138.721 49.3332 138.466 49.3332ZM168.261 49.3493H178.69C178.945 49.3493 179.127 49.2955 179.234 49.188C179.355 49.067 179.416 48.8788 179.416 48.6235L179.445 44.3923C179.445 44.1369 179.355 43.9554 179.234 43.8479C179.127 43.7269 178.945 43.6664 178.69 43.6664C178.368 43.6664 178.04 43.6673 177.712 43.6682C177.056 43.6699 176.399 43.6716 175.789 43.6664C175.006 43.6664 175.006 44.0986 175.006 44.327V45.5386H172.112V35.5584C172.112 35.303 172.052 35.1215 171.931 35.014C171.823 34.893 171.642 34.8325 171.387 34.8325H168.261C168.006 34.8325 167.818 34.893 167.697 35.014C167.589 35.1215 167.536 35.303 167.536 35.5584V48.6235C167.536 48.8788 167.589 49.067 167.697 49.188C167.818 49.2955 168.006 49.3493 168.261 49.3493Z"/>
</mask>
<path fill-rule="evenodd" clip-rule="evenodd" d="M145.346 29.7597C146.463 29.7133 147.783 30.3302 148 31.7154C148.051 32.0393 147.847 32.3686 147.51 32.4283C147.169 32.4889 146.869 32.2421 146.818 31.9151C146.736 31.3944 146.177 30.9701 145.394 31.0027C144.67 31.0328 143.986 31.4695 143.833 32.4246C143.781 32.7514 143.48 32.997 143.139 32.935C142.803 32.8738 142.6 32.5438 142.652 32.2201C142.916 30.5747 144.168 29.8087 145.346 29.7597ZM147.522 31.7901C147.357 30.7357 146.338 30.2023 145.367 30.2427C144.383 30.2836 143.351 30.9108 143.129 32.2966C143.115 32.3869 143.173 32.4499 143.226 32.4594C143.273 32.4681 143.342 32.4353 143.356 32.3481C143.55 31.1369 144.451 30.5581 145.374 30.5197C146.313 30.4807 147.164 30.9977 147.295 31.8404C147.309 31.9278 147.378 31.9609 147.425 31.9524C147.478 31.9431 147.537 31.8805 147.522 31.7901ZM166.277 45.5226C166.277 46.1409 166.183 46.7055 165.995 47.2162C165.82 47.7136 165.498 48.1437 165.027 48.5066C164.57 48.8561 163.932 49.1317 163.112 49.3333C162.305 49.5349 161.277 49.6357 160.027 49.6357C158.777 49.6357 157.742 49.5349 156.922 49.3333C156.102 49.1317 155.457 48.8561 154.986 48.5066C154.529 48.1437 154.207 47.7136 154.019 47.2162C153.844 46.7055 153.756 46.1409 153.756 45.5226V38.6473C153.756 38.029 153.844 37.4712 154.019 36.9739C154.207 36.4631 154.529 36.0262 154.986 35.6633C155.457 35.3004 156.102 35.0181 156.922 34.8165C157.742 34.6149 158.777 34.5141 160.027 34.5141C161.277 34.5141 162.305 34.6149 163.112 34.8165C163.932 35.0181 164.57 35.3004 165.027 35.6633C165.498 36.0262 165.82 36.4631 165.995 36.9739C166.183 37.4712 166.277 38.029 166.277 38.6473V45.5226ZM165.998 64.134C166.186 63.6232 166.28 63.0587 166.28 62.4404V55.5651C166.28 54.9468 166.186 54.3889 165.998 53.8916C165.823 53.3808 165.501 52.944 165.03 52.5811C164.573 52.2182 163.935 51.9359 163.115 51.7343C162.309 51.5326 161.28 51.4318 160.03 51.4318C158.78 51.4318 157.745 51.5326 156.925 51.7343C156.105 51.9359 155.46 52.2182 154.99 52.5811C154.533 52.944 154.21 53.3808 154.022 53.8916C153.847 54.3889 153.76 54.9468 153.76 55.5651V62.4404C153.76 63.0587 153.847 63.6232 154.022 64.134C154.21 64.6313 154.533 65.0615 154.99 65.4244C155.46 65.7738 156.105 66.0494 156.925 66.251C157.745 66.4526 158.78 66.5535 160.03 66.5535C161.28 66.5535 162.309 66.4526 163.115 66.251C163.935 66.0494 164.573 65.7738 165.03 65.4244C165.501 65.0615 165.823 64.6313 165.998 64.134ZM158.639 62.4C158.437 62.2119 158.337 61.9834 158.337 61.7145V56.2909C158.337 56.0355 158.437 55.8205 158.639 55.6457C158.841 55.4575 159.304 55.3634 160.03 55.3634C160.756 55.3634 161.22 55.4575 161.421 55.6457C161.623 55.8205 161.724 56.0355 161.724 56.2909V61.7145C161.724 61.9834 161.623 62.2119 161.421 62.4C161.22 62.5748 160.756 62.6622 160.03 62.6622C159.304 62.6622 158.841 62.5748 158.639 62.4ZM174.596 66.2509H171.329C171.074 66.2509 170.886 66.1971 170.765 66.0896C170.657 65.9686 170.604 65.7804 170.604 65.5251V55.6254H167.64C167.384 55.6254 167.196 55.5717 167.075 55.4641C166.968 55.3432 166.914 55.155 166.914 54.8996V52.46C166.914 52.2046 166.968 52.0231 167.075 51.9156C167.196 51.7946 167.384 51.7341 167.64 51.7341H178.285C178.541 51.7341 178.722 51.7946 178.83 51.9156C178.951 52.0231 179.011 52.2046 179.011 52.46V54.8996C179.011 55.155 178.951 55.3432 178.83 55.4641C178.722 55.5717 178.541 55.6254 178.285 55.6254H175.322V65.5251C175.322 65.7804 175.261 65.9686 175.14 66.0896C175.033 66.1971 174.851 66.2509 174.596 66.2509ZM180.692 66.2509H183.817C184.072 66.2509 184.254 66.1971 184.361 66.0896C184.482 65.9686 184.543 65.7804 184.543 65.5251V61.0491H187.91V65.5251C187.91 65.7804 187.964 65.9686 188.071 66.0896C188.192 66.1971 188.38 66.2509 188.636 66.2509H191.761C192.016 66.2509 192.198 66.1971 192.305 66.0896C192.426 65.9686 192.487 65.7804 192.487 65.5251V52.46C192.487 52.2046 192.426 52.0231 192.305 51.9156C192.198 51.7946 192.016 51.7341 191.761 51.7341H188.636C188.38 51.7341 188.192 51.7946 188.071 51.9156C187.964 52.0231 187.91 52.2046 187.91 52.46V56.8352H184.543V52.46C184.543 52.2046 184.482 52.0231 184.361 51.9156C184.254 51.7946 184.072 51.7341 183.817 51.7341H180.692C180.437 51.7341 180.248 51.7946 180.127 51.9156C180.02 52.0231 179.966 52.2046 179.966 52.46V65.5251C179.966 65.7804 180.02 65.9686 180.127 66.0896C180.248 66.1971 180.437 66.2509 180.692 66.2509ZM194.617 66.2509H200.988C202.279 66.2509 203.294 65.9485 204.033 65.3436C204.786 64.7253 205.162 63.8449 205.162 62.7024V60.5853C205.162 59.4563 204.873 58.6498 204.295 58.1659C203.717 57.682 202.958 57.3728 202.017 57.2384L199.012 56.8352C198.838 56.8217 198.703 56.7545 198.609 56.6335C198.515 56.5126 198.468 56.3647 198.468 56.19C198.468 56.0152 198.515 55.8741 198.609 55.7666C198.703 55.6456 198.838 55.5851 199.012 55.5851H203.71C203.966 55.5851 204.147 55.5314 204.255 55.4238C204.376 55.3028 204.436 55.1147 204.436 54.8593V52.46C204.436 52.2046 204.376 52.0231 204.255 51.9156C204.147 51.7946 203.966 51.7341 203.71 51.7341H198.065C196.761 51.7341 195.739 52.0433 195 52.6616C194.261 53.2665 193.891 54.1402 193.891 55.2827V57.3997C193.891 58.5288 194.174 59.3353 194.738 59.8192C195.316 60.3031 196.076 60.6122 197.016 60.7466L200.041 61.17C200.215 61.1835 200.343 61.244 200.424 61.3515C200.518 61.459 200.565 61.627 200.565 61.8556C200.565 62.0168 200.518 62.158 200.424 62.279C200.343 62.3865 200.215 62.4403 200.041 62.4403H194.617C194.362 62.4403 194.174 62.5007 194.053 62.6217C193.945 62.7292 193.891 62.9107 193.891 63.1661V65.5251C193.891 65.7804 193.945 65.9686 194.053 66.0896C194.174 66.1971 194.362 66.2509 194.617 66.2509ZM152.067 66.2509H141.639C141.384 66.2509 141.195 66.1971 141.074 66.0896C140.967 65.9686 140.913 65.7804 140.913 65.5251V52.46C140.913 52.2046 140.967 52.0231 141.074 51.9156C141.195 51.7946 141.384 51.7341 141.639 51.7341H144.764C145.019 51.7341 145.201 51.7946 145.308 51.9156C145.429 52.0231 145.49 52.2046 145.49 52.46V62.4403H152.067C152.323 62.4403 152.504 62.5007 152.612 62.6217C152.733 62.7292 152.793 62.9107 152.793 63.1661V65.5251C152.793 65.7804 152.733 65.9686 152.612 66.0896C152.504 66.1971 152.323 66.2509 152.067 66.2509ZM129.171 66.2509H135.542C136.833 66.2509 137.847 65.9485 138.587 65.3436C139.339 64.7253 139.716 63.8449 139.716 62.7024V60.5853C139.716 59.4563 139.427 58.6498 138.849 58.1659C138.271 57.682 137.511 57.3728 136.571 57.2384L133.566 56.8352C133.392 56.8217 133.257 56.7545 133.163 56.6335C133.069 56.5126 133.022 56.3647 133.022 56.19C133.022 56.0152 133.069 55.8741 133.163 55.7666C133.257 55.6456 133.392 55.5851 133.566 55.5851H138.264C138.52 55.5851 138.701 55.5314 138.809 55.4238C138.929 55.3028 138.99 55.1147 138.99 54.8593V52.46C138.99 52.2046 138.929 52.0231 138.809 51.9156C138.701 51.7946 138.52 51.7341 138.264 51.7341H132.619C131.315 51.7341 130.293 52.0433 129.554 52.6616C128.815 53.2665 128.445 54.1402 128.445 55.2827V57.3997C128.445 58.5288 128.727 59.3353 129.292 59.8192C129.87 60.3031 130.629 60.6122 131.57 60.7466L134.595 61.17C134.769 61.1835 134.897 61.244 134.978 61.3515C135.072 61.459 135.119 61.627 135.119 61.8556C135.119 62.0168 135.072 62.158 134.978 62.279C134.897 62.3865 134.769 62.4403 134.595 62.4403H129.171C128.916 62.4403 128.727 62.5007 128.607 62.6217C128.499 62.7292 128.445 62.9107 128.445 63.1661V65.5251C128.445 65.7804 128.499 65.9686 128.607 66.0896C128.727 66.1971 128.916 66.2509 129.171 66.2509ZM152.379 47.2162C152.567 46.7055 152.661 46.1409 152.661 45.5226V38.6473C152.661 38.029 152.567 37.4712 152.379 36.9739C152.204 36.4631 151.881 36.0262 151.411 35.6633C150.954 35.3004 150.316 35.0181 149.496 34.8165C148.689 34.6149 147.661 34.5141 146.411 34.5141C145.161 34.5141 144.126 34.6149 143.306 34.8165C142.486 35.0181 141.841 35.3004 141.37 35.6633C140.913 36.0262 140.591 36.4631 140.402 36.9739C140.228 37.4712 140.14 38.029 140.14 38.6473V45.5226C140.14 46.1409 140.228 46.7055 140.402 47.2162C140.591 47.7136 140.913 48.1437 141.37 48.5066C141.841 48.8561 142.486 49.1317 143.306 49.3333C144.126 49.5349 145.161 49.6357 146.411 49.6357C147.661 49.6357 148.689 49.5349 149.496 49.3333C150.316 49.1317 150.954 48.8561 151.411 48.5066C151.881 48.1437 152.204 47.7136 152.379 47.2162ZM161.533 31.7154C161.316 30.3302 159.995 29.7133 158.879 29.7597C157.701 29.8087 156.449 30.5747 156.185 32.2201C156.133 32.5438 156.336 32.8738 156.672 32.935C157.013 32.997 157.314 32.7514 157.366 32.4246C157.519 31.4695 158.203 31.0328 158.927 31.0027C159.71 30.9701 160.269 31.3944 160.351 31.9151C160.402 32.2421 160.701 32.4889 161.043 32.4283C161.38 32.3686 161.584 32.0393 161.533 31.7154ZM158.899 30.2427C159.871 30.2023 160.89 30.7357 161.055 31.7901C161.069 31.8805 161.011 31.9431 160.958 31.9524C160.911 31.9609 160.842 31.9278 160.828 31.8404C160.696 30.9977 159.846 30.4807 158.907 30.5197C157.984 30.5581 157.083 31.1369 156.889 32.3481C156.875 32.4353 156.806 32.4681 156.759 32.4594C156.706 32.4499 156.648 32.3869 156.662 32.2966C156.884 30.9108 157.916 30.2836 158.899 30.2427ZM138.466 49.3332H133.546C131.866 49.3332 130.616 48.9971 129.796 48.325C128.989 47.653 128.586 46.618 128.586 45.2201V38.9496C128.586 37.5517 128.989 36.5167 129.796 35.8447C130.616 35.1592 131.866 34.8164 133.546 34.8164H138.466C138.721 34.8164 138.902 34.8769 139.01 34.9979C139.131 35.1054 139.191 35.2868 139.191 35.5422V37.9819C139.191 38.2372 139.131 38.4254 139.01 38.5464C138.902 38.6539 138.721 38.7077 138.466 38.7077H134.413C133.996 38.7077 133.687 38.7951 133.486 38.9698C133.284 39.1311 133.183 39.3798 133.183 39.7158V44.5144C133.183 44.8504 133.284 45.0991 133.486 45.2604C133.687 45.4083 133.996 45.4822 134.413 45.4822H138.466C138.721 45.4822 138.902 45.5427 139.01 45.6636C139.131 45.7712 139.191 45.9526 139.191 46.208V48.6073C139.191 48.8627 139.131 49.0509 139.01 49.1719C138.902 49.2794 138.721 49.3332 138.466 49.3332ZM168.261 49.3493H178.69C178.945 49.3493 179.127 49.2955 179.234 49.188C179.355 49.067 179.416 48.8788 179.416 48.6235L179.445 44.3923C179.445 44.1369 179.355 43.9554 179.234 43.8479C179.127 43.7269 178.945 43.6664 178.69 43.6664C178.368 43.6664 178.04 43.6673 177.712 43.6682C177.056 43.6699 176.399 43.6716 175.789 43.6664C175.006 43.6664 175.006 44.0986 175.006 44.327V45.5386H172.112V35.5584C172.112 35.303 172.052 35.1215 171.931 35.014C171.823 34.893 171.642 34.8325 171.387 34.8325H168.261C168.006 34.8325 167.818 34.893 167.697 35.014C167.589 35.1215 167.536 35.303 167.536 35.5584V48.6235C167.536 48.8788 167.589 49.067 167.697 49.188C167.818 49.2955 168.006 49.3493 168.261 49.3493Z" fill="#1E1E1E"/>
<path d="M173.915 44.327V45.5386H176.097V44.327H173.915ZM148 31.7154L145.845 32.0526L145.845 32.0526L148 31.7154ZM145.346 29.7597L145.437 31.9391L145.346 29.7597ZM147.51 32.4283L147.891 34.576L147.51 32.4283ZM146.818 31.9151L148.973 31.5779L148.973 31.5779L146.818 31.9151ZM145.394 31.0027L145.485 33.1821L145.394 31.0027ZM143.833 32.4246L141.679 32.0793V32.0793L143.833 32.4246ZM143.139 32.935L142.749 35.081H142.749L143.139 32.935ZM142.652 32.2201L140.498 31.8748L140.498 31.8748L142.652 32.2201ZM145.367 30.2427L145.276 28.0633L145.367 30.2427ZM147.522 31.7901L149.678 31.4528L149.677 31.4528L147.522 31.7901ZM143.129 32.2966L145.283 32.6419V32.6419L143.129 32.2966ZM143.226 32.4594L142.835 34.6055L143.226 32.4594ZM143.356 32.3481L145.51 32.6934L145.51 32.6934L143.356 32.3481ZM145.374 30.5197L145.284 28.3404L145.374 30.5197ZM147.295 31.8404L145.14 32.1777L145.14 32.1777L147.295 31.8404ZM147.425 31.9524L147.044 29.8047L147.044 29.8047L147.425 31.9524ZM165.995 47.2162L163.948 46.4622L163.942 46.4776L163.937 46.4932L165.995 47.2162ZM165.027 48.5066L166.352 50.2393L166.359 50.2337L165.027 48.5066ZM163.112 49.3333L162.591 47.2151L162.583 47.2171L163.112 49.3333ZM156.922 49.3333L157.443 47.2151H157.443L156.922 49.3333ZM154.986 48.5066L153.63 50.2148L153.657 50.2366L153.686 50.2576L154.986 48.5066ZM154.019 47.2162L151.955 47.9223L151.966 47.9554L151.978 47.9882L154.019 47.2162ZM154.019 36.9739L151.972 36.2198L151.966 36.2353L151.961 36.2508L154.019 36.9739ZM154.986 35.6633L153.654 33.9362L153.642 33.9456L153.63 33.9552L154.986 35.6633ZM156.922 34.8165L156.401 32.6984L156.401 32.6984L156.922 34.8165ZM163.112 34.8165L162.583 36.9327L162.591 36.9347L163.112 34.8165ZM165.027 35.6633L163.671 37.3715L163.683 37.381L163.695 37.3904L165.027 35.6633ZM165.995 36.9739L163.931 37.6799L163.942 37.713L163.955 37.7458L165.995 36.9739ZM165.998 64.134L163.951 63.3799L163.946 63.3954L163.94 63.4109L165.998 64.134ZM165.998 53.8916L163.934 54.5977L163.946 54.6308L163.958 54.6635L165.998 53.8916ZM165.03 52.5811L163.674 54.2892L163.686 54.2988L163.698 54.3081L165.03 52.5811ZM163.115 51.7343L162.586 53.8504L162.594 53.8524L163.115 51.7343ZM156.925 51.7343L156.404 49.6161L156.404 49.6161L156.925 51.7343ZM154.99 52.5811L153.657 50.854L153.645 50.8634L153.633 50.8729L154.99 52.5811ZM154.022 53.8916L151.975 53.1375L151.969 53.153L151.964 53.1686L154.022 53.8916ZM154.022 64.134L151.958 64.84L151.969 64.8732L151.982 64.9059L154.022 64.134ZM154.99 65.4244L153.633 67.1325L153.661 67.1544L153.689 67.1754L154.99 65.4244ZM163.115 66.251L162.594 64.1329L162.586 64.1349L163.115 66.251ZM165.03 65.4244L166.355 67.1571L166.363 67.1514L165.03 65.4244ZM158.639 62.4L157.151 63.9947L157.18 64.0221L157.21 64.0484L158.639 62.4ZM158.639 55.6457L160.068 57.2941L160.098 57.2678L160.127 57.2403L158.639 55.6457ZM161.421 55.6457L159.933 57.2403L159.962 57.2677L159.993 57.2941L161.421 55.6457ZM161.421 62.4L162.85 64.0484L162.88 64.0221L162.91 63.9947L161.421 62.4ZM170.765 66.0896L169.135 67.5387L169.22 67.6346L169.316 67.7199L170.765 66.0896ZM170.604 55.6254H172.785V53.4442H170.604V55.6254ZM167.075 55.4641L165.445 56.9133L165.53 57.0092L165.626 57.0944L167.075 55.4641ZM167.075 51.9156L165.533 50.3732V50.3732L167.075 51.9156ZM178.83 51.9156L177.199 53.3648L177.285 53.4606L177.381 53.5459L178.83 51.9156ZM178.83 55.4641L180.372 57.0065L180.372 57.0065L178.83 55.4641ZM175.322 55.6254V53.4442H173.14V55.6254H175.322ZM175.14 66.0896L173.598 64.5472L173.598 64.5473L175.14 66.0896ZM184.543 61.0491V58.8678H182.362V61.0491H184.543ZM187.91 61.0491H190.091V58.8678H187.91V61.0491ZM188.071 66.0896L186.441 67.5387L186.526 67.6346L186.622 67.7199L188.071 66.0896ZM192.305 51.9156L190.675 53.3648L190.76 53.4606L190.856 53.5459L192.305 51.9156ZM188.071 51.9156L186.529 50.3732L186.529 50.3732L188.071 51.9156ZM187.91 56.8352V59.0164H190.091V56.8352H187.91ZM184.543 56.8352H182.362V59.0164H184.543V56.8352ZM184.361 51.9156L182.731 53.3648L182.816 53.4606L182.912 53.5459L184.361 51.9156ZM180.127 51.9156L178.585 50.3732V50.3732L180.127 51.9156ZM180.127 66.0896L178.497 67.5387L178.582 67.6346L178.678 67.7199L180.127 66.0896ZM204.033 65.3436L205.414 67.0318L205.417 67.0291L204.033 65.3436ZM202.017 57.2384L202.325 55.0791L202.316 55.0778L202.307 55.0765L202.017 57.2384ZM199.012 56.8352L199.303 54.6733L199.241 54.6651L199.18 54.6603L199.012 56.8352ZM198.609 56.6335L200.331 55.2944L200.331 55.2944L198.609 56.6335ZM198.609 55.7666L200.251 57.203L200.292 57.1555L200.331 57.1057L198.609 55.7666ZM204.255 55.4238L202.712 53.8814L202.712 53.8815L204.255 55.4238ZM204.255 51.9156L202.624 53.3647L202.71 53.4606L202.805 53.5459L204.255 51.9156ZM195 52.6616L196.381 54.3498L196.391 54.3423L196.4 54.3348L195 52.6616ZM194.738 59.8192L193.319 61.4753L193.328 61.4835L193.338 61.4917L194.738 59.8192ZM197.016 60.7466L196.708 62.906L196.714 62.9068L197.016 60.7466ZM200.041 61.17L199.738 63.3302L199.806 63.3397L199.873 63.3449L200.041 61.17ZM200.424 61.3515L198.679 62.6603L198.728 62.726L198.782 62.7878L200.424 61.3515ZM200.424 62.279L198.702 60.9399L198.69 60.9549L198.679 60.9702L200.424 62.279ZM194.053 62.6217L192.51 61.0793L192.51 61.0794L194.053 62.6217ZM194.053 66.0896L192.422 67.5387L192.508 67.6346L192.603 67.7199L194.053 66.0896ZM141.074 66.0896L139.444 67.5388L139.529 67.6346L139.625 67.7199L141.074 66.0896ZM141.074 51.9156L142.617 53.458L142.617 53.458L141.074 51.9156ZM145.308 51.9156L143.678 53.3647L143.763 53.4606L143.859 53.5459L145.308 51.9156ZM145.49 62.4403H143.309V64.6215H145.49V62.4403ZM152.612 62.6217L150.981 64.0708L151.067 64.1667L151.163 64.252L152.612 62.6217ZM152.612 66.0896L151.069 64.5472L151.069 64.5472L152.612 66.0896ZM138.587 65.3436L139.968 67.0318L139.971 67.0291L138.587 65.3436ZM136.571 57.2384L136.879 55.0791L136.87 55.0778L136.861 55.0765L136.571 57.2384ZM133.566 56.8352L133.857 54.6733L133.795 54.6651L133.734 54.6603L133.566 56.8352ZM133.163 56.6335L131.441 57.9727L131.441 57.9727L133.163 56.6335ZM133.163 55.7666L134.805 57.2029L134.846 57.1555L134.885 57.1057L133.163 55.7666ZM138.809 55.4238L137.266 53.8814L137.266 53.8815L138.809 55.4238ZM138.809 51.9156L137.178 53.3647L137.263 53.4606L137.359 53.5459L138.809 51.9156ZM129.554 52.6616L130.935 54.3498L130.944 54.3423L130.954 54.3348L129.554 52.6616ZM129.292 59.8192L127.872 61.4753L127.882 61.4835L127.892 61.4917L129.292 59.8192ZM131.57 60.7466L131.262 62.906L131.268 62.9068L131.57 60.7466ZM134.595 61.17L134.292 63.3302L134.36 63.3397L134.427 63.3449L134.595 61.17ZM134.978 61.3515L133.233 62.6603L133.282 62.726L133.336 62.7878L134.978 61.3515ZM134.978 62.279L133.256 60.9398L133.244 60.9549L133.233 60.9702L134.978 62.279ZM128.607 62.6217L127.064 61.0793L127.064 61.0793L128.607 62.6217ZM128.607 66.0896L126.976 67.5388L127.061 67.6346L127.157 67.7199L128.607 66.0896ZM152.379 47.2162L150.332 46.4622L150.326 46.4776L150.321 46.4932L152.379 47.2162ZM152.379 36.9739L150.315 37.6799L150.326 37.713L150.339 37.7458L152.379 36.9739ZM151.411 35.6633L150.055 37.3715L150.067 37.381L150.079 37.3904L151.411 35.6633ZM149.496 34.8165L148.967 36.9327L148.975 36.9347L149.496 34.8165ZM143.306 34.8165L142.785 32.6984L142.785 32.6984L143.306 34.8165ZM141.37 35.6633L140.038 33.9363L140.026 33.9456L140.014 33.9552L141.37 35.6633ZM140.402 36.9739L138.356 36.2198L138.35 36.2353L138.345 36.2508L140.402 36.9739ZM140.402 47.2162L138.339 47.9223L138.35 47.9554L138.362 47.9882L140.402 47.2162ZM141.37 48.5066L140.014 50.2148L140.041 50.2366L140.07 50.2576L141.37 48.5066ZM143.306 49.3333L143.827 47.2151L143.827 47.2151L143.306 49.3333ZM149.496 49.3333L148.975 47.2151L148.967 47.2171L149.496 49.3333ZM151.411 48.5066L152.736 50.2393L152.743 50.2337L151.411 48.5066ZM158.879 29.7597L158.97 31.9391L158.879 29.7597ZM161.533 31.7154L163.688 31.3781V31.3781L161.533 31.7154ZM156.185 32.2201L158.338 32.5654L158.338 32.5654L156.185 32.2201ZM156.672 32.935L156.282 35.081L156.282 35.081L156.672 32.935ZM157.366 32.4246L155.212 32.0793L155.212 32.0793L157.366 32.4246ZM158.927 31.0027L159.018 33.1821L158.927 31.0027ZM160.351 31.9151L162.506 31.5779L162.506 31.5779L160.351 31.9151ZM161.043 32.4283L161.424 34.576L161.424 34.576L161.043 32.4283ZM161.055 31.7901L158.9 32.1274L158.9 32.1274L161.055 31.7901ZM158.899 30.2427L158.809 28.0633L158.899 30.2427ZM160.958 31.9524L161.339 34.1001L161.339 34.1001L160.958 31.9524ZM160.828 31.8404L158.673 32.1777L158.673 32.1777L160.828 31.8404ZM158.907 30.5197L158.816 28.3404L158.907 30.5197ZM156.889 32.3481L154.735 32.0028L154.735 32.0028L156.889 32.3481ZM156.759 32.4594L156.368 34.6055L156.368 34.6055L156.759 32.4594ZM156.662 32.2966L158.816 32.6419L158.816 32.6419L156.662 32.2966ZM129.796 48.325L128.399 50.0007L128.406 50.0064L128.413 50.012L129.796 48.325ZM129.796 35.8447L131.192 37.5204L131.195 37.5181L129.796 35.8447ZM139.01 34.9979L137.38 36.447L137.465 36.5429L137.561 36.6281L139.01 34.9979ZM133.486 38.9698L134.848 40.6731L134.882 40.6463L134.914 40.6181L133.486 38.9698ZM133.486 45.2604L132.123 46.9637L132.159 46.9923L132.196 47.0194L133.486 45.2604ZM139.01 45.6636L137.38 47.1128L137.465 47.2087L137.561 47.2939L139.01 45.6636ZM139.01 49.1719L140.552 50.7142L140.552 50.7142L139.01 49.1719ZM179.234 49.188L180.776 50.7304L180.776 50.7304L179.234 49.188ZM179.416 48.6235L177.234 48.6084L177.234 48.6159V48.6235H179.416ZM179.445 44.3923L181.626 44.4073L181.626 44.3998V44.3923H179.445ZM179.234 43.8479L177.604 45.297L177.689 45.3929L177.785 45.4782L179.234 43.8479ZM177.712 43.6682L177.718 45.8494H177.718L177.712 43.6682ZM175.789 43.6664L175.808 41.4852L175.799 41.4852H175.789V43.6664ZM175.006 45.5386V47.7199H177.187V45.5386H175.006ZM172.112 45.5386H169.931V47.7199H172.112V45.5386ZM171.931 35.014L170.301 36.4631L170.386 36.559L170.482 36.6443L171.931 35.014ZM167.697 35.014L169.239 36.5564L169.239 36.5564L167.697 35.014ZM167.697 49.188L166.067 50.6371L166.152 50.733L166.248 50.8183L167.697 49.188ZM150.155 31.3781C149.703 28.4923 147.015 27.5072 145.256 27.5804L145.437 31.9391C145.502 31.9364 145.581 31.9435 145.659 31.9637C145.737 31.9837 145.793 32.0108 145.825 32.0318C145.855 32.0514 145.857 32.0595 145.849 32.0476C145.838 32.0314 145.841 32.025 145.845 32.0526L150.155 31.3781ZM147.891 34.576C149.525 34.2861 150.369 32.7425 150.155 31.3781L145.845 32.0526C145.733 31.3362 146.169 30.451 147.129 30.2806L147.891 34.576ZM144.663 32.2524C144.881 33.6444 146.209 34.8745 147.891 34.576L147.129 30.2806C148.128 30.1033 148.857 30.8398 148.973 31.5779L144.663 32.2524ZM145.485 33.1821C145.465 33.1829 145.33 33.1817 145.15 33.06C144.972 32.9401 144.729 32.6774 144.663 32.2524L148.973 31.5779C148.666 29.6197 146.811 28.7606 145.304 28.8233L145.485 33.1821ZM145.987 32.7699C145.989 32.758 145.984 32.7945 145.95 32.8574C145.914 32.9215 145.861 32.9889 145.791 33.0469C145.65 33.1634 145.524 33.1804 145.485 33.1821L145.304 28.8233C144.54 28.8551 143.71 29.1055 143.009 29.6866C142.285 30.2857 141.832 31.1258 141.679 32.0793L145.987 32.7699ZM142.749 35.081C144.43 35.3866 145.764 34.1617 145.987 32.7699L141.679 32.0793C141.798 31.3411 142.531 30.6074 143.529 30.7889L142.749 35.081ZM140.498 31.8748C140.279 33.2385 141.117 34.7844 142.749 35.081L143.529 30.7889C144.488 30.9632 144.92 31.8492 144.806 32.5654L140.498 31.8748ZM145.256 27.5804C143.201 27.6658 140.95 29.0556 140.498 31.8748L144.806 32.5654C144.855 32.2546 144.969 32.1356 145.037 32.0801C145.13 32.0036 145.273 31.9459 145.437 31.9391L145.256 27.5804ZM145.457 32.422C145.488 32.4208 145.519 32.4244 145.543 32.4307C145.568 32.4371 145.569 32.4417 145.551 32.4303C145.532 32.4178 145.49 32.3847 145.447 32.3217C145.402 32.2546 145.376 32.1832 145.367 32.1274L149.677 31.4528C149.281 28.9164 146.914 27.9951 145.276 28.0633L145.457 32.422ZM145.283 32.6419C145.3 32.5335 145.326 32.4827 145.334 32.4678C145.339 32.4591 145.343 32.4551 145.343 32.4541C145.344 32.4529 145.345 32.4524 145.346 32.4519C145.348 32.4498 145.384 32.4251 145.457 32.422L145.276 28.0633C143.409 28.1409 141.385 29.3973 140.975 31.9513L145.283 32.6419ZM143.616 30.3133C144.787 30.5262 145.447 31.6168 145.283 32.6419L140.975 31.9513C140.782 33.157 141.56 34.3736 142.835 34.6055L143.616 30.3133ZM141.202 32.0027C141.374 30.9283 142.416 30.0952 143.616 30.3133L142.835 34.6055C144.131 34.841 145.309 33.9423 145.51 32.6934L141.202 32.0027ZM145.284 28.3404C143.467 28.416 141.582 29.6328 141.202 32.0028L145.51 32.6934C145.515 32.659 145.521 32.6381 145.525 32.6284C145.528 32.6187 145.529 32.6178 145.526 32.6232C145.523 32.6286 145.518 32.6375 145.509 32.648C145.5 32.6585 145.49 32.6684 145.479 32.6771C145.458 32.6948 145.442 32.7014 145.438 32.7026C145.436 32.7033 145.445 32.6999 145.465 32.6991L145.284 28.3404ZM149.451 31.5031C149.09 29.197 146.914 28.2726 145.284 28.3404L145.465 32.6991C145.523 32.6967 145.507 32.7167 145.432 32.6673C145.391 32.6398 145.327 32.5871 145.267 32.4981C145.204 32.4057 145.159 32.2942 145.14 32.1777L149.451 31.5031ZM147.044 29.8047C148.245 29.5916 149.282 30.4288 149.451 31.5031L145.14 32.1777C145.336 33.4268 146.511 34.3301 147.807 34.1001L147.044 29.8047ZM145.367 32.1274C145.207 31.1014 145.872 30.0128 147.044 29.8047L147.807 34.1001C149.084 33.8735 149.866 32.6596 149.678 31.4528L145.367 32.1274ZM168.042 47.9703C168.33 47.1876 168.458 46.3637 168.458 45.5226H164.096C164.096 45.9182 164.036 46.2233 163.948 46.4622L168.042 47.9703ZM166.359 50.2337C167.12 49.647 167.721 48.8835 168.053 47.9393L163.937 46.4932C163.919 46.5436 163.875 46.6404 163.695 46.7795L166.359 50.2337ZM163.633 51.4514C164.619 51.2088 165.572 50.8359 166.352 50.2393L163.702 46.7739C163.568 46.8763 163.244 47.0545 162.591 47.2151L163.633 51.4514ZM160.027 51.817C161.375 51.817 162.598 51.7101 163.641 51.4494L162.583 47.2171C162.012 47.3597 161.178 47.4545 160.027 47.4545V51.817ZM156.401 51.4514C157.452 51.7098 158.677 51.817 160.027 51.817V47.4545C158.877 47.4545 158.032 47.36 157.443 47.2151L156.401 51.4514ZM153.686 50.2576C154.468 50.8387 155.414 51.2086 156.401 51.4514L157.443 47.2151C156.79 47.0547 156.446 46.8735 156.287 46.7556L153.686 50.2576ZM151.978 47.9882C152.319 48.8888 152.896 49.6318 153.63 50.2148L156.343 46.7985C156.163 46.6557 156.094 46.5383 156.059 46.4443L151.978 47.9882ZM151.575 45.5226C151.575 46.3468 151.692 47.1539 151.955 47.9223L156.082 46.5102C155.996 46.2571 155.938 45.9351 155.938 45.5226H151.575ZM151.575 38.6473V45.5226H155.938V38.6473H151.575ZM151.961 36.2508C151.692 37.0168 151.575 37.8244 151.575 38.6473H155.938C155.938 38.2336 155.996 37.9256 156.076 37.6969L151.961 36.2508ZM153.63 33.9552C152.883 34.5482 152.308 35.3066 151.972 36.2198L156.065 37.7279C156.105 37.6196 156.176 37.5043 156.343 37.3715L153.63 33.9552ZM156.401 32.6984C155.401 32.9442 154.444 33.3271 153.654 33.9362L156.319 37.3904C156.47 37.2737 156.803 37.0921 157.443 36.9347L156.401 32.6984ZM160.027 32.3328C158.677 32.3328 157.452 32.44 156.401 32.6984L157.443 36.9347C158.032 36.7898 158.877 36.6953 160.027 36.6953V32.3328ZM163.641 32.7004C162.598 32.4397 161.375 32.3328 160.027 32.3328V36.6953C161.178 36.6953 162.012 36.7901 162.583 36.9326L163.641 32.7004ZM166.384 33.9552C165.596 33.33 164.632 32.944 163.633 32.6984L162.591 36.9347C163.232 37.0923 163.544 37.2708 163.671 37.3715L166.384 33.9552ZM168.059 36.2678C167.732 35.312 167.133 34.5331 166.359 33.9362L163.695 37.3904C163.862 37.5194 163.909 37.6142 163.931 37.6799L168.059 36.2678ZM168.458 38.6473C168.458 37.8075 168.33 36.9826 168.035 36.2019L163.955 37.7458C164.036 37.9598 164.096 38.2505 164.096 38.6473H168.458ZM168.458 45.5226V38.6473H164.096V45.5226H168.458ZM164.099 62.4404C164.099 62.8359 164.039 63.1411 163.951 63.3799L168.045 64.8881C168.333 64.1054 168.462 63.2814 168.462 62.4404H164.099ZM164.099 55.5651V62.4404H168.462V55.5651H164.099ZM163.958 54.6635C164.039 54.8776 164.099 55.1683 164.099 55.5651H168.462C168.462 54.7253 168.334 53.9003 168.038 53.1197L163.958 54.6635ZM163.698 54.3081C163.865 54.4372 163.912 54.532 163.934 54.5977L168.062 53.1856C167.735 52.2297 167.136 51.4508 166.363 50.854L163.698 54.3081ZM162.594 53.8524C163.235 54.01 163.547 54.1885 163.674 54.2892L166.387 50.8729C165.6 50.2478 164.635 49.8618 163.636 49.6161L162.594 53.8524ZM160.03 53.6131C161.182 53.6131 162.016 53.7078 162.586 53.8504L163.644 49.6181C162.601 49.3574 161.379 49.2506 160.03 49.2506V53.6131ZM157.446 53.8524C158.035 53.7075 158.88 53.6131 160.03 53.6131V49.2506C158.68 49.2506 157.455 49.3577 156.404 49.6161L157.446 53.8524ZM156.322 54.3081C156.473 54.1914 156.806 54.0099 157.446 53.8524L156.404 49.6161C155.405 49.8619 154.447 50.2449 153.657 50.854L156.322 54.3081ZM156.069 54.6457C156.109 54.5374 156.179 54.4221 156.346 54.2892L153.633 50.8729C152.886 51.4659 152.312 52.2243 151.975 53.1375L156.069 54.6457ZM155.941 55.5651C155.941 55.1514 156 54.8434 156.08 54.6147L151.964 53.1686C151.695 53.9345 151.579 54.7422 151.579 55.5651H155.941ZM155.941 62.4404V55.5651H151.579V62.4404H155.941ZM156.086 63.4279C155.999 63.1748 155.941 62.8528 155.941 62.4404H151.579C151.579 63.2645 151.695 64.0716 151.958 64.84L156.086 63.4279ZM156.346 63.7162C156.166 63.5734 156.098 63.4561 156.062 63.3621L151.982 64.9059C152.323 65.8066 152.899 66.5495 153.633 67.1325L156.346 63.7162ZM157.446 64.1329C156.794 63.9724 156.449 63.7913 156.29 63.6734L153.689 67.1754C154.471 67.7564 155.417 68.1264 156.404 68.3692L157.446 64.1329ZM160.03 64.3722C158.88 64.3722 158.035 64.2778 157.446 64.1329L156.404 68.3692C157.455 68.6275 158.68 68.7347 160.03 68.7347V64.3722ZM162.586 64.1349C162.016 64.2774 161.182 64.3722 160.03 64.3722V68.7347C161.379 68.7347 162.601 68.6278 163.644 68.3671L162.586 64.1349ZM163.705 63.6917C163.572 63.7941 163.247 63.9723 162.594 64.1329L163.636 68.3692C164.623 68.1265 165.575 67.7536 166.355 67.1571L163.705 63.6917ZM163.94 63.4109C163.923 63.4614 163.879 63.5581 163.698 63.6973L166.363 67.1514C167.123 66.5648 167.724 65.8013 168.056 64.8571L163.94 63.4109ZM156.155 61.7145C156.155 62.6055 156.52 63.4061 157.151 63.9947L160.127 60.8054C160.22 60.8916 160.327 61.0245 160.408 61.2071C160.489 61.3909 160.518 61.5692 160.518 61.7145H156.155ZM156.155 56.2909V61.7145H160.518V56.2909H156.155ZM157.21 53.9974C156.555 54.5653 156.155 55.3713 156.155 56.2909H160.518C160.518 56.4587 160.483 56.6603 160.387 56.8639C160.293 57.065 160.169 57.2062 160.068 57.2941L157.21 53.9974ZM160.03 53.1822C159.59 53.1822 159.133 53.2093 158.704 53.2963C158.326 53.373 157.689 53.5491 157.151 54.0511L160.127 57.2403C159.944 57.4118 159.774 57.4952 159.691 57.5302C159.606 57.5665 159.558 57.5745 159.572 57.5717C159.582 57.5695 159.625 57.5621 159.707 57.5556C159.788 57.5492 159.894 57.5447 160.03 57.5447V53.1822ZM162.91 54.0511C162.372 53.5491 161.734 53.373 161.356 53.2963C160.927 53.2093 160.47 53.1822 160.03 53.1822V57.5447C160.166 57.5447 160.273 57.5492 160.353 57.5556C160.436 57.5621 160.478 57.5695 160.489 57.5717C160.503 57.5745 160.455 57.5665 160.369 57.5302C160.287 57.4952 160.117 57.4118 159.933 57.2403L162.91 54.0511ZM163.905 56.2909C163.905 55.3714 163.505 54.5653 162.85 53.9974L159.993 57.2941C159.891 57.2062 159.767 57.065 159.673 56.8639C159.578 56.6603 159.543 56.4587 159.543 56.2909H163.905ZM163.905 61.7145V56.2909H159.543V61.7145H163.905ZM162.91 63.9947C163.54 63.406 163.905 62.6055 163.905 61.7145H159.543C159.543 61.5692 159.571 61.3909 159.653 61.2071C159.733 61.0245 159.841 60.8916 159.933 60.8054L162.91 63.9947ZM160.03 64.8434C160.465 64.8434 160.91 64.8185 161.326 64.7402C161.685 64.6725 162.311 64.5157 162.85 64.0484L159.993 60.7517C160.089 60.6681 160.179 60.609 160.25 60.5684C160.321 60.5277 160.381 60.5014 160.422 60.4853C160.499 60.4546 160.539 60.4492 160.519 60.4531C160.501 60.4564 160.453 60.464 160.366 60.4704C160.28 60.4767 160.169 60.4809 160.03 60.4809V64.8434ZM157.21 64.0484C157.75 64.5157 158.375 64.6725 158.734 64.7402C159.15 64.8185 159.596 64.8434 160.03 64.8434V60.4809C159.891 60.4809 159.78 60.4767 159.695 60.4704C159.608 60.464 159.559 60.4564 159.542 60.4531C159.521 60.4492 159.561 60.4546 159.639 60.4853C159.68 60.5014 159.739 60.5277 159.81 60.5684C159.881 60.609 159.971 60.6681 160.068 60.7517L157.21 64.0484ZM171.329 68.4322H174.596V64.0696H171.329V68.4322ZM169.316 67.7199C170.011 68.3382 170.834 68.4322 171.329 68.4322V64.0696C171.346 64.0696 171.446 64.0705 171.596 64.1132C171.752 64.1578 171.984 64.2548 172.214 64.4593L169.316 67.7199ZM168.422 65.5251C168.422 66.0209 168.516 66.8431 169.135 67.5387L172.395 64.6405C172.6 64.8705 172.697 65.1027 172.741 65.2585C172.784 65.4081 172.785 65.5081 172.785 65.5251H168.422ZM168.422 55.6254V65.5251H172.785V55.6254H168.422ZM167.64 57.8067H170.604V53.4442H167.64V57.8067ZM165.626 57.0944C166.322 57.7128 167.144 57.8067 167.64 57.8067V53.4442C167.657 53.4442 167.757 53.445 167.906 53.4878C168.062 53.5323 168.294 53.6294 168.524 53.8339L165.626 57.0944ZM164.733 54.8996C164.733 55.3955 164.827 56.2176 165.445 56.9133L168.706 54.015C168.91 54.245 169.007 54.4772 169.052 54.633C169.094 54.7827 169.095 54.8826 169.095 54.8996H164.733ZM164.733 52.46V54.8996H169.095V52.46H164.733ZM165.533 50.3732C164.813 51.0929 164.733 51.9965 164.733 52.46H169.095C169.095 52.474 169.095 52.5853 169.046 52.752C168.994 52.9259 168.876 53.1992 168.618 53.458L165.533 50.3732ZM167.64 49.5529C167.088 49.5529 166.227 49.6795 165.533 50.3732L168.618 53.458C168.166 53.9098 167.681 53.9154 167.64 53.9154V49.5529ZM178.285 49.5529H167.64V53.9154H178.285V49.5529ZM180.46 50.4665C179.75 49.6678 178.809 49.5529 178.285 49.5529V53.9154C178.273 53.9154 177.694 53.9214 177.199 53.3648L180.46 50.4665ZM181.192 52.46C181.192 51.9366 181.078 50.9952 180.279 50.2853L177.381 53.5459C176.824 53.0511 176.83 52.4726 176.83 52.46H181.192ZM181.192 54.8996V52.46H176.83V54.8996H181.192ZM180.372 57.0065C181.066 56.3127 181.192 55.4512 181.192 54.8996H176.83C176.83 54.8587 176.836 54.3736 177.287 53.9218L180.372 57.0065ZM178.285 57.8067C178.749 57.8067 179.652 57.7262 180.372 57.0065L177.287 53.9218C177.546 53.663 177.819 53.5453 177.993 53.4937C178.16 53.4443 178.271 53.4442 178.285 53.4442V57.8067ZM175.322 57.8067H178.285V53.4442H175.322V57.8067ZM177.503 65.5251V55.6254H173.14V65.5251H177.503ZM176.682 67.632C177.376 66.9382 177.503 66.0767 177.503 65.5251H173.14C173.14 65.4842 173.146 64.999 173.598 64.5472L176.682 67.632ZM174.596 68.4322C175.059 68.4322 175.963 68.3517 176.682 67.632L173.598 64.5473C173.856 64.2885 174.13 64.1707 174.304 64.1192C174.47 64.0698 174.582 64.0696 174.596 64.0696V68.4322ZM183.817 64.0696H180.692V68.4322H183.817V64.0696ZM182.819 64.5472C183.078 64.2885 183.351 64.1707 183.525 64.1192C183.692 64.0698 183.803 64.0696 183.817 64.0696V68.4322C184.281 68.4322 185.184 68.3517 185.904 67.632L182.819 64.5472ZM182.362 65.5251C182.362 65.4842 182.367 64.9991 182.819 64.5472L185.904 67.632C186.598 66.9382 186.724 66.0767 186.724 65.5251H182.362ZM182.362 61.0491V65.5251H186.724V61.0491H182.362ZM187.91 58.8678H184.543V63.2303H187.91V58.8678ZM190.091 65.5251V61.0491H185.729V65.5251H190.091ZM189.702 64.6405C189.906 64.8705 190.003 65.1027 190.048 65.2585C190.09 65.4081 190.091 65.5081 190.091 65.5251H185.729C185.729 66.0209 185.823 66.8431 186.441 67.5387L189.702 64.6405ZM188.636 64.0696C188.653 64.0696 188.753 64.0705 188.902 64.1132C189.058 64.1578 189.29 64.2548 189.52 64.4593L186.622 67.7199C187.318 68.3382 188.14 68.4322 188.636 68.4322V64.0696ZM191.761 64.0696H188.636V68.4322H191.761V64.0696ZM190.763 64.5472C191.022 64.2885 191.295 64.1707 191.469 64.1192C191.636 64.0698 191.747 64.0696 191.761 64.0696V68.4322C192.224 68.4322 193.128 68.3517 193.848 67.632L190.763 64.5472ZM190.306 65.5251C190.306 65.4842 190.311 64.9991 190.763 64.5472L193.848 67.632C194.541 66.9382 194.668 66.0767 194.668 65.5251H190.306ZM190.306 52.46V65.5251H194.668V52.46H190.306ZM190.856 53.5459C190.299 53.0511 190.306 52.4726 190.306 52.46H194.668C194.668 51.9366 194.553 50.9952 193.754 50.2853L190.856 53.5459ZM191.761 53.9154C191.748 53.9154 191.17 53.9214 190.675 53.3648L193.936 50.4665C193.226 49.6678 192.284 49.5529 191.761 49.5529V53.9154ZM188.636 53.9154H191.761V49.5529H188.636V53.9154ZM189.614 53.458C189.162 53.9098 188.677 53.9154 188.636 53.9154V49.5529C188.084 49.5529 187.223 49.6795 186.529 50.3732L189.614 53.458ZM190.091 52.46C190.091 52.474 190.091 52.5853 190.042 52.752C189.99 52.9259 189.872 53.1992 189.614 53.458L186.529 50.3732C185.809 51.0929 185.729 51.9965 185.729 52.46H190.091ZM190.091 56.8352V52.46H185.729V56.8352H190.091ZM184.543 59.0164H187.91V54.6539H184.543V59.0164ZM182.362 52.46V56.8352H186.724V52.46H182.362ZM182.912 53.5459C182.356 53.0511 182.362 52.4726 182.362 52.46H186.724C186.724 51.9366 186.609 50.9952 185.811 50.2853L182.912 53.5459ZM183.817 53.9154C183.804 53.9154 183.226 53.9214 182.731 53.3648L185.992 50.4665C185.282 49.6678 184.34 49.5529 183.817 49.5529V53.9154ZM180.692 53.9154H183.817V49.5529H180.692V53.9154ZM181.67 53.458C181.218 53.9098 180.733 53.9154 180.692 53.9154V49.5529C180.14 49.5529 179.279 49.6794 178.585 50.3732L181.67 53.458ZM182.147 52.46C182.147 52.474 182.147 52.5853 182.098 52.752C182.046 52.9259 181.929 53.1992 181.67 53.458L178.585 50.3732C177.865 51.0929 177.785 51.9965 177.785 52.46H182.147ZM182.147 65.5251V52.46H177.785V65.5251H182.147ZM181.758 64.6405C181.962 64.8705 182.059 65.1027 182.104 65.2585C182.147 65.4081 182.147 65.5081 182.147 65.5251H177.785C177.785 66.0209 177.879 66.8431 178.497 67.5387L181.758 64.6405ZM180.692 64.0696C180.709 64.0696 180.809 64.0705 180.959 64.1132C181.114 64.1578 181.347 64.2548 181.577 64.4593L178.678 67.7199C179.374 68.3383 180.196 68.4322 180.692 68.4322V64.0696ZM200.988 64.0696H194.617V68.4322H200.988V64.0696ZM202.652 63.6554C202.42 63.8451 201.952 64.0696 200.988 64.0696V68.4322C202.606 68.4322 204.167 68.0518 205.414 67.0318L202.652 63.6554ZM202.981 62.7024C202.981 63.3178 202.807 63.5278 202.648 63.6581L205.417 67.0291C206.764 65.9228 207.343 64.3719 207.343 62.7024H202.981ZM202.981 60.5853V62.7024H207.343V60.5853H202.981ZM202.895 59.8384C202.848 59.7992 202.86 59.7802 202.892 59.8695C202.93 59.9749 202.981 60.1964 202.981 60.5853H207.343C207.343 59.1377 206.974 57.5637 205.695 56.4934L202.895 59.8384ZM201.708 59.3977C202.351 59.4896 202.7 59.6754 202.895 59.8384L205.695 56.4934C204.734 55.6886 203.564 55.2561 202.325 55.0791L201.708 59.3977ZM198.722 58.997L201.726 59.4003L202.307 55.0765L199.303 54.6733L198.722 58.997ZM196.887 57.9727C197.415 58.6506 198.155 58.9569 198.845 59.01L199.18 54.6603C199.328 54.6717 199.533 54.712 199.756 54.8237C199.986 54.9387 200.182 55.1031 200.331 55.2944L196.887 57.9727ZM196.287 56.19C196.287 56.7784 196.455 57.4161 196.887 57.9727L200.331 55.2944C200.576 55.609 200.649 55.951 200.649 56.19H196.287ZM196.968 54.3302C196.452 54.919 196.287 55.6098 196.287 56.19H200.649C200.649 56.4207 200.578 56.8292 200.251 57.203L196.968 54.3302ZM199.012 53.4039C198.272 53.4039 197.456 53.696 196.887 54.4275L200.331 57.1057C200.169 57.3145 199.946 57.498 199.676 57.6196C199.414 57.7373 199.177 57.7664 199.012 57.7664V53.4039ZM203.71 53.4039H199.012V57.7664H203.71V53.4039ZM202.712 53.8815C202.971 53.6227 203.244 53.5049 203.418 53.4534C203.585 53.404 203.696 53.4039 203.71 53.4039V57.7664C204.174 57.7664 205.077 57.6859 205.797 56.9662L202.712 53.8815ZM202.255 54.8593C202.255 54.8184 202.26 54.3333 202.712 53.8814L205.797 56.9662C206.491 56.2724 206.617 55.4109 206.617 54.8593H202.255ZM202.255 52.46V54.8593H206.617V52.46H202.255ZM202.805 53.5459C202.249 53.0511 202.255 52.4726 202.255 52.46H206.617C206.617 51.9366 206.502 50.9952 205.704 50.2853L202.805 53.5459ZM203.71 53.9154C203.698 53.9154 203.119 53.9214 202.624 53.3647L205.885 50.4665C205.175 49.6678 204.234 49.5529 203.71 49.5529V53.9154ZM198.065 53.9154H203.71V49.5529H198.065V53.9154ZM196.4 54.3348C196.627 54.1445 197.092 53.9154 198.065 53.9154V49.5529C196.43 49.5529 194.852 49.942 193.601 50.9884L196.4 54.3348ZM196.073 55.2827C196.073 54.6523 196.249 54.4581 196.381 54.3498L193.619 50.9734C192.273 52.0749 191.71 53.6281 191.71 55.2827H196.073ZM196.073 57.3997V55.2827H191.71V57.3997H196.073ZM196.158 58.163C196.208 58.2065 196.195 58.2262 196.162 58.1308C196.123 58.0201 196.073 57.7931 196.073 57.3997H191.71C191.71 58.8328 192.065 60.4008 193.319 61.4753L196.158 58.163ZM197.325 58.5873C196.682 58.4955 196.333 58.3097 196.138 58.1467L193.338 61.4917C194.299 62.2964 195.469 62.729 196.708 62.906L197.325 58.5873ZM200.343 59.0099L197.319 58.5864L196.714 62.9068L199.738 63.3302L200.343 59.0099ZM202.169 60.0427C201.605 59.2906 200.807 59.0412 200.208 58.9952L199.873 63.3449C199.624 63.3257 199.082 63.1973 198.679 62.6603L202.169 60.0427ZM202.746 61.8556C202.746 61.3976 202.664 60.5989 202.065 59.9152L198.782 62.7878C198.573 62.5485 198.474 62.3077 198.429 62.1463C198.386 61.9903 198.384 61.8825 198.384 61.8556H202.746ZM202.146 63.6181C202.554 63.0933 202.746 62.4747 202.746 61.8556H198.384C198.384 61.7214 198.404 61.5624 198.46 61.3926C198.517 61.2215 198.602 61.0686 198.702 60.9399L202.146 63.6181ZM200.041 64.6215C200.677 64.6215 201.558 64.4027 202.169 63.5877L198.679 60.9702C198.878 60.7048 199.14 60.508 199.421 60.3896C199.685 60.2784 199.911 60.259 200.041 60.259V64.6215ZM194.617 64.6215H200.041V60.259H194.617V64.6215ZM195.595 64.1641C195.143 64.6159 194.658 64.6215 194.617 64.6215V60.259C194.065 60.259 193.204 60.3856 192.51 61.0793L195.595 64.1641ZM196.073 63.1661C196.073 63.1801 196.072 63.2915 196.023 63.4582C195.971 63.632 195.854 63.9054 195.595 64.1641L192.51 61.0794C191.791 61.799 191.71 62.7025 191.71 63.1661H196.073ZM196.073 65.5251V63.1661H191.71V65.5251H196.073ZM195.683 64.6405C195.887 64.8705 195.984 65.1026 196.029 65.2585C196.072 65.4081 196.073 65.5081 196.073 65.5251H191.71C191.71 66.0209 191.804 66.8431 192.422 67.5387L195.683 64.6405ZM194.617 64.0696C194.634 64.0696 194.734 64.0705 194.884 64.1132C195.04 64.1578 195.272 64.2549 195.502 64.4593L192.603 67.7199C193.299 68.3382 194.121 68.4322 194.617 68.4322V64.0696ZM141.639 68.4322H152.067V64.0696H141.639V68.4322ZM139.625 67.7199C140.321 68.3382 141.143 68.4322 141.639 68.4322V64.0696C141.656 64.0696 141.756 64.0705 141.906 64.1132C142.061 64.1578 142.294 64.2549 142.524 64.4593L139.625 67.7199ZM138.732 65.5251C138.732 66.0209 138.826 66.8431 139.444 67.5388L142.705 64.6404C142.909 64.8705 143.006 65.1027 143.051 65.2585C143.094 65.4081 143.094 65.5081 143.094 65.5251H138.732ZM138.732 52.46V65.5251H143.094V52.46H138.732ZM139.532 50.3732C138.812 51.0929 138.732 51.9965 138.732 52.46H143.094C143.094 52.474 143.094 52.5853 143.045 52.752C142.993 52.9259 142.876 53.1993 142.617 53.458L139.532 50.3732ZM141.639 49.5529C141.087 49.5529 140.226 49.6795 139.532 50.3732L142.617 53.458C142.165 53.9098 141.68 53.9154 141.639 53.9154V49.5529ZM144.764 49.5529H141.639V53.9154H144.764V49.5529ZM146.939 50.4665C146.229 49.6678 145.288 49.5529 144.764 49.5529V53.9154C144.751 53.9154 144.173 53.9214 143.678 53.3647L146.939 50.4665ZM147.671 52.46C147.671 51.9366 147.556 50.9952 146.758 50.2853L143.859 53.5459C143.303 53.0511 143.309 52.4726 143.309 52.46H147.671ZM147.671 62.4403V52.46H143.309V62.4403H147.671ZM152.067 60.259H145.49V64.6215H152.067V60.259ZM154.242 61.1726C153.532 60.3739 152.591 60.259 152.067 60.259V64.6215C152.055 64.6215 151.476 64.6275 150.981 64.0708L154.242 61.1726ZM154.974 63.1661C154.974 62.6427 154.859 61.7013 154.061 60.9914L151.163 64.252C150.606 63.7572 150.612 63.1787 150.612 63.1661H154.974ZM154.974 65.5251V63.1661H150.612V65.5251H154.974ZM154.154 67.632C154.848 66.9382 154.974 66.0767 154.974 65.5251H150.612C150.612 65.4842 150.617 64.9991 151.069 64.5472L154.154 67.632ZM152.067 68.4322C152.531 68.4322 153.434 68.3517 154.154 67.632L151.069 64.5472C151.328 64.2885 151.601 64.1707 151.775 64.1192C151.942 64.0698 152.053 64.0696 152.067 64.0696V68.4322ZM135.542 64.0696H129.171V68.4322H135.542V64.0696ZM137.205 63.6554C136.974 63.8451 136.506 64.0696 135.542 64.0696V68.4322C137.16 68.4322 138.721 68.0518 139.968 67.0318L137.205 63.6554ZM137.535 62.7024C137.535 63.3178 137.361 63.5278 137.202 63.6581L139.971 67.0291C141.318 65.9228 141.897 64.3719 141.897 62.7024H137.535ZM137.535 60.5853V62.7024H141.897V60.5853H137.535ZM137.449 59.8384C137.402 59.7992 137.414 59.7802 137.446 59.8695C137.483 59.9749 137.535 60.1964 137.535 60.5853H141.897C141.897 59.1377 141.527 57.5637 140.249 56.4934L137.449 59.8384ZM136.262 59.3977C136.905 59.4896 137.254 59.6754 137.449 59.8384L140.249 56.4934C139.288 55.6886 138.118 55.2561 136.879 55.0791L136.262 59.3977ZM133.276 58.997L136.28 59.4003L136.861 55.0765L133.857 54.6733L133.276 58.997ZM131.441 57.9727C131.969 58.6506 132.709 58.9569 133.399 59.01L133.734 54.6603C133.882 54.6717 134.087 54.712 134.31 54.8237C134.54 54.9387 134.736 55.103 134.885 55.2944L131.441 57.9727ZM130.841 56.19C130.841 56.7784 131.008 57.4161 131.441 57.9727L134.885 55.2944C135.13 55.609 135.203 55.951 135.203 56.19H130.841ZM131.522 54.3302C131.006 54.919 130.841 55.6098 130.841 56.19H135.203C135.203 56.4207 135.132 56.8292 134.805 57.2029L131.522 54.3302ZM133.566 53.4039C132.826 53.4039 132.01 53.696 131.441 54.4274L134.885 57.1057C134.723 57.3145 134.5 57.498 134.23 57.6196C133.968 57.7373 133.731 57.7664 133.566 57.7664V53.4039ZM138.264 53.4039H133.566V57.7664H138.264V53.4039ZM137.266 53.8815C137.525 53.6227 137.798 53.5049 137.972 53.4534C138.139 53.404 138.25 53.4039 138.264 53.4039V57.7664C138.728 57.7664 139.631 57.6859 140.351 56.9662L137.266 53.8815ZM136.809 54.8593C136.809 54.8184 136.814 54.3333 137.266 53.8814L140.351 56.9662C141.045 56.2724 141.171 55.4109 141.171 54.8593H136.809ZM136.809 52.46V54.8593H141.171V52.46H136.809ZM137.359 53.5459C136.803 53.0511 136.809 52.4726 136.809 52.46H141.171C141.171 51.9366 141.056 50.9952 140.258 50.2853L137.359 53.5459ZM138.264 53.9154C138.252 53.9154 137.673 53.9214 137.178 53.3647L140.439 50.4665C139.729 49.6678 138.788 49.5529 138.264 49.5529V53.9154ZM132.619 53.9154H138.264V49.5529H132.619V53.9154ZM130.954 54.3348C131.181 54.1445 131.646 53.9154 132.619 53.9154V49.5529C130.984 49.5529 129.406 49.942 128.155 50.9884L130.954 54.3348ZM130.626 55.2827C130.626 54.6522 130.803 54.4581 130.935 54.3498L128.173 50.9734C126.827 52.0749 126.264 53.6281 126.264 55.2827H130.626ZM130.626 57.3997V55.2827H126.264V57.3997H130.626ZM130.712 58.163C130.762 58.2065 130.749 58.2262 130.716 58.1308C130.677 58.0201 130.626 57.7931 130.626 57.3997H126.264C126.264 58.8328 126.619 60.4008 127.872 61.4753L130.712 58.163ZM131.879 58.5873C131.236 58.4955 130.887 58.3097 130.692 58.1467L127.892 61.4917C128.853 62.2964 130.023 62.729 131.262 62.906L131.879 58.5873ZM134.897 59.0099L131.873 58.5864L131.268 62.9068L134.292 63.3302L134.897 59.0099ZM136.723 60.0427C136.159 59.2906 135.36 59.0412 134.762 58.9952L134.427 63.3449C134.178 63.3257 133.636 63.1973 133.233 62.6603L136.723 60.0427ZM137.3 61.8556C137.3 61.3977 137.218 60.5989 136.619 59.9151L133.336 62.7878C133.127 62.5485 133.028 62.3077 132.983 62.1463C132.939 61.9903 132.938 61.8824 132.938 61.8556H137.3ZM136.7 63.6181C137.108 63.0932 137.3 62.4746 137.3 61.8556H132.938C132.938 61.7215 132.958 61.5624 133.014 61.3926C133.071 61.2215 133.156 61.0685 133.256 60.9398L136.7 63.6181ZM134.595 64.6215C135.231 64.6215 136.111 64.4027 136.723 63.5877L133.233 60.9702C133.432 60.7048 133.694 60.508 133.975 60.3896C134.239 60.2784 134.464 60.259 134.595 60.259V64.6215ZM129.171 64.6215H134.595V60.259H129.171V64.6215ZM130.149 64.1641C129.697 64.6159 129.212 64.6215 129.171 64.6215V60.259C128.619 60.259 127.758 60.3856 127.064 61.0793L130.149 64.1641ZM130.626 63.1661C130.626 63.1801 130.626 63.2915 130.577 63.4581C130.525 63.632 130.408 63.9054 130.149 64.1641L127.064 61.0793C126.344 61.799 126.264 62.7026 126.264 63.1661H130.626ZM130.626 65.5251V63.1661H126.264V65.5251H130.626ZM130.237 64.6404C130.441 64.8705 130.538 65.1027 130.583 65.2585C130.626 65.4081 130.626 65.5081 130.626 65.5251H126.264C126.264 66.0209 126.358 66.8431 126.976 67.5388L130.237 64.6404ZM129.171 64.0696C129.188 64.0696 129.288 64.0705 129.438 64.1132C129.593 64.1578 129.826 64.2549 130.056 64.4593L127.157 67.7199C127.853 68.3382 128.675 68.4322 129.171 68.4322V64.0696ZM150.48 45.5226C150.48 45.9182 150.42 46.2233 150.332 46.4622L154.426 47.9703C154.714 47.1876 154.842 46.3637 154.842 45.5226H150.48ZM150.48 38.6473V45.5226H154.842V38.6473H150.48ZM150.339 37.7458C150.42 37.9598 150.48 38.2505 150.48 38.6473H154.842C154.842 37.8075 154.714 36.9826 154.419 36.2019L150.339 37.7458ZM150.079 37.3904C150.246 37.5194 150.292 37.6142 150.315 37.6799L154.443 36.2678C154.116 35.3119 153.517 34.5331 152.743 33.9363L150.079 37.3904ZM148.975 36.9347C149.616 37.0923 149.928 37.2708 150.055 37.3715L152.767 33.9552C151.98 33.33 151.015 32.944 150.016 32.6984L148.975 36.9347ZM146.411 36.6953C147.562 36.6953 148.396 36.7901 148.967 36.9326L150.025 32.7004C148.982 32.4397 147.759 32.3328 146.411 32.3328V36.6953ZM143.827 36.9347C144.416 36.7898 145.261 36.6953 146.411 36.6953V32.3328C145.061 32.3328 143.836 32.44 142.785 32.6984L143.827 36.9347ZM142.703 37.3904C142.854 37.2737 143.186 37.0921 143.827 36.9347L142.785 32.6984C141.785 32.9442 140.828 33.3271 140.038 33.9363L142.703 37.3904ZM142.449 37.7279C142.489 37.6196 142.559 37.5043 142.727 37.3715L140.014 33.9552C139.267 34.5482 138.692 35.3066 138.356 36.2198L142.449 37.7279ZM142.322 38.6473C142.322 38.2336 142.38 37.9256 142.46 37.6969L138.345 36.2508C138.075 37.0168 137.959 37.8244 137.959 38.6473H142.322ZM142.322 45.5226V38.6473H137.959V45.5226H142.322ZM142.466 46.5102C142.38 46.2571 142.322 45.9351 142.322 45.5226H137.959C137.959 46.3468 138.076 47.1539 138.339 47.9223L142.466 46.5102ZM142.727 46.7985C142.547 46.6557 142.478 46.5383 142.443 46.4443L138.362 47.9882C138.703 48.8888 139.28 49.6318 140.014 50.2148L142.727 46.7985ZM143.827 47.2151C143.174 47.0547 142.83 46.8735 142.671 46.7556L140.07 50.2576C140.852 50.8387 141.797 51.2086 142.785 51.4514L143.827 47.2151ZM146.411 47.4545C145.261 47.4545 144.416 47.36 143.827 47.2151L142.785 51.4514C143.836 51.7098 145.061 51.817 146.411 51.817V47.4545ZM148.967 47.2171C148.396 47.3597 147.562 47.4545 146.411 47.4545V51.817C147.759 51.817 148.982 51.7101 150.025 51.4494L148.967 47.2171ZM150.086 46.7739C149.952 46.8763 149.628 47.0545 148.975 47.2151L150.016 51.4514C151.003 51.2088 151.956 50.8359 152.736 50.2393L150.086 46.7739ZM150.321 46.4932C150.303 46.5436 150.259 46.6404 150.079 46.7795L152.743 50.2337C153.504 49.647 154.105 48.8835 154.437 47.9393L150.321 46.4932ZM158.97 31.9391C159.035 31.9364 159.113 31.9435 159.192 31.9637C159.27 31.9837 159.326 32.0108 159.358 32.0318C159.388 32.0514 159.39 32.0595 159.381 32.0476C159.37 32.0314 159.374 32.025 159.378 32.0526L163.688 31.3781C163.236 28.4923 160.548 27.5072 158.789 27.5804L158.97 31.9391ZM158.338 32.5654C158.388 32.2546 158.502 32.1356 158.57 32.0801C158.663 32.0036 158.806 31.9459 158.97 31.9391L158.789 27.5804C156.733 27.6658 154.483 29.0556 154.031 31.8748L158.338 32.5654ZM157.062 30.7889C158.021 30.9632 158.453 31.8492 158.338 32.5654L154.031 31.8747C153.812 33.2385 154.65 34.7844 156.282 35.081L157.062 30.7889ZM155.212 32.0793C155.331 31.3411 156.064 30.6074 157.062 30.7889L156.282 35.081C157.963 35.3866 159.297 34.1617 159.52 32.7699L155.212 32.0793ZM158.837 28.8233C158.073 28.8551 157.243 29.1055 156.541 29.6866C155.818 30.2857 155.365 31.1258 155.212 32.0793L159.52 32.7699C159.522 32.758 159.517 32.7945 159.483 32.8574C159.447 32.9215 159.394 32.9889 159.323 33.0469C159.183 33.1634 159.057 33.1804 159.018 33.1821L158.837 28.8233ZM162.506 31.5779C162.199 29.6197 160.343 28.7606 158.837 28.8233L159.018 33.1821C158.998 33.1829 158.863 33.1817 158.683 33.06C158.505 32.9401 158.262 32.6774 158.196 32.2524L162.506 31.5779ZM160.662 30.2806C161.661 30.1033 162.39 30.8398 162.506 31.5779L158.196 32.2524C158.414 33.6444 159.742 34.8745 161.424 34.576L160.662 30.2806ZM159.378 32.0526C159.266 31.3362 159.702 30.451 160.662 30.2806L161.424 34.576C163.058 34.2861 163.901 32.7425 163.688 31.3781L159.378 32.0526ZM163.21 31.4528C162.813 28.9164 160.447 27.9951 158.809 28.0633L158.99 32.422C159.021 32.4208 159.052 32.4244 159.076 32.4307C159.1 32.4371 159.102 32.4417 159.084 32.4303C159.065 32.4178 159.023 32.3847 158.98 32.3217C158.934 32.2546 158.909 32.1832 158.9 32.1274L163.21 31.4528ZM161.339 34.1001C162.616 33.8735 163.399 32.6596 163.21 31.4528L158.9 32.1274C158.74 31.1013 159.405 30.0128 160.577 29.8047L161.339 34.1001ZM158.673 32.1777C158.869 33.4268 160.043 34.3301 161.339 34.1001L160.577 29.8047C161.778 29.5916 162.815 30.4288 162.983 31.5031L158.673 32.1777ZM158.998 32.6991C159.055 32.6967 159.039 32.7167 158.965 32.6673C158.923 32.6398 158.86 32.5871 158.8 32.4981C158.737 32.4057 158.692 32.2942 158.673 32.1777L162.983 31.5031C162.622 29.197 160.447 28.2726 158.816 28.3404L158.998 32.6991ZM159.043 32.6934C159.048 32.659 159.054 32.6381 159.058 32.6284C159.061 32.6187 159.062 32.6178 159.059 32.6232C159.056 32.6286 159.05 32.6375 159.042 32.648C159.033 32.6585 159.023 32.6684 159.012 32.6771C158.991 32.6948 158.975 32.7014 158.971 32.7026C158.969 32.7033 158.978 32.6999 158.998 32.6991L158.816 28.3404C157 28.416 155.115 29.6328 154.735 32.0028L159.043 32.6934ZM156.368 34.6055C157.663 34.8409 158.842 33.9423 159.043 32.6933L154.735 32.0028C154.907 30.9283 155.949 30.0952 157.149 30.3133L156.368 34.6055ZM154.508 31.9512C154.315 33.157 155.093 34.3735 156.368 34.6055L157.149 30.3133C158.32 30.5262 158.98 31.6168 158.816 32.6419L154.508 31.9512ZM158.809 28.0633C156.942 28.1409 154.918 29.3973 154.508 31.9513L158.816 32.6419C158.833 32.5335 158.859 32.4827 158.867 32.4678C158.872 32.4591 158.875 32.4551 158.876 32.4541C158.877 32.4529 158.878 32.4524 158.878 32.4519C158.881 32.4498 158.917 32.4251 158.99 32.422L158.809 28.0633ZM133.546 51.5144H138.466V47.1519H133.546V51.5144ZM128.413 50.012C129.794 51.1437 131.639 51.5144 133.546 51.5144V47.1519C132.093 47.1519 131.438 46.8505 131.179 46.6381L128.413 50.012ZM126.405 45.2201C126.405 47.0367 126.943 48.7873 128.399 50.0007L131.192 46.6494C131.035 46.5187 130.767 46.1992 130.767 45.2201H126.405ZM126.405 38.9496V45.2201H130.767V38.9496H126.405ZM128.399 34.169C126.943 35.3824 126.405 37.133 126.405 38.9496H130.767C130.767 37.9705 131.035 37.6511 131.192 37.5204L128.399 34.169ZM133.546 32.6351C131.631 32.6351 129.779 33.0157 128.397 34.1712L131.195 37.5181C131.453 37.3026 132.101 36.9977 133.546 36.9977V32.6351ZM138.466 32.6351H133.546V36.9977H138.466V32.6351ZM140.64 33.5487C139.93 32.7501 138.989 32.6351 138.466 32.6351V36.9977C138.453 36.9977 137.875 37.0037 137.38 36.447L140.64 33.5487ZM141.373 35.5422C141.373 35.0188 141.258 34.0775 140.459 33.3676L137.561 36.6281C137.004 36.1333 137.01 35.5549 137.01 35.5422H141.373ZM141.373 37.9819V35.5422H137.01V37.9819H141.373ZM140.552 40.0888C141.246 39.395 141.373 38.5335 141.373 37.9819H137.01C137.01 37.941 137.016 37.4558 137.468 37.004L140.552 40.0888ZM138.466 40.889C138.929 40.889 139.833 40.8085 140.552 40.0888L137.468 37.004C137.726 36.7453 138 36.6275 138.174 36.576C138.34 36.5266 138.452 36.5264 138.466 36.5264V40.889ZM134.413 40.889H138.466V36.5264H134.413V40.889ZM134.914 40.6181C134.729 40.7789 134.554 40.8464 134.462 40.8723C134.376 40.8965 134.349 40.889 134.413 40.889V36.5264C133.752 36.5264 132.826 36.6554 132.057 37.3215L134.914 40.6181ZM135.364 39.7158C135.364 39.7604 135.358 39.9042 135.28 40.0968C135.196 40.3045 135.051 40.5111 134.848 40.6731L132.123 37.2665C131.256 37.9601 131.002 38.9331 131.002 39.7158H135.364ZM135.364 44.5144V39.7158H131.002V44.5144H135.364ZM134.848 43.5571C135.051 43.7191 135.196 43.9257 135.28 44.1334C135.358 44.326 135.364 44.4699 135.364 44.5144H131.002C131.002 45.2971 131.256 46.2701 132.123 46.9637L134.848 43.5571ZM134.413 43.3009C134.326 43.3009 134.322 43.2924 134.376 43.3053C134.43 43.3182 134.588 43.3639 134.775 43.5014L132.196 47.0194C132.948 47.5708 133.813 47.6634 134.413 47.6634V43.3009ZM138.466 43.3009H134.413V47.6634H138.466V43.3009ZM140.64 44.2145C139.93 43.4159 138.989 43.3009 138.466 43.3009V47.6634C138.453 47.6634 137.875 47.6695 137.38 47.1128L140.64 44.2145ZM141.373 46.208C141.373 45.6846 141.258 44.7432 140.459 44.0334L137.561 47.2939C137.004 46.7991 137.01 46.2207 137.01 46.208H141.373ZM141.373 48.6073V46.208H137.01V48.6073H141.373ZM140.552 50.7142C141.246 50.0205 141.373 49.159 141.373 48.6073H137.01C137.01 48.5664 137.016 48.0813 137.468 47.6295L140.552 50.7142ZM138.466 51.5144C138.929 51.5144 139.833 51.4339 140.552 50.7142L137.468 47.6295C137.726 47.3707 138 47.253 138.174 47.2014C138.34 47.1521 138.452 47.1519 138.466 47.1519V51.5144ZM178.69 47.168H168.261V51.5305H178.69V47.168ZM177.692 47.6456C177.95 47.3869 178.224 47.2691 178.398 47.2176C178.564 47.1682 178.676 47.168 178.69 47.168V51.5305C179.153 51.5305 180.057 51.4501 180.776 50.7304L177.692 47.6456ZM177.234 48.6235C177.234 48.5826 177.24 48.0974 177.692 47.6456L180.776 50.7304C181.47 50.0366 181.597 49.1751 181.597 48.6235H177.234ZM177.264 44.3772L177.234 48.6084L181.597 48.6385L181.626 44.4073L177.264 44.3772ZM177.785 45.4782C177.372 45.1109 177.263 44.662 177.263 44.3923H181.626C181.626 43.6118 181.338 42.8 180.683 42.2176L177.785 45.4782ZM178.69 45.8477C178.677 45.8477 178.099 45.8537 177.604 45.297L180.864 42.3987C180.154 41.6001 179.213 41.4852 178.69 41.4852V45.8477ZM177.718 45.8494C178.047 45.8485 178.371 45.8477 178.69 45.8477V41.4852C178.365 41.4852 178.034 41.486 177.707 41.4869L177.718 45.8494ZM175.771 45.8476C176.395 45.8529 177.064 45.8511 177.718 45.8494L177.707 41.4869C177.047 41.4887 176.403 41.4903 175.808 41.4852L175.771 45.8476ZM177.187 44.327C177.187 44.255 177.191 44.3581 177.169 44.4899C177.144 44.6392 177.075 44.9048 176.877 45.1818C176.665 45.4769 176.393 45.6641 176.147 45.7626C176.035 45.8076 175.942 45.8284 175.883 45.8381C175.824 45.8477 175.79 45.8477 175.789 45.8477V41.4852C175.029 41.4852 174.001 41.7062 173.331 42.6403C172.77 43.4238 172.825 44.2938 172.825 44.327H177.187ZM177.187 45.5386V44.327H172.825V45.5386H177.187ZM172.112 47.7199H175.006V43.3574H172.112V47.7199ZM169.931 35.5584V45.5386H174.294V35.5584H169.931ZM170.482 36.6443C169.925 36.1495 169.931 35.571 169.931 35.5584H174.294C174.294 35.035 174.179 34.0936 173.38 33.3837L170.482 36.6443ZM171.387 37.0138C171.374 37.0138 170.795 37.0198 170.301 36.4631L173.561 33.5649C172.851 32.7662 171.91 32.6513 171.387 32.6513V37.0138ZM168.261 37.0138H171.387V32.6513H168.261V37.0138ZM169.239 36.5564C168.787 37.0082 168.302 37.0138 168.261 37.0138V32.6513C167.71 32.6513 166.848 32.7778 166.154 33.4716L169.239 36.5564ZM169.717 35.5584C169.717 35.5724 169.717 35.6837 169.667 35.8504C169.616 36.0243 169.498 36.2976 169.239 36.5564L166.154 33.4716C165.435 34.1913 165.354 35.0949 165.354 35.5584H169.717ZM169.717 48.6235V35.5584H165.354V48.6235H169.717ZM169.327 47.7388C169.532 47.9689 169.629 48.2011 169.673 48.3569C169.716 48.5065 169.717 48.6065 169.717 48.6235H165.354C165.354 49.1193 165.448 49.9415 166.067 50.6371L169.327 47.7388ZM168.261 47.168C168.278 47.168 168.378 47.1689 168.528 47.2116C168.684 47.2562 168.916 47.3532 169.146 47.5577L166.248 50.8183C166.943 51.4366 167.766 51.5305 168.261 51.5305V47.168Z" fill="#1E1E1E" mask="url(#path-2-outside-1_0_597)"/>
<path d="M132.781 37.1263L132.347 44.4947L132.997 49.4791L131.264 54.6803L134.298 64.2158L157.703 66.5997L167.044 66.1291L168.105 65.5161L168.806 66.3249L177.161 66.1663L177.641 65.5161L178.14 66.1663L184.359 65.9496H188.043C189.199 67.6833 190.86 64.2158 192.594 64.2158C194.761 64.2158 196.061 64.4325 197.145 64.2158C198.229 63.9991 198.445 62.4821 198.879 62.0487C199.312 61.6152 198.879 60.5317 199.746 59.0146C200.439 57.801 192.233 51.7908 191.294 51.6463H183.709L179.158 53.38C178.074 52.4409 175.82 50.4327 175.473 49.9126C175.127 49.3924 172.584 46.6618 171.356 45.3615L166.588 42.7609L161.82 38.2099L160.52 34.9592V30.6248H158.136L157.053 34.0923L157.703 37.1263L151.418 38.2099L147.517 34.9592L146.434 30.1914H144.483L143.616 34.0923L132.781 37.1263Z" fill="#1E1E1E"/>
<path d="M178.708 49.2876H168.301C168.042 49.2876 167.851 49.234 167.728 49.1266C167.619 49.0059 167.564 48.818 167.564 48.5631V35.5214C167.564 35.2665 167.619 35.0853 167.728 34.978C167.851 34.8572 168.042 34.7969 168.301 34.7969H171.47C171.729 34.7969 171.913 34.8572 172.022 34.978C172.145 35.0853 172.206 35.2665 172.206 35.5214V45.4838H175.007V44.3946C175.007 44.1397 175.062 43.9585 175.171 43.8512C175.293 43.7304 175.484 43.6701 175.743 43.6701H178.708C178.967 43.6701 179.151 43.7304 179.26 43.8512C179.383 43.9585 179.444 44.1397 179.444 44.3946V48.5631C179.444 48.818 179.383 49.0059 179.26 49.1266C179.151 49.234 178.967 49.2876 178.708 49.2876Z" fill="white"/>
<path d="M138.466 49.3332H133.546C131.866 49.3332 130.616 48.9971 129.796 48.325C128.989 47.653 128.586 46.618 128.586 45.2201V38.9496C128.586 37.5517 128.989 36.5167 129.796 35.8447C130.616 35.1592 131.866 34.8164 133.546 34.8164H138.466C138.721 34.8164 138.902 34.8769 139.01 34.9979C139.131 35.1054 139.191 35.2868 139.191 35.5422V37.9819C139.191 38.2372 139.131 38.4254 139.01 38.5464C138.902 38.6539 138.721 38.7077 138.466 38.7077H134.413C133.996 38.7077 133.687 38.7951 133.486 38.9698C133.284 39.1311 133.183 39.3798 133.183 39.7158V44.5144C133.183 44.8504 133.284 45.0991 133.486 45.2604C133.687 45.4083 133.996 45.4822 134.413 45.4822H138.466C138.721 45.4822 138.902 45.5427 139.01 45.6636C139.131 45.7712 139.191 45.9526 139.191 46.208V48.6073C139.191 48.8627 139.131 49.0509 139.01 49.1719C138.902 49.2794 138.721 49.3332 138.466 49.3332Z" fill="white"/>
<path d="M200.988 66.2509H194.617C194.362 66.2509 194.174 66.1971 194.053 66.0896C193.945 65.9686 193.891 65.7805 193.891 65.5251V63.1661C193.891 62.9107 193.945 62.7292 194.053 62.6217C194.174 62.5007 194.362 62.4403 194.617 62.4403H200.041C200.215 62.4403 200.343 62.3865 200.424 62.279C200.518 62.158 200.565 62.0169 200.565 61.8556C200.565 61.627 200.518 61.459 200.424 61.3515C200.343 61.244 200.215 61.1835 200.041 61.17L197.016 60.7466C196.076 60.6122 195.316 60.3031 194.738 59.8192C194.174 59.3353 193.891 58.5288 193.891 57.3997V55.2827C193.891 54.1402 194.261 53.2665 195 52.6616C195.739 52.0433 196.761 51.7341 198.065 51.7341H203.71C203.966 51.7341 204.147 51.7946 204.255 51.9156C204.376 52.0231 204.436 52.2046 204.436 52.46V54.8593C204.436 55.1147 204.376 55.3029 204.255 55.4238C204.147 55.5314 203.966 55.5851 203.71 55.5851H199.012C198.838 55.5851 198.703 55.6456 198.609 55.7666C198.515 55.8741 198.468 56.0152 198.468 56.19C198.468 56.3647 198.515 56.5126 198.609 56.6336C198.703 56.7545 198.838 56.8217 199.012 56.8352L202.017 57.2384C202.958 57.3728 203.717 57.682 204.295 58.1659C204.873 58.6498 205.162 59.4563 205.162 60.5853V62.7024C205.162 63.8449 204.786 64.7253 204.033 65.3436C203.294 65.9485 202.279 66.2509 200.988 66.2509Z" fill="white"/>
<path d="M183.817 66.2509H180.692C180.437 66.2509 180.248 66.1971 180.127 66.0896C180.02 65.9686 179.966 65.7805 179.966 65.5251V52.46C179.966 52.2046 180.02 52.0231 180.127 51.9156C180.248 51.7946 180.437 51.7341 180.692 51.7341H183.817C184.072 51.7341 184.254 51.7946 184.361 51.9156C184.482 52.0231 184.543 52.2046 184.543 52.46V56.8352H187.91V52.46C187.91 52.2046 187.964 52.0231 188.071 51.9156C188.192 51.7946 188.38 51.7341 188.636 51.7341H191.761C192.016 51.7341 192.198 51.7946 192.305 51.9156C192.426 52.0231 192.487 52.2046 192.487 52.46V65.5251C192.487 65.7805 192.426 65.9686 192.305 66.0896C192.198 66.1971 192.016 66.2509 191.761 66.2509H188.636C188.38 66.2509 188.192 66.1971 188.071 66.0896C187.964 65.9686 187.91 65.7805 187.91 65.5251V61.0491H184.543V65.5251C184.543 65.7805 184.482 65.9686 184.361 66.0896C184.254 66.1971 184.072 66.2509 183.817 66.2509Z" fill="white"/>
<path d="M174.596 66.2509H171.329C171.074 66.2509 170.886 66.1971 170.765 66.0896C170.657 65.9686 170.604 65.7805 170.604 65.5251V55.6254H167.64C167.384 55.6254 167.196 55.5717 167.075 55.4641C166.968 55.3432 166.914 55.155 166.914 54.8996V52.46C166.914 52.2046 166.968 52.0231 167.075 51.9156C167.196 51.7946 167.384 51.7341 167.64 51.7341H178.285C178.541 51.7341 178.722 51.7946 178.83 51.9156C178.951 52.0231 179.011 52.2046 179.011 52.46V54.8996C179.011 55.155 178.951 55.3432 178.83 55.4641C178.722 55.5717 178.541 55.6254 178.285 55.6254H175.322V65.5251C175.322 65.7805 175.261 65.9686 175.14 66.0896C175.033 66.1971 174.851 66.2509 174.596 66.2509Z" fill="white"/>
<path d="M166.28 62.4404C166.28 63.0587 166.186 63.6232 165.998 64.134C165.823 64.6313 165.501 65.0615 165.03 65.4244C164.573 65.7739 163.935 66.0494 163.115 66.251C162.309 66.4526 161.28 66.5535 160.03 66.5535C158.78 66.5535 157.745 66.4526 156.925 66.251C156.105 66.0494 155.46 65.7739 154.99 65.4244C154.533 65.0615 154.21 64.6313 154.022 64.134C153.847 63.6232 153.76 63.0587 153.76 62.4404V55.5651C153.76 54.9468 153.847 54.3889 154.022 53.8916C154.21 53.3808 154.533 52.944 154.99 52.5811C155.46 52.2182 156.105 51.9359 156.925 51.7343C157.745 51.5326 158.78 51.4318 160.03 51.4318C161.28 51.4318 162.309 51.5326 163.115 51.7343C163.935 51.9359 164.573 52.2182 165.03 52.5811C165.501 52.944 165.823 53.3808 165.998 53.8916C166.186 54.3889 166.28 54.9468 166.28 55.5651V62.4404ZM158.337 61.7145C158.337 61.9834 158.437 62.2119 158.639 62.4C158.841 62.5748 159.304 62.6622 160.03 62.6622C160.756 62.6622 161.22 62.5748 161.421 62.4C161.623 62.2119 161.724 61.9834 161.724 61.7145V56.2909C161.724 56.0355 161.623 55.8205 161.421 55.6457C161.22 55.4575 160.756 55.3635 160.03 55.3635C159.304 55.3635 158.841 55.4575 158.639 55.6457C158.437 55.8205 158.337 56.0355 158.337 56.2909V61.7145Z" fill="white"/>
<path d="M152.077 66.2589H141.67C141.411 66.2589 141.22 66.2052 141.097 66.0979C140.988 65.9771 140.934 65.7893 140.934 65.5343V52.4927C140.934 52.2377 140.988 52.0566 141.097 51.9492C141.22 51.8285 141.411 51.7681 141.67 51.7681H144.839C145.098 51.7681 145.282 51.8285 145.391 51.9492C145.514 52.0566 145.575 52.2377 145.575 52.4927V62.4551H148.376V61.3659C148.376 61.1109 148.431 60.9298 148.54 60.8225C148.663 60.7017 148.853 60.6413 149.112 60.6413H152.077C152.336 60.6413 152.52 60.7017 152.629 60.8225C152.752 60.9298 152.813 61.1109 152.813 61.3659V65.5343C152.813 65.7893 152.752 65.9771 152.629 66.0979C152.52 66.2052 152.336 66.2589 152.077 66.2589Z" fill="white"/>
<path d="M135.542 66.2509H129.171C128.916 66.2509 128.727 66.1971 128.607 66.0896C128.499 65.9686 128.445 65.7805 128.445 65.5251V63.1661C128.445 62.9107 128.499 62.7292 128.607 62.6217C128.727 62.5007 128.916 62.4403 129.171 62.4403H134.595C134.769 62.4403 134.897 62.3865 134.978 62.279C135.072 62.158 135.119 62.0169 135.119 61.8556C135.119 61.627 135.072 61.459 134.978 61.3515C134.897 61.244 134.769 61.1835 134.595 61.17L131.57 60.7466C130.629 60.6122 129.87 60.3031 129.292 59.8192C128.727 59.3353 128.445 58.5288 128.445 57.3997V55.2827C128.445 54.1402 128.815 53.2665 129.554 52.6616C130.293 52.0433 131.315 51.7341 132.619 51.7341H138.264C138.52 51.7341 138.701 51.7946 138.809 51.9156C138.929 52.0231 138.99 52.2046 138.99 52.46V54.8593C138.99 55.1147 138.929 55.3029 138.809 55.4238C138.701 55.5314 138.52 55.5851 138.264 55.5851H133.566C133.392 55.5851 133.257 55.6456 133.163 55.7666C133.069 55.8741 133.022 56.0152 133.022 56.19C133.022 56.3647 133.069 56.5126 133.163 56.6336C133.257 56.7545 133.392 56.8217 133.566 56.8352L136.571 57.2384C137.511 57.3728 138.271 57.682 138.849 58.1659C139.427 58.6498 139.716 59.4563 139.716 60.5853V62.7024C139.716 63.8449 139.339 64.7253 138.587 65.3436C137.847 65.9485 136.833 66.2509 135.542 66.2509Z" fill="white"/>
<path d="M166.277 45.5226C166.277 46.1409 166.183 46.7055 165.995 47.2162C165.82 47.7136 165.498 48.1437 165.027 48.5066C164.57 48.8561 163.932 49.1317 163.112 49.3333C162.305 49.5349 161.277 49.6357 160.027 49.6357C158.777 49.6357 157.742 49.5349 156.922 49.3333C156.102 49.1317 155.457 48.8561 154.986 48.5066C154.529 48.1437 154.207 47.7136 154.019 47.2162C153.844 46.7055 153.756 46.1409 153.756 45.5226V38.6473C153.756 38.029 153.844 37.4712 154.019 36.9739C154.207 36.4631 154.529 36.0262 154.986 35.6633C155.457 35.3004 156.102 35.0181 156.922 34.8165C157.742 34.6149 158.777 34.5141 160.027 34.5141C161.277 34.5141 162.305 34.6149 163.112 34.8165C163.932 35.0181 164.57 35.3004 165.027 35.6633C165.498 36.0262 165.82 36.4631 165.995 36.9739C166.183 37.4712 166.277 38.029 166.277 38.6473V45.5226Z" fill="white"/>
<path d="M152.661 45.5226C152.661 46.1409 152.567 46.7055 152.379 47.2162C152.204 47.7136 151.881 48.1437 151.411 48.5066C150.954 48.8561 150.316 49.1317 149.496 49.3333C148.689 49.5349 147.661 49.6357 146.411 49.6357C145.161 49.6357 144.126 49.5349 143.306 49.3333C142.486 49.1317 141.841 48.8561 141.37 48.5066C140.913 48.1437 140.591 47.7136 140.402 47.2162C140.228 46.7055 140.14 46.1409 140.14 45.5226V38.6473C140.14 38.029 140.228 37.4712 140.402 36.9739C140.591 36.4631 140.913 36.0262 141.37 35.6633C141.841 35.3004 142.486 35.0181 143.306 34.8165C144.126 34.6149 145.161 34.5141 146.411 34.5141C147.661 34.5141 148.689 34.6149 149.496 34.8165C150.316 35.0181 150.954 35.3004 151.411 35.6633C151.881 36.0262 152.204 36.4631 152.379 36.9739C152.567 37.4712 152.661 38.029 152.661 38.6473V45.5226Z" fill="white"/>
<path fill-rule="evenodd" clip-rule="evenodd" d="M145.346 29.7597C146.463 29.7133 147.783 30.3302 148 31.7154C148.051 32.0393 147.847 32.3686 147.51 32.4283C147.169 32.4889 146.869 32.2421 146.818 31.9151C146.736 31.3944 146.177 30.9701 145.394 31.0027C144.67 31.0328 143.986 31.4695 143.833 32.4246C143.781 32.7514 143.48 32.997 143.139 32.935C142.803 32.8738 142.6 32.5438 142.652 32.2201C142.916 30.5747 144.168 29.8087 145.346 29.7597Z" fill="white"/>
<path fill-rule="evenodd" clip-rule="evenodd" d="M158.879 29.7597C159.995 29.7133 161.316 30.3302 161.533 31.7154C161.584 32.0393 161.38 32.3686 161.043 32.4283C160.701 32.4889 160.402 32.2421 160.351 31.9151C160.269 31.3944 159.71 30.9701 158.927 31.0027C158.203 31.0328 157.519 31.4695 157.366 32.4246C157.314 32.7514 157.013 32.997 156.672 32.935C156.336 32.8738 156.133 32.5438 156.185 32.2201C156.449 30.5747 157.701 29.8087 158.879 29.7597Z" fill="white"/>
<path d="M150.111 43.3901C150.111 43.5315 149.926 43.6062 149.834 43.6258C149.816 44.7061 149.613 46.8667 147.012 46.8667C144.688 46.8667 144.319 44.6275 144.356 43.508L144.024 43.449C143.448 43.4019 143.6 43.233 143.747 43.1544C145.297 42.5062 149.004 42.8009 149.779 43.0366C150.102 43.135 150.111 43.2133 150.111 43.3901Z" fill="#121212"/>
<ellipse cx="0.442669" cy="0.471396" rx="0.442669" ry="0.471396" transform="matrix(-1 0 0 1 148.783 43.6845)" fill="#D9D9D9"/>
<path d="M163.891 43.3893C163.891 43.5308 163.706 43.6054 163.614 43.625C163.595 44.7053 163.393 46.8659 160.792 46.8659C158.468 46.8659 158.099 44.6268 158.136 43.5072L157.804 43.4483C157.228 43.4011 157.38 43.2322 157.527 43.1537C159.077 42.5055 162.784 42.8001 163.559 43.0358C163.882 43.1343 163.891 43.2126 163.891 43.3893Z" fill="#121212"/>
<ellipse cx="0.442669" cy="0.471396" rx="0.442669" ry="0.471396" transform="matrix(-1 0 0 1 162.562 43.684)" fill="#D9D9D9"/>
<path d="M70.6213 135.2C69.5947 135.2 68.6413 135.02 67.7613 134.66C66.8813 134.287 66.108 133.773 65.4413 133.12C64.788 132.453 64.2813 131.68 63.9213 130.8C63.5747 129.92 63.4013 128.973 63.4013 127.96C63.4013 126.947 63.5747 126 63.9213 125.12C64.2813 124.24 64.788 123.473 65.4413 122.82C66.108 122.167 66.8747 121.653 67.7413 121.28C68.6213 120.907 69.5813 120.72 70.6213 120.72C71.7413 120.72 72.728 120.907 73.5813 121.28C74.4347 121.64 75.188 122.14 75.8413 122.78L74.0013 124.62C73.6147 124.193 73.1413 123.86 72.5813 123.62C72.0213 123.38 71.368 123.26 70.6213 123.26C69.968 123.26 69.368 123.373 68.8213 123.6C68.288 123.813 67.8213 124.133 67.4213 124.56C67.0213 124.973 66.7147 125.473 66.5013 126.06C66.288 126.633 66.1813 127.267 66.1813 127.96C66.1813 128.667 66.288 129.307 66.5013 129.88C66.7147 130.453 67.0213 130.953 67.4213 131.38C67.8213 131.793 68.288 132.113 68.8213 132.34C69.368 132.567 69.968 132.68 70.6213 132.68C71.408 132.68 72.0813 132.56 72.6413 132.32C73.2147 132.08 73.6947 131.74 74.0813 131.3L75.9213 133.14C75.268 133.793 74.508 134.3 73.6413 134.66C72.7747 135.02 71.768 135.2 70.6213 135.2ZM82.2184 135.2C81.245 135.2 80.365 134.98 79.5784 134.54C78.805 134.087 78.185 133.48 77.7184 132.72C77.265 131.947 77.0384 131.087 77.0384 130.14C77.0384 129.193 77.265 128.347 77.7184 127.6C78.1717 126.84 78.7917 126.24 79.5784 125.8C80.365 125.347 81.2384 125.12 82.1984 125.12C83.185 125.12 84.065 125.347 84.8384 125.8C85.625 126.24 86.245 126.84 86.6984 127.6C87.1517 128.347 87.3784 129.193 87.3784 130.14C87.3784 131.087 87.1517 131.947 86.6984 132.72C86.245 133.48 85.625 134.087 84.8384 134.54C84.065 134.98 83.1917 135.2 82.2184 135.2ZM82.1984 132.76C82.6917 132.76 83.125 132.653 83.4984 132.44C83.885 132.213 84.1784 131.907 84.3784 131.52C84.5917 131.12 84.6984 130.667 84.6984 130.16C84.6984 129.653 84.5917 129.207 84.3784 128.82C84.165 128.433 83.8717 128.133 83.4984 127.92C83.125 127.693 82.6917 127.58 82.1984 127.58C81.7184 127.58 81.2917 127.693 80.9184 127.92C80.545 128.133 80.2517 128.433 80.0384 128.82C79.825 129.207 79.7184 129.653 79.7184 130.16C79.7184 130.667 79.825 131.12 80.0384 131.52C80.2517 131.907 80.545 132.213 80.9184 132.44C81.2917 132.653 81.7184 132.76 82.1984 132.76ZM94.0051 135.2C93.0318 135.2 92.1518 134.98 91.3651 134.54C90.5918 134.087 89.9718 133.48 89.5051 132.72C89.0518 131.947 88.8251 131.087 88.8251 130.14C88.8251 129.193 89.0518 128.347 89.5051 127.6C89.9584 126.84 90.5784 126.24 91.3651 125.8C92.1518 125.347 93.0251 125.12 93.9851 125.12C94.9718 125.12 95.8518 125.347 96.6251 125.8C97.4118 126.24 98.0318 126.84 98.4851 127.6C98.9384 128.347 99.1651 129.193 99.1651 130.14C99.1651 131.087 98.9384 131.947 98.4851 132.72C98.0318 133.48 97.4118 134.087 96.6251 134.54C95.8518 134.98 94.9784 135.2 94.0051 135.2ZM93.9851 132.76C94.4784 132.76 94.9118 132.653 95.2851 132.44C95.6718 132.213 95.9651 131.907 96.1651 131.52C96.3784 131.12 96.4851 130.667 96.4851 130.16C96.4851 129.653 96.3784 129.207 96.1651 128.82C95.9518 128.433 95.6584 128.133 95.2851 127.92C94.9118 127.693 94.4784 127.58 93.9851 127.58C93.5051 127.58 93.0784 127.693 92.7051 127.92C92.3318 128.133 92.0384 128.433 91.8251 128.82C91.6118 129.207 91.5051 129.653 91.5051 130.16C91.5051 130.667 91.6118 131.12 91.8251 131.52C92.0384 131.907 92.3318 132.213 92.7051 132.44C93.0784 132.653 93.5051 132.76 93.9851 132.76ZM101.252 135V120.54H103.872V135H101.252ZM115.259 135.2C114.126 135.2 113.153 135.007 112.339 134.62C111.539 134.233 110.813 133.653 110.159 132.88L111.959 131.08C112.373 131.627 112.853 132.053 113.399 132.36C113.946 132.653 114.613 132.8 115.399 132.8C116.106 132.8 116.666 132.66 117.079 132.38C117.506 132.1 117.719 131.713 117.719 131.22C117.719 130.793 117.599 130.447 117.359 130.18C117.119 129.913 116.799 129.687 116.399 129.5C116.013 129.313 115.579 129.147 115.099 129C114.633 128.84 114.159 128.66 113.679 128.46C113.213 128.26 112.779 128.013 112.379 127.72C111.993 127.413 111.679 127.027 111.439 126.56C111.199 126.08 111.079 125.48 111.079 124.76C111.079 123.907 111.286 123.18 111.699 122.58C112.113 121.98 112.679 121.52 113.399 121.2C114.119 120.88 114.933 120.72 115.839 120.72C116.799 120.72 117.666 120.9 118.439 121.26C119.213 121.62 119.846 122.087 120.339 122.66L118.539 124.46C118.126 124.007 117.699 123.673 117.259 123.46C116.833 123.247 116.346 123.14 115.799 123.14C115.173 123.14 114.679 123.26 114.319 123.5C113.959 123.74 113.779 124.087 113.779 124.54C113.779 124.927 113.899 125.24 114.139 125.48C114.379 125.72 114.693 125.927 115.079 126.1C115.479 126.273 115.913 126.44 116.379 126.6C116.859 126.76 117.333 126.94 117.799 127.14C118.279 127.34 118.713 127.6 119.099 127.92C119.499 128.24 119.819 128.653 120.059 129.16C120.299 129.653 120.419 130.267 120.419 131C120.419 132.307 119.959 133.333 119.039 134.08C118.119 134.827 116.859 135.2 115.259 135.2ZM122.686 135V120.54H125.306V135H122.686ZM132.568 135.2C131.594 135.2 130.714 134.98 129.928 134.54C129.154 134.087 128.534 133.48 128.068 132.72C127.614 131.947 127.388 131.087 127.388 130.14C127.388 129.193 127.614 128.347 128.068 127.6C128.521 126.84 129.141 126.24 129.928 125.8C130.714 125.347 131.588 125.12 132.548 125.12C133.534 125.12 134.414 125.347 135.188 125.8C135.974 126.24 136.594 126.84 137.048 127.6C137.501 128.347 137.728 129.193 137.728 130.14C137.728 131.087 137.501 131.947 137.048 132.72C136.594 133.48 135.974 134.087 135.188 134.54C134.414 134.98 133.541 135.2 132.568 135.2ZM132.548 132.76C133.041 132.76 133.474 132.653 133.848 132.44C134.234 132.213 134.528 131.907 134.728 131.52C134.941 131.12 135.048 130.667 135.048 130.16C135.048 129.653 134.941 129.207 134.728 128.82C134.514 128.433 134.221 128.133 133.848 127.92C133.474 127.693 133.041 127.58 132.548 127.58C132.068 127.58 131.641 127.693 131.268 127.92C130.894 128.133 130.601 128.433 130.388 128.82C130.174 129.207 130.068 129.653 130.068 130.16C130.068 130.667 130.174 131.12 130.388 131.52C130.601 131.907 130.894 132.213 131.268 132.44C131.641 132.653 132.068 132.76 132.548 132.76ZM141 135V121.32H143.62V135H141ZM138.74 127.64V125.34H145.88V127.64H138.74ZM154.253 135V129.46C154.253 128.887 154.073 128.42 153.713 128.06C153.353 127.7 152.887 127.52 152.313 127.52C151.94 127.52 151.607 127.6 151.313 127.76C151.02 127.92 150.787 128.147 150.613 128.44C150.453 128.733 150.373 129.073 150.373 129.46L149.353 128.94C149.353 128.18 149.513 127.52 149.833 126.96C150.153 126.387 150.593 125.94 151.153 125.62C151.727 125.3 152.38 125.14 153.113 125.14C153.847 125.14 154.493 125.3 155.053 125.62C155.627 125.94 156.073 126.38 156.393 126.94C156.713 127.5 156.873 128.147 156.873 128.88V135H154.253ZM147.753 135V120.54H150.373V135H147.753ZM162.704 135.22C162.157 135.22 161.617 135.147 161.084 135C160.564 134.853 160.084 134.653 159.644 134.4C159.204 134.133 158.824 133.813 158.504 133.44L160.064 131.86C160.397 132.233 160.784 132.513 161.224 132.7C161.664 132.887 162.15 132.98 162.684 132.98C163.11 132.98 163.43 132.92 163.644 132.8C163.87 132.68 163.984 132.5 163.984 132.26C163.984 131.993 163.864 131.787 163.624 131.64C163.397 131.493 163.097 131.373 162.724 131.28C162.35 131.173 161.957 131.06 161.544 130.94C161.144 130.807 160.757 130.64 160.384 130.44C160.01 130.227 159.704 129.94 159.464 129.58C159.237 129.207 159.124 128.727 159.124 128.14C159.124 127.527 159.27 126.993 159.564 126.54C159.87 126.087 160.304 125.733 160.864 125.48C161.424 125.227 162.084 125.1 162.844 125.1C163.644 125.1 164.364 125.24 165.004 125.52C165.657 125.8 166.197 126.22 166.624 126.78L165.044 128.36C164.75 128 164.417 127.74 164.044 127.58C163.684 127.42 163.29 127.34 162.864 127.34C162.477 127.34 162.177 127.4 161.964 127.52C161.764 127.64 161.664 127.807 161.664 128.02C161.664 128.26 161.777 128.447 162.004 128.58C162.244 128.713 162.55 128.833 162.924 128.94C163.297 129.033 163.684 129.147 164.084 129.28C164.497 129.4 164.884 129.573 165.244 129.8C165.617 130.027 165.917 130.327 166.144 130.7C166.384 131.073 166.504 131.553 166.504 132.14C166.504 133.087 166.164 133.84 165.484 134.4C164.804 134.947 163.877 135.22 162.704 135.22ZM172.977 131.08V128.7H179.897V131.08H172.977ZM187.201 135V120.94H189.921V135H187.201ZM189.201 135V132.6H196.981V135H189.201ZM189.201 128.98V126.66H196.281V128.98H189.201ZM189.201 123.34V120.94H196.881V123.34H189.201ZM202.493 135L198.233 125.34H201.113L204.173 133.3H202.753L205.833 125.34H208.613L204.373 135H202.493ZM214.468 135.2C213.495 135.2 212.615 134.98 211.828 134.54C211.055 134.087 210.435 133.48 209.968 132.72C209.515 131.947 209.288 131.087 209.288 130.14C209.288 129.193 209.515 128.347 209.968 127.6C210.422 126.84 211.042 126.24 211.828 125.8C212.615 125.347 213.488 125.12 214.448 125.12C215.435 125.12 216.315 125.347 217.088 125.8C217.875 126.24 218.495 126.84 218.948 127.6C219.402 128.347 219.628 129.193 219.628 130.14C219.628 131.087 219.402 131.947 218.948 132.72C218.495 133.48 217.875 134.087 217.088 134.54C216.315 134.98 215.442 135.2 214.468 135.2ZM214.448 132.76C214.942 132.76 215.375 132.653 215.748 132.44C216.135 132.213 216.428 131.907 216.628 131.52C216.842 131.12 216.948 130.667 216.948 130.16C216.948 129.653 216.842 129.207 216.628 128.82C216.415 128.433 216.122 128.133 215.748 127.92C215.375 127.693 214.942 127.58 214.448 127.58C213.968 127.58 213.542 127.693 213.168 127.92C212.795 128.133 212.502 128.433 212.288 128.82C212.075 129.207 211.968 129.653 211.968 130.16C211.968 130.667 212.075 131.12 212.288 131.52C212.502 131.907 212.795 132.213 213.168 132.44C213.542 132.653 213.968 132.76 214.448 132.76ZM221.715 135V120.54H224.335V135H221.715ZM230.196 135L225.936 125.34H228.816L231.876 133.3H230.456L233.536 125.34H236.316L232.076 135H230.196ZM237.925 135V125.34H240.565V135H237.925ZM239.245 123.78C238.819 123.78 238.465 123.64 238.185 123.36C237.905 123.067 237.765 122.707 237.765 122.28C237.765 121.867 237.905 121.513 238.185 121.22C238.465 120.927 238.819 120.78 239.245 120.78C239.685 120.78 240.039 120.927 240.305 121.22C240.585 121.513 240.725 121.867 240.725 122.28C240.725 122.707 240.585 123.067 240.305 123.36C240.039 123.64 239.685 123.78 239.245 123.78ZM249.786 135V129.46C249.786 128.887 249.606 128.42 249.246 128.06C248.886 127.7 248.42 127.52 247.846 127.52C247.473 127.52 247.14 127.6 246.846 127.76C246.553 127.92 246.32 128.147 246.146 128.44C245.986 128.733 245.906 129.073 245.906 129.46L244.886 128.94C244.886 128.18 245.046 127.52 245.366 126.96C245.7 126.387 246.153 125.94 246.726 125.62C247.313 125.3 247.973 125.14 248.706 125.14C249.413 125.14 250.046 125.32 250.606 125.68C251.166 126.027 251.606 126.487 251.926 127.06C252.246 127.62 252.406 128.227 252.406 128.88V135H249.786ZM243.286 135V125.34H245.906V135H243.286ZM258.957 139.28C257.93 139.28 257.023 139.093 256.237 138.72C255.45 138.36 254.823 137.847 254.357 137.18L256.017 135.52C256.39 135.96 256.803 136.293 257.257 136.52C257.723 136.76 258.283 136.88 258.937 136.88C259.75 136.88 260.39 136.673 260.857 136.26C261.337 135.847 261.577 135.273 261.577 134.54V132.12L262.017 130L261.597 127.88V125.34H264.197V134.5C264.197 135.46 263.97 136.293 263.517 137C263.077 137.72 262.463 138.28 261.677 138.68C260.89 139.08 259.983 139.28 258.957 139.28ZM258.837 134.74C257.97 134.74 257.19 134.533 256.497 134.12C255.803 133.693 255.257 133.113 254.857 132.38C254.47 131.647 254.277 130.827 254.277 129.92C254.277 129.013 254.47 128.2 254.857 127.48C255.257 126.76 255.803 126.193 256.497 125.78C257.19 125.353 257.97 125.14 258.837 125.14C259.557 125.14 260.19 125.28 260.737 125.56C261.297 125.84 261.737 126.227 262.057 126.72C262.377 127.2 262.55 127.767 262.577 128.42V131.46C262.55 132.1 262.37 132.673 262.037 133.18C261.717 133.673 261.277 134.06 260.717 134.34C260.17 134.607 259.543 134.74 258.837 134.74ZM259.357 132.36C259.837 132.36 260.25 132.26 260.597 132.06C260.957 131.847 261.237 131.56 261.437 131.2C261.637 130.827 261.737 130.407 261.737 129.94C261.737 129.46 261.637 129.04 261.437 128.68C261.237 128.32 260.957 128.04 260.597 127.84C260.25 127.627 259.837 127.52 259.357 127.52C258.877 127.52 258.457 127.627 258.097 127.84C257.737 128.04 257.457 128.327 257.257 128.7C257.057 129.06 256.957 129.473 256.957 129.94C256.957 130.393 257.057 130.807 257.257 131.18C257.457 131.54 257.737 131.827 258.097 132.04C258.457 132.253 258.877 132.36 259.357 132.36Z" fill="white"/>
</svg>
