<svg width="129" height="24" viewBox="0 0 129 24" fill="none" xmlns="http://www.w3.org/2000/svg">
<path d="M12 24C18.6274 24 24 18.6274 24 12C24 5.37258 18.6274 0 12 0C5.37258 0 0 5.37258 0 12C0 18.6274 5.37258 24 12 24Z" fill="url(#paint0_radial_11749_7105)"/>
<path d="M8.40438 5.70224C8.4025 5.45414 8.48221 5.36263 8.72701 5.32773C9.54349 5.21075 10.3571 5.07491 11.1703 4.93576C11.3802 4.89992 11.4491 4.95652 11.4467 5.17255C11.4378 5.9895 11.4434 6.80692 11.4444 7.62434C11.4444 7.91238 11.5848 8.05655 11.8656 8.05687C12.8401 8.05687 13.8145 8.0564 14.789 8.05781C15.0961 8.05828 15.1032 8.06677 15.1037 8.37855C15.1046 9.03088 15.0989 9.68322 15.1074 10.3351C15.1098 10.5308 15.0376 10.594 14.8461 10.5931C13.8009 10.587 12.7556 10.5931 11.7104 10.5888C11.5401 10.5884 11.4444 10.6285 11.4458 10.8223C11.4557 12.1265 11.4576 13.4307 11.4703 14.7354C11.4722 14.9141 11.5066 15.0953 11.5453 15.2712C11.7245 16.0886 12.1585 16.4495 12.9943 16.4768C13.6363 16.4976 14.2641 16.4032 14.8749 16.2065C15.0371 16.1542 15.1211 16.1749 15.1527 16.3598C15.2626 17.0103 15.3796 17.6598 15.5008 18.3088C15.5272 18.4508 15.49 18.5272 15.3536 18.5786C13.9461 19.1107 12.5 19.2281 11.0458 18.8626C9.63028 18.5069 8.81192 17.5428 8.56806 16.1127C8.47608 15.5731 8.42467 15.0207 8.41665 14.4736C8.37289 11.542 8.42438 8.65407 8.40438 5.70224Z" fill="white"/>
<path d="M32.95 11.3586H31.45V17.3919H29.15V11.3586H28V9.05856H29.15V6.44189H31.45V9.05856H32.95V11.3586Z" fill="white"/>
<path d="M38.276 17.6086C37.5094 17.6086 36.8094 17.4113 36.176 17.0169C35.5483 16.6224 35.0455 16.0947 34.6677 15.4336C34.2955 14.7669 34.1094 14.0308 34.1094 13.2252C34.1094 12.6141 34.2177 12.0447 34.4344 11.5169C34.651 10.9836 34.9483 10.5169 35.326 10.1169C35.7094 9.71134 36.1538 9.39467 36.6594 9.16689C37.1649 8.93912 37.7038 8.82523 38.276 8.82523C39.0427 8.82523 39.7399 9.02245 40.3677 9.41689C41.001 9.81134 41.5038 10.3419 41.876 11.0086C42.2538 11.6752 42.4427 12.4141 42.4427 13.2252C42.4427 13.8308 42.3344 14.3974 42.1177 14.9252C41.901 15.453 41.601 15.9197 41.2177 16.3252C40.8399 16.7252 40.3983 17.0391 39.8927 17.2669C39.3927 17.4947 38.8538 17.6086 38.276 17.6086ZM38.276 15.3086C38.6316 15.3086 38.951 15.2141 39.2344 15.0252C39.5177 14.8308 39.7399 14.5752 39.901 14.2586C40.0622 13.9419 40.1427 13.5974 40.1427 13.2252C40.1427 12.8419 40.0566 12.4919 39.8844 12.1752C39.7177 11.853 39.4927 11.5974 39.2094 11.4086C38.926 11.2197 38.6149 11.1252 38.276 11.1252C37.926 11.1252 37.6094 11.2224 37.326 11.4169C37.0427 11.6113 36.8177 11.8669 36.651 12.1836C36.4899 12.5002 36.4094 12.8474 36.4094 13.2252C36.4094 13.6197 36.4927 13.9752 36.6594 14.2919C36.8316 14.603 37.0594 14.8502 37.3427 15.0336C37.626 15.2169 37.9372 15.3086 38.276 15.3086Z" fill="white"/>
<path d="M48.1841 17.3919H45.9174L43.1341 9.05856H45.3841L47.0591 14.0502L48.7174 9.05856H50.9674L52.6258 14.0502L54.2924 9.05856H56.5508L53.7591 17.3919H51.5008L49.8424 12.3919L48.1841 17.3919Z" fill="white"/>
<path d="M65.8204 12.0919V17.3919H63.5204V12.7252C63.5204 12.4308 63.4482 12.1669 63.3038 11.9336C63.1649 11.6947 62.976 11.5058 62.7371 11.3669C62.5038 11.228 62.2427 11.1586 61.9538 11.1586C61.6649 11.1586 61.401 11.228 61.1621 11.3669C60.9232 11.5058 60.7343 11.6947 60.5954 11.9336C60.4566 12.1669 60.3871 12.4308 60.3871 12.7252V17.3919H58.0871L58.0788 9.05856H60.3788L60.3871 9.67523C60.6649 9.40856 60.9899 9.20023 61.3621 9.05023C61.7399 8.90023 62.1371 8.82523 62.5538 8.82523C63.1593 8.82523 63.7066 8.97245 64.1954 9.26689C64.6899 9.56134 65.0843 9.95578 65.3788 10.4502C65.6732 10.9391 65.8204 11.4863 65.8204 12.0919Z" fill="white"/>
<path d="M71.3236 17.6086C70.5569 17.6086 69.8569 17.4113 69.2236 17.0169C68.5958 16.6224 68.093 16.0919 67.7152 15.4252C67.343 14.7586 67.1569 14.0224 67.1569 13.2169C67.1569 12.6113 67.2652 12.0447 67.4819 11.5169C67.6986 10.9836 67.9958 10.5169 68.3736 10.1169C68.7569 9.71134 69.2013 9.39467 69.7069 9.16689C70.2124 8.93912 70.7513 8.82523 71.3236 8.82523C71.9847 8.82523 72.5875 8.96689 73.1319 9.25023C73.6819 9.53356 74.1458 9.91967 74.5236 10.4086C74.9069 10.8974 75.1791 11.4502 75.3402 12.0669C75.5069 12.6836 75.5347 13.3252 75.4236 13.9919H69.6402C69.7125 14.2363 69.8236 14.4586 69.9736 14.6586C70.1291 14.853 70.318 15.0086 70.5402 15.1252C70.768 15.2419 71.0291 15.303 71.3236 15.3086C71.6124 15.3141 71.8791 15.2474 72.1236 15.1086C72.368 14.9697 72.5763 14.7836 72.7486 14.5502L75.0986 15.0919C74.7597 15.8308 74.2541 16.4363 73.5819 16.9086C72.9097 17.3752 72.1569 17.6086 71.3236 17.6086ZM69.5569 12.2919H73.0986C73.0263 12.0141 72.9041 11.7641 72.7319 11.5419C72.5597 11.3197 72.3513 11.1447 72.1069 11.0169C71.868 10.8891 71.6069 10.8252 71.3236 10.8252C71.0458 10.8252 70.7847 10.8891 70.5402 11.0169C70.3013 11.1447 70.0958 11.3197 69.9236 11.5419C69.7569 11.7586 69.6347 12.0086 69.5569 12.2919Z" fill="white"/>
<path d="M79.5786 17.5419C79.1509 17.5086 78.7397 17.4197 78.3453 17.2752C77.9509 17.1252 77.5981 16.9252 77.287 16.6752C76.9814 16.4197 76.7425 16.1141 76.5703 15.7586L78.5036 14.9252C78.5647 15.0141 78.6564 15.1113 78.7786 15.2169C78.9009 15.3169 79.0481 15.4058 79.2203 15.4836C79.3981 15.5613 79.6036 15.6002 79.837 15.6002C80.0092 15.6002 80.1759 15.5808 80.337 15.5419C80.4981 15.4974 80.6286 15.428 80.7286 15.3336C80.8286 15.2336 80.8786 15.103 80.8786 14.9419C80.8786 14.7641 80.8148 14.628 80.687 14.5336C80.5592 14.4391 80.4036 14.3697 80.2203 14.3252C80.0425 14.2752 79.8703 14.2336 79.7036 14.2002C79.1925 14.1113 78.7092 13.953 78.2536 13.7252C77.8036 13.4919 77.437 13.1919 77.1536 12.8252C76.8703 12.4586 76.7286 12.0197 76.7286 11.5086C76.7286 10.9474 76.8759 10.4641 77.1703 10.0586C77.4647 9.64745 77.8481 9.33078 78.3203 9.10856C78.7925 8.88634 79.3036 8.77523 79.8536 8.77523C80.5036 8.77523 81.1064 8.91134 81.662 9.18356C82.2175 9.45578 82.6647 9.83912 83.0036 10.3336L81.187 11.4086C81.1148 11.303 81.0203 11.203 80.9036 11.1086C80.7925 11.0086 80.662 10.9252 80.512 10.8586C80.3675 10.7863 80.212 10.7447 80.0453 10.7336C79.8286 10.7169 79.6314 10.7308 79.4536 10.7752C79.2759 10.8141 79.1342 10.8891 79.0286 11.0002C78.9286 11.1113 78.8786 11.2613 78.8786 11.4502C78.8786 11.6336 78.9592 11.7697 79.1203 11.8586C79.2814 11.9419 79.4675 12.0058 79.6786 12.0502C79.8898 12.0891 80.0759 12.1363 80.237 12.1919C80.7203 12.3474 81.1731 12.5474 81.5953 12.7919C82.0231 13.0308 82.3675 13.3252 82.6286 13.6752C82.8898 14.0252 83.012 14.4363 82.9953 14.9086C82.9953 15.4586 82.8314 15.9419 82.5036 16.3586C82.1759 16.7697 81.7509 17.0836 81.2286 17.3002C80.712 17.5113 80.162 17.5919 79.5786 17.5419Z" fill="white"/>
<path d="M88.4667 17.6252C87.6611 17.6252 86.925 17.428 86.2583 17.0336C85.5972 16.6391 85.0694 16.1086 84.675 15.4419C84.2806 14.7752 84.0833 14.0363 84.0833 13.2252C84.0833 12.6197 84.1972 12.053 84.425 11.5252C84.6528 10.9974 84.9667 10.5336 85.3667 10.1336C85.7722 9.728 86.2389 9.41134 86.7667 9.18356C87.2944 8.95578 87.8611 8.84189 88.4667 8.84189C88.95 8.84189 89.3778 8.94745 89.75 9.15856C90.1222 9.36412 90.4389 9.63078 90.7 9.95856V9.05856H93V21.5586H90.7V16.5086C90.4389 16.8308 90.1222 17.0974 89.75 17.3086C89.3778 17.5197 88.95 17.6252 88.4667 17.6252ZM88.5 11.0502C88.1167 11.0502 87.7694 11.1502 87.4583 11.3502C87.1472 11.5447 86.9 11.8086 86.7167 12.1419C86.5333 12.4697 86.4417 12.8308 86.4417 13.2252C86.4417 13.6308 86.5333 13.9974 86.7167 14.3252C86.9 14.653 87.1472 14.9141 87.4583 15.1086C87.7694 15.303 88.1167 15.4002 88.5 15.4002C88.8778 15.4002 89.2167 15.303 89.5167 15.1086C89.8222 14.9141 90.0611 14.653 90.2333 14.3252C90.4111 13.9919 90.5 13.6252 90.5 13.2252C90.5 12.8252 90.4111 12.4613 90.2333 12.1336C90.0611 11.8058 89.8222 11.5447 89.5167 11.3502C89.2167 11.1502 88.8778 11.0502 88.5 11.0502Z" fill="white"/>
<path d="M94.6908 14.3419V9.05856H96.9907V13.7086C96.9907 14.003 97.0602 14.2697 97.1991 14.5086C97.3435 14.7419 97.5352 14.928 97.7741 15.0669C98.013 15.2058 98.2741 15.2752 98.5574 15.2752C98.8463 15.2752 99.1102 15.2058 99.3491 15.0669C99.588 14.928 99.7769 14.7419 99.9157 14.5086C100.055 14.2697 100.124 14.003 100.124 13.7086V9.05856H102.424L102.432 17.3919H100.132L100.124 16.7586C99.8463 17.0252 99.5185 17.2336 99.1407 17.3836C98.7685 17.5336 98.3741 17.6086 97.9574 17.6086C97.3574 17.6086 96.8102 17.4613 96.3158 17.1669C95.8213 16.8724 95.4269 16.4808 95.1324 15.9919C94.838 15.4974 94.6908 14.9474 94.6908 14.3419Z" fill="white"/>
<path d="M110.393 9.05856H112.693V17.3919H110.385L110.277 16.5252C110.06 16.8474 109.782 17.1086 109.443 17.3086C109.104 17.5086 108.707 17.6086 108.252 17.6086C107.629 17.6086 107.049 17.4919 106.51 17.2586C105.971 17.0252 105.496 16.703 105.085 16.2919C104.674 15.8808 104.352 15.4058 104.118 14.8669C103.891 14.3224 103.777 13.7391 103.777 13.1169C103.777 12.5224 103.885 11.9669 104.102 11.4502C104.318 10.9336 104.624 10.478 105.018 10.0836C105.413 9.68912 105.866 9.38078 106.377 9.15856C106.893 8.93634 107.449 8.82523 108.043 8.82523C108.554 8.82523 109.013 8.93356 109.418 9.15023C109.829 9.36689 110.188 9.64189 110.493 9.97523L110.393 9.05856ZM108.193 15.4002C108.571 15.4002 108.913 15.303 109.218 15.1086C109.524 14.9141 109.766 14.653 109.943 14.3252C110.121 13.9919 110.21 13.6252 110.21 13.2252C110.21 12.8197 110.121 12.453 109.943 12.1252C109.766 11.7974 109.524 11.5363 109.218 11.3419C108.913 11.1474 108.571 11.0502 108.193 11.0502C107.81 11.0502 107.463 11.1474 107.152 11.3419C106.841 11.5363 106.593 11.8002 106.41 12.1336C106.227 12.4613 106.135 12.8252 106.135 13.2252C106.135 13.6252 106.227 13.9919 106.41 14.3252C106.599 14.653 106.849 14.9141 107.16 15.1086C107.471 15.303 107.816 15.4002 108.193 15.4002Z" fill="white"/>
<path d="M114.709 17.3919L114.701 9.05856H117.001L117.009 9.67523C117.287 9.40856 117.612 9.20023 117.984 9.05023C118.362 8.90023 118.759 8.82523 119.176 8.82523C119.482 8.82523 119.787 8.86967 120.093 8.95856L119.184 11.2836C118.984 11.2002 118.782 11.1586 118.576 11.1586C118.287 11.1586 118.023 11.228 117.784 11.3669C117.546 11.5058 117.357 11.6947 117.218 11.9336C117.079 12.1669 117.009 12.4308 117.009 12.7252V17.3919H114.709Z" fill="white"/>
<path d="M124.609 17.6086C123.843 17.6086 123.143 17.4113 122.509 17.0169C121.882 16.6224 121.379 16.0919 121.001 15.4252C120.629 14.7586 120.443 14.0224 120.443 13.2169C120.443 12.6113 120.551 12.0447 120.768 11.5169C120.984 10.9836 121.282 10.5169 121.659 10.1169C122.043 9.71134 122.487 9.39467 122.993 9.16689C123.498 8.93912 124.037 8.82523 124.609 8.82523C125.27 8.82523 125.873 8.96689 126.418 9.25023C126.968 9.53356 127.432 9.91967 127.809 10.4086C128.193 10.8974 128.465 11.4502 128.626 12.0669C128.793 12.6836 128.82 13.3252 128.709 13.9919H122.926C122.998 14.2363 123.109 14.4586 123.259 14.6586C123.415 14.853 123.604 15.0086 123.826 15.1252C124.054 15.2419 124.315 15.303 124.609 15.3086C124.898 15.3141 125.165 15.2474 125.409 15.1086C125.654 14.9697 125.862 14.7836 126.034 14.5502L128.384 15.0919C128.045 15.8308 127.54 16.4363 126.868 16.9086C126.195 17.3752 125.443 17.6086 124.609 17.6086ZM122.843 12.2919H126.384C126.312 12.0141 126.19 11.7641 126.018 11.5419C125.845 11.3197 125.637 11.1447 125.393 11.0169C125.154 10.8891 124.893 10.8252 124.609 10.8252C124.332 10.8252 124.07 10.8891 123.826 11.0169C123.587 11.1447 123.382 11.3197 123.209 11.5419C123.043 11.7586 122.92 12.0086 122.843 12.2919Z" fill="white"/>
<defs>
<radialGradient id="paint0_radial_11749_7105" cx="0" cy="0" r="1" gradientUnits="userSpaceOnUse" gradientTransform="translate(19.2209 18.6785) rotate(-142.412) scale(21.4584)">
<stop offset="0.142317" stop-color="#9877FF"/>
<stop offset="0.53125" stop-color="#A858FF"/>
</radialGradient>
</defs>
</svg>
