<svg width="300" height="300" viewBox="0 0 300 300" fill="none" xmlns="http://www.w3.org/2000/svg">
<path d="M174.655 110.777C157.773 111.646 151.479 111.237 146.979 104.332C137.384 102.91 120.376 105.688 118.017 112.639C115.069 121.329 133.636 139.406 141.394 137.544C149.153 135.682 151.557 125.352 154.35 117.056C155.712 113.01 168.758 113.881 187.224 113.57C201.996 113.322 205.168 115.556 205.168 116.746C205.789 123.636 208.741 128.907 209.879 130.639L209.203 106.117C206.968 110.089 205.013 110.881 204.237 110.777C200.203 110.777 191.538 109.908 174.655 110.777Z" fill="white" stroke="black" stroke-width="1.2"/>
<path d="M246.752 119.11C246.752 131.924 237.468 142.195 226.152 142.195C214.835 142.195 205.551 131.924 205.551 119.11C205.551 106.297 214.835 96.0258 226.152 96.0258C237.468 96.0258 246.752 106.297 246.752 119.11Z" fill="white" stroke="black" stroke-width="1.2"/>
<path d="M152.121 119.11C152.121 131.881 142.156 142.195 129.91 142.195C117.665 142.195 107.7 131.881 107.7 119.11C107.7 106.34 117.665 96.0258 129.91 96.0258C142.156 96.0258 152.121 106.34 152.121 119.11Z" fill="white" stroke="black" stroke-width="1.2"/>
<path d="M152.121 119.11C152.121 131.914 142.686 142.195 131.164 142.195C119.642 142.195 110.207 131.914 110.207 119.11C110.207 106.307 119.642 96.0258 131.164 96.0258C142.686 96.0258 152.121 106.307 152.121 119.11Z" fill="url(#paint0_linear_8540_115190)" stroke="black" stroke-width="1.2"/>
<path d="M142.2 111.787H138.636C138.224 111.787 137.829 111.594 137.552 111.254L136.106 109.469C135.887 109.202 135.585 109.046 135.257 109.046C134.929 109.046 134.626 109.202 134.408 109.469L133.164 111.005C132.76 111.502 132.172 111.796 131.566 111.796H112.055C111.5 113.517 111.139 115.347 110.996 117.252H129.414C129.742 117.252 130.045 117.105 130.272 116.847L131.987 114.888C132.197 114.639 132.5 114.501 132.802 114.501H132.869C133.197 114.501 133.5 114.658 133.718 114.924L135.164 116.709C135.442 117.049 135.837 117.243 136.249 117.243H151.279C151.136 115.347 150.775 113.508 150.22 111.778L142.2 111.787Z" fill="white"/>
<path d="M122.143 128.733C122.471 128.733 122.773 128.586 123 128.328L124.715 126.369C124.934 126.12 125.228 125.982 125.539 125.982H125.606C125.934 125.982 126.245 126.139 126.455 126.396L127.901 128.181C128.179 128.521 128.574 128.715 128.986 128.715H149.363C150.128 126.985 150.682 125.136 151.019 123.195H131.457C131.045 123.195 130.65 123.002 130.373 122.661L128.927 120.895C128.708 120.628 128.406 120.481 128.078 120.481C127.75 120.481 127.439 120.637 127.229 120.895L125.985 122.431C125.581 122.937 124.993 123.222 124.379 123.222H111.273C111.61 125.164 112.165 127.013 112.929 128.742L122.143 128.733Z" fill="white"/>
<path d="M136.594 105.817C136.922 105.817 137.224 105.669 137.451 105.412L139.166 103.452C139.376 103.204 139.679 103.066 139.99 103.066H140.057C140.385 103.066 140.688 103.222 140.906 103.489L142.352 105.283C142.63 105.623 143.025 105.817 143.437 105.817H147.312C143.622 100.444 137.754 96.9758 131.146 96.9758C124.539 96.9758 118.663 100.444 114.973 105.817H136.594Z" fill="white"/>
<path d="M128.818 134.207H123.522C123.11 134.207 122.715 134.014 122.437 133.673L120.991 131.888C120.773 131.622 120.47 131.474 120.142 131.474C119.814 131.474 119.503 131.631 119.293 131.888L118.049 133.425C117.646 133.931 117.057 134.216 116.443 134.216H116.359C120.05 138.54 125.304 141.254 131.146 141.254C136.989 141.254 142.234 138.54 145.933 134.216L128.818 134.207Z" fill="white"/>
<path d="M246.753 119.11C246.753 131.972 238.171 142.195 227.813 142.195C217.456 142.195 208.873 131.972 208.873 119.11C208.873 106.248 217.456 96.0258 227.813 96.0258C238.171 96.0258 246.753 106.248 246.753 119.11Z" fill="url(#paint1_linear_8540_115190)" stroke="black" stroke-width="1.2"/>
<path d="M237.814 111.788H234.583C234.21 111.788 233.852 111.594 233.6 111.254L232.29 109.469C232.092 109.202 231.817 109.046 231.52 109.046C231.223 109.046 230.949 109.202 230.751 109.469L229.623 111.006C229.257 111.502 228.724 111.797 228.175 111.797H210.489C209.986 113.517 209.659 115.348 209.529 117.252H226.224C226.522 117.252 226.796 117.105 227.002 116.847L228.556 114.888C228.747 114.639 229.021 114.501 229.295 114.501H229.356C229.653 114.501 229.928 114.658 230.126 114.925L231.436 116.709C231.688 117.05 232.046 117.243 232.419 117.243H246.044C245.914 115.348 245.587 113.508 245.084 111.778L237.814 111.788Z" fill="white"/>
<path d="M219.634 128.733C219.931 128.733 220.205 128.586 220.411 128.329L221.965 126.369C222.164 126.121 222.43 125.983 222.712 125.983H222.773C223.07 125.983 223.352 126.139 223.543 126.397L224.853 128.181C225.105 128.522 225.463 128.715 225.836 128.715H244.307C245 126.985 245.503 125.136 245.808 123.195H228.077C227.703 123.195 227.345 123.002 227.094 122.662L225.783 120.895C225.585 120.628 225.311 120.481 225.013 120.481C224.716 120.481 224.434 120.638 224.244 120.895L223.116 122.432C222.75 122.938 222.217 123.223 221.661 123.223H209.781C210.086 125.164 210.589 127.013 211.282 128.742L219.634 128.733Z" fill="white"/>
<path d="M232.733 105.817C233.03 105.817 233.305 105.67 233.51 105.412L235.065 103.453C235.255 103.204 235.53 103.066 235.812 103.066H235.872C236.17 103.066 236.444 103.223 236.642 103.49L237.953 105.283C238.204 105.624 238.562 105.817 238.936 105.817H242.448C239.103 100.444 233.785 96.9762 227.795 96.9762C221.806 96.9762 216.48 100.444 213.135 105.817H232.733Z" fill="white"/>
<path d="M225.685 134.207H220.885C220.511 134.207 220.153 134.014 219.902 133.674L218.591 131.889C218.393 131.622 218.119 131.475 217.822 131.475C217.524 131.475 217.242 131.631 217.052 131.889L215.924 133.425C215.558 133.931 215.025 134.216 214.469 134.216H214.393C217.738 138.54 222.5 141.254 227.796 141.254C233.092 141.254 237.847 138.54 241.199 134.216L225.685 134.207Z" fill="white"/>
<defs>
<linearGradient id="paint0_linear_8540_115190" x1="118.229" y1="101.712" x2="133.505" y2="141.905" gradientUnits="userSpaceOnUse">
<stop stop-color="#3D3D3D"/>
<stop offset="1" stop-color="#171717"/>
</linearGradient>
<linearGradient id="paint1_linear_8540_115190" x1="216.089" y1="101.712" x2="232.492" y2="140.833" gradientUnits="userSpaceOnUse">
<stop stop-color="#3D3D3D"/>
<stop offset="1" stop-color="#171717"/>
</linearGradient>
</defs>
</svg>
