<svg width="220" height="155" viewBox="0 0 220 155" fill="none" xmlns="http://www.w3.org/2000/svg">
<path d="M15.4436 136.874C16.6196 136.874 17.4596 137.234 17.9636 137.954C18.4796 138.662 18.7376 139.838 18.7376 141.482C18.7376 142.166 18.6716 142.796 18.5396 143.372C18.4196 143.948 18.1976 144.452 17.8736 144.884C17.5616 145.304 17.1236 145.634 16.5596 145.874C15.9956 146.102 15.2636 146.216 14.3636 146.216C14.0516 146.216 13.6916 146.198 13.2836 146.162C12.8756 146.138 12.4556 146.096 12.0236 146.036C11.6036 145.988 11.2016 145.922 10.8176 145.838C10.4336 145.742 10.1036 145.634 9.82763 145.514L11.9516 143.984C12.1796 144.056 12.4316 144.122 12.7076 144.182C12.9836 144.23 13.2656 144.266 13.5536 144.29C13.8416 144.302 14.0936 144.302 14.3096 144.29C14.7176 144.278 15.0416 144.194 15.2816 144.038C15.5336 143.87 15.7136 143.588 15.8216 143.192C15.9296 142.784 15.9836 142.22 15.9836 141.5C15.9836 140.84 15.9356 140.33 15.8396 139.97C15.7556 139.598 15.5936 139.34 15.3536 139.196C15.1256 139.04 14.8016 138.962 14.3816 138.962C13.9856 138.962 13.6256 139.046 13.3016 139.214C12.9776 139.382 12.6176 139.604 12.2216 139.88L12.0236 138.62C12.3356 138.284 12.6716 137.984 13.0316 137.72C13.3916 137.456 13.7756 137.252 14.1836 137.108C14.5916 136.952 15.0116 136.874 15.4436 136.874ZM12.4916 133.4L12.5096 136.28C12.5096 136.688 12.4856 137.084 12.4376 137.468C12.4016 137.84 12.3296 138.206 12.2216 138.566L12.4736 138.8L12.4916 145.64L9.82763 145.514V133.4H12.4916ZM29.3385 137.108L26.1525 146.108C26.0085 146.552 25.8045 146.996 25.5405 147.44C25.2885 147.896 24.9645 148.304 24.5685 148.664C24.1845 149.024 23.7165 149.294 23.1645 149.474C22.6245 149.666 21.9825 149.714 21.2385 149.618L21.0405 148.106C21.7725 147.914 22.3425 147.656 22.7505 147.332C23.1585 147.008 23.4765 146.582 23.7045 146.054L24.2625 144.812C24.3705 144.548 24.4725 144.23 24.5685 143.858C24.6765 143.474 24.7665 143.144 24.8385 142.868L26.4945 137.108H29.3385ZM22.2825 137.108L23.9745 142.868C24.0225 143.096 24.0705 143.324 24.1185 143.552C24.1665 143.78 24.2085 144.008 24.2445 144.236H24.7305L23.8845 146H23.2365C23.0325 146 22.8525 145.94 22.6965 145.82C22.5405 145.7 22.4325 145.544 22.3725 145.352L19.4385 137.108H22.2825Z" fill="#121212"/>
<path d="M55.7227 155C64.5592 155 71.7227 147.837 71.7227 139C71.7227 130.163 64.5592 123 55.7227 123C46.8861 123 39.7227 130.163 39.7227 139C39.7227 147.837 46.8861 155 55.7227 155Z" fill="url(#paint0_radial_11846_17851)"/>
<path d="M50.9298 130.603C50.9273 130.272 51.0336 130.15 51.36 130.104C52.4486 129.948 53.5335 129.767 54.6177 129.581C54.8976 129.533 54.9894 129.609 54.9862 129.897C54.9743 130.986 54.9818 132.076 54.9831 133.166C54.9831 133.55 55.1703 133.742 55.5447 133.743C56.844 133.743 58.1434 133.742 59.4427 133.744C59.8521 133.745 59.8615 133.756 59.8622 134.172C59.8634 135.041 59.8559 135.911 59.8672 136.78C59.8703 137.041 59.7741 137.126 59.5188 137.124C58.1251 137.116 56.7315 137.124 55.3378 137.119C55.1108 137.118 54.9831 137.171 54.985 137.43C54.9982 139.169 55.0007 140.908 55.0177 142.647C55.0202 142.886 55.0661 143.127 55.1177 143.362C55.3567 144.452 55.9353 144.933 57.0497 144.969C57.9056 144.997 58.7427 144.871 59.5571 144.609C59.7735 144.539 59.8854 144.567 59.9276 144.813C60.0741 145.681 60.2301 146.547 60.3917 147.412C60.4269 147.601 60.3772 147.703 60.1955 147.772C58.3188 148.481 56.3906 148.638 54.4517 148.15C52.5643 147.676 51.4732 146.391 51.148 144.484C51.0254 143.764 50.9568 143.028 50.9462 142.298C50.8878 138.39 50.9565 134.539 50.9298 130.603Z" fill="white"/>
<path d="M83.6566 138.144H81.6566V146.189H78.59V138.144H77.0566V135.078H78.59V131.589H81.6566V135.078H83.6566V138.144Z" fill="#222222"/>
<path d="M90.758 146.478C89.7358 146.478 88.8025 146.215 87.958 145.689C87.121 145.163 86.4506 144.459 85.9469 143.578C85.4506 142.689 85.2025 141.707 85.2025 140.633C85.2025 139.818 85.3469 139.059 85.6358 138.356C85.9247 137.644 86.321 137.022 86.8247 136.489C87.3358 135.948 87.9284 135.526 88.6025 135.222C89.2765 134.918 89.9951 134.767 90.758 134.767C91.7803 134.767 92.7099 135.03 93.5469 135.556C94.3914 136.081 95.0617 136.789 95.558 137.678C96.0617 138.567 96.3136 139.552 96.3136 140.633C96.3136 141.441 96.1691 142.196 95.8803 142.9C95.5914 143.604 95.1914 144.226 94.6803 144.767C94.1765 145.3 93.5877 145.718 92.9136 146.022C92.2469 146.326 91.5284 146.478 90.758 146.478ZM90.758 143.411C91.2321 143.411 91.658 143.285 92.0358 143.033C92.4136 142.774 92.7099 142.433 92.9247 142.011C93.1395 141.589 93.2469 141.13 93.2469 140.633C93.2469 140.122 93.1321 139.656 92.9025 139.233C92.6802 138.804 92.3803 138.463 92.0025 138.211C91.6247 137.959 91.2099 137.833 90.758 137.833C90.2914 137.833 89.8691 137.963 89.4914 138.222C89.1136 138.481 88.8136 138.822 88.5914 139.244C88.3765 139.667 88.2691 140.13 88.2691 140.633C88.2691 141.159 88.3803 141.633 88.6025 142.056C88.8321 142.47 89.1358 142.8 89.5136 143.044C89.8914 143.289 90.3062 143.411 90.758 143.411Z" fill="#222222"/>
<path d="M103.969 146.189H100.947L97.2355 135.078H100.235L102.469 141.733L104.68 135.078H107.68L109.891 141.733L112.113 135.078H115.124L111.402 146.189H108.391L106.18 139.522L103.969 146.189Z" fill="#222222"/>
<path d="M127.484 139.122V146.189H124.417V139.967C124.417 139.574 124.321 139.222 124.128 138.911C123.943 138.593 123.691 138.341 123.373 138.156C123.062 137.97 122.714 137.878 122.328 137.878C121.943 137.878 121.591 137.97 121.273 138.156C120.954 138.341 120.702 138.593 120.517 138.911C120.332 139.222 120.239 139.574 120.239 139.967V146.189H117.173L117.162 135.078H120.228L120.239 135.9C120.61 135.544 121.043 135.267 121.539 135.067C122.043 134.867 122.573 134.767 123.128 134.767C123.936 134.767 124.665 134.963 125.317 135.356C125.976 135.748 126.502 136.274 126.895 136.933C127.288 137.585 127.484 138.315 127.484 139.122Z" fill="#222222"/>
<path d="M134.821 146.478C133.799 146.478 132.866 146.215 132.021 145.689C131.184 145.163 130.514 144.456 130.01 143.567C129.514 142.678 129.266 141.696 129.266 140.622C129.266 139.815 129.41 139.059 129.699 138.356C129.988 137.644 130.384 137.022 130.888 136.489C131.399 135.948 131.992 135.526 132.666 135.222C133.34 134.918 134.058 134.767 134.821 134.767C135.703 134.767 136.507 134.956 137.233 135.333C137.966 135.711 138.584 136.226 139.088 136.878C139.599 137.53 139.962 138.267 140.177 139.089C140.399 139.911 140.436 140.767 140.288 141.656H132.577C132.673 141.981 132.821 142.278 133.021 142.544C133.229 142.804 133.481 143.011 133.777 143.167C134.081 143.322 134.429 143.404 134.821 143.411C135.207 143.418 135.562 143.33 135.888 143.144C136.214 142.959 136.492 142.711 136.721 142.4L139.855 143.122C139.403 144.107 138.729 144.915 137.833 145.544C136.936 146.167 135.933 146.478 134.821 146.478ZM132.466 139.389H137.188C137.092 139.018 136.929 138.685 136.699 138.389C136.47 138.093 136.192 137.859 135.866 137.689C135.547 137.518 135.199 137.433 134.821 137.433C134.451 137.433 134.103 137.518 133.777 137.689C133.458 137.859 133.184 138.093 132.955 138.389C132.733 138.678 132.57 139.011 132.466 139.389Z" fill="#222222"/>
<path d="M145.828 146.389C145.258 146.344 144.71 146.226 144.184 146.033C143.658 145.833 143.187 145.567 142.773 145.233C142.365 144.893 142.047 144.485 141.817 144.011L144.395 142.9C144.476 143.018 144.599 143.148 144.761 143.289C144.924 143.422 145.121 143.541 145.35 143.644C145.587 143.748 145.861 143.8 146.173 143.8C146.402 143.8 146.624 143.774 146.839 143.722C147.054 143.663 147.228 143.57 147.361 143.444C147.495 143.311 147.561 143.137 147.561 142.922C147.561 142.685 147.476 142.504 147.306 142.378C147.136 142.252 146.928 142.159 146.684 142.1C146.447 142.033 146.217 141.978 145.995 141.933C145.313 141.815 144.669 141.604 144.061 141.3C143.461 140.989 142.973 140.589 142.595 140.1C142.217 139.611 142.028 139.026 142.028 138.344C142.028 137.596 142.224 136.952 142.617 136.411C143.01 135.863 143.521 135.441 144.15 135.144C144.78 134.848 145.461 134.7 146.195 134.7C147.061 134.7 147.865 134.881 148.606 135.244C149.347 135.607 149.943 136.118 150.395 136.778L147.973 138.211C147.876 138.07 147.75 137.937 147.595 137.811C147.447 137.678 147.273 137.567 147.073 137.478C146.88 137.381 146.673 137.326 146.45 137.311C146.161 137.289 145.899 137.307 145.661 137.367C145.424 137.418 145.236 137.518 145.095 137.667C144.961 137.815 144.895 138.015 144.895 138.267C144.895 138.511 145.002 138.693 145.217 138.811C145.432 138.922 145.68 139.007 145.961 139.067C146.243 139.118 146.491 139.181 146.706 139.256C147.35 139.463 147.954 139.73 148.517 140.056C149.087 140.374 149.547 140.767 149.895 141.233C150.243 141.7 150.406 142.248 150.384 142.878C150.384 143.611 150.165 144.256 149.728 144.811C149.291 145.359 148.724 145.778 148.028 146.067C147.339 146.348 146.606 146.456 145.828 146.389Z" fill="#222222"/>
<path d="M157.679 146.5C156.605 146.5 155.623 146.237 154.734 145.711C153.853 145.185 153.149 144.478 152.623 143.589C152.097 142.7 151.834 141.715 151.834 140.633C151.834 139.826 151.986 139.07 152.29 138.367C152.594 137.663 153.012 137.044 153.546 136.511C154.086 135.97 154.708 135.548 155.412 135.244C156.116 134.941 156.871 134.789 157.679 134.789C158.323 134.789 158.894 134.93 159.39 135.211C159.886 135.485 160.308 135.841 160.657 136.278V135.078H163.723V151.744H160.657V145.011C160.308 145.441 159.886 145.796 159.39 146.078C158.894 146.359 158.323 146.5 157.679 146.5ZM157.723 137.733C157.212 137.733 156.749 137.867 156.334 138.133C155.92 138.393 155.59 138.744 155.346 139.189C155.101 139.626 154.979 140.107 154.979 140.633C154.979 141.174 155.101 141.663 155.346 142.1C155.59 142.537 155.92 142.885 156.334 143.144C156.749 143.404 157.212 143.533 157.723 143.533C158.227 143.533 158.679 143.404 159.079 143.144C159.486 142.885 159.805 142.537 160.034 142.1C160.271 141.656 160.39 141.167 160.39 140.633C160.39 140.1 160.271 139.615 160.034 139.178C159.805 138.741 159.486 138.393 159.079 138.133C158.679 137.867 158.227 137.733 157.723 137.733Z" fill="#222222"/>
<path d="M165.978 142.122V135.078H169.044V141.278C169.044 141.67 169.137 142.026 169.322 142.344C169.515 142.656 169.77 142.904 170.089 143.089C170.407 143.274 170.755 143.367 171.133 143.367C171.518 143.367 171.87 143.274 172.189 143.089C172.507 142.904 172.759 142.656 172.944 142.344C173.129 142.026 173.222 141.67 173.222 141.278V135.078H176.289L176.3 146.189H173.233L173.222 145.344C172.852 145.7 172.415 145.978 171.911 146.178C171.415 146.378 170.889 146.478 170.333 146.478C169.533 146.478 168.804 146.281 168.144 145.889C167.485 145.496 166.959 144.974 166.567 144.322C166.174 143.663 165.978 142.93 165.978 142.122Z" fill="#222222"/>
<path d="M186.914 135.078H189.981V146.189H186.903L186.759 145.033C186.47 145.463 186.1 145.811 185.648 146.078C185.196 146.344 184.666 146.478 184.059 146.478C183.229 146.478 182.455 146.322 181.737 146.011C181.018 145.7 180.385 145.27 179.837 144.722C179.289 144.174 178.859 143.541 178.548 142.822C178.244 142.096 178.092 141.318 178.092 140.489C178.092 139.696 178.237 138.956 178.526 138.267C178.814 137.578 179.222 136.97 179.748 136.444C180.274 135.918 180.877 135.507 181.559 135.211C182.248 134.915 182.989 134.767 183.781 134.767C184.463 134.767 185.074 134.911 185.614 135.2C186.163 135.489 186.64 135.856 187.048 136.3L186.914 135.078ZM183.981 143.533C184.485 143.533 184.94 143.404 185.348 143.144C185.755 142.885 186.077 142.537 186.314 142.1C186.551 141.656 186.67 141.167 186.67 140.633C186.67 140.093 186.551 139.604 186.314 139.167C186.077 138.73 185.755 138.381 185.348 138.122C184.94 137.863 184.485 137.733 183.981 137.733C183.47 137.733 183.007 137.863 182.592 138.122C182.177 138.381 181.848 138.733 181.603 139.178C181.359 139.615 181.237 140.1 181.237 140.633C181.237 141.167 181.359 141.656 181.603 142.1C181.855 142.537 182.189 142.885 182.603 143.144C183.018 143.404 183.477 143.533 183.981 143.533Z" fill="#222222"/>
<path d="M192.669 146.189L192.658 135.078H195.725L195.736 135.9C196.106 135.544 196.54 135.267 197.036 135.067C197.54 134.867 198.069 134.767 198.625 134.767C199.032 134.767 199.44 134.826 199.847 134.944L198.636 138.044C198.369 137.933 198.099 137.878 197.825 137.878C197.44 137.878 197.088 137.97 196.769 138.156C196.451 138.341 196.199 138.593 196.014 138.911C195.829 139.222 195.736 139.574 195.736 139.967V146.189H192.669Z" fill="#222222"/>
<path d="M205.869 146.478C204.847 146.478 203.914 146.215 203.069 145.689C202.232 145.163 201.562 144.456 201.058 143.567C200.562 142.678 200.314 141.696 200.314 140.622C200.314 139.815 200.458 139.059 200.747 138.356C201.036 137.644 201.432 137.022 201.936 136.489C202.447 135.948 203.039 135.526 203.714 135.222C204.388 134.918 205.106 134.767 205.869 134.767C206.751 134.767 207.554 134.956 208.28 135.333C209.014 135.711 209.632 136.226 210.136 136.878C210.647 137.53 211.01 138.267 211.225 139.089C211.447 139.911 211.484 140.767 211.336 141.656H203.625C203.721 141.981 203.869 142.278 204.069 142.544C204.277 142.804 204.528 143.011 204.825 143.167C205.128 143.322 205.477 143.404 205.869 143.411C206.254 143.418 206.61 143.33 206.936 143.144C207.262 142.959 207.54 142.711 207.769 142.4L210.902 143.122C210.451 144.107 209.777 144.915 208.88 145.544C207.984 146.167 206.98 146.478 205.869 146.478ZM203.514 139.389H208.236C208.14 139.018 207.977 138.685 207.747 138.389C207.517 138.093 207.239 137.859 206.914 137.689C206.595 137.518 206.247 137.433 205.869 137.433C205.499 137.433 205.151 137.518 204.825 137.689C204.506 137.859 204.232 138.093 204.002 138.389C203.78 138.678 203.617 139.011 203.514 139.389Z" fill="#222222"/>
<mask id="path-5-outside-1_11846_17851" maskUnits="userSpaceOnUse" x="0" y="0" width="220" height="112" fill="black">
<rect fill="white" width="220" height="112"/>
<path fill-rule="evenodd" clip-rule="evenodd" d="M51.8747 6.0066C54.9043 5.88058 58.489 7.5551 59.0774 11.3148C59.215 12.1941 58.6614 13.0877 57.7471 13.25C56.8204 13.4145 56.0078 12.7445 55.8689 11.857C55.6477 10.4435 54.1299 9.29197 52.0049 9.38037C50.0386 9.46216 48.1831 10.6474 47.7674 13.2398C47.6252 14.1269 46.8098 14.7935 45.8837 14.6252C44.9704 14.4591 44.4201 13.5635 44.561 12.6847C45.277 8.21871 48.6765 6.13964 51.8747 6.0066ZM57.7812 11.5176C57.3333 8.6556 54.5655 7.20779 51.9293 7.31745C49.2602 7.42848 46.4595 9.13088 45.8564 12.8924C45.8171 13.1375 45.9763 13.3085 46.1184 13.3343C46.2477 13.3579 46.434 13.269 46.472 13.0321C46.9991 9.74459 49.4445 8.17376 51.9504 8.06952C54.4993 7.96349 56.8071 9.36696 57.1651 11.6542C57.2022 11.8914 57.3884 11.9812 57.5179 11.9582C57.6598 11.933 57.8196 11.7629 57.7812 11.5176ZM108.686 48.7921C108.686 50.4703 108.431 52.0026 107.92 53.389C107.445 54.739 106.57 55.9064 105.293 56.8915C104.052 57.8401 102.32 58.588 100.094 59.1353C97.905 59.6825 95.1139 59.9562 91.7209 59.9562C88.3279 59.9562 85.5187 59.6825 83.2931 59.1353C81.0676 58.588 79.3164 57.8401 78.0395 56.8915C76.799 55.9064 75.9234 54.739 75.4126 53.389C74.9383 52.0026 74.7012 50.4703 74.7012 48.7921V30.1305C74.7012 28.4522 74.9383 26.9381 75.4126 25.5882C75.9234 24.2018 76.799 23.0161 78.0395 22.031C79.3164 21.0459 81.0676 20.2798 83.2931 19.7325C85.5187 19.1853 88.3279 18.9116 91.7209 18.9116C95.1139 18.9116 97.905 19.1853 100.094 19.7325C102.32 20.2798 104.052 21.0459 105.293 22.031C106.57 23.0161 107.445 24.2018 107.92 25.5882C108.431 26.9381 108.686 28.4522 108.686 30.1305V48.7921ZM107.932 99.3087C108.442 97.9223 108.698 96.39 108.698 94.7117V76.0501C108.698 74.3719 108.442 72.8578 107.932 71.5079C107.457 70.1215 106.582 68.9357 105.305 67.9507C104.064 66.9656 102.331 66.1994 100.106 65.6522C97.9167 65.1049 95.1256 64.8313 91.7326 64.8313C88.3396 64.8313 85.5304 65.1049 83.3049 65.6522C81.0793 66.1994 79.3281 66.9656 78.0512 67.9507C76.8107 68.9357 75.9351 70.1215 75.4243 71.5079C74.95 72.8578 74.7129 74.3719 74.7129 76.0501V94.7117C74.7129 96.39 74.95 97.9223 75.4243 99.3087C75.9351 100.659 76.8107 101.826 78.0512 102.811C79.3281 103.76 81.0793 104.508 83.3049 105.055C85.5304 105.602 88.3396 105.876 91.7326 105.876C95.1256 105.876 97.9167 105.602 100.106 105.055C102.331 104.508 104.064 103.76 105.305 102.811C106.582 101.826 107.457 100.659 107.932 99.3087ZM87.9566 94.6023C87.4093 94.0915 87.1357 93.4713 87.1357 92.7416V78.0203C87.1357 77.3271 87.4093 76.7433 87.9566 76.269C88.5038 75.7583 89.7625 75.5029 91.7326 75.5029C93.7028 75.5029 94.9615 75.7583 95.5087 76.269C96.056 76.7433 96.3296 77.3271 96.3296 78.0203V92.7416C96.3296 93.4713 96.056 94.0915 95.5087 94.6023C94.9615 95.0766 93.7028 95.3137 91.7326 95.3137C89.7625 95.3137 88.5038 95.0766 87.9566 94.6023ZM185.613 105.054H202.906C206.408 105.054 209.163 104.233 211.17 102.591C213.213 100.913 214.234 98.5235 214.234 95.4223V89.6761C214.234 86.6114 213.45 84.4224 211.881 83.109C210.312 81.7955 208.251 80.9564 205.697 80.5916L197.543 79.497C197.069 79.4605 196.704 79.2781 196.448 78.9498C196.193 78.6214 196.065 78.2201 196.065 77.7458C196.065 77.2715 196.193 76.8884 196.448 76.5965C196.704 76.2682 197.069 76.104 197.543 76.104H210.294C210.987 76.104 211.48 75.9581 211.772 75.6662C212.1 75.3379 212.264 74.8271 212.264 74.1339V67.6215C212.264 66.9283 212.1 66.4357 211.772 66.1439C211.48 65.8155 210.987 65.6513 210.294 65.6513H194.971C191.432 65.6513 188.659 66.4905 186.652 68.1687C184.646 69.8105 183.642 72.182 183.642 75.2831V81.0294C183.642 84.094 184.409 86.2831 185.941 87.5965C187.51 88.9099 189.571 89.749 192.125 90.1139L200.334 91.2631C200.808 91.2996 201.155 91.4638 201.374 91.7557C201.629 92.0475 201.757 92.5036 201.757 93.1238C201.757 93.5616 201.629 93.9447 201.374 94.2731C201.155 94.5649 200.808 94.7109 200.334 94.7109H185.613C184.919 94.7109 184.409 94.8751 184.08 95.2034C183.788 95.4953 183.642 95.9878 183.642 96.681V103.084C183.642 103.777 183.788 104.288 184.08 104.616C184.409 104.908 184.919 105.054 185.613 105.054ZM147.81 105.054H156.292C156.986 105.054 157.478 104.908 157.77 104.616C158.098 104.288 158.263 103.777 158.263 103.084V90.9348H167.402V103.084C167.402 103.777 167.548 104.288 167.84 104.616C168.168 104.908 168.679 105.054 169.372 105.054H177.855C178.548 105.054 179.04 104.908 179.332 104.616C179.66 104.288 179.825 103.777 179.825 103.084V67.6215C179.825 66.9283 179.66 66.4358 179.332 66.1439C179.04 65.8155 178.548 65.6514 177.855 65.6514H169.372C168.679 65.6514 168.168 65.8155 167.84 66.1439C167.548 66.4358 167.402 66.9283 167.402 67.6215V79.4971H158.263V67.6215C158.263 66.9283 158.098 66.4358 157.77 66.1439C157.478 65.8155 156.986 65.6514 156.292 65.6514H147.81C147.117 65.6514 146.606 65.8155 146.278 66.1439C145.986 66.4358 145.84 66.9283 145.84 67.6215V103.084C145.84 103.777 145.986 104.288 146.278 104.616C146.606 104.908 147.117 105.054 147.81 105.054ZM131.269 105.054H122.403C121.71 105.054 121.199 104.908 120.871 104.616C120.579 104.288 120.433 103.777 120.433 103.084V76.2135H112.388C111.695 76.2135 111.184 76.0676 110.856 75.7757C110.564 75.4473 110.418 74.9366 110.418 74.2434V67.6215C110.418 66.9283 110.564 66.4358 110.856 66.1439C111.184 65.8155 111.695 65.6514 112.388 65.6514H141.283C141.977 65.6514 142.469 65.8155 142.761 66.1439C143.089 66.4358 143.254 66.9283 143.254 67.6215V74.2434C143.254 74.9366 143.089 75.4473 142.761 75.7757C142.469 76.0676 141.977 76.2135 141.283 76.2135H133.239V103.084C133.239 103.777 133.074 104.288 132.746 104.616C132.454 104.908 131.962 105.054 131.269 105.054ZM70.1172 105.054H41.8117C41.1185 105.054 40.6077 104.908 40.2794 104.616C39.9875 104.288 39.8416 103.777 39.8416 103.084V67.6215C39.8416 66.9283 39.9875 66.4357 40.2794 66.1439C40.6077 65.8155 41.1185 65.6513 41.8117 65.6513H50.2942C50.9874 65.6513 51.48 65.8155 51.7718 66.1439C52.1002 66.4357 52.2644 66.9283 52.2644 67.6215V94.7109H70.1172C70.8104 94.7109 71.3029 94.8751 71.5948 95.2034C71.9232 95.4953 72.0873 95.9878 72.0873 96.681V103.084C72.0873 103.777 71.9232 104.288 71.5948 104.616C71.3029 104.908 70.8104 105.054 70.1172 105.054ZM7.97013 105.054H25.2635C28.766 105.054 31.5205 104.233 33.5271 102.592C35.5702 100.913 36.5918 98.5236 36.5918 95.4225V89.6762C36.5918 86.6116 35.8074 84.4225 34.2386 83.1091C32.6698 81.7957 30.6084 80.9565 28.0545 80.5917L19.9004 79.4972C19.4261 79.4607 19.0612 79.2783 18.8059 78.9499C18.5505 78.6216 18.4228 78.2202 18.4228 77.7459C18.4228 77.2717 18.5505 76.8886 18.8059 76.5967C19.0612 76.2683 19.4261 76.1042 19.9004 76.1042H32.6515C33.3447 76.1042 33.8372 75.9582 34.1291 75.6664C34.4575 75.338 34.6216 74.8272 34.6216 74.134V67.6216C34.6216 66.9284 34.4575 66.4359 34.1291 66.144C33.8372 65.8157 33.3447 65.6515 32.6515 65.6515H17.3283C13.7893 65.6515 11.0165 66.4906 9.00992 68.1689C7.00331 69.8107 6 72.1821 6 75.2833V81.0295C6 84.0942 6.76616 86.2832 8.29849 87.5966C9.8673 88.9101 11.9286 89.7492 14.4825 90.114L22.6914 91.2633C23.1657 91.2998 23.5123 91.464 23.7312 91.7558C23.9866 92.0477 24.1143 92.5037 24.1143 93.124C24.1143 93.5618 23.9866 93.9449 23.7312 94.2732C23.5123 94.5651 23.1657 94.711 22.6914 94.711H7.97013C7.27694 94.711 6.76616 94.8752 6.43781 95.2036C6.14594 95.4954 6 95.988 6 96.6812V103.084C6 103.777 6.14594 104.288 6.43781 104.616C6.76616 104.908 7.27694 105.054 7.97013 105.054ZM70.9647 53.3895C71.4755 52.0031 71.7309 50.4708 71.7309 48.7925V30.131C71.7309 28.4527 71.4755 26.9386 70.9647 25.5887C70.4904 24.2023 69.6148 23.0166 68.3379 22.0315C67.0974 21.0464 65.3644 20.2803 63.1389 19.733C60.9499 19.1857 58.1589 18.9121 54.7658 18.9121C51.3728 18.9121 48.5636 19.1857 46.3381 19.733C44.1125 20.2803 42.3613 21.0464 41.0844 22.0315C39.8439 23.0166 38.9683 24.2023 38.4575 25.5887C37.9832 26.9386 37.7461 28.4527 37.7461 30.131V48.7925C37.7461 50.4708 37.9832 52.0031 38.4575 53.3895C38.9683 54.7394 39.8439 55.9069 41.0844 56.892C42.3613 57.8406 44.1125 58.5885 46.3381 59.1358C48.5636 59.683 51.3728 59.9567 54.7658 59.9567C58.1589 59.9567 60.9499 59.683 63.1389 59.1358C65.3644 58.5885 67.0974 57.8406 68.3379 56.892C69.6148 55.9069 70.4904 54.7394 70.9647 53.3895ZM95.81 11.3148C95.2216 7.5551 91.6369 5.88058 88.6073 6.0066C85.4091 6.13964 82.0096 8.21871 81.2936 12.6847C81.1527 13.5635 81.703 14.4591 82.6163 14.6252C83.5424 14.7935 84.3578 14.1269 84.5 13.2398C84.9156 10.6474 86.7712 9.46216 88.7375 9.38037C90.8625 9.29197 92.3803 10.4435 92.6015 11.857C92.7404 12.7445 93.553 13.4145 94.4797 13.25C95.394 13.0877 95.9476 12.1941 95.81 11.3148ZM88.6619 7.31745C91.2981 7.20779 94.0658 8.6556 94.5138 11.5176C94.5522 11.7629 94.3924 11.933 94.2505 11.9582C94.121 11.9812 93.9348 11.8914 93.8977 11.6542C93.5397 9.36696 91.2319 7.96349 88.683 8.06952C86.1771 8.17376 83.7317 9.74459 83.2046 13.0321C83.1666 13.269 82.9803 13.3579 82.851 13.3343C82.7089 13.3085 82.5497 13.1375 82.589 12.8924C83.1921 9.13088 85.9928 7.42848 88.6619 7.31745ZM33.1985 59.1354H19.8454C15.2849 59.1354 11.8919 58.2233 9.66637 56.3991C7.47733 54.5749 6.38281 51.7657 6.38281 47.9713V30.9515C6.38281 27.1572 7.47733 24.3479 9.66637 22.5237C11.8919 20.663 15.2849 19.7327 19.8454 19.7327H33.1985C33.8917 19.7327 34.3842 19.8968 34.6761 20.2252C35.0045 20.5171 35.1686 21.0096 35.1686 21.7028V28.3247C35.1686 29.0179 35.0045 29.5286 34.6761 29.857C34.3842 30.1489 33.8917 30.2948 33.1985 30.2948H22.1986C21.0676 30.2948 20.2285 30.5319 19.6812 31.0062C19.1339 31.444 18.8603 32.119 18.8603 33.0311V46.0559C18.8603 46.968 19.1339 47.643 19.6812 48.0808C20.2285 48.4821 21.0676 48.6828 22.1986 48.6828H33.1985C33.8917 48.6828 34.3842 48.8469 34.6761 49.1753C35.0045 49.4672 35.1686 49.9597 35.1686 50.6529V57.1653C35.1686 57.8585 35.0045 58.3693 34.6761 58.6976C34.3842 58.9895 33.8917 59.1354 33.1985 59.1354ZM114.074 59.1786H142.379C143.072 59.1786 143.565 59.0327 143.857 58.7408C144.185 58.4125 144.349 57.9017 144.349 57.2085L144.429 45.7238C144.429 45.0306 144.185 44.5381 143.857 44.2462C143.565 43.9178 143.072 43.7537 142.379 43.7537C141.506 43.7537 140.617 43.756 139.726 43.7584C137.945 43.7631 136.161 43.7678 134.507 43.7537C132.381 43.7537 132.381 44.9267 132.381 45.5466V48.8354H124.526V21.746C124.526 21.0528 124.362 20.5603 124.034 20.2684C123.742 19.9401 123.249 19.7759 122.556 19.7759H114.074C113.38 19.7759 112.87 19.9401 112.541 20.2684C112.249 20.5603 112.104 21.0528 112.104 21.746V57.2085C112.104 57.9017 112.249 58.4125 112.541 58.7408C112.87 59.0327 113.38 59.1786 114.074 59.1786Z"/>
</mask>
<path fill-rule="evenodd" clip-rule="evenodd" d="M51.8747 6.0066C54.9043 5.88058 58.489 7.5551 59.0774 11.3148C59.215 12.1941 58.6614 13.0877 57.7471 13.25C56.8204 13.4145 56.0078 12.7445 55.8689 11.857C55.6477 10.4435 54.1299 9.29197 52.0049 9.38037C50.0386 9.46216 48.1831 10.6474 47.7674 13.2398C47.6252 14.1269 46.8098 14.7935 45.8837 14.6252C44.9704 14.4591 44.4201 13.5635 44.561 12.6847C45.277 8.21871 48.6765 6.13964 51.8747 6.0066ZM57.7812 11.5176C57.3333 8.6556 54.5655 7.20779 51.9293 7.31745C49.2602 7.42848 46.4595 9.13088 45.8564 12.8924C45.8171 13.1375 45.9763 13.3085 46.1184 13.3343C46.2477 13.3579 46.434 13.269 46.472 13.0321C46.9991 9.74459 49.4445 8.17376 51.9504 8.06952C54.4993 7.96349 56.8071 9.36696 57.1651 11.6542C57.2022 11.8914 57.3884 11.9812 57.5179 11.9582C57.6598 11.933 57.8196 11.7629 57.7812 11.5176ZM108.686 48.7921C108.686 50.4703 108.431 52.0026 107.92 53.389C107.445 54.739 106.57 55.9064 105.293 56.8915C104.052 57.8401 102.32 58.588 100.094 59.1353C97.905 59.6825 95.1139 59.9562 91.7209 59.9562C88.3279 59.9562 85.5187 59.6825 83.2931 59.1353C81.0676 58.588 79.3164 57.8401 78.0395 56.8915C76.799 55.9064 75.9234 54.739 75.4126 53.389C74.9383 52.0026 74.7012 50.4703 74.7012 48.7921V30.1305C74.7012 28.4522 74.9383 26.9381 75.4126 25.5882C75.9234 24.2018 76.799 23.0161 78.0395 22.031C79.3164 21.0459 81.0676 20.2798 83.2931 19.7325C85.5187 19.1853 88.3279 18.9116 91.7209 18.9116C95.1139 18.9116 97.905 19.1853 100.094 19.7325C102.32 20.2798 104.052 21.0459 105.293 22.031C106.57 23.0161 107.445 24.2018 107.92 25.5882C108.431 26.9381 108.686 28.4522 108.686 30.1305V48.7921ZM107.932 99.3087C108.442 97.9223 108.698 96.39 108.698 94.7117V76.0501C108.698 74.3719 108.442 72.8578 107.932 71.5079C107.457 70.1215 106.582 68.9357 105.305 67.9507C104.064 66.9656 102.331 66.1994 100.106 65.6522C97.9167 65.1049 95.1256 64.8313 91.7326 64.8313C88.3396 64.8313 85.5304 65.1049 83.3049 65.6522C81.0793 66.1994 79.3281 66.9656 78.0512 67.9507C76.8107 68.9357 75.9351 70.1215 75.4243 71.5079C74.95 72.8578 74.7129 74.3719 74.7129 76.0501V94.7117C74.7129 96.39 74.95 97.9223 75.4243 99.3087C75.9351 100.659 76.8107 101.826 78.0512 102.811C79.3281 103.76 81.0793 104.508 83.3049 105.055C85.5304 105.602 88.3396 105.876 91.7326 105.876C95.1256 105.876 97.9167 105.602 100.106 105.055C102.331 104.508 104.064 103.76 105.305 102.811C106.582 101.826 107.457 100.659 107.932 99.3087ZM87.9566 94.6023C87.4093 94.0915 87.1357 93.4713 87.1357 92.7416V78.0203C87.1357 77.3271 87.4093 76.7433 87.9566 76.269C88.5038 75.7583 89.7625 75.5029 91.7326 75.5029C93.7028 75.5029 94.9615 75.7583 95.5087 76.269C96.056 76.7433 96.3296 77.3271 96.3296 78.0203V92.7416C96.3296 93.4713 96.056 94.0915 95.5087 94.6023C94.9615 95.0766 93.7028 95.3137 91.7326 95.3137C89.7625 95.3137 88.5038 95.0766 87.9566 94.6023ZM185.613 105.054H202.906C206.408 105.054 209.163 104.233 211.17 102.591C213.213 100.913 214.234 98.5235 214.234 95.4223V89.6761C214.234 86.6114 213.45 84.4224 211.881 83.109C210.312 81.7955 208.251 80.9564 205.697 80.5916L197.543 79.497C197.069 79.4605 196.704 79.2781 196.448 78.9498C196.193 78.6214 196.065 78.2201 196.065 77.7458C196.065 77.2715 196.193 76.8884 196.448 76.5965C196.704 76.2682 197.069 76.104 197.543 76.104H210.294C210.987 76.104 211.48 75.9581 211.772 75.6662C212.1 75.3379 212.264 74.8271 212.264 74.1339V67.6215C212.264 66.9283 212.1 66.4357 211.772 66.1439C211.48 65.8155 210.987 65.6513 210.294 65.6513H194.971C191.432 65.6513 188.659 66.4905 186.652 68.1687C184.646 69.8105 183.642 72.182 183.642 75.2831V81.0294C183.642 84.094 184.409 86.2831 185.941 87.5965C187.51 88.9099 189.571 89.749 192.125 90.1139L200.334 91.2631C200.808 91.2996 201.155 91.4638 201.374 91.7557C201.629 92.0475 201.757 92.5036 201.757 93.1238C201.757 93.5616 201.629 93.9447 201.374 94.2731C201.155 94.5649 200.808 94.7109 200.334 94.7109H185.613C184.919 94.7109 184.409 94.8751 184.08 95.2034C183.788 95.4953 183.642 95.9878 183.642 96.681V103.084C183.642 103.777 183.788 104.288 184.08 104.616C184.409 104.908 184.919 105.054 185.613 105.054ZM147.81 105.054H156.292C156.986 105.054 157.478 104.908 157.77 104.616C158.098 104.288 158.263 103.777 158.263 103.084V90.9348H167.402V103.084C167.402 103.777 167.548 104.288 167.84 104.616C168.168 104.908 168.679 105.054 169.372 105.054H177.855C178.548 105.054 179.04 104.908 179.332 104.616C179.66 104.288 179.825 103.777 179.825 103.084V67.6215C179.825 66.9283 179.66 66.4358 179.332 66.1439C179.04 65.8155 178.548 65.6514 177.855 65.6514H169.372C168.679 65.6514 168.168 65.8155 167.84 66.1439C167.548 66.4358 167.402 66.9283 167.402 67.6215V79.4971H158.263V67.6215C158.263 66.9283 158.098 66.4358 157.77 66.1439C157.478 65.8155 156.986 65.6514 156.292 65.6514H147.81C147.117 65.6514 146.606 65.8155 146.278 66.1439C145.986 66.4358 145.84 66.9283 145.84 67.6215V103.084C145.84 103.777 145.986 104.288 146.278 104.616C146.606 104.908 147.117 105.054 147.81 105.054ZM131.269 105.054H122.403C121.71 105.054 121.199 104.908 120.871 104.616C120.579 104.288 120.433 103.777 120.433 103.084V76.2135H112.388C111.695 76.2135 111.184 76.0676 110.856 75.7757C110.564 75.4473 110.418 74.9366 110.418 74.2434V67.6215C110.418 66.9283 110.564 66.4358 110.856 66.1439C111.184 65.8155 111.695 65.6514 112.388 65.6514H141.283C141.977 65.6514 142.469 65.8155 142.761 66.1439C143.089 66.4358 143.254 66.9283 143.254 67.6215V74.2434C143.254 74.9366 143.089 75.4473 142.761 75.7757C142.469 76.0676 141.977 76.2135 141.283 76.2135H133.239V103.084C133.239 103.777 133.074 104.288 132.746 104.616C132.454 104.908 131.962 105.054 131.269 105.054ZM70.1172 105.054H41.8117C41.1185 105.054 40.6077 104.908 40.2794 104.616C39.9875 104.288 39.8416 103.777 39.8416 103.084V67.6215C39.8416 66.9283 39.9875 66.4357 40.2794 66.1439C40.6077 65.8155 41.1185 65.6513 41.8117 65.6513H50.2942C50.9874 65.6513 51.48 65.8155 51.7718 66.1439C52.1002 66.4357 52.2644 66.9283 52.2644 67.6215V94.7109H70.1172C70.8104 94.7109 71.3029 94.8751 71.5948 95.2034C71.9232 95.4953 72.0873 95.9878 72.0873 96.681V103.084C72.0873 103.777 71.9232 104.288 71.5948 104.616C71.3029 104.908 70.8104 105.054 70.1172 105.054ZM7.97013 105.054H25.2635C28.766 105.054 31.5205 104.233 33.5271 102.592C35.5702 100.913 36.5918 98.5236 36.5918 95.4225V89.6762C36.5918 86.6116 35.8074 84.4225 34.2386 83.1091C32.6698 81.7957 30.6084 80.9565 28.0545 80.5917L19.9004 79.4972C19.4261 79.4607 19.0612 79.2783 18.8059 78.9499C18.5505 78.6216 18.4228 78.2202 18.4228 77.7459C18.4228 77.2717 18.5505 76.8886 18.8059 76.5967C19.0612 76.2683 19.4261 76.1042 19.9004 76.1042H32.6515C33.3447 76.1042 33.8372 75.9582 34.1291 75.6664C34.4575 75.338 34.6216 74.8272 34.6216 74.134V67.6216C34.6216 66.9284 34.4575 66.4359 34.1291 66.144C33.8372 65.8157 33.3447 65.6515 32.6515 65.6515H17.3283C13.7893 65.6515 11.0165 66.4906 9.00992 68.1689C7.00331 69.8107 6 72.1821 6 75.2833V81.0295C6 84.0942 6.76616 86.2832 8.29849 87.5966C9.8673 88.9101 11.9286 89.7492 14.4825 90.114L22.6914 91.2633C23.1657 91.2998 23.5123 91.464 23.7312 91.7558C23.9866 92.0477 24.1143 92.5037 24.1143 93.124C24.1143 93.5618 23.9866 93.9449 23.7312 94.2732C23.5123 94.5651 23.1657 94.711 22.6914 94.711H7.97013C7.27694 94.711 6.76616 94.8752 6.43781 95.2036C6.14594 95.4954 6 95.988 6 96.6812V103.084C6 103.777 6.14594 104.288 6.43781 104.616C6.76616 104.908 7.27694 105.054 7.97013 105.054ZM70.9647 53.3895C71.4755 52.0031 71.7309 50.4708 71.7309 48.7925V30.131C71.7309 28.4527 71.4755 26.9386 70.9647 25.5887C70.4904 24.2023 69.6148 23.0166 68.3379 22.0315C67.0974 21.0464 65.3644 20.2803 63.1389 19.733C60.9499 19.1857 58.1589 18.9121 54.7658 18.9121C51.3728 18.9121 48.5636 19.1857 46.3381 19.733C44.1125 20.2803 42.3613 21.0464 41.0844 22.0315C39.8439 23.0166 38.9683 24.2023 38.4575 25.5887C37.9832 26.9386 37.7461 28.4527 37.7461 30.131V48.7925C37.7461 50.4708 37.9832 52.0031 38.4575 53.3895C38.9683 54.7394 39.8439 55.9069 41.0844 56.892C42.3613 57.8406 44.1125 58.5885 46.3381 59.1358C48.5636 59.683 51.3728 59.9567 54.7658 59.9567C58.1589 59.9567 60.9499 59.683 63.1389 59.1358C65.3644 58.5885 67.0974 57.8406 68.3379 56.892C69.6148 55.9069 70.4904 54.7394 70.9647 53.3895ZM95.81 11.3148C95.2216 7.5551 91.6369 5.88058 88.6073 6.0066C85.4091 6.13964 82.0096 8.21871 81.2936 12.6847C81.1527 13.5635 81.703 14.4591 82.6163 14.6252C83.5424 14.7935 84.3578 14.1269 84.5 13.2398C84.9156 10.6474 86.7712 9.46216 88.7375 9.38037C90.8625 9.29197 92.3803 10.4435 92.6015 11.857C92.7404 12.7445 93.553 13.4145 94.4797 13.25C95.394 13.0877 95.9476 12.1941 95.81 11.3148ZM88.6619 7.31745C91.2981 7.20779 94.0658 8.6556 94.5138 11.5176C94.5522 11.7629 94.3924 11.933 94.2505 11.9582C94.121 11.9812 93.9348 11.8914 93.8977 11.6542C93.5397 9.36696 91.2319 7.96349 88.683 8.06952C86.1771 8.17376 83.7317 9.74459 83.2046 13.0321C83.1666 13.269 82.9803 13.3579 82.851 13.3343C82.7089 13.3085 82.5497 13.1375 82.589 12.8924C83.1921 9.13088 85.9928 7.42848 88.6619 7.31745ZM33.1985 59.1354H19.8454C15.2849 59.1354 11.8919 58.2233 9.66637 56.3991C7.47733 54.5749 6.38281 51.7657 6.38281 47.9713V30.9515C6.38281 27.1572 7.47733 24.3479 9.66637 22.5237C11.8919 20.663 15.2849 19.7327 19.8454 19.7327H33.1985C33.8917 19.7327 34.3842 19.8968 34.6761 20.2252C35.0045 20.5171 35.1686 21.0096 35.1686 21.7028V28.3247C35.1686 29.0179 35.0045 29.5286 34.6761 29.857C34.3842 30.1489 33.8917 30.2948 33.1985 30.2948H22.1986C21.0676 30.2948 20.2285 30.5319 19.6812 31.0062C19.1339 31.444 18.8603 32.119 18.8603 33.0311V46.0559C18.8603 46.968 19.1339 47.643 19.6812 48.0808C20.2285 48.4821 21.0676 48.6828 22.1986 48.6828H33.1985C33.8917 48.6828 34.3842 48.8469 34.6761 49.1753C35.0045 49.4672 35.1686 49.9597 35.1686 50.6529V57.1653C35.1686 57.8585 35.0045 58.3693 34.6761 58.6976C34.3842 58.9895 33.8917 59.1354 33.1985 59.1354ZM114.074 59.1786H142.379C143.072 59.1786 143.565 59.0327 143.857 58.7408C144.185 58.4125 144.349 57.9017 144.349 57.2085L144.429 45.7238C144.429 45.0306 144.185 44.5381 143.857 44.2462C143.565 43.9178 143.072 43.7537 142.379 43.7537C141.506 43.7537 140.617 43.756 139.726 43.7584C137.945 43.7631 136.161 43.7678 134.507 43.7537C132.381 43.7537 132.381 44.9267 132.381 45.5466V48.8354H124.526V21.746C124.526 21.0528 124.362 20.5603 124.034 20.2684C123.742 19.9401 123.249 19.7759 122.556 19.7759H114.074C113.38 19.7759 112.87 19.9401 112.541 20.2684C112.249 20.5603 112.104 21.0528 112.104 21.746V57.2085C112.104 57.9017 112.249 58.4125 112.541 58.7408C112.87 59.0327 113.38 59.1786 114.074 59.1786Z" fill="#1E1E1E"/>
<path d="M129.807 45.5466V48.8354H134.955V45.5466H129.807ZM59.0774 11.3148L53.9909 12.1109L53.9909 12.1109L59.0774 11.3148ZM51.8747 6.0066L51.6608 0.862645L51.6608 0.862645L51.8747 6.0066ZM57.7471 13.25L56.8474 8.18081L56.8474 8.18081L57.7471 13.25ZM55.8689 11.857L60.9554 11.061L60.9554 11.061L55.8689 11.857ZM52.0049 9.38037L52.2189 14.5243L52.2189 14.5243L52.0049 9.38037ZM47.7674 13.2398L52.8509 14.0548L52.8509 14.0548L47.7674 13.2398ZM45.8837 14.6252L44.9628 19.6905L44.9628 19.6905L45.8837 14.6252ZM44.561 12.6847L39.4775 11.8696L39.4775 11.8697L44.561 12.6847ZM51.9293 7.31745L51.7153 2.17349L51.9293 7.31745ZM57.7812 11.5176L62.8677 10.7216L62.8677 10.7215L57.7812 11.5176ZM45.8564 12.8924L40.7729 12.0773L40.7729 12.0774L45.8564 12.8924ZM46.1184 13.3343L45.1974 18.3997L45.1975 18.3997L46.1184 13.3343ZM46.472 13.0321L41.3885 12.2171L41.3885 12.2171L46.472 13.0321ZM51.9504 8.06952L52.1644 13.2135L51.9504 8.06952ZM57.1651 11.6542L52.0786 12.4503L52.0786 12.4503L57.1651 11.6542ZM57.5179 11.9582L58.4175 17.0274L58.4175 17.0274L57.5179 11.9582ZM107.92 53.389L103.089 51.6092L103.075 51.6457L103.062 51.6824L107.92 53.389ZM105.293 56.8915L108.42 60.9812L108.429 60.9746L108.438 60.9679L105.293 56.8915ZM100.094 59.1353L98.8646 54.1358L98.8549 54.1382L98.8453 54.1406L100.094 59.1353ZM83.2931 59.1353L82.0637 64.1347L82.0638 64.1348L83.2931 59.1353ZM78.0395 56.8915L74.8377 60.9233L74.9027 60.9749L74.9693 61.0244L78.0395 56.8915ZM75.4126 53.389L70.5414 55.0555L70.5681 55.1337L70.5974 55.211L75.4126 53.389ZM75.4126 25.5882L70.5816 23.8084L70.5682 23.8449L70.5553 23.8816L75.4126 25.5882ZM78.0395 22.031L74.8948 17.9546L74.8661 17.9767L74.8377 17.9992L78.0395 22.031ZM83.2931 19.7325L82.0638 14.733L82.0638 14.733L83.2931 19.7325ZM100.094 19.7325L98.8453 24.7272L98.855 24.7296L98.8646 24.732L100.094 19.7325ZM105.293 22.031L102.091 26.0628L102.12 26.0853L102.148 26.1074L105.293 22.031ZM107.92 25.5882L103.049 27.2547L103.075 27.3329L103.105 27.4102L107.92 25.5882ZM107.932 99.3087L103.101 97.5289L103.087 97.5654L103.074 97.6021L107.932 99.3087ZM107.932 71.5079L103.06 73.1743L103.087 73.2525L103.116 73.3298L107.932 71.5079ZM105.305 67.9507L102.103 71.9825L102.131 72.005L102.16 72.0271L105.305 67.9507ZM100.106 65.6522L98.857 70.6469L98.8667 70.6493L98.8763 70.6517L100.106 65.6522ZM78.0512 67.9507L74.9065 63.8743L74.8778 63.8964L74.8494 63.9189L78.0512 67.9507ZM75.4243 71.5079L70.5934 69.728L70.5799 69.7645L70.567 69.8013L75.4243 71.5079ZM75.4243 99.3087L70.5531 100.975L70.5798 101.053L70.6091 101.131L75.4243 99.3087ZM78.0512 102.811L74.8494 106.843L74.9144 106.895L74.981 106.944L78.0512 102.811ZM83.3049 105.055L82.0755 110.054L82.0755 110.054L83.3049 105.055ZM100.106 105.055L98.8763 100.055L98.8667 100.058L98.857 100.06L100.106 105.055ZM105.305 102.811L108.432 106.901L108.441 106.894L108.449 106.888L105.305 102.811ZM87.9566 94.6023L84.4437 98.366L84.513 98.4307L84.5847 98.4928L87.9566 94.6023ZM87.9566 76.269L91.3284 80.1596L91.4001 80.0975L91.4694 80.0328L87.9566 76.269ZM95.5087 76.269L91.9959 80.0328L92.0652 80.0975L92.1368 80.1596L95.5087 76.269ZM95.5087 94.6023L98.8806 98.4928L98.9523 98.4307L99.0216 98.366L95.5087 94.6023ZM211.17 102.591L214.43 106.576L214.437 106.57L211.17 102.591ZM211.881 83.109L208.576 87.0565L208.576 87.0565L211.881 83.109ZM205.697 80.5916L206.425 75.4949L206.403 75.4918L206.382 75.4889L205.697 80.5916ZM197.543 79.497L198.228 74.3944L198.083 74.375L197.938 74.3638L197.543 79.497ZM196.448 76.5965L200.323 79.9868L200.421 79.8748L200.512 79.7573L196.448 76.5965ZM211.772 75.6662L208.131 72.0257L208.131 72.0258L211.772 75.6662ZM211.772 66.1439L207.924 69.5643L208.125 69.7906L208.351 69.9918L211.772 66.1439ZM186.652 68.1687L189.913 72.1534L189.934 72.1358L189.955 72.1179L186.652 68.1687ZM185.941 87.5965L182.59 91.5054L182.613 91.5249L182.636 91.5441L185.941 87.5965ZM192.125 90.1139L191.397 95.2105L191.404 95.2116L191.411 95.2126L192.125 90.1139ZM200.334 91.2631L199.62 96.3618L199.779 96.3841L199.939 96.3964L200.334 91.2631ZM201.374 91.7557L197.255 94.8447L197.371 95L197.499 95.146L201.374 91.7557ZM201.374 94.2731L197.31 91.1122L197.282 91.1479L197.255 91.184L201.374 94.2731ZM184.08 95.2034L187.721 98.8439L187.721 98.8438L184.08 95.2034ZM184.08 104.616L180.232 108.037L180.433 108.263L180.66 108.464L184.08 104.616ZM157.77 104.616L161.411 108.257L161.411 108.257L157.77 104.616ZM158.263 90.9348V85.7864H153.114V90.9348H158.263ZM167.402 90.9348H172.55V85.7864H167.402V90.9348ZM167.84 104.616L163.992 108.037L164.193 108.263L164.419 108.464L167.84 104.616ZM179.332 104.616L182.973 108.257L182.973 108.257L179.332 104.616ZM179.332 66.1439L175.484 69.5643L175.685 69.7907L175.912 69.9919L179.332 66.1439ZM167.84 66.1439L171.48 69.7844L171.48 69.7844L167.84 66.1439ZM167.402 79.4971V84.6455H172.55V79.4971H167.402ZM158.263 79.4971H153.114V84.6455H158.263V79.4971ZM157.77 66.1439L153.922 69.5643L154.123 69.7907L154.35 69.9919L157.77 66.1439ZM146.278 66.1439L149.918 69.7844L149.918 69.7844L146.278 66.1439ZM146.278 104.616L142.43 108.037L142.631 108.263L142.857 108.464L146.278 104.616ZM120.871 104.616L117.023 108.037L117.224 108.263L117.45 108.464L120.871 104.616ZM120.433 76.2135H125.581V71.0651H120.433V76.2135ZM110.856 75.7757L107.008 79.1962L107.209 79.4225L107.435 79.6236L110.856 75.7757ZM110.856 66.1439L114.496 69.7844L114.496 69.7844L110.856 66.1439ZM142.761 66.1439L138.913 69.5643L139.114 69.7907L139.341 69.9919L142.761 66.1439ZM142.761 75.7757L139.12 72.1352L139.12 72.1353L142.761 75.7757ZM133.239 76.2135V71.0651H128.09V76.2135H133.239ZM132.746 104.616L136.387 108.257L136.387 108.257L132.746 104.616ZM40.2794 104.616L36.4314 108.037L36.6326 108.263L36.859 108.464L40.2794 104.616ZM51.7718 66.1439L47.9238 69.5643L48.1251 69.7906L48.3514 69.9919L51.7718 66.1439ZM52.2644 94.7109H47.116V99.8593H52.2644V94.7109ZM71.5948 95.2034L67.7468 98.6238L67.948 98.8502L68.1744 99.0514L71.5948 95.2034ZM33.5271 102.592L36.7873 106.576L36.795 106.57L33.5271 102.592ZM34.2386 83.1091L30.9336 87.0567L30.9336 87.0567L34.2386 83.1091ZM28.0545 80.5917L28.7826 75.495L28.7611 75.492L28.7395 75.4891L28.0545 80.5917ZM19.9004 79.4972L20.5853 74.3945L20.4407 74.3751L20.2952 74.3639L19.9004 79.4972ZM18.8059 76.5967L22.6804 79.987L22.7784 79.875L22.8698 79.7575L18.8059 76.5967ZM34.1291 75.6664L30.4886 72.0259L30.4886 72.0259L34.1291 75.6664ZM34.1291 66.144L30.2811 69.5644L30.4823 69.7908L30.7087 69.992L34.1291 66.144ZM9.00992 68.1689L12.2701 72.1535L12.2916 72.1359L12.3129 72.1181L9.00992 68.1689ZM8.29849 87.5966L4.94793 91.5056L4.97062 91.525L4.99353 91.5442L8.29849 87.5966ZM14.4825 90.114L13.7544 95.2107L13.7616 95.2117L13.7687 95.2127L14.4825 90.114ZM22.6914 91.2633L21.9776 96.362L22.1365 96.3842L22.2965 96.3965L22.6914 91.2633ZM23.7312 91.7558L19.6125 94.8449L19.7289 95.0001L19.8566 95.146L23.7312 91.7558ZM23.7312 94.2732L19.6673 91.1124L19.6396 91.1481L19.6125 91.1842L23.7312 94.2732ZM6.43781 95.2036L10.0783 98.844L10.0783 98.844L6.43781 95.2036ZM6.43781 104.616L2.58981 108.037L2.79103 108.263L3.0174 108.464L6.43781 104.616ZM70.9647 53.3895L66.1337 51.6097L66.1203 51.6462L66.1074 51.6829L70.9647 53.3895ZM70.9647 25.5887L66.0935 27.2552L66.1202 27.3334L66.1495 27.4107L70.9647 25.5887ZM68.3379 22.0315L65.1362 26.0633L65.1645 26.0858L65.1932 26.1079L68.3379 22.0315ZM63.1389 19.733L61.8902 24.7277L61.8999 24.7301L61.9095 24.7325L63.1389 19.733ZM46.3381 19.733L45.1087 14.7335L45.1087 14.7335L46.3381 19.733ZM41.0844 22.0315L37.9397 17.9551L37.911 17.9772L37.8827 17.9997L41.0844 22.0315ZM38.4575 25.5887L33.6266 23.8089L33.6131 23.8454L33.6002 23.8821L38.4575 25.5887ZM38.4575 53.3895L33.5863 55.056L33.613 55.1342L33.6423 55.2115L38.4575 53.3895ZM41.0844 56.892L37.8827 60.9238L37.9476 60.9754L38.0143 61.0248L41.0844 56.892ZM46.3381 59.1358L45.1087 64.1352L45.1087 64.1352L46.3381 59.1358ZM63.1389 59.1358L61.9095 54.1363L61.8999 54.1387L61.8902 54.1411L63.1389 59.1358ZM68.3379 56.892L71.4653 60.9817L71.4739 60.9751L71.4825 60.9684L68.3379 56.892ZM88.6073 6.0066L88.3934 0.862645L88.6073 6.0066ZM95.81 11.3148L90.7235 12.1109L90.7235 12.1109L95.81 11.3148ZM81.2936 12.6847L86.377 13.4997L86.3771 13.4997L81.2936 12.6847ZM82.6163 14.6252L81.6954 19.6905L81.6954 19.6905L82.6163 14.6252ZM84.5 13.2398L79.4165 12.4248L79.4165 12.4248L84.5 13.2398ZM88.7375 9.38037L88.9515 14.5243L88.9515 14.5243L88.7375 9.38037ZM92.6015 11.857L87.515 12.6531L87.515 12.6532L92.6015 11.857ZM94.4797 13.25L93.58 8.18081L93.58 8.18081L94.4797 13.25ZM94.5138 11.5176L99.6003 10.7216L99.6003 10.7216L94.5138 11.5176ZM88.6619 7.31745L88.4479 2.17349L88.6619 7.31745ZM94.2505 11.9582L93.3508 6.88902L93.3508 6.88902L94.2505 11.9582ZM93.8977 11.6542L88.8112 12.4503L88.8112 12.4504L93.8977 11.6542ZM88.683 8.06952L88.897 13.2135L88.683 8.06952ZM83.2046 13.0321L88.2881 13.8473L88.2881 13.8471L83.2046 13.0321ZM82.851 13.3343L83.772 8.26898L83.7719 8.26897L82.851 13.3343ZM82.589 12.8924L87.6725 13.7074L87.6725 13.7074L82.589 12.8924ZM9.66637 56.3991L6.37043 60.3542L6.38648 60.3676L6.40264 60.3809L9.66637 56.3991ZM9.66637 22.5237L12.9623 26.4788L12.9687 26.4735L9.66637 22.5237ZM34.6761 20.2252L30.8281 23.6456L31.0293 23.872L31.2557 24.0732L34.6761 20.2252ZM34.6761 29.857L38.3166 33.4975L38.3166 33.4975L34.6761 29.857ZM19.6812 31.0062L22.8974 35.0265L22.9765 34.9632L23.0531 34.8968L19.6812 31.0062ZM19.6812 48.0808L16.465 52.101L16.5494 52.1685L16.6366 52.2325L19.6812 48.0808ZM34.6761 49.1753L30.8281 52.5957L31.0293 52.822L31.2557 53.0232L34.6761 49.1753ZM34.6761 58.6976L38.3166 62.3381L38.3166 62.3381L34.6761 58.6976ZM143.857 58.7408L140.216 55.1004L140.216 55.1004L143.857 58.7408ZM144.349 57.2085L139.201 57.173L139.201 57.1907V57.2085H144.349ZM144.429 45.7238L149.577 45.7593L149.577 45.7416V45.7238H144.429ZM143.857 44.2462L140.009 47.6666L140.21 47.8929L140.436 48.0941L143.857 44.2462ZM139.726 43.7584L139.713 38.61L139.713 38.61L139.726 43.7584ZM134.507 43.7537L134.551 38.6055L134.529 38.6053H134.507V43.7537ZM132.381 48.8354V53.9838H137.529V48.8354H132.381ZM124.526 48.8354H119.378V53.9838H124.526V48.8354ZM124.034 20.2684L120.186 23.6888L120.387 23.9152L120.613 24.1164L124.034 20.2684ZM112.541 20.2684L108.901 16.6279L108.901 16.628L112.541 20.2684ZM112.541 58.7408L108.693 62.1612L108.895 62.3876L109.121 62.5888L112.541 58.7408ZM64.1639 10.5187C63.0211 3.21698 56.2083 0.673477 51.6608 0.862645L52.0887 11.1506C52.6504 11.1272 53.2295 11.2897 53.5939 11.5255C53.7531 11.6286 53.8342 11.7205 53.8759 11.7817C53.9106 11.8325 53.9615 11.923 53.9909 12.1109L64.1639 10.5187ZM58.6468 18.3192C62.6221 17.6136 64.6859 13.8539 64.1639 10.5187L53.9909 12.1109C53.7442 10.5344 54.7006 8.56183 56.8474 8.18081L58.6468 18.3192ZM50.7824 12.6531C51.3147 16.0543 54.5561 19.0452 58.6468 18.3192L56.8474 8.18081C59.0848 7.78372 60.7009 9.43472 60.9554 11.061L50.7824 12.6531ZM52.2189 14.5243C52.311 14.5205 52.1112 14.5525 51.7728 14.3244C51.4408 14.1005 50.925 13.5641 50.7824 12.6531L60.9554 11.061C60.2032 6.25487 55.6247 4.07693 51.791 4.23641L52.2189 14.5243ZM52.8509 14.0548C52.869 13.9422 52.8839 13.9553 52.8363 14.0416C52.7871 14.1307 52.7038 14.2383 52.588 14.3342C52.3553 14.5269 52.1827 14.5258 52.2189 14.5243L51.791 4.23641C49.8608 4.3167 47.7773 4.94917 46.0214 6.403C44.2143 7.89916 43.0718 10.0053 42.6839 12.4248L52.8509 14.0548ZM44.9628 19.6905C49.0509 20.4338 52.3057 17.4557 52.8509 14.0548L42.6839 12.4248C42.9447 10.7981 44.5687 9.15328 46.8047 9.5598L44.9628 19.6905ZM39.4775 11.8697C38.9431 15.203 40.9927 18.9687 44.9628 19.6905L46.8047 9.5598C48.9481 9.94949 49.8971 11.9239 49.6445 13.4997L39.4775 11.8697ZM51.6608 0.862645C46.3927 1.08178 40.6377 4.63314 39.4775 11.8696L49.6444 13.4997C49.8087 12.4751 50.2106 11.9806 50.5453 11.7069C50.9408 11.3837 51.4938 11.1753 52.0887 11.1506L51.6608 0.862645ZM52.1432 12.4614C52.3014 12.4548 52.4614 12.4726 52.602 12.509C52.743 12.5455 52.8248 12.5902 52.8542 12.6095C52.8793 12.626 52.8404 12.6061 52.787 12.5272C52.7271 12.4389 52.7007 12.3521 52.6947 12.3137L62.8677 10.7215C61.8723 4.36162 55.9268 1.9983 51.7153 2.17349L52.1432 12.4614ZM50.9399 13.7074C51.0005 13.329 51.0989 13.1031 51.1694 12.978C51.2397 12.8533 51.3126 12.7744 51.3828 12.7169C51.5335 12.5933 51.796 12.4759 52.1432 12.4614L51.7153 2.17349C46.9614 2.37124 41.818 5.55875 40.7729 12.0773L50.9399 13.7074ZM47.0393 8.26898C49.7847 8.76813 51.3227 11.3198 50.9399 13.7074L40.7729 12.0774C40.3115 14.9551 42.1679 17.8489 45.1974 18.3997L47.0393 8.26898ZM41.3885 12.2171C41.7901 9.71197 44.2242 7.75716 47.0393 8.26898L45.1975 18.3997C48.2713 18.9586 51.0779 16.8259 51.5555 13.8471L41.3885 12.2171ZM51.7364 2.92556C47.1213 3.11754 42.3541 6.19444 41.3885 12.2171L51.5555 13.8471C51.5979 13.5827 51.6619 13.4501 51.6892 13.4014C51.716 13.3536 51.7347 13.3373 51.7444 13.3293C51.7683 13.3096 51.894 13.2247 52.1644 13.2135L51.7364 2.92556ZM62.2516 10.8581C61.353 5.11666 55.9165 2.75168 51.7364 2.92556L52.1644 13.2135C52.3013 13.2078 52.4101 13.2238 52.4826 13.2428C52.5566 13.2623 52.5689 13.2782 52.5341 13.2552C52.4975 13.2308 52.4005 13.1568 52.298 13.0058C52.1899 12.8465 52.11 12.6506 52.0786 12.4503L62.2516 10.8581ZM56.6182 6.88902C59.4352 6.38906 61.8596 8.35338 62.2516 10.8581L52.0786 12.4503C52.5449 15.4294 55.3417 17.5733 58.4175 17.0274L56.6182 6.88902ZM52.6947 12.3137C52.3207 9.92398 53.8694 7.37687 56.6182 6.88902L58.4175 17.0274C61.4502 16.4892 63.3185 13.6019 62.8677 10.7216L52.6947 12.3137ZM112.751 55.1689C113.498 53.1407 113.834 50.996 113.834 48.7921H103.538C103.538 49.9446 103.363 50.8646 103.089 51.6092L112.751 55.1689ZM108.438 60.9679C110.399 59.4547 111.932 57.5004 112.777 55.0957L103.062 51.6824C102.959 51.9775 102.741 52.3581 102.148 52.8151L108.438 60.9679ZM101.323 64.1347C103.943 63.4907 106.417 62.513 108.42 60.9812L102.166 52.8018C101.688 53.1672 100.696 53.6854 98.8646 54.1358L101.323 64.1347ZM91.7209 65.1046C95.3464 65.1046 98.5958 64.8167 101.343 64.13L98.8453 54.1406C97.2141 54.5484 94.8815 54.8078 91.7209 54.8078V65.1046ZM82.0638 64.1348C84.8339 64.8159 88.0916 65.1046 91.7209 65.1046V54.8078C88.5643 54.8078 86.2035 54.5492 84.5225 54.1358L82.0638 64.1348ZM74.9693 61.0244C76.9821 62.5196 79.4428 63.4902 82.0637 64.1347L84.5225 54.1358C82.6924 53.6858 81.6507 53.1606 81.1096 52.7587L74.9693 61.0244ZM70.5974 55.211C71.4684 57.5129 72.9431 59.4187 74.8377 60.9233L81.2412 52.8597C80.6549 52.3942 80.3784 51.965 80.2278 51.5671L70.5974 55.211ZM69.5528 48.7921C69.5528 50.9562 69.859 53.061 70.5414 55.0555L80.2838 51.7226C80.0176 50.9443 79.8496 49.9844 79.8496 48.7921H69.5528ZM69.5528 30.1305V48.7921H79.8496V30.1305H69.5528ZM70.5553 23.8816C69.8582 25.8655 69.5528 27.9693 69.5528 30.1305H79.8496C79.8496 28.9351 80.0184 28.0107 80.2699 27.2948L70.5553 23.8816ZM74.8377 17.9992C72.9134 19.5274 71.4424 21.472 70.5816 23.8084L80.2436 27.368C80.4044 26.9316 80.6846 26.5048 81.2412 26.0628L74.8377 17.9992ZM82.0638 14.733C79.4141 15.3846 76.925 16.3884 74.8948 17.9546L81.1841 26.1074C81.7078 25.7035 82.7211 25.175 84.5225 24.732L82.0638 14.733ZM91.7209 13.7632C88.0916 13.7632 84.8339 14.0519 82.0638 14.733L84.5225 24.732C86.2035 24.3186 88.5643 24.06 91.7209 24.06V13.7632ZM101.343 14.7378C98.5958 14.0511 95.3464 13.7632 91.7209 13.7632V24.06C94.8815 24.06 97.2141 24.3194 98.8453 24.7272L101.343 14.7378ZM108.495 17.9992C106.475 16.3952 103.972 15.3842 101.323 14.733L98.8646 24.732C100.667 25.1753 101.63 25.6967 102.091 26.0628L108.495 17.9992ZM112.791 23.9217C111.957 21.4848 110.43 19.4918 108.438 17.9546L102.148 26.1074C102.71 26.5404 102.934 26.9188 103.049 27.2547L112.791 23.9217ZM113.834 30.1305C113.834 27.9294 113.499 25.7848 112.735 23.7662L103.105 27.4102C103.362 28.0914 103.538 28.975 103.538 30.1305H113.834ZM113.834 48.7921V30.1305H103.538V48.7921H113.834ZM103.549 94.7117C103.549 95.8643 103.375 96.7843 103.101 97.5289L112.762 101.089C113.51 99.0604 113.846 96.9157 113.846 94.7117H103.549ZM103.549 76.0501V94.7117H113.846V76.0501H103.549ZM103.116 73.3298C103.374 74.0111 103.549 74.8947 103.549 76.0501H113.846C113.846 73.849 113.511 71.7044 112.747 69.6859L103.116 73.3298ZM102.16 72.0271C102.721 72.4601 102.945 72.8385 103.06 73.1743L112.803 69.8414C111.969 67.4044 110.442 65.4114 108.449 63.8743L102.16 72.0271ZM98.8763 70.6517C100.679 71.095 101.642 71.6163 102.103 71.9825L108.506 63.9189C106.486 62.3149 103.983 61.3039 101.335 60.6527L98.8763 70.6517ZM91.7326 69.9797C94.8932 69.9797 97.2258 70.2391 98.857 70.6469L101.354 60.6575C98.6075 59.9708 95.3581 59.6829 91.7326 59.6829V69.9797ZM84.5342 70.6517C86.2152 70.2383 88.576 69.9797 91.7326 69.9797V59.6829C88.1033 59.6829 84.8456 59.9715 82.0755 60.6527L84.5342 70.6517ZM81.1958 72.0271C81.7195 71.6231 82.7328 71.0946 84.5342 70.6517L82.0755 60.6527C79.4259 61.3043 76.9367 62.3081 74.9065 63.8743L81.1958 72.0271ZM80.2553 73.2877C80.4161 72.8512 80.6963 72.4244 81.2529 71.9824L74.8494 63.9189C72.9251 65.4471 71.4541 67.3917 70.5934 69.728L80.2553 73.2877ZM79.8613 76.0501C79.8613 74.8548 80.0301 73.9304 80.2816 73.2145L70.567 69.8013C69.87 71.7852 69.5645 73.8889 69.5645 76.0501H79.8613ZM79.8613 94.7117V76.0501H69.5645V94.7117H79.8613ZM80.2956 97.6422C80.0293 96.864 79.8613 95.9041 79.8613 94.7117H69.5645C69.5645 96.8759 69.8708 98.9807 70.5531 100.975L80.2956 97.6422ZM81.2529 98.7794C80.6667 98.3139 80.3901 97.8847 80.2396 97.4867L70.6091 101.131C71.4801 103.433 72.9548 105.338 74.8494 106.843L81.2529 98.7794ZM84.5342 100.055C82.7042 99.6055 81.6624 99.0803 81.1213 98.6783L74.981 106.944C76.9938 108.439 79.4545 109.41 82.0755 110.054L84.5342 100.055ZM91.7326 100.727C88.576 100.727 86.2152 100.469 84.5342 100.055L82.0755 110.054C84.8456 110.736 88.1033 111.024 91.7326 111.024V100.727ZM98.857 100.06C97.2258 100.468 94.8932 100.727 91.7326 100.727V111.024C95.3581 111.024 98.6075 110.736 101.354 110.05L98.857 100.06ZM102.177 98.7215C101.699 99.0869 100.708 99.6051 98.8763 100.055L101.335 110.054C103.954 109.41 106.429 108.433 108.432 106.901L102.177 98.7215ZM103.074 97.6021C102.971 97.8972 102.752 98.2778 102.16 98.7348L108.449 106.888C110.411 105.374 111.944 103.42 112.789 101.015L103.074 97.6021ZM81.9873 92.7416C81.9873 94.9397 82.8838 96.9101 84.4437 98.366L91.4694 90.8385C91.6515 91.0085 91.879 91.2854 92.0513 91.6759C92.2248 92.0694 92.2841 92.4462 92.2841 92.7416H81.9873ZM81.9873 78.0203V92.7416H92.2841V78.0203H81.9873ZM84.5847 72.3785C82.9667 73.7808 81.9873 75.7594 81.9873 78.0203H92.2841C92.2841 78.3712 92.21 78.8053 92.0026 79.2477C91.7979 79.6844 91.5321 79.9831 91.3284 80.1596L84.5847 72.3785ZM91.7326 70.3545C90.5651 70.3545 89.3816 70.4268 88.2873 70.6488C87.3132 70.8465 85.749 71.287 84.4437 72.5053L91.4694 80.0328C91.0536 80.4209 90.6768 80.6031 90.5111 80.6734C90.3389 80.7464 90.261 80.755 90.3348 80.74C90.401 80.7266 90.5475 80.7027 90.7944 80.6831C91.0378 80.6639 91.3478 80.6513 91.7326 80.6513V70.3545ZM99.0216 72.5053C97.7163 71.287 96.1521 70.8465 95.178 70.6488C94.0837 70.4268 92.9002 70.3545 91.7326 70.3545V80.6513C92.1175 80.6513 92.4275 80.6639 92.6709 80.6831C92.9178 80.7027 93.0643 80.7266 93.1305 80.74C93.2042 80.755 93.1264 80.7464 92.9542 80.6734C92.7885 80.6031 92.4117 80.4209 91.9959 80.0328L99.0216 72.5053ZM101.478 78.0203C101.478 75.7595 100.499 73.7808 98.8806 72.3785L92.1368 80.1596C91.9332 79.9831 91.6674 79.6844 91.4627 79.2477C91.2553 78.8052 91.1812 78.3711 91.1812 78.0203H101.478ZM101.478 92.7416V78.0203H91.1812V92.7416H101.478ZM99.0216 98.366C100.581 96.9101 101.478 94.9396 101.478 92.7416H91.1812C91.1812 92.4462 91.2404 92.0694 91.414 91.6759C91.5863 91.2855 91.8138 91.0085 91.9959 90.8385L99.0216 98.366ZM91.7326 100.462C92.8866 100.462 94.044 100.396 95.1075 100.195C96.037 100.02 97.5721 99.6269 98.8806 98.4928L92.1368 90.7117C92.5618 90.3434 92.934 90.1801 93.0778 90.1234C93.2322 90.0626 93.2913 90.0595 93.201 90.0765C93.1187 90.092 92.9578 90.1157 92.6997 90.1347C92.445 90.1534 92.1252 90.1653 91.7326 90.1653V100.462ZM84.5847 98.4928C85.8932 99.6269 87.4283 100.02 88.3578 100.195C89.4213 100.396 90.5787 100.462 91.7326 100.462V90.1653C91.3401 90.1653 91.0203 90.1534 90.7656 90.1347C90.5075 90.1157 90.3466 90.092 90.2643 90.0765C90.174 90.0595 90.233 90.0626 90.3874 90.1234C90.5312 90.1801 90.9035 90.3434 91.3284 90.7117L84.5847 98.4928ZM202.906 99.9057H185.613V110.203H202.906V99.9057ZM207.909 98.6068C207.1 99.2687 205.637 99.9057 202.906 99.9057V110.203C207.18 110.203 211.225 109.198 214.43 106.576L207.909 98.6068ZM209.086 95.4223C209.086 97.2795 208.542 98.0867 207.902 98.6131L214.437 106.57C217.883 103.74 219.383 99.7674 219.383 95.4223H209.086ZM209.086 89.6761V95.4223H219.383V89.6761H209.086ZM208.576 87.0565C208.585 87.0639 208.605 87.0816 208.637 87.1294C208.671 87.1803 208.732 87.2853 208.799 87.4725C208.94 87.8642 209.086 88.5583 209.086 89.6761H219.383C219.383 85.8595 218.408 81.8589 215.186 79.1614L208.576 87.0565ZM204.969 85.6882C206.819 85.9525 207.912 86.5005 208.576 87.0565L215.186 79.1614C212.712 77.0906 209.683 75.9602 206.425 75.4949L204.969 85.6882ZM196.858 84.5997L205.012 85.6942L206.382 75.4889L198.228 74.3944L196.858 84.5997ZM192.384 82.1106C193.662 83.7534 195.456 84.5002 197.148 84.6303L197.938 74.3638C198.256 74.3883 198.712 74.4761 199.216 74.728C199.735 74.9876 200.178 75.3587 200.512 75.789L192.384 82.1106ZM190.917 77.7458C190.917 79.1966 191.329 80.7541 192.384 82.1106L200.512 75.789C201.056 76.4888 201.214 77.2435 201.214 77.7458H190.917ZM192.574 73.2063C191.324 74.634 190.917 76.3144 190.917 77.7458H201.214C201.214 78.2286 201.061 79.1428 200.323 79.9868L192.574 73.2063ZM197.543 70.9556C195.732 70.9556 193.76 71.6665 192.384 73.4358L200.512 79.7573C200.146 80.2287 199.64 80.6456 199.026 80.9221C198.433 81.1892 197.901 81.2524 197.543 81.2524V70.9556ZM210.294 70.9556H197.543V81.2524H210.294V70.9556ZM208.131 72.0258C208.723 71.4341 209.342 71.1704 209.721 71.0583C209.91 71.0022 210.058 70.9778 210.147 70.9668C210.238 70.9557 210.289 70.9556 210.294 70.9556V81.2524C211.478 81.2524 213.675 81.0435 215.412 79.3066L208.131 72.0258ZM207.116 74.1339C207.116 74.1278 207.107 73.0493 208.131 72.0257L215.412 79.3067C217.092 77.6264 217.412 75.5263 217.412 74.1339H207.116ZM207.116 67.6215V74.1339H217.412V67.6215H207.116ZM208.351 69.9918C207.728 69.438 207.408 68.813 207.257 68.3603C207.116 67.939 207.116 67.6547 207.116 67.6215H217.412C217.412 66.2956 217.12 64.0095 215.192 62.2959L208.351 69.9918ZM210.294 70.7997C210.261 70.7997 209.976 70.7991 209.555 70.6587C209.102 70.5078 208.477 70.1873 207.924 69.5643L215.62 62.7235C213.906 60.7956 211.62 60.5029 210.294 60.5029V70.7997ZM194.971 70.7997H210.294V60.5029H194.971V70.7997ZM189.955 72.1179C190.754 71.45 192.213 70.7997 194.971 70.7997V60.5029C190.651 60.5029 186.564 61.5309 183.349 64.2195L189.955 72.1179ZM188.791 75.2831C188.791 73.3907 189.338 72.623 189.913 72.1534L183.392 64.1841C179.953 66.998 178.494 70.9733 178.494 75.2831H188.791ZM188.791 81.0294V75.2831H178.494V81.0294H188.791ZM189.291 83.6875C189.289 83.6858 189.272 83.6713 189.24 83.6225C189.206 83.5705 189.144 83.462 189.076 83.2688C188.935 82.8649 188.791 82.1577 188.791 81.0294H178.494C178.494 84.8115 179.432 88.798 182.59 91.5054L189.291 83.6875ZM192.853 85.0172C191.003 84.7529 189.91 84.205 189.246 83.6489L182.636 91.5441C185.109 93.6149 188.139 94.7452 191.397 95.2105L192.853 85.0172ZM201.048 86.1645L192.839 85.0152L191.411 95.2126L199.62 96.3618L201.048 86.1645ZM205.492 88.6666C204.132 86.8534 202.203 86.2433 200.729 86.1299L199.939 96.3964C199.694 96.3776 199.259 96.3098 198.746 96.0664C198.203 95.8094 197.673 95.4023 197.255 94.8447L205.492 88.6666ZM206.905 93.1238C206.905 91.9622 206.694 90.0173 205.248 88.3654L197.499 95.146C197.021 94.6002 196.802 94.0561 196.703 93.7048C196.608 93.3663 196.608 93.1468 196.608 93.1238H206.905ZM205.437 97.434C206.434 96.1522 206.905 94.642 206.905 93.1238H196.608C196.608 92.8359 196.651 92.4873 196.777 92.1114C196.903 91.7325 197.09 91.3946 197.31 91.1122L205.437 97.434ZM200.334 99.8593C201.897 99.8593 204.021 99.3239 205.492 97.3621L197.255 91.184C197.71 90.5766 198.311 90.1263 198.952 89.8565C199.553 89.6034 200.058 89.5625 200.334 89.5625V99.8593ZM185.613 99.8593H200.334V89.5625H185.613V99.8593ZM187.721 98.8438C186.697 99.8675 185.619 99.8593 185.613 99.8593V89.5625C184.22 89.5625 182.12 89.8826 180.44 91.563L187.721 98.8438ZM188.791 96.681C188.791 96.6855 188.791 96.7373 188.78 96.8277C188.769 96.9174 188.744 97.0652 188.688 97.2544C188.576 97.6327 188.312 98.2523 187.721 98.8439L180.44 91.5629C178.703 93.2997 178.494 95.4965 178.494 96.681H188.791ZM188.791 103.084V96.681H178.494V103.084H188.791ZM187.928 101.196C188.392 101.717 188.607 102.238 188.702 102.573C188.75 102.739 188.771 102.869 188.781 102.95C188.791 103.032 188.791 103.079 188.791 103.084H178.494C178.494 104.345 178.735 106.352 180.232 108.037L187.928 101.196ZM185.613 99.9057C185.618 99.9057 185.665 99.9058 185.746 99.9157C185.828 99.9256 185.958 99.9469 186.124 99.9943C186.458 100.09 186.979 100.305 187.501 100.768L180.66 108.464C182.345 109.962 184.352 110.203 185.613 110.203V99.9057ZM156.292 99.9057H147.81V110.203H156.292V99.9057ZM154.13 100.976C154.721 100.384 155.341 100.12 155.719 100.008C155.908 99.9523 156.056 99.928 156.146 99.9169C156.236 99.9058 156.288 99.9057 156.292 99.9057V110.203C157.477 110.203 159.674 109.994 161.411 108.257L154.13 100.976ZM153.114 103.084C153.114 103.078 153.106 102 154.13 100.976L161.411 108.257C163.091 106.576 163.411 104.476 163.411 103.084H153.114ZM153.114 90.9348V103.084H163.411V90.9348H153.114ZM167.402 85.7864H158.263V96.0832H167.402V85.7864ZM172.55 103.084V90.9348H162.253V103.084H172.55ZM171.688 101.196C172.151 101.717 172.366 102.238 172.462 102.573C172.509 102.739 172.53 102.869 172.54 102.95C172.55 103.032 172.55 103.079 172.55 103.084H162.253C162.253 104.345 162.494 106.352 163.992 108.037L171.688 101.196ZM169.372 99.9057C169.377 99.9057 169.424 99.9059 169.506 99.9158C169.587 99.9256 169.717 99.9469 169.883 99.9944C170.218 100.09 170.739 100.305 171.26 100.768L164.419 108.464C166.104 109.962 168.111 110.203 169.372 110.203V99.9057ZM177.855 99.9057H169.372V110.203H177.855V99.9057ZM175.692 100.976C176.283 100.384 176.903 100.12 177.281 100.008C177.47 99.9523 177.618 99.928 177.708 99.9169C177.798 99.9058 177.85 99.9057 177.855 99.9057V110.203C179.039 110.203 181.236 109.994 182.973 108.257L175.692 100.976ZM174.676 103.084C174.676 103.078 174.668 101.999 175.692 100.976L182.973 108.257C184.653 106.576 184.973 104.476 184.973 103.084H174.676ZM174.676 67.6215V103.084H184.973V67.6215H174.676ZM175.912 69.9919C175.289 69.4381 174.968 68.8131 174.817 68.3603C174.677 67.939 174.676 67.6547 174.676 67.6215H184.973C184.973 66.2956 184.68 64.0095 182.753 62.2959L175.912 69.9919ZM177.855 70.7998C177.821 70.7998 177.537 70.7991 177.116 70.6587C176.663 70.5078 176.038 70.1873 175.484 69.5643L183.18 62.7235C181.466 60.7957 179.18 60.503 177.855 60.503V70.7998ZM169.372 70.7998H177.855V60.503H169.372V70.7998ZM171.48 69.7844C170.457 70.808 169.378 70.7998 169.372 70.7998V60.503C167.98 60.503 165.879 60.8231 164.199 62.5034L171.48 69.7844ZM172.55 67.6215C172.55 67.626 172.55 67.6778 172.539 67.7682C172.528 67.8579 172.504 68.0057 172.448 68.1949C172.335 68.5732 172.072 69.1927 171.48 69.7844L164.199 62.5034C162.462 64.2402 162.253 66.437 162.253 67.6215H172.55ZM172.55 79.4971V67.6215H162.253V79.4971H172.55ZM158.263 84.6455H167.402V74.3487H158.263V84.6455ZM153.114 67.6215V79.4971H163.411V67.6215H153.114ZM154.35 69.9919C153.727 69.438 153.406 68.813 153.255 68.3602C153.115 67.9389 153.114 67.6547 153.114 67.6215H163.411C163.411 66.2958 163.118 64.0096 161.191 62.2959L154.35 69.9919ZM156.292 70.7998C156.259 70.7998 155.975 70.7991 155.554 70.6587C155.101 70.5078 154.476 70.1873 153.922 69.5643L161.618 62.7235C159.904 60.7957 157.618 60.503 156.292 60.503V70.7998ZM147.81 70.7998H156.292V60.503H147.81V70.7998ZM149.918 69.7844C148.894 70.808 147.816 70.7998 147.81 70.7998V60.503C146.418 60.503 144.318 60.8231 142.637 62.5034L149.918 69.7844ZM150.988 67.6215C150.988 67.6259 150.988 67.6778 150.977 67.7681C150.966 67.8578 150.942 68.0056 150.886 68.1948C150.773 68.5731 150.51 69.1927 149.918 69.7844L142.637 62.5034C140.9 64.2402 140.691 66.4371 140.691 67.6215H150.988ZM150.988 103.084V67.6215H140.691V103.084H150.988ZM150.126 101.196C150.589 101.717 150.804 102.238 150.9 102.573C150.947 102.739 150.968 102.869 150.978 102.95C150.988 103.032 150.988 103.079 150.988 103.084H140.691C140.691 104.345 140.932 106.352 142.43 108.037L150.126 101.196ZM147.81 99.9057C147.815 99.9057 147.862 99.9059 147.944 99.9158C148.025 99.9256 148.155 99.9469 148.321 99.9944C148.656 100.09 149.177 100.305 149.698 100.768L142.857 108.464C144.542 109.962 146.549 110.203 147.81 110.203V99.9057ZM122.403 110.203H131.269V99.9057H122.403V110.203ZM117.45 108.464C119.135 109.962 121.142 110.203 122.403 110.203V99.9057C122.408 99.9057 122.455 99.9059 122.537 99.9158C122.618 99.9256 122.748 99.9469 122.914 99.9944C123.249 100.09 123.77 100.305 124.291 100.768L117.45 108.464ZM115.284 103.084C115.284 104.345 115.525 106.352 117.023 108.037L124.719 101.196C125.182 101.717 125.397 102.238 125.493 102.573C125.54 102.739 125.561 102.869 125.571 102.95C125.581 103.032 125.581 103.079 125.581 103.084H115.284ZM115.284 76.2135V103.084H125.581V76.2135H115.284ZM112.388 81.3619H120.433V71.0651H112.388V81.3619ZM107.435 79.6236C109.12 81.1212 111.127 81.3619 112.388 81.3619V71.0651C112.393 71.0651 112.44 71.0652 112.522 71.0751C112.603 71.085 112.733 71.1063 112.899 71.1537C113.234 71.2493 113.755 71.4642 114.276 71.9278L107.435 79.6236ZM105.27 74.2434C105.27 75.504 105.51 77.5114 107.008 79.1962L114.704 72.3552C115.167 72.8767 115.382 73.3974 115.478 73.732C115.525 73.898 115.546 74.0281 115.556 74.1095C115.566 74.1912 115.566 74.2383 115.566 74.2434H105.27ZM105.27 67.6215V74.2434H115.566V67.6215H105.27ZM107.215 62.5034C105.479 64.2402 105.27 66.4371 105.27 67.6215H115.566C115.566 67.6259 115.566 67.6778 115.555 67.7681C115.544 67.8578 115.52 68.0056 115.464 68.1948C115.352 68.5731 115.088 69.1928 114.496 69.7844L107.215 62.5034ZM112.388 60.503C110.996 60.503 108.896 60.8231 107.215 62.5034L114.496 69.7844C113.473 70.808 112.394 70.7998 112.388 70.7998V60.503ZM141.283 60.503H112.388V70.7998H141.283V60.503ZM146.609 62.7235C144.895 60.7957 142.609 60.503 141.283 60.503V70.7998C141.25 70.7998 140.966 70.7991 140.545 70.6587C140.092 70.5078 139.467 70.1873 138.913 69.5643L146.609 62.7235ZM148.402 67.6215C148.402 66.2956 148.109 64.0095 146.181 62.2959L139.341 69.9919C138.718 69.4381 138.397 68.8131 138.246 68.3603C138.106 67.939 138.105 67.6547 138.105 67.6215H148.402ZM148.402 74.2434V67.6215H138.105V74.2434H148.402ZM146.401 79.4162C148.082 77.7359 148.402 75.6358 148.402 74.2434H138.105C138.105 74.2373 138.097 73.1588 139.12 72.1352L146.401 79.4162ZM141.283 81.3619C142.468 81.3619 144.665 81.153 146.401 79.4161L139.12 72.1353C139.712 71.5436 140.332 71.2799 140.71 71.1678C140.899 71.1117 141.047 71.0873 141.137 71.0763C141.227 71.0652 141.279 71.0651 141.283 71.0651V81.3619ZM133.239 81.3619H141.283V71.0651H133.239V81.3619ZM138.387 103.084V76.2135H128.09V103.084H138.387ZM136.387 108.257C138.067 106.576 138.387 104.476 138.387 103.084H128.09C128.09 103.078 128.082 101.999 129.106 100.976L136.387 108.257ZM131.269 110.203C132.453 110.203 134.65 109.994 136.387 108.257L129.106 100.976C129.697 100.384 130.317 100.12 130.695 100.008C130.884 99.9523 131.032 99.928 131.122 99.9169C131.212 99.9058 131.264 99.9057 131.269 99.9057V110.203ZM41.8117 110.203H70.1172V99.9057H41.8117V110.203ZM36.859 108.464C38.5437 109.962 40.551 110.203 41.8117 110.203V99.9057C41.8168 99.9057 41.8639 99.9058 41.9455 99.9157C42.0269 99.9256 42.1571 99.9469 42.3231 99.9943C42.6576 100.09 43.1783 100.305 43.6998 100.768L36.859 108.464ZM34.6932 103.084C34.6932 104.345 34.9339 106.352 36.4314 108.037L44.1274 101.196C44.5909 101.717 44.8058 102.238 44.9014 102.573C44.9488 102.739 44.9701 102.869 44.9799 102.95C44.9898 103.032 44.99 103.079 44.99 103.084H34.6932ZM34.6932 67.6215V103.084H44.99V67.6215H34.6932ZM36.6389 62.5034C34.9021 64.2402 34.6932 66.4371 34.6932 67.6215H44.99C44.99 67.6259 44.9899 67.6777 44.9788 67.7681C44.9678 67.8578 44.9434 68.0056 44.8873 68.1948C44.7752 68.5731 44.5115 69.1927 43.9199 69.7843L36.6389 62.5034ZM41.8117 60.5029C40.4193 60.5029 38.3192 60.8231 36.6389 62.5034L43.9199 69.7843C42.8962 70.808 41.8178 70.7997 41.8117 70.7997V60.5029ZM50.2942 60.5029H41.8117V70.7997H50.2942V60.5029ZM55.6198 62.7235C53.9062 60.7956 51.62 60.5029 50.2942 60.5029V70.7997C50.261 70.7997 49.9768 70.7991 49.5554 70.6587C49.1027 70.5077 48.4777 70.1873 47.9238 69.5643L55.6198 62.7235ZM57.4128 67.6215C57.4128 66.2956 57.12 64.0095 55.1922 62.2959L48.3514 69.9919C47.7284 69.4381 47.408 68.813 47.257 68.3603C47.1166 67.9389 47.116 67.6547 47.116 67.6215H57.4128ZM57.4128 94.7109V67.6215H47.116V94.7109H57.4128ZM70.1172 89.5625H52.2644V99.8593H70.1172V89.5625ZM75.4428 91.783C73.7292 89.8552 71.4431 89.5625 70.1172 89.5625V99.8593C70.084 99.8593 69.7997 99.8587 69.3784 99.7182C68.9256 99.5673 68.3006 99.2468 67.7468 98.6238L75.4428 91.783ZM77.2357 96.681C77.2357 95.3552 76.9431 93.0691 75.0152 91.3555L68.1744 99.0514C67.5513 98.4976 67.2309 97.8726 67.08 97.4198C66.9395 96.9985 66.9389 96.7142 66.9389 96.681H77.2357ZM77.2357 103.084V96.681H66.9389V103.084H77.2357ZM75.2353 108.257C76.9156 106.576 77.2357 104.476 77.2357 103.084H66.9389C66.9389 103.078 66.9307 101.999 67.9543 100.976L75.2353 108.257ZM70.1172 110.203C71.3016 110.203 73.4985 109.994 75.2353 108.257L67.9543 100.976C68.546 100.384 69.1656 100.12 69.5439 100.008C69.7331 99.9523 69.8809 99.9279 69.9706 99.9169C70.0609 99.9058 70.1128 99.9057 70.1172 99.9057V110.203ZM25.2635 99.9058H7.97013V110.203H25.2635V99.9058ZM30.267 98.6069C29.4579 99.2689 27.9942 99.9058 25.2635 99.9058V110.203C29.5377 110.203 33.5831 109.198 36.7873 106.576L30.267 98.6069ZM31.4434 95.4225C31.4434 97.2797 30.9001 98.0869 30.2592 98.6133L36.795 106.57C40.2404 103.74 41.7402 99.7676 41.7402 95.4225H31.4434ZM31.4434 89.6762V95.4225H41.7402V89.6762H31.4434ZM30.9336 87.0567C30.9424 87.064 30.9625 87.0817 30.9947 87.1296C31.0289 87.1805 31.0898 87.2855 31.1568 87.4727C31.2972 87.8644 31.4434 88.5584 31.4434 89.6762H41.7402C41.7402 85.8597 40.7656 81.8591 37.5435 79.1615L30.9336 87.0567ZM27.3264 85.6884C29.1767 85.9527 30.2694 86.5006 30.9336 87.0567L37.5435 79.1615C35.0701 77.0907 32.0401 75.9604 28.7826 75.495L27.3264 85.6884ZM19.2155 84.5998L27.3696 85.6943L28.7395 75.4891L20.5853 74.3945L19.2155 84.5998ZM14.742 82.1107C16.0197 83.7536 17.8139 84.5003 19.5055 84.6304L20.2952 74.3639C20.6133 74.3884 21.0698 74.4763 21.5735 74.7281C22.0926 74.9877 22.5351 75.3589 22.8698 75.7891L14.742 82.1107ZM13.2744 77.7459C13.2744 79.1967 13.6868 80.7542 14.742 82.1107L22.8698 75.7891C23.4141 76.489 23.5712 77.2438 23.5712 77.7459H13.2744ZM14.9313 73.2064C13.682 74.6342 13.2744 76.3146 13.2744 77.7459H23.5712C23.5712 78.2287 23.419 79.1429 22.6804 79.987L14.9313 73.2064ZM19.9004 70.9558C18.09 70.9558 16.118 71.6666 14.7419 73.4359L22.8698 79.7575C22.5032 80.2289 21.998 80.6458 21.3838 80.9222C20.7903 81.1893 20.2583 81.2526 19.9004 81.2526V70.9558ZM32.6515 70.9558H19.9004V81.2526H32.6515V70.9558ZM30.4886 72.0259C31.0803 71.4342 31.6999 71.1705 32.0782 71.0584C32.2674 71.0024 32.4152 70.978 32.5049 70.9669C32.5953 70.9558 32.6471 70.9558 32.6515 70.9558V81.2526C33.8358 81.2526 36.0328 81.0437 37.7696 79.3068L30.4886 72.0259ZM29.4732 74.134C29.4732 74.128 29.465 73.0495 30.4886 72.0259L37.7696 79.3068C39.4499 77.6265 39.77 75.5264 39.77 74.134H29.4732ZM29.4732 67.6216V74.134H39.77V67.6216H29.4732ZM30.7087 69.992C30.0857 69.4382 29.7652 68.8132 29.6143 68.3604C29.4739 67.9391 29.4732 67.6548 29.4732 67.6216H39.77C39.77 66.2958 39.4773 64.0097 37.5495 62.296L30.7087 69.992ZM32.6515 70.7999C32.6183 70.7999 32.334 70.7993 31.9127 70.6588C31.4599 70.5079 30.8349 70.1875 30.2811 69.5644L37.9771 62.7236C36.2635 60.7958 33.9773 60.5031 32.6515 60.5031V70.7999ZM17.3283 70.7999H32.6515V60.5031H17.3283V70.7999ZM12.3129 72.1181C13.1115 71.4502 14.5701 70.7999 17.3283 70.7999V60.5031C13.0085 60.5031 8.92157 61.531 5.70693 64.2197L12.3129 72.1181ZM11.1484 75.2833C11.1484 73.3908 11.6961 72.6232 12.2701 72.1535L5.74975 64.1842C2.31053 66.9982 0.851593 70.9735 0.851593 75.2833H11.1484ZM11.1484 81.0295V75.2833H0.851593V81.0295H11.1484ZM11.649 83.6877C11.647 83.6859 11.6292 83.6715 11.5972 83.6227C11.5631 83.5707 11.5016 83.4622 11.434 83.269C11.2926 82.865 11.1484 82.1578 11.1484 81.0295H0.851593C0.851593 84.8117 1.78924 88.7981 4.94793 91.5056L11.649 83.6877ZM15.2106 85.0174C13.3604 84.7531 12.2676 84.2051 11.6034 83.6491L4.99353 91.5442C7.46699 93.615 10.4969 94.7453 13.7544 95.2107L15.2106 85.0174ZM23.4052 86.1646L15.1963 85.0154L13.7687 95.2127L21.9776 96.362L23.4052 86.1646ZM27.8499 88.6668C26.49 86.8535 24.5607 86.2435 23.0863 86.13L22.2965 96.3965C22.0518 96.3777 21.6168 96.3099 21.1031 96.0666C20.5606 95.8096 20.0307 95.4025 19.6125 94.8449L27.8499 88.6668ZM29.2627 93.124C29.2627 91.9623 29.0511 90.0175 27.6058 88.3656L19.8566 95.146C19.379 94.6002 19.1591 94.0562 19.0608 93.7049C18.966 93.3665 18.9659 93.147 18.9659 93.124H29.2627ZM27.7951 97.434C28.792 96.1523 29.2627 94.6422 29.2627 93.124H18.9659C18.9659 92.8361 19.009 92.4874 19.1343 92.1116C19.2606 91.7327 19.4476 91.3949 19.6673 91.1124L27.7951 97.434ZM22.6914 99.8594C24.2542 99.8594 26.3785 99.3241 27.8499 97.3623L19.6125 91.1842C20.0681 90.5767 20.6684 90.1264 21.3092 89.8566C21.9101 89.6036 22.4151 89.5626 22.6914 89.5626V99.8594ZM7.97013 99.8594H22.6914V89.5626H7.97013V99.8594ZM10.0783 98.844C9.05468 99.8677 7.97617 99.8594 7.97013 99.8594V89.5626C6.57771 89.5626 4.47764 89.8828 2.7973 91.5631L10.0783 98.844ZM11.1484 96.6812C11.1484 96.6856 11.1483 96.7374 11.1372 96.8278C11.1262 96.9175 11.1018 97.0653 11.0457 97.2545C10.9336 97.6328 10.6699 98.2524 10.0783 98.844L2.79734 91.5631C1.06055 93.2999 0.851593 95.4968 0.851593 96.6812H11.1484ZM11.1484 103.084V96.6812H0.851593V103.084H11.1484ZM10.2858 101.196C10.7493 101.718 10.9642 102.238 11.0598 102.573C11.1072 102.739 11.1285 102.869 11.1384 102.95C11.1483 103.032 11.1484 103.079 11.1484 103.084H0.851593C0.851593 104.345 1.0923 106.352 2.58981 108.037L10.2858 101.196ZM7.97013 99.9058C7.97524 99.9058 8.02227 99.906 8.10395 99.9159C8.18535 99.9258 8.31548 99.947 8.48152 99.9945C8.81604 100.09 9.33671 100.305 9.85821 100.768L3.0174 108.464C4.70214 109.962 6.70944 110.203 7.97013 110.203V99.9058ZM66.5825 48.7925C66.5825 49.9451 66.4081 50.8651 66.1337 51.6097L75.7957 55.1693C76.5429 53.1412 76.8793 50.9965 76.8793 48.7925H66.5825ZM66.5825 30.131V48.7925H76.8793V30.131H66.5825ZM66.1495 27.4107C66.4073 28.092 66.5825 28.9755 66.5825 30.131H76.8793C76.8793 27.9298 76.5437 25.7852 75.78 23.7667L66.1495 27.4107ZM65.1932 26.1079C65.7545 26.5409 65.9786 26.9193 66.0935 27.2552L75.836 23.9222C75.0023 21.4853 73.4751 19.4922 71.4825 17.9551L65.1932 26.1079ZM61.9095 24.7325C63.7124 25.1758 64.6751 25.6971 65.1362 26.0633L71.5396 17.9997C69.5197 16.3957 67.0165 15.3847 64.3683 14.7335L61.9095 24.7325ZM54.7658 24.0605C57.9264 24.0605 60.259 24.3199 61.8902 24.7277L64.3876 14.7383C61.6407 14.0516 58.3913 13.7637 54.7658 13.7637V24.0605ZM47.5674 24.7325C49.2484 24.3191 51.6092 24.0605 54.7658 24.0605V13.7637C51.1365 13.7637 47.8788 14.0524 45.1087 14.7335L47.5674 24.7325ZM44.229 26.1079C44.7527 25.7039 45.766 25.1754 47.5674 24.7325L45.1087 14.7335C42.4591 15.3851 39.9699 16.3889 37.9397 17.9551L44.229 26.1079ZM43.2885 27.3685C43.4493 26.9321 43.7295 26.5052 44.2861 26.0633L37.8827 17.9997C35.9583 19.5279 34.4873 21.4725 33.6266 23.8089L43.2885 27.3685ZM42.8945 30.131C42.8945 28.9356 43.0633 28.0112 43.3149 27.2953L33.6002 23.8821C32.9032 25.866 32.5977 27.9697 32.5977 30.131H42.8945ZM42.8945 48.7925V30.131H32.5977V48.7925H42.8945ZM43.3288 51.7231C43.0625 50.9448 42.8945 49.9849 42.8945 48.7925H32.5977C32.5977 50.9567 32.904 53.0615 33.5863 55.056L43.3288 51.7231ZM44.2861 52.8602C43.6999 52.3947 43.4233 51.9655 43.2728 51.5676L33.6423 55.2115C34.5133 57.5134 35.988 59.4192 37.8827 60.9238L44.2861 52.8602ZM47.5674 54.1363C45.7374 53.6863 44.6956 53.1611 44.1545 52.7591L38.0143 61.0248C40.027 62.5201 42.4877 63.4907 45.1087 64.1352L47.5674 54.1363ZM54.7658 54.8083C51.6092 54.8083 49.2484 54.5496 47.5674 54.1363L45.1087 64.1352C47.8788 64.8164 51.1365 65.1051 54.7658 65.1051V54.8083ZM61.8902 54.1411C60.259 54.5489 57.9264 54.8083 54.7658 54.8083V65.1051C58.3913 65.1051 61.6407 64.8172 64.3876 64.1305L61.8902 54.1411ZM65.2105 52.8023C64.7327 53.1677 63.7412 53.6859 61.9095 54.1363L64.3683 64.1352C66.9876 63.4911 69.4621 62.5135 71.4653 60.9817L65.2105 52.8023ZM66.1074 51.6829C66.0037 51.978 65.7856 52.3586 65.1932 52.8156L71.4825 60.9684C73.444 59.4552 74.9771 57.5009 75.822 55.0961L66.1074 51.6829ZM88.8213 11.1506C89.383 11.1272 89.9621 11.2897 90.3265 11.5255C90.4857 11.6286 90.5668 11.7205 90.6085 11.7817C90.6431 11.8325 90.6941 11.923 90.7235 12.1109L100.896 10.5187C99.7537 3.21698 92.9409 0.673477 88.3934 0.862645L88.8213 11.1506ZM86.3771 13.4997C86.5413 12.4751 86.9432 11.9806 87.2779 11.7069C87.6734 11.3837 88.2264 11.1753 88.8213 11.1506L88.3934 0.862645C83.1253 1.08178 77.3703 4.63314 76.2101 11.8696L86.3771 13.4997ZM83.5373 9.5598C85.6806 9.94949 86.6297 11.9239 86.377 13.4997L76.2101 11.8696C75.6756 15.203 77.7253 18.9687 81.6954 19.6905L83.5373 9.5598ZM79.4165 12.4248C79.6773 10.7981 81.3013 9.15328 83.5373 9.5598L81.6954 19.6905C85.7835 20.4338 89.0383 17.4557 89.5835 14.0548L79.4165 12.4248ZM88.5236 4.23641C86.5934 4.3167 84.5099 4.94917 82.754 6.403C80.9469 7.89915 79.8044 10.0053 79.4165 12.4248L89.5835 14.0548C89.6016 13.9422 89.6165 13.9553 89.5689 14.0416C89.5197 14.1307 89.4364 14.2383 89.3205 14.3342C89.0879 14.5269 88.9153 14.5258 88.9515 14.5243L88.5236 4.23641ZM97.688 11.061C96.9358 6.25488 92.3574 4.07693 88.5236 4.23641L88.9515 14.5243C89.0436 14.5205 88.8438 14.5525 88.5054 14.3244C88.1734 14.1005 87.6576 13.5641 87.515 12.6531L97.688 11.061ZM93.58 8.18081C95.8174 7.78371 97.4334 9.43473 97.688 11.0609L87.515 12.6532C88.0473 16.0542 91.2886 19.0452 95.3794 18.3192L93.58 8.18081ZM90.7235 12.1109C90.4768 10.5344 91.4332 8.56183 93.58 8.18081L95.3794 18.3192C99.3547 17.6136 101.418 13.8539 100.896 10.5187L90.7235 12.1109ZM99.6003 10.7216C98.6049 4.36162 92.6593 1.9983 88.4479 2.17349L88.8758 12.4614C89.034 12.4548 89.194 12.4726 89.3346 12.509C89.4756 12.5455 89.5574 12.5902 89.5868 12.6095C89.6119 12.626 89.573 12.6061 89.5196 12.5272C89.4597 12.4389 89.4333 12.3521 89.4273 12.3137L99.6003 10.7216ZM95.1501 17.0274C98.1827 16.4892 100.051 13.6019 99.6003 10.7216L89.4273 12.3137C89.0533 9.92398 90.602 7.37687 93.3508 6.88902L95.1501 17.0274ZM88.8112 12.4504C89.2775 15.4294 92.0742 17.5733 95.1502 17.0274L93.3508 6.88902C96.1678 6.38904 98.5921 8.35343 98.9842 10.858L88.8112 12.4504ZM88.897 13.2135C89.0339 13.2078 89.1427 13.2238 89.2152 13.2428C89.2892 13.2623 89.3015 13.2782 89.2667 13.2552C89.23 13.2308 89.1331 13.1568 89.0306 13.0058C88.9225 12.8465 88.8426 12.6506 88.8112 12.4503L98.9842 10.8581C98.0856 5.11666 92.6491 2.75168 88.469 2.92556L88.897 13.2135ZM88.2881 13.8471C88.3305 13.5827 88.3945 13.4501 88.4218 13.4014C88.4486 13.3536 88.4673 13.3373 88.477 13.3293C88.5009 13.3096 88.6266 13.2247 88.897 13.2135L88.469 2.92556C83.8539 3.11754 79.0867 6.19444 78.1211 12.2171L88.2881 13.8471ZM81.93 18.3997C85.004 18.9586 87.8104 16.8258 88.2881 13.8473L78.1211 12.2169C78.5228 9.71208 80.9567 7.75712 83.772 8.26898L81.93 18.3997ZM77.5055 12.0773C77.0441 14.9551 78.9005 17.8489 81.9301 18.3997L83.7719 8.26897C86.5173 8.76811 88.0553 11.3198 87.6725 13.7074L77.5055 12.0773ZM88.4479 2.17349C83.694 2.37124 78.5506 5.55875 77.5055 12.0773L87.6725 13.7074C87.7331 13.329 87.8315 13.1031 87.902 12.978C87.9723 12.8533 88.0452 12.7744 88.1154 12.7169C88.2661 12.5933 88.5286 12.4759 88.8758 12.4614L88.4479 2.17349ZM19.8454 64.2838H33.1985V53.987H19.8454V64.2838ZM6.40264 60.3809C9.9517 63.2899 14.7489 64.2838 19.8454 64.2838V53.987C15.8209 53.987 13.8321 53.1567 12.9301 52.4174L6.40264 60.3809ZM1.23441 47.9713C1.23441 52.754 2.64806 57.2523 6.37043 60.3542L12.9623 52.444C12.3066 51.8976 11.5312 50.7773 11.5312 47.9713H1.23441ZM1.23441 30.9515V47.9713H11.5312V30.9515H1.23441ZM6.37043 18.5686C2.64806 21.6706 1.23441 26.1688 1.23441 30.9515H11.5312C11.5312 28.1455 12.3066 27.0252 12.9623 26.4788L6.37043 18.5686ZM19.8454 14.5843C14.7305 14.5843 9.91656 15.6038 6.36407 18.5739L12.9687 26.4735C13.8672 25.7222 15.8392 24.8811 19.8454 24.8811V14.5843ZM33.1985 14.5843H19.8454V24.8811H33.1985V14.5843ZM38.5241 16.8048C36.8105 14.877 34.5243 14.5843 33.1985 14.5843V24.8811C33.1653 24.8811 32.881 24.8804 32.4597 24.74C32.0069 24.5891 31.3819 24.2686 30.8281 23.6456L38.5241 16.8048ZM40.317 21.7028C40.317 20.377 40.0243 18.0908 38.0965 16.3772L31.2557 24.0732C30.6326 23.5194 30.3122 22.8944 30.1613 22.4416C30.0209 22.0203 30.0202 21.736 30.0202 21.7028H40.317ZM40.317 28.3247V21.7028H30.0202V28.3247H40.317ZM38.3166 33.4975C39.9969 31.8171 40.317 29.7171 40.317 28.3247H30.0202C30.0202 28.3186 30.012 27.2401 31.0356 26.2165L38.3166 33.4975ZM33.1985 35.4432C34.3829 35.4432 36.5798 35.2342 38.3166 33.4975L31.0356 26.2165C31.6273 25.6249 32.2469 25.3612 32.6252 25.2491C32.8144 25.193 32.9622 25.1686 33.0519 25.1576C33.1422 25.1465 33.1941 25.1464 33.1985 25.1464V35.4432ZM22.1986 35.4432H33.1985V25.1464H22.1986V35.4432ZM23.0531 34.8968C22.6509 35.2454 22.2828 35.3813 22.1211 35.427C21.9734 35.4688 21.9743 35.4432 22.1986 35.4432V25.1464C20.4916 25.1464 18.1946 25.4817 16.3093 27.1156L23.0531 34.8968ZM24.0087 33.0311C24.0087 33.0768 24.0032 33.3645 23.8368 33.7751C23.6559 34.2213 23.3397 34.6726 22.8974 35.0265L16.465 26.986C14.3473 28.6802 13.7119 31.0648 13.7119 33.0311H24.0087ZM24.0087 46.0559V33.0311H13.7119V46.0559H24.0087ZM22.8974 44.0605C23.3397 44.4144 23.6559 44.8657 23.8368 45.3119C24.0032 45.7225 24.0087 46.0102 24.0087 46.0559H13.7119C13.7119 48.0222 14.3473 50.4068 16.465 52.101L22.8974 44.0605ZM22.1986 43.5343C21.9194 43.5343 21.8463 43.5078 21.9184 43.525C21.9915 43.5425 22.3189 43.6307 22.7258 43.9291L16.6366 52.2325C18.4827 53.5863 20.6352 53.8312 22.1986 53.8312V43.5343ZM33.1985 43.5343H22.1986V53.8312H33.1985V43.5343ZM38.5241 45.7549C36.8105 43.8271 34.5243 43.5343 33.1985 43.5343V53.8312C33.1653 53.8312 32.881 53.8305 32.4597 53.6901C32.0069 53.5392 31.3819 53.2187 30.8281 52.5957L38.5241 45.7549ZM40.317 50.6529C40.317 49.3271 40.0243 47.0409 38.0965 45.3273L31.2557 53.0232C30.6326 52.4694 30.3122 51.8444 30.1613 51.3917C30.0209 50.9704 30.0202 50.6861 30.0202 50.6529H40.317ZM40.317 57.1653V50.6529H30.0202V57.1653H40.317ZM38.3166 62.3381C39.9969 60.6578 40.317 58.5577 40.317 57.1653H30.0202C30.0202 57.1592 30.012 56.0808 31.0356 55.0572L38.3166 62.3381ZM33.1985 64.2838C34.3829 64.2838 36.5798 64.0749 38.3166 62.3381L31.0356 55.0571C31.6273 54.4655 32.2469 54.2018 32.6252 54.0897C32.8144 54.0336 32.9622 54.0093 33.0519 53.9982C33.1422 53.9871 33.1941 53.987 33.1985 53.987V64.2838ZM142.379 54.0302H114.074V64.3271H142.379V54.0302ZM140.216 55.1004C140.808 54.5087 141.428 54.245 141.806 54.1329C141.995 54.0769 142.143 54.0525 142.233 54.0414C142.323 54.0303 142.375 54.0302 142.379 54.0302V64.3271C143.564 64.3271 145.76 64.1181 147.497 62.3813L140.216 55.1004ZM139.201 57.2085C139.201 57.2025 139.193 56.124 140.216 55.1004L147.497 62.3813C149.178 60.7009 149.498 58.6009 149.498 57.2085H139.201ZM139.28 45.6883L139.201 57.173L149.498 57.244L149.577 45.7593L139.28 45.6883ZM140.436 48.0941C139.504 47.2653 139.28 46.27 139.28 45.7238H149.577C149.577 43.7913 148.866 41.8109 147.277 40.3983L140.436 48.0941ZM142.379 48.9021C142.346 48.9021 142.062 48.9014 141.64 48.761C141.188 48.6101 140.563 48.2897 140.009 47.6666L147.705 40.8258C145.991 38.898 143.705 38.6053 142.379 38.6053V48.9021ZM139.74 48.9068C140.631 48.9044 141.514 48.9021 142.379 48.9021V38.6053C141.498 38.6053 140.602 38.6076 139.713 38.61L139.74 48.9068ZM134.463 48.9019C136.151 48.9163 137.965 48.9115 139.74 48.9068L139.713 38.61C137.925 38.6147 136.171 38.6193 134.551 38.6055L134.463 48.9019ZM137.529 45.5466C137.529 45.3565 137.539 45.5752 137.491 45.8604C137.436 46.1872 137.282 46.7873 136.831 47.4171C135.748 48.9287 134.315 48.9021 134.507 48.9021V38.6053C132.572 38.6053 130.077 39.1652 128.462 41.4182C127.102 43.3158 127.232 45.4279 127.232 45.5466H137.529ZM137.529 48.8354V45.5466H127.232V48.8354H137.529ZM124.526 53.9838H132.381V43.687H124.526V53.9838ZM119.378 21.746V48.8354H129.675V21.746H119.378ZM120.613 24.1164C119.99 23.5626 119.67 22.9376 119.519 22.4848C119.379 22.0635 119.378 21.7792 119.378 21.746H129.675C129.675 20.4201 129.382 18.134 127.454 16.4205L120.613 24.1164ZM122.556 24.9243C122.523 24.9243 122.239 24.9237 121.817 24.7832C121.365 24.6323 120.74 24.3119 120.186 23.6888L127.882 16.848C126.168 14.9202 123.882 14.6275 122.556 14.6275V24.9243ZM114.074 24.9243H122.556V14.6275H114.074V24.9243ZM116.182 23.9089C115.158 24.9325 114.08 24.9243 114.074 24.9243V14.6275C112.681 14.6275 110.581 14.9476 108.901 16.6279L116.182 23.9089ZM117.252 21.746C117.252 21.7505 117.252 21.8023 117.241 21.8926C117.23 21.9823 117.205 22.1301 117.149 22.3193C117.037 22.6976 116.773 23.3172 116.182 23.9089L108.901 16.628C107.164 18.3647 106.955 20.5616 106.955 21.746H117.252ZM117.252 57.2085V21.746H106.955V57.2085H117.252ZM116.389 55.3204C116.853 55.8419 117.068 56.3626 117.163 56.6971C117.211 56.8632 117.232 56.9933 117.242 57.0747C117.252 57.1564 117.252 57.2034 117.252 57.2085H106.955C106.955 58.4692 107.196 60.4765 108.693 62.1612L116.389 55.3204ZM114.074 54.0302C114.079 54.0302 114.126 54.0304 114.207 54.0403C114.289 54.0502 114.419 54.0714 114.585 54.1189C114.92 54.2145 115.44 54.4293 115.962 54.8929L109.121 62.5888C110.806 64.0864 112.813 64.3271 114.074 64.3271V54.0302Z" fill="#1E1E1E" mask="url(#path-5-outside-1_11846_17851)"/>
<path d="M17.7641 26.0004L16.5876 46.0003L18.3523 59.5296L13.6465 73.6471L21.8817 99.5293L85.4105 106L110.764 104.723L113.646 103.059L115.548 105.254L138.226 104.823L139.528 103.059L140.884 104.823L157.763 104.235H167.763C170.9 108.941 175.41 99.5293 180.115 99.5293C185.998 99.5293 189.527 100.118 192.468 99.5293C195.409 98.9411 195.998 94.8235 197.174 93.647C198.351 92.4706 197.174 89.5294 199.527 85.4118C201.409 82.1177 179.135 65.8041 176.586 65.4119H155.998L143.645 70.1178C140.704 67.5688 134.586 62.1178 133.645 60.7061C132.704 59.2943 125.802 51.8826 122.469 48.3532L109.528 41.2944L96.5869 28.9416L93.0575 20.1181V8.35346H86.587L83.6458 17.7652L85.4105 26.0004L68.3518 28.9416L57.7637 20.1181L54.8226 7.177H49.5285L47.1756 17.7652L17.7641 26.0004Z" fill="#1E1E1E"/>
<path d="M142.431 59.0112H114.182C113.479 59.0112 112.961 58.8655 112.628 58.5742C112.332 58.2464 112.184 57.7365 112.184 57.0446V21.6456C112.184 20.9536 112.332 20.462 112.628 20.1706C112.961 19.8428 113.479 19.679 114.182 19.679H122.784C123.487 19.679 123.986 19.8428 124.282 20.1706C124.615 20.462 124.782 20.9536 124.782 21.6456V48.6865H132.385V45.7301C132.385 45.0381 132.533 44.5465 132.829 44.2551C133.162 43.9273 133.68 43.7634 134.383 43.7634H142.431C143.134 43.7634 143.633 43.9273 143.929 44.2551C144.262 44.5465 144.429 45.0381 144.429 45.7301V57.0446C144.429 57.7365 144.262 58.2464 143.929 58.5742C143.633 58.8655 143.134 59.0112 142.431 59.0112Z" fill="white"/>
<path d="M33.1985 59.1354H19.8454C15.2849 59.1354 11.8919 58.2233 9.66637 56.3991C7.47733 54.5749 6.38281 51.7657 6.38281 47.9713V30.9515C6.38281 27.1572 7.47733 24.3479 9.66637 22.5237C11.8919 20.663 15.2849 19.7327 19.8454 19.7327H33.1985C33.8917 19.7327 34.3842 19.8968 34.6761 20.2252C35.0045 20.5171 35.1686 21.0096 35.1686 21.7028V28.3247C35.1686 29.0179 35.0045 29.5286 34.6761 29.857C34.3842 30.1489 33.8917 30.2948 33.1985 30.2948H22.1986C21.0676 30.2948 20.2285 30.5319 19.6812 31.0062C19.1339 31.444 18.8603 32.119 18.8603 33.0311V46.0559C18.8603 46.968 19.1339 47.643 19.6812 48.0808C20.2285 48.4821 21.0676 48.6828 22.1986 48.6828H33.1985C33.8917 48.6828 34.3842 48.8469 34.6761 49.1753C35.0045 49.4672 35.1686 49.9597 35.1686 50.6529V57.1653C35.1686 57.8585 35.0045 58.3693 34.6761 58.6976C34.3842 58.9895 33.8917 59.1354 33.1985 59.1354Z" fill="white"/>
<path d="M202.906 105.054H185.613C184.92 105.054 184.409 104.908 184.08 104.616C183.789 104.288 183.643 103.777 183.643 103.084V96.681C183.643 95.9878 183.789 95.4953 184.08 95.2034C184.409 94.8751 184.92 94.7109 185.613 94.7109H200.334C200.808 94.7109 201.155 94.565 201.374 94.2731C201.629 93.9447 201.757 93.5617 201.757 93.1239C201.757 92.5036 201.629 92.0476 201.374 91.7557C201.155 91.4638 200.808 91.2997 200.334 91.2632L192.125 90.1139C189.571 89.7491 187.51 88.9099 185.941 87.5965C184.409 86.2831 183.643 84.0941 183.643 81.0294V75.2832C183.643 72.182 184.646 69.8105 186.653 68.1688C188.659 66.4905 191.432 65.6514 194.971 65.6514H210.294C210.987 65.6514 211.48 65.8155 211.772 66.1439C212.1 66.4358 212.264 66.9283 212.264 67.6215V74.1339C212.264 74.8271 212.1 75.3379 211.772 75.6662C211.48 75.9581 210.987 76.104 210.294 76.104H197.543C197.069 76.104 196.704 76.2682 196.448 76.5966C196.193 76.8885 196.065 77.2715 196.065 77.7458C196.065 78.2201 196.193 78.6214 196.448 78.9498C196.704 79.2782 197.069 79.4606 197.543 79.4971L205.697 80.5916C208.251 80.9564 210.312 81.7956 211.881 83.109C213.45 84.4224 214.234 86.6114 214.234 89.6761V95.4223C214.234 98.5235 213.213 100.913 211.17 102.591C209.163 104.233 206.409 105.054 202.906 105.054Z" fill="white"/>
<path d="M156.292 105.054H147.81C147.117 105.054 146.606 104.908 146.278 104.616C145.986 104.288 145.84 103.777 145.84 103.084V67.6215C145.84 66.9283 145.986 66.4358 146.278 66.1439C146.606 65.8155 147.117 65.6514 147.81 65.6514H156.292C156.986 65.6514 157.478 65.8155 157.77 66.1439C158.098 66.4358 158.263 66.9283 158.263 67.6215V79.4971H167.402V67.6215C167.402 66.9283 167.548 66.4358 167.84 66.1439C168.168 65.8155 168.679 65.6514 169.372 65.6514H177.855C178.548 65.6514 179.04 65.8155 179.332 66.1439C179.66 66.4358 179.825 66.9283 179.825 67.6215V103.084C179.825 103.777 179.66 104.288 179.332 104.616C179.04 104.908 178.548 105.054 177.855 105.054H169.372C168.679 105.054 168.168 104.908 167.84 104.616C167.548 104.288 167.402 103.777 167.402 103.084V90.9348H158.263V103.084C158.263 103.777 158.098 104.288 157.77 104.616C157.478 104.908 156.986 105.054 156.292 105.054Z" fill="white"/>
<path d="M131.269 105.054H122.403C121.71 105.054 121.199 104.908 120.871 104.616C120.579 104.288 120.433 103.777 120.433 103.084V76.2135H112.388C111.695 76.2135 111.184 76.0676 110.856 75.7757C110.564 75.4473 110.418 74.9366 110.418 74.2434V67.6215C110.418 66.9283 110.564 66.4358 110.856 66.1439C111.184 65.8155 111.695 65.6514 112.388 65.6514H141.283C141.977 65.6514 142.469 65.8155 142.761 66.1439C143.089 66.4358 143.254 66.9283 143.254 67.6215V74.2434C143.254 74.9366 143.089 75.4473 142.761 75.7757C142.469 76.0676 141.977 76.2135 141.283 76.2135H133.239V103.084C133.239 103.777 133.074 104.288 132.746 104.616C132.454 104.908 131.962 105.054 131.269 105.054Z" fill="white"/>
<path d="M108.698 94.7117C108.698 96.39 108.442 97.9223 107.932 99.3087C107.457 100.659 106.582 101.826 105.305 102.811C104.064 103.76 102.331 104.508 100.106 105.055C97.9167 105.602 95.1256 105.876 91.7326 105.876C88.3396 105.876 85.5304 105.602 83.3049 105.055C81.0793 104.508 79.3281 103.76 78.0512 102.811C76.8107 101.826 75.9351 100.659 75.4243 99.3087C74.95 97.9223 74.7129 96.39 74.7129 94.7117V76.0501C74.7129 74.3719 74.95 72.8578 75.4243 71.5079C75.9351 70.1215 76.8107 68.9357 78.0512 67.9507C79.3281 66.9656 81.0793 66.1994 83.3049 65.6522C85.5304 65.1049 88.3396 64.8313 91.7326 64.8313C95.1256 64.8313 97.9167 65.1049 100.106 65.6522C102.331 66.1994 104.064 66.9656 105.305 67.9507C106.582 68.9357 107.457 70.1215 107.932 71.5079C108.442 72.8578 108.698 74.3719 108.698 76.0501V94.7117ZM87.1357 92.7416C87.1357 93.4713 87.4093 94.0915 87.9566 94.6023C88.5038 95.0766 89.7625 95.3137 91.7326 95.3137C93.7028 95.3137 94.9615 95.0766 95.5087 94.6023C96.056 94.0915 96.3296 93.4713 96.3296 92.7416V78.0203C96.3296 77.3271 96.056 76.7433 95.5087 76.269C94.9615 75.7583 93.7028 75.5029 91.7326 75.5029C89.7625 75.5029 88.5038 75.7583 87.9566 76.269C87.4093 76.7433 87.1357 77.3271 87.1357 78.0203V92.7416Z" fill="white"/>
<path d="M70.1457 105.076H41.8964C41.1934 105.076 40.6754 104.93 40.3424 104.639C40.0464 104.311 39.8984 103.801 39.8984 103.11V67.7105C39.8984 67.0186 40.0464 66.5269 40.3424 66.2355C40.6754 65.9078 41.1934 65.7439 41.8964 65.7439H50.4988C51.2018 65.7439 51.7013 65.9078 51.9973 66.2355C52.3303 66.5269 52.4968 67.0186 52.4968 67.7105V94.7514H60.1003V91.795C60.1003 91.103 60.2483 90.6114 60.5443 90.32C60.8773 89.9923 61.3953 89.8284 62.0983 89.8284H70.1457C70.8487 89.8284 71.3482 89.9923 71.6442 90.32C71.9772 90.6114 72.1437 91.103 72.1437 91.795V103.11C72.1437 103.801 71.9772 104.311 71.6442 104.639C71.3482 104.93 70.8487 105.076 70.1457 105.076Z" fill="white"/>
<path d="M25.2635 105.054H7.97013C7.27694 105.054 6.76616 104.908 6.43781 104.616C6.14594 104.288 6 103.777 6 103.084V96.6812C6 95.988 6.14594 95.4954 6.43781 95.2036C6.76616 94.8752 7.27694 94.711 7.97013 94.711H22.6914C23.1657 94.711 23.5123 94.5651 23.7312 94.2732C23.9866 93.9449 24.1143 93.5618 24.1143 93.124C24.1143 92.5037 23.9866 92.0477 23.7312 91.7558C23.5123 91.464 23.1657 91.2998 22.6914 91.2633L14.4825 90.114C11.9286 89.7492 9.8673 88.9101 8.29849 87.5966C6.76616 86.2832 6 84.0942 6 81.0295V75.2833C6 72.1821 7.00331 69.8107 9.00992 68.1689C11.0165 66.4906 13.7893 65.6515 17.3283 65.6515H32.6515C33.3447 65.6515 33.8372 65.8157 34.1291 66.144C34.4575 66.4359 34.6216 66.9284 34.6216 67.6216V74.134C34.6216 74.8272 34.4575 75.338 34.1291 75.6664C33.8372 75.9582 33.3447 76.1042 32.6515 76.1042H19.9004C19.4261 76.1042 19.0612 76.2683 18.8059 76.5967C18.5505 76.8886 18.4228 77.2717 18.4228 77.7459C18.4228 78.2202 18.5505 78.6216 18.8059 78.9499C19.0612 79.2783 19.4261 79.4607 19.9004 79.4972L28.0545 80.5917C30.6084 80.9565 32.6698 81.7957 34.2386 83.1091C35.8074 84.4225 36.5918 86.6116 36.5918 89.6762V95.4225C36.5918 98.5236 35.5702 100.913 33.5271 102.592C31.5205 104.233 28.766 105.054 25.2635 105.054Z" fill="white"/>
<path d="M108.686 48.7921C108.686 50.4703 108.431 52.0026 107.92 53.389C107.445 54.739 106.57 55.9064 105.293 56.8915C104.052 57.8401 102.32 58.588 100.094 59.1353C97.905 59.6825 95.1139 59.9562 91.7209 59.9562C88.3279 59.9562 85.5187 59.6825 83.2931 59.1353C81.0676 58.588 79.3164 57.8401 78.0394 56.8915C76.799 55.9064 75.9234 54.739 75.4126 53.389C74.9383 52.0026 74.7012 50.4703 74.7012 48.7921V30.1305C74.7012 28.4522 74.9383 26.9381 75.4126 25.5882C75.9234 24.2018 76.799 23.0161 78.0394 22.031C79.3164 21.0459 81.0676 20.2798 83.2931 19.7325C85.5187 19.1853 88.3279 18.9116 91.7209 18.9116C95.1139 18.9116 97.905 19.1853 100.094 19.7325C102.32 20.2798 104.052 21.0459 105.293 22.031C106.57 23.0161 107.445 24.2018 107.92 25.5882C108.431 26.9381 108.686 28.4522 108.686 30.1305V48.7921Z" fill="white"/>
<path d="M71.7309 48.7925C71.7309 50.4708 71.4755 52.0031 70.9647 53.3895C70.4904 54.7394 69.6148 55.9069 68.3379 56.892C67.0974 57.8406 65.3644 58.5885 63.1389 59.1358C60.9499 59.683 58.1589 59.9567 54.7658 59.9567C51.3728 59.9567 48.5636 59.683 46.3381 59.1358C44.1125 58.5885 42.3613 57.8406 41.0844 56.892C39.8439 55.9069 38.9683 54.7394 38.4575 53.3895C37.9832 52.0031 37.7461 50.4708 37.7461 48.7925V30.131C37.7461 28.4527 37.9832 26.9386 38.4575 25.5887C38.9683 24.2023 39.8439 23.0166 41.0844 22.0315C42.3613 21.0464 44.1125 20.2803 46.3381 19.733C48.5636 19.1857 51.3728 18.9121 54.7658 18.9121C58.1589 18.9121 60.9499 19.1857 63.1389 19.733C65.3644 20.2803 67.0974 21.0464 68.3379 22.0315C69.6148 23.0166 70.4904 24.2023 70.9647 25.5887C71.4755 26.9386 71.7309 28.4527 71.7309 30.131V48.7925Z" fill="white"/>
<path fill-rule="evenodd" clip-rule="evenodd" d="M51.8747 6.0066C54.9043 5.88058 58.489 7.5551 59.0774 11.3148C59.215 12.1941 58.6614 13.0877 57.7471 13.25C56.8204 13.4145 56.0078 12.7445 55.8689 11.857C55.6477 10.4435 54.1299 9.29197 52.0049 9.38037C50.0386 9.46216 48.1831 10.6474 47.7674 13.2398C47.6252 14.1269 46.8098 14.7935 45.8837 14.6252C44.9704 14.4591 44.4201 13.5635 44.561 12.6847C45.277 8.21871 48.6765 6.13964 51.8747 6.0066Z" fill="white"/>
<path fill-rule="evenodd" clip-rule="evenodd" d="M88.6072 6.0066C91.6367 5.88058 95.2214 7.5551 95.8098 11.3148C95.9474 12.1941 95.3938 13.0877 94.4796 13.25C93.5529 13.4145 92.7402 12.7445 92.6013 11.857C92.3801 10.4435 90.8623 9.29197 88.7374 9.38037C86.771 9.46216 84.9155 10.6474 84.4998 13.2398C84.3576 14.1269 83.5422 14.7935 82.6161 14.6252C81.7028 14.4591 81.1525 13.5635 81.2934 12.6847C82.0094 8.21871 85.4089 6.13964 88.6072 6.0066Z" fill="white"/>
<path d="M64.8047 43.0025C64.8047 43.3863 64.304 43.5889 64.0537 43.6422C64.0037 46.5744 63.453 52.4388 56.3939 52.4388C50.0859 52.4388 49.0846 46.3612 49.1847 43.3223L48.2836 43.1624C46.7216 43.0345 47.1321 42.576 47.5326 42.3627C51.738 40.6034 61.8009 41.4031 63.9035 42.0428C64.782 42.3101 64.8047 42.5226 64.8047 43.0025Z" fill="#121212"/>
<ellipse cx="1.20153" cy="1.27951" rx="1.20153" ry="1.27951" transform="matrix(-1 0 0 1 61.1992 43.802)" fill="#D9D9D9"/>
<path d="M102.207 43.0015C102.207 43.3854 101.706 43.588 101.456 43.6413C101.406 46.5735 100.855 52.4379 93.7963 52.4379C87.4882 52.4379 86.487 46.3603 86.5871 43.3214L85.6859 43.1615C84.1239 43.0335 84.5345 42.575 84.935 42.3618C89.1403 40.6025 99.2032 41.4022 101.306 42.0419C102.184 42.3092 102.207 42.5217 102.207 43.0015Z" fill="#121212"/>
<ellipse cx="1.20153" cy="1.27951" rx="1.20153" ry="1.27951" transform="matrix(-1 0 0 1 98.6016 43.8013)" fill="#D9D9D9"/>
<defs>
<radialGradient id="paint0_radial_11846_17851" cx="0" cy="0" r="1" gradientUnits="userSpaceOnUse" gradientTransform="translate(65.3506 147.905) rotate(-142.412) scale(28.6112)">
<stop offset="0.142317" stop-color="#9877FF"/>
<stop offset="0.53125" stop-color="#A858FF"/>
</radialGradient>
</defs>
</svg>
