<svg width="106" height="54" viewBox="0 0 106 54" fill="none" xmlns="http://www.w3.org/2000/svg">
<mask id="path-1-outside-1_11749_807" maskUnits="userSpaceOnUse" x="0.0234375" y="0" width="106" height="54" fill="black">
<rect fill="white" x="0.0234375" width="106" height="54"/>
<path fill-rule="evenodd" clip-rule="evenodd" d="M25.0426 3.00317C26.4969 2.94268 28.2175 3.74645 28.5 5.55111C28.566 5.97321 28.3003 6.40214 27.8614 6.48002C27.4166 6.55897 27.0265 6.23738 26.9599 5.8114C26.8537 5.13291 26.1251 4.58016 25.1051 4.62259C24.1613 4.66185 23.2706 5.23077 23.0711 6.47513C23.0028 6.90093 22.6115 7.22093 22.1669 7.14011C21.7285 7.0604 21.4644 6.6305 21.532 6.20866C21.8757 4.06499 23.5075 3.06703 25.0426 3.00317ZM27.8778 5.64848C27.6628 4.2747 26.3342 3.57974 25.0688 3.63238C23.7876 3.68567 22.4433 4.50283 22.1538 6.30835C22.135 6.426 22.2114 6.50811 22.2796 6.52051C22.3417 6.5318 22.4311 6.48912 22.4493 6.37544C22.7023 4.79742 23.8761 4.04341 25.079 3.99338C26.3025 3.94248 27.4102 4.61615 27.582 5.71402C27.5999 5.82789 27.6893 5.87098 27.7514 5.85996C27.8195 5.84787 27.8962 5.76623 27.8778 5.64848ZM52.3129 23.5405C52.3129 24.346 52.1903 25.0816 51.9451 25.747C51.7175 26.395 51.2972 26.9554 50.6842 27.4282C50.0888 27.8835 49.257 28.2426 48.1887 28.5052C47.1379 28.7679 45.7982 28.8993 44.1696 28.8993C42.5409 28.8993 41.1925 28.7679 40.1242 28.5052C39.0559 28.2426 38.2153 27.8835 37.6024 27.4282C37.007 26.9554 36.5867 26.395 36.3415 25.747C36.1138 25.0816 36 24.346 36 23.5405V14.5828C36 13.7773 36.1138 13.0505 36.3415 12.4025C36.5867 11.7371 37.007 11.1679 37.6024 10.6951C38.2153 10.2222 39.0559 9.85447 40.1242 9.59178C41.1925 9.3291 42.5409 9.19775 44.1696 9.19775C45.7982 9.19775 47.1379 9.3291 48.1887 9.59178C49.257 9.85447 50.0888 10.2222 50.6842 10.6951C51.2972 11.1679 51.7175 11.7371 51.9451 12.4025C52.1903 13.0505 52.3129 13.7773 52.3129 14.5828V23.5405ZM51.9508 47.7883C52.196 47.1228 52.3186 46.3873 52.3186 45.5817V36.6241C52.3186 35.8185 52.196 35.0918 51.9508 34.4438C51.7231 33.7783 51.3028 33.2092 50.6899 32.7363C50.0945 32.2635 49.2626 31.8957 48.1944 31.6331C47.1436 31.3704 45.8039 31.239 44.1752 31.239C42.5466 31.239 41.1981 31.3704 40.1299 31.6331C39.0616 31.8957 38.221 32.2635 37.6081 32.7363C37.0126 33.2092 36.5923 33.7783 36.3472 34.4438C36.1195 35.0918 36.0057 35.8185 36.0057 36.6241V45.5817C36.0057 46.3873 36.1195 47.1228 36.3472 47.7883C36.5923 48.4363 37.0126 48.9967 37.6081 49.4695C38.221 49.9248 39.0616 50.2838 40.1299 50.5465C41.1981 50.8092 42.5466 50.9405 44.1752 50.9405C45.8039 50.9405 47.1436 50.8092 48.1944 50.5465C49.2626 50.2838 50.0945 49.9248 50.6899 49.4695C51.3028 48.9967 51.7231 48.4363 51.9508 47.7883ZM42.3627 45.5292C42.1 45.284 41.9687 44.9863 41.9687 44.6361V37.5698C41.9687 37.237 42.1 36.9568 42.3627 36.7292C42.6254 36.484 43.2296 36.3614 44.1752 36.3614C45.1209 36.3614 45.7251 36.484 45.9878 36.7292C46.2505 36.9568 46.3818 37.237 46.3818 37.5698V44.6361C46.3818 44.9863 46.2505 45.284 45.9878 45.5292C45.7251 45.7568 45.1209 45.8707 44.1752 45.8707C43.2296 45.8707 42.6254 45.7568 42.3627 45.5292ZM63.1529 50.5463H58.8974C58.5647 50.5463 58.3195 50.4762 58.1619 50.3361C58.0218 50.1785 57.9517 49.9333 57.9517 49.6006V36.7027H54.0902C53.7575 36.7027 53.5123 36.6326 53.3547 36.4925C53.2146 36.3349 53.1445 36.0897 53.1445 35.757V32.5785C53.1445 32.2457 53.2146 32.0093 53.3547 31.8692C53.5123 31.7116 53.7575 31.6328 54.0902 31.6328H67.9601C68.2928 31.6328 68.5293 31.7116 68.6694 31.8692C68.827 32.0093 68.9058 32.2457 68.9058 32.5785V35.757C68.9058 36.0897 68.827 36.3349 68.6694 36.4925C68.5293 36.6326 68.2928 36.7027 67.9601 36.7027H64.0986V49.6006C64.0986 49.9333 64.0198 50.1785 63.8622 50.3361C63.7221 50.4762 63.4857 50.5463 63.1529 50.5463ZM89.2386 50.5463H97.5396C99.2208 50.5463 100.543 50.1522 101.506 49.3642C102.487 48.5586 102.977 47.4115 102.977 45.923V43.1648C102.977 41.6937 102.601 40.643 101.848 40.0125C101.095 39.3821 100.105 38.9793 98.8793 38.8042L94.9652 38.2788C94.7376 38.2613 94.5625 38.1737 94.4399 38.0161C94.3173 37.8585 94.256 37.6659 94.256 37.4382C94.256 37.2105 94.3173 37.0266 94.4399 36.8866C94.5625 36.7289 94.7376 36.6501 94.9652 36.6501H101.086C101.419 36.6501 101.655 36.5801 101.795 36.44C101.953 36.2824 102.032 36.0372 102.032 35.7045V32.5785C102.032 32.2457 101.953 32.0093 101.795 31.8692C101.655 31.7116 101.419 31.6328 101.086 31.6328H93.7306C92.0319 31.6328 90.7009 32.0356 89.7378 32.8412C88.7746 33.6292 88.293 34.7675 88.293 36.2561V39.0143C88.293 40.4854 88.6607 41.5361 89.3963 42.1666C90.1493 42.797 91.1388 43.1998 92.3646 43.3749L96.3049 43.9266C96.5326 43.9441 96.699 44.0229 96.804 44.163C96.9266 44.3031 96.9879 44.522 96.9879 44.8197C96.9879 45.0298 96.9266 45.2137 96.804 45.3713C96.699 45.5114 96.5326 45.5815 96.3049 45.5815H89.2386C88.9059 45.5815 88.6607 45.6603 88.5031 45.8179C88.363 45.958 88.293 46.1944 88.293 46.5272V49.6006C88.293 49.9333 88.363 50.1785 88.5031 50.3361C88.6607 50.4762 88.9059 50.5463 89.2386 50.5463ZM71.0923 50.5464H75.1639C75.4967 50.5464 75.7331 50.4763 75.8732 50.3362C76.0308 50.1786 76.1096 49.9334 76.1096 49.6007V43.769H80.4965V49.6007C80.4965 49.9334 80.5665 50.1786 80.7066 50.3362C80.8643 50.4763 81.1094 50.5464 81.4422 50.5464H85.5138C85.8466 50.5464 86.083 50.4763 86.2231 50.3362C86.3807 50.1786 86.4595 49.9334 86.4595 49.6007V32.5786C86.4595 32.2458 86.3807 32.0094 86.2231 31.8693C86.083 31.7117 85.8466 31.6329 85.5138 31.6329H81.4422C81.1094 31.6329 80.8643 31.7117 80.7066 31.8693C80.5665 32.0094 80.4965 32.2458 80.4965 32.5786V38.2789H76.1096V32.5786C76.1096 32.2458 76.0308 32.0094 75.8732 31.8693C75.7331 31.7117 75.4967 31.6329 75.1639 31.6329H71.0923C70.7595 31.6329 70.5144 31.7117 70.3568 31.8693C70.2167 32.0094 70.1466 32.2458 70.1466 32.5786V49.6007C70.1466 49.9334 70.2167 50.1786 70.3568 50.3362C70.5144 50.4763 70.7595 50.5464 71.0923 50.5464ZM33.8 50.5463H20.2133C19.8805 50.5463 19.6353 50.4762 19.4777 50.3361C19.3376 50.1785 19.2676 49.9333 19.2676 49.6006V32.5785C19.2676 32.2457 19.3376 32.0093 19.4777 31.8692C19.6353 31.7116 19.8805 31.6328 20.2133 31.6328H24.2849C24.6176 31.6328 24.8541 31.7116 24.9942 31.8692C25.1518 32.0093 25.2306 32.2457 25.2306 32.5785V45.5815H33.8C34.1328 45.5815 34.3692 45.6603 34.5093 45.8179C34.6669 45.958 34.7457 46.1944 34.7457 46.5272V49.6006C34.7457 49.9333 34.6669 50.1785 34.5093 50.3361C34.3692 50.4762 34.1328 50.5463 33.8 50.5463ZM3.96911 50.5464H12.27C13.9512 50.5464 15.2734 50.1523 16.2366 49.3643C17.2173 48.5587 17.7077 47.4116 17.7077 45.9231V43.1649C17.7077 41.6938 17.3311 40.6431 16.5781 40.0126C15.8251 39.3822 14.8356 38.9794 13.6097 38.8043L9.6957 38.2789C9.46804 38.2614 9.29291 38.1738 9.17032 38.0162C9.04774 37.8586 8.98644 37.6659 8.98644 37.4383C8.98644 37.2106 9.04774 37.0267 9.17032 36.8866C9.29291 36.729 9.46804 36.6502 9.6957 36.6502H15.8163C16.1491 36.6502 16.3855 36.5802 16.5256 36.4401C16.6832 36.2825 16.762 36.0373 16.762 35.7046V32.5786C16.762 32.2458 16.6832 32.0094 16.5256 31.8693C16.3855 31.7117 16.1491 31.6329 15.8163 31.6329H8.46107C6.76236 31.6329 5.43141 32.0357 4.46822 32.8413C3.50503 33.6293 3.02344 34.7676 3.02344 36.2562V39.0144C3.02344 40.4855 3.3912 41.5362 4.12672 42.1666C4.87976 42.7971 5.86922 43.1999 7.09509 43.375L11.0354 43.9267C11.2631 43.9442 11.4294 44.023 11.5345 44.1631C11.6571 44.3032 11.7184 44.5221 11.7184 44.8198C11.7184 45.0299 11.6571 45.2138 11.5345 45.3714C11.4294 45.5115 11.2631 45.5816 11.0354 45.5816H3.96911C3.63637 45.5816 3.3912 45.6604 3.23359 45.818C3.09349 45.9581 3.02344 46.1945 3.02344 46.5272V49.6007C3.02344 49.9334 3.09349 50.1786 3.23359 50.3362C3.3912 50.4763 3.63637 50.5464 3.96911 50.5464ZM34.2068 25.747C34.452 25.0816 34.5746 24.346 34.5746 23.5405V14.5828C34.5746 13.7773 34.452 13.0505 34.2068 12.4025C33.9792 11.7371 33.5589 11.1679 32.9459 10.6951C32.3505 10.2222 31.5187 9.85447 30.4504 9.59178C29.3997 9.3291 28.06 9.19775 26.4313 9.19775C24.8026 9.19775 23.4542 9.3291 22.3859 9.59178C21.3176 9.85447 20.4771 10.2222 19.8641 10.6951C19.2687 11.1679 18.8484 11.7371 18.6032 12.4025C18.3756 13.0505 18.2617 13.7773 18.2617 14.5828V23.5405C18.2617 24.346 18.3756 25.0816 18.6032 25.747C18.8484 26.395 19.2687 26.9554 19.8641 27.4282C20.4771 27.8835 21.3176 28.2426 22.3859 28.5052C23.4542 28.7679 24.8026 28.8993 26.4313 28.8993C28.06 28.8993 29.3997 28.7679 30.4504 28.5052C31.5187 28.2426 32.3505 27.8835 32.9459 27.4282C33.5589 26.9554 33.9792 26.395 34.2068 25.747ZM46.1327 5.55111C45.8503 3.74645 44.1296 2.94268 42.6754 3.00317C41.1403 3.06703 39.5085 4.06499 39.1648 6.20866C39.0971 6.6305 39.3613 7.0604 39.7997 7.14011C40.2442 7.22093 40.6356 6.90093 40.7039 6.47513C40.9034 5.23077 41.7941 4.66185 42.7379 4.62259C43.7579 4.58016 44.4865 5.13291 44.5926 5.8114C44.6593 6.23738 45.0494 6.55897 45.4942 6.48002C45.933 6.40214 46.1988 5.97321 46.1327 5.55111ZM42.7016 3.63238C43.967 3.57974 45.2956 4.2747 45.5106 5.64848C45.529 5.76623 45.4523 5.84787 45.3842 5.85996C45.322 5.87098 45.2327 5.82789 45.2148 5.71402C45.043 4.61615 43.9352 3.94248 42.7118 3.99338C41.5089 4.04341 40.3351 4.79742 40.0821 6.37544C40.0639 6.48912 39.9744 6.5318 39.9124 6.52051C39.8442 6.50811 39.7677 6.426 39.7866 6.30835C40.0761 4.50283 41.4204 3.68567 42.7016 3.63238ZM16.0787 28.5053H9.66914C7.48008 28.5053 5.85142 28.0674 4.78316 27.1918C3.73241 26.3162 3.20703 24.9677 3.20703 23.1464V14.9769C3.20703 13.1556 3.73241 11.8071 4.78316 10.9315C5.85142 10.0384 7.48008 9.5918 9.66914 9.5918H16.0787C16.4115 9.5918 16.6479 9.6706 16.788 9.82822C16.9456 9.96832 17.0244 10.2047 17.0244 10.5375V13.716C17.0244 14.0487 16.9456 14.2939 16.788 14.4515C16.6479 14.5916 16.4115 14.6617 16.0787 14.6617H10.7987C10.2558 14.6617 9.85302 14.7755 9.59034 15.0031C9.32765 15.2133 9.1963 15.5373 9.1963 15.9751V22.227C9.1963 22.6648 9.32765 22.9888 9.59034 23.199C9.85302 23.3916 10.2558 23.4879 10.7987 23.4879H16.0787C16.4115 23.4879 16.6479 23.5667 16.788 23.7243C16.9456 23.8645 17.0244 24.1009 17.0244 24.4336V27.5596C17.0244 27.8923 16.9456 28.1375 16.788 28.2951C16.6479 28.4352 16.4115 28.5053 16.0787 28.5053ZM54.8988 28.5259H68.4856C68.8184 28.5259 69.0548 28.4558 69.1949 28.3157C69.3525 28.1581 69.4313 27.9129 69.4313 27.5802L69.4693 22.0675C69.4693 21.7348 69.3525 21.4983 69.1949 21.3582C69.0548 21.2006 68.8184 21.1218 68.4856 21.1218C68.0666 21.1218 67.6396 21.123 67.2123 21.1241C66.357 21.1264 65.5009 21.1286 64.7069 21.1218C63.6864 21.1218 63.6864 21.6849 63.6864 21.9825V23.5611H59.9162V10.5581C59.9162 10.2253 59.8373 9.98892 59.6797 9.84882C59.5396 9.69121 59.3032 9.61241 58.9705 9.61241H54.8988C54.5661 9.61241 54.3209 9.69121 54.1633 9.84882C54.0232 9.98892 53.9531 10.2253 53.9531 10.5581V27.5802C53.9531 27.9129 54.0232 28.1581 54.1633 28.3157C54.3209 28.4558 54.5661 28.5259 54.8988 28.5259Z"/>
</mask>
<path fill-rule="evenodd" clip-rule="evenodd" d="M25.0426 3.00317C26.4969 2.94268 28.2175 3.74645 28.5 5.55111C28.566 5.97321 28.3003 6.40214 27.8614 6.48002C27.4166 6.55897 27.0265 6.23738 26.9599 5.8114C26.8537 5.13291 26.1251 4.58016 25.1051 4.62259C24.1613 4.66185 23.2706 5.23077 23.0711 6.47513C23.0028 6.90093 22.6115 7.22093 22.1669 7.14011C21.7285 7.0604 21.4644 6.6305 21.532 6.20866C21.8757 4.06499 23.5075 3.06703 25.0426 3.00317ZM27.8778 5.64848C27.6628 4.2747 26.3342 3.57974 25.0688 3.63238C23.7876 3.68567 22.4433 4.50283 22.1538 6.30835C22.135 6.426 22.2114 6.50811 22.2796 6.52051C22.3417 6.5318 22.4311 6.48912 22.4493 6.37544C22.7023 4.79742 23.8761 4.04341 25.079 3.99338C26.3025 3.94248 27.4102 4.61615 27.582 5.71402C27.5999 5.82789 27.6893 5.87098 27.7514 5.85996C27.8195 5.84787 27.8962 5.76623 27.8778 5.64848ZM52.3129 23.5405C52.3129 24.346 52.1903 25.0816 51.9451 25.747C51.7175 26.395 51.2972 26.9554 50.6842 27.4282C50.0888 27.8835 49.257 28.2426 48.1887 28.5052C47.1379 28.7679 45.7982 28.8993 44.1696 28.8993C42.5409 28.8993 41.1925 28.7679 40.1242 28.5052C39.0559 28.2426 38.2153 27.8835 37.6024 27.4282C37.007 26.9554 36.5867 26.395 36.3415 25.747C36.1138 25.0816 36 24.346 36 23.5405V14.5828C36 13.7773 36.1138 13.0505 36.3415 12.4025C36.5867 11.7371 37.007 11.1679 37.6024 10.6951C38.2153 10.2222 39.0559 9.85447 40.1242 9.59178C41.1925 9.3291 42.5409 9.19775 44.1696 9.19775C45.7982 9.19775 47.1379 9.3291 48.1887 9.59178C49.257 9.85447 50.0888 10.2222 50.6842 10.6951C51.2972 11.1679 51.7175 11.7371 51.9451 12.4025C52.1903 13.0505 52.3129 13.7773 52.3129 14.5828V23.5405ZM51.9508 47.7883C52.196 47.1228 52.3186 46.3873 52.3186 45.5817V36.6241C52.3186 35.8185 52.196 35.0918 51.9508 34.4438C51.7231 33.7783 51.3028 33.2092 50.6899 32.7363C50.0945 32.2635 49.2626 31.8957 48.1944 31.6331C47.1436 31.3704 45.8039 31.239 44.1752 31.239C42.5466 31.239 41.1981 31.3704 40.1299 31.6331C39.0616 31.8957 38.221 32.2635 37.6081 32.7363C37.0126 33.2092 36.5923 33.7783 36.3472 34.4438C36.1195 35.0918 36.0057 35.8185 36.0057 36.6241V45.5817C36.0057 46.3873 36.1195 47.1228 36.3472 47.7883C36.5923 48.4363 37.0126 48.9967 37.6081 49.4695C38.221 49.9248 39.0616 50.2838 40.1299 50.5465C41.1981 50.8092 42.5466 50.9405 44.1752 50.9405C45.8039 50.9405 47.1436 50.8092 48.1944 50.5465C49.2626 50.2838 50.0945 49.9248 50.6899 49.4695C51.3028 48.9967 51.7231 48.4363 51.9508 47.7883ZM42.3627 45.5292C42.1 45.284 41.9687 44.9863 41.9687 44.6361V37.5698C41.9687 37.237 42.1 36.9568 42.3627 36.7292C42.6254 36.484 43.2296 36.3614 44.1752 36.3614C45.1209 36.3614 45.7251 36.484 45.9878 36.7292C46.2505 36.9568 46.3818 37.237 46.3818 37.5698V44.6361C46.3818 44.9863 46.2505 45.284 45.9878 45.5292C45.7251 45.7568 45.1209 45.8707 44.1752 45.8707C43.2296 45.8707 42.6254 45.7568 42.3627 45.5292ZM63.1529 50.5463H58.8974C58.5647 50.5463 58.3195 50.4762 58.1619 50.3361C58.0218 50.1785 57.9517 49.9333 57.9517 49.6006V36.7027H54.0902C53.7575 36.7027 53.5123 36.6326 53.3547 36.4925C53.2146 36.3349 53.1445 36.0897 53.1445 35.757V32.5785C53.1445 32.2457 53.2146 32.0093 53.3547 31.8692C53.5123 31.7116 53.7575 31.6328 54.0902 31.6328H67.9601C68.2928 31.6328 68.5293 31.7116 68.6694 31.8692C68.827 32.0093 68.9058 32.2457 68.9058 32.5785V35.757C68.9058 36.0897 68.827 36.3349 68.6694 36.4925C68.5293 36.6326 68.2928 36.7027 67.9601 36.7027H64.0986V49.6006C64.0986 49.9333 64.0198 50.1785 63.8622 50.3361C63.7221 50.4762 63.4857 50.5463 63.1529 50.5463ZM89.2386 50.5463H97.5396C99.2208 50.5463 100.543 50.1522 101.506 49.3642C102.487 48.5586 102.977 47.4115 102.977 45.923V43.1648C102.977 41.6937 102.601 40.643 101.848 40.0125C101.095 39.3821 100.105 38.9793 98.8793 38.8042L94.9652 38.2788C94.7376 38.2613 94.5625 38.1737 94.4399 38.0161C94.3173 37.8585 94.256 37.6659 94.256 37.4382C94.256 37.2105 94.3173 37.0266 94.4399 36.8866C94.5625 36.7289 94.7376 36.6501 94.9652 36.6501H101.086C101.419 36.6501 101.655 36.5801 101.795 36.44C101.953 36.2824 102.032 36.0372 102.032 35.7045V32.5785C102.032 32.2457 101.953 32.0093 101.795 31.8692C101.655 31.7116 101.419 31.6328 101.086 31.6328H93.7306C92.0319 31.6328 90.7009 32.0356 89.7378 32.8412C88.7746 33.6292 88.293 34.7675 88.293 36.2561V39.0143C88.293 40.4854 88.6607 41.5361 89.3963 42.1666C90.1493 42.797 91.1388 43.1998 92.3646 43.3749L96.3049 43.9266C96.5326 43.9441 96.699 44.0229 96.804 44.163C96.9266 44.3031 96.9879 44.522 96.9879 44.8197C96.9879 45.0298 96.9266 45.2137 96.804 45.3713C96.699 45.5114 96.5326 45.5815 96.3049 45.5815H89.2386C88.9059 45.5815 88.6607 45.6603 88.5031 45.8179C88.363 45.958 88.293 46.1944 88.293 46.5272V49.6006C88.293 49.9333 88.363 50.1785 88.5031 50.3361C88.6607 50.4762 88.9059 50.5463 89.2386 50.5463ZM71.0923 50.5464H75.1639C75.4967 50.5464 75.7331 50.4763 75.8732 50.3362C76.0308 50.1786 76.1096 49.9334 76.1096 49.6007V43.769H80.4965V49.6007C80.4965 49.9334 80.5665 50.1786 80.7066 50.3362C80.8643 50.4763 81.1094 50.5464 81.4422 50.5464H85.5138C85.8466 50.5464 86.083 50.4763 86.2231 50.3362C86.3807 50.1786 86.4595 49.9334 86.4595 49.6007V32.5786C86.4595 32.2458 86.3807 32.0094 86.2231 31.8693C86.083 31.7117 85.8466 31.6329 85.5138 31.6329H81.4422C81.1094 31.6329 80.8643 31.7117 80.7066 31.8693C80.5665 32.0094 80.4965 32.2458 80.4965 32.5786V38.2789H76.1096V32.5786C76.1096 32.2458 76.0308 32.0094 75.8732 31.8693C75.7331 31.7117 75.4967 31.6329 75.1639 31.6329H71.0923C70.7595 31.6329 70.5144 31.7117 70.3568 31.8693C70.2167 32.0094 70.1466 32.2458 70.1466 32.5786V49.6007C70.1466 49.9334 70.2167 50.1786 70.3568 50.3362C70.5144 50.4763 70.7595 50.5464 71.0923 50.5464ZM33.8 50.5463H20.2133C19.8805 50.5463 19.6353 50.4762 19.4777 50.3361C19.3376 50.1785 19.2676 49.9333 19.2676 49.6006V32.5785C19.2676 32.2457 19.3376 32.0093 19.4777 31.8692C19.6353 31.7116 19.8805 31.6328 20.2133 31.6328H24.2849C24.6176 31.6328 24.8541 31.7116 24.9942 31.8692C25.1518 32.0093 25.2306 32.2457 25.2306 32.5785V45.5815H33.8C34.1328 45.5815 34.3692 45.6603 34.5093 45.8179C34.6669 45.958 34.7457 46.1944 34.7457 46.5272V49.6006C34.7457 49.9333 34.6669 50.1785 34.5093 50.3361C34.3692 50.4762 34.1328 50.5463 33.8 50.5463ZM3.96911 50.5464H12.27C13.9512 50.5464 15.2734 50.1523 16.2366 49.3643C17.2173 48.5587 17.7077 47.4116 17.7077 45.9231V43.1649C17.7077 41.6938 17.3311 40.6431 16.5781 40.0126C15.8251 39.3822 14.8356 38.9794 13.6097 38.8043L9.6957 38.2789C9.46804 38.2614 9.29291 38.1738 9.17032 38.0162C9.04774 37.8586 8.98644 37.6659 8.98644 37.4383C8.98644 37.2106 9.04774 37.0267 9.17032 36.8866C9.29291 36.729 9.46804 36.6502 9.6957 36.6502H15.8163C16.1491 36.6502 16.3855 36.5802 16.5256 36.4401C16.6832 36.2825 16.762 36.0373 16.762 35.7046V32.5786C16.762 32.2458 16.6832 32.0094 16.5256 31.8693C16.3855 31.7117 16.1491 31.6329 15.8163 31.6329H8.46107C6.76236 31.6329 5.43141 32.0357 4.46822 32.8413C3.50503 33.6293 3.02344 34.7676 3.02344 36.2562V39.0144C3.02344 40.4855 3.3912 41.5362 4.12672 42.1666C4.87976 42.7971 5.86922 43.1999 7.09509 43.375L11.0354 43.9267C11.2631 43.9442 11.4294 44.023 11.5345 44.1631C11.6571 44.3032 11.7184 44.5221 11.7184 44.8198C11.7184 45.0299 11.6571 45.2138 11.5345 45.3714C11.4294 45.5115 11.2631 45.5816 11.0354 45.5816H3.96911C3.63637 45.5816 3.3912 45.6604 3.23359 45.818C3.09349 45.9581 3.02344 46.1945 3.02344 46.5272V49.6007C3.02344 49.9334 3.09349 50.1786 3.23359 50.3362C3.3912 50.4763 3.63637 50.5464 3.96911 50.5464ZM34.2068 25.747C34.452 25.0816 34.5746 24.346 34.5746 23.5405V14.5828C34.5746 13.7773 34.452 13.0505 34.2068 12.4025C33.9792 11.7371 33.5589 11.1679 32.9459 10.6951C32.3505 10.2222 31.5187 9.85447 30.4504 9.59178C29.3997 9.3291 28.06 9.19775 26.4313 9.19775C24.8026 9.19775 23.4542 9.3291 22.3859 9.59178C21.3176 9.85447 20.4771 10.2222 19.8641 10.6951C19.2687 11.1679 18.8484 11.7371 18.6032 12.4025C18.3756 13.0505 18.2617 13.7773 18.2617 14.5828V23.5405C18.2617 24.346 18.3756 25.0816 18.6032 25.747C18.8484 26.395 19.2687 26.9554 19.8641 27.4282C20.4771 27.8835 21.3176 28.2426 22.3859 28.5052C23.4542 28.7679 24.8026 28.8993 26.4313 28.8993C28.06 28.8993 29.3997 28.7679 30.4504 28.5052C31.5187 28.2426 32.3505 27.8835 32.9459 27.4282C33.5589 26.9554 33.9792 26.395 34.2068 25.747ZM46.1327 5.55111C45.8503 3.74645 44.1296 2.94268 42.6754 3.00317C41.1403 3.06703 39.5085 4.06499 39.1648 6.20866C39.0971 6.6305 39.3613 7.0604 39.7997 7.14011C40.2442 7.22093 40.6356 6.90093 40.7039 6.47513C40.9034 5.23077 41.7941 4.66185 42.7379 4.62259C43.7579 4.58016 44.4865 5.13291 44.5926 5.8114C44.6593 6.23738 45.0494 6.55897 45.4942 6.48002C45.933 6.40214 46.1988 5.97321 46.1327 5.55111ZM42.7016 3.63238C43.967 3.57974 45.2956 4.2747 45.5106 5.64848C45.529 5.76623 45.4523 5.84787 45.3842 5.85996C45.322 5.87098 45.2327 5.82789 45.2148 5.71402C45.043 4.61615 43.9352 3.94248 42.7118 3.99338C41.5089 4.04341 40.3351 4.79742 40.0821 6.37544C40.0639 6.48912 39.9744 6.5318 39.9124 6.52051C39.8442 6.50811 39.7677 6.426 39.7866 6.30835C40.0761 4.50283 41.4204 3.68567 42.7016 3.63238ZM16.0787 28.5053H9.66914C7.48008 28.5053 5.85142 28.0674 4.78316 27.1918C3.73241 26.3162 3.20703 24.9677 3.20703 23.1464V14.9769C3.20703 13.1556 3.73241 11.8071 4.78316 10.9315C5.85142 10.0384 7.48008 9.5918 9.66914 9.5918H16.0787C16.4115 9.5918 16.6479 9.6706 16.788 9.82822C16.9456 9.96832 17.0244 10.2047 17.0244 10.5375V13.716C17.0244 14.0487 16.9456 14.2939 16.788 14.4515C16.6479 14.5916 16.4115 14.6617 16.0787 14.6617H10.7987C10.2558 14.6617 9.85302 14.7755 9.59034 15.0031C9.32765 15.2133 9.1963 15.5373 9.1963 15.9751V22.227C9.1963 22.6648 9.32765 22.9888 9.59034 23.199C9.85302 23.3916 10.2558 23.4879 10.7987 23.4879H16.0787C16.4115 23.4879 16.6479 23.5667 16.788 23.7243C16.9456 23.8645 17.0244 24.1009 17.0244 24.4336V27.5596C17.0244 27.8923 16.9456 28.1375 16.788 28.2951C16.6479 28.4352 16.4115 28.5053 16.0787 28.5053ZM54.8988 28.5259H68.4856C68.8184 28.5259 69.0548 28.4558 69.1949 28.3157C69.3525 28.1581 69.4313 27.9129 69.4313 27.5802L69.4693 22.0675C69.4693 21.7348 69.3525 21.4983 69.1949 21.3582C69.0548 21.2006 68.8184 21.1218 68.4856 21.1218C68.0666 21.1218 67.6396 21.123 67.2123 21.1241C66.357 21.1264 65.5009 21.1286 64.7069 21.1218C63.6864 21.1218 63.6864 21.6849 63.6864 21.9825V23.5611H59.9162V10.5581C59.9162 10.2253 59.8373 9.98892 59.6797 9.84882C59.5396 9.69121 59.3032 9.61241 58.9705 9.61241H54.8988C54.5661 9.61241 54.3209 9.69121 54.1633 9.84882C54.0232 9.98892 53.9531 10.2253 53.9531 10.5581V27.5802C53.9531 27.9129 54.0232 28.1581 54.1633 28.3157C54.3209 28.4558 54.5661 28.5259 54.8988 28.5259Z" fill="#1E1E1E"/>
<path d="M62.4508 21.9825V23.5611H64.922V21.9825H62.4508ZM28.5 5.55111L30.9415 5.16898V5.16898L28.5 5.55111ZM25.0426 3.00317L24.9399 0.534046L25.0426 3.00317ZM27.8614 6.48002L27.4296 4.04679L27.4296 4.04679L27.8614 6.48002ZM26.9599 5.8114L29.4014 5.42927V5.42927L26.9599 5.8114ZM25.1051 4.62259L25.2079 7.09171L25.1051 4.62259ZM23.0711 6.47513L25.5112 6.86635V6.86634L23.0711 6.47513ZM22.1669 7.14011L21.7249 9.57151L21.7249 9.57151L22.1669 7.14011ZM21.532 6.20866L23.9721 6.59988V6.59988L21.532 6.20866ZM25.0688 3.63238L25.1715 6.1015L25.0688 3.63238ZM27.8778 5.64848L30.3193 5.26638L30.3193 5.26636L27.8778 5.64848ZM22.1538 6.30835L19.7137 5.91714L19.7137 5.91715L22.1538 6.30835ZM22.2796 6.52051L22.7216 4.08911L22.7216 4.08911L22.2796 6.52051ZM22.4493 6.37544L24.8894 6.76669L24.8894 6.76665L22.4493 6.37544ZM25.079 3.99338L25.1817 6.4625L25.079 3.99338ZM27.582 5.71402L25.1405 6.09614L25.1405 6.09616L27.582 5.71402ZM27.7514 5.85996L28.1832 8.29319L27.7514 5.85996ZM51.9451 25.747L49.6262 24.8927L49.6198 24.9102L49.6136 24.9278L51.9451 25.747ZM50.6842 27.4282L52.1854 29.3913L52.1937 29.3849L50.6842 27.4282ZM48.1887 28.5052L47.5986 26.1055L47.5893 26.1078L48.1887 28.5052ZM40.1242 28.5052L40.7143 26.1055H40.7143L40.1242 28.5052ZM37.6024 27.4282L36.0656 29.3635L36.0968 29.3883L36.1287 29.412L37.6024 27.4282ZM36.3415 25.747L34.0033 26.5469L34.0161 26.5845L34.0302 26.6216L36.3415 25.747ZM36.3415 12.4025L34.0226 11.5482L34.0161 11.5657L34.01 11.5833L36.3415 12.4025ZM37.6024 10.6951L36.0929 8.73837L36.0792 8.74899L36.0656 8.7598L37.6024 10.6951ZM40.1242 9.59178L39.5341 7.19201L39.5341 7.19201L40.1242 9.59178ZM48.1887 9.59178L47.5893 11.9893L47.5986 11.9916L48.1887 9.59178ZM50.6842 10.6951L49.1474 12.6303L49.161 12.6412L49.1748 12.6518L50.6842 10.6951ZM51.9451 12.4025L49.6069 13.2024L49.6198 13.24L49.6338 13.2771L51.9451 12.4025ZM51.9508 47.7883L49.6319 46.934L49.6255 46.9515L49.6193 46.9691L51.9508 47.7883ZM51.9508 34.4438L49.6126 35.2437L49.6254 35.2813L49.6395 35.3184L51.9508 34.4438ZM50.6899 32.7363L49.1531 34.6716L49.1667 34.6824L49.1804 34.693L50.6899 32.7363ZM48.1944 31.6331L47.595 34.0305L47.6043 34.0328L48.1944 31.6331ZM40.1299 31.6331L40.72 34.0328H40.72L40.1299 31.6331ZM37.6081 32.7363L36.0986 30.7796L36.0848 30.7903L36.0712 30.8011L37.6081 32.7363ZM36.3472 34.4438L34.0283 33.5895L34.0218 33.607L34.0156 33.6246L36.3472 34.4438ZM36.3472 47.7883L34.0089 48.5882L34.0218 48.6258L34.0358 48.6629L36.3472 47.7883ZM37.6081 49.4695L36.0712 51.4048L36.1024 51.4295L36.1344 51.4533L37.6081 49.4695ZM40.1299 50.5465L40.72 48.1467H40.72L40.1299 50.5465ZM48.1944 50.5465L47.6043 48.1467L47.595 48.149L48.1944 50.5465ZM50.6899 49.4695L52.1911 51.4326L52.1994 51.4262L50.6899 49.4695ZM42.3627 45.5292L40.6765 47.3358L40.7098 47.3669L40.7442 47.3967L42.3627 45.5292ZM42.3627 36.7292L43.9812 38.5967L44.0156 38.5669L44.0489 38.5358L42.3627 36.7292ZM45.9878 36.7292L44.3016 38.5358L44.3349 38.5669L44.3693 38.5967L45.9878 36.7292ZM45.9878 45.5292L47.6063 47.3967L47.6407 47.3669L47.674 47.3358L45.9878 45.5292ZM58.1619 50.3361L56.3148 51.9779L56.4114 52.0866L56.5201 52.1832L58.1619 50.3361ZM57.9517 36.7027H60.423V34.2314H57.9517V36.7027ZM53.3547 36.4925L51.5077 38.1344L51.6042 38.243L51.7128 38.3395L53.3547 36.4925ZM53.3547 31.8692L55.1021 33.6167L55.1021 33.6167L53.3547 31.8692ZM68.6694 31.8692L66.8223 33.511L66.9189 33.6197L67.0276 33.7163L68.6694 31.8692ZM68.6694 36.4925L66.9219 34.7451L66.9219 34.7451L68.6694 36.4925ZM64.0986 36.7027V34.2314H61.6273V36.7027H64.0986ZM101.506 49.3642L103.071 51.2768L103.075 51.2738L101.506 49.3642ZM98.8793 38.8042L99.2288 36.3577L99.2184 36.3563L99.208 36.3549L98.8793 38.8042ZM94.9652 38.2788L95.294 35.8295L95.2246 35.8202L95.1548 35.8148L94.9652 38.2788ZM94.4399 36.8866L96.2997 38.5139L96.3467 38.4601L96.3906 38.4038L94.4399 36.8866ZM101.795 36.44L103.543 38.1874L103.543 38.1874L101.795 36.44ZM101.795 31.8692L99.9481 33.511L100.045 33.6197L100.153 33.7162L101.795 31.8692ZM89.7378 32.8412L91.3027 34.7538L91.313 34.7454L91.3232 34.7368L89.7378 32.8412ZM89.3963 42.1666L87.788 44.0429L87.7989 44.0522L87.8099 44.0614L89.3963 42.1666ZM92.3646 43.3749L92.0151 45.8213L92.022 45.8223L92.3646 43.3749ZM96.3049 43.9266L95.9623 46.374L96.0386 46.3846L96.1154 46.3905L96.3049 43.9266ZM96.804 44.163L94.827 45.6457L94.8829 45.7202L94.9442 45.7903L96.804 44.163ZM96.804 45.3713L94.8534 43.8541L94.84 43.8713L94.827 43.8886L96.804 45.3713ZM88.5031 45.8179L90.2505 47.5654L90.2506 47.5653L88.5031 45.8179ZM88.5031 50.3361L86.6561 51.978L86.7527 52.0866L86.8613 52.1831L88.5031 50.3361ZM75.8732 50.3362L74.1258 48.5887L74.1257 48.5888L75.8732 50.3362ZM76.1096 43.769V41.2978H73.6384V43.769H76.1096ZM80.4965 43.769H82.9678V41.2978H80.4965V43.769ZM80.7066 50.3362L78.8596 51.978L78.9562 52.0867L79.0648 52.1832L80.7066 50.3362ZM86.2231 50.3362L84.4757 48.5887L84.4756 48.5888L86.2231 50.3362ZM86.2231 31.8693L84.376 33.5111L84.4726 33.6198L84.5813 33.7164L86.2231 31.8693ZM80.7066 31.8693L82.4541 33.6168L82.4541 33.6167L80.7066 31.8693ZM80.4965 38.2789V40.7501H82.9678V38.2789H80.4965ZM76.1096 38.2789H73.6384V40.7501H76.1096V38.2789ZM75.8732 31.8693L74.0261 33.5111L74.1227 33.6198L74.2314 33.7164L75.8732 31.8693ZM70.3568 31.8693L72.1042 33.6168L72.1042 33.6167L70.3568 31.8693ZM70.3568 50.3362L68.5097 51.978L68.6063 52.0867L68.7149 52.1832L70.3568 50.3362ZM19.4777 50.3361L17.6307 51.9779L17.7273 52.0866L17.8359 52.1832L19.4777 50.3361ZM24.9942 31.8692L23.1471 33.5111L23.2437 33.6197L23.3523 33.7163L24.9942 31.8692ZM25.2306 45.5815H22.7593V48.0527H25.2306V45.5815ZM34.5093 45.8179L32.6623 47.4597L32.7588 47.5684L32.8675 47.6649L34.5093 45.8179ZM34.5093 50.3361L32.7619 48.5887L32.7619 48.5887L34.5093 50.3361ZM16.2366 49.3643L17.8015 51.2769L17.8052 51.2739L16.2366 49.3643ZM16.5781 40.0126L14.9917 41.9075L14.9917 41.9075L16.5781 40.0126ZM13.6097 38.8043L13.9592 36.3578L13.9489 36.3564L13.9385 36.355L13.6097 38.8043ZM9.6957 38.2789L10.0245 35.8296L9.95506 35.8203L9.88524 35.8149L9.6957 38.2789ZM9.17032 38.0162L11.121 36.499L11.121 36.499L9.17032 38.0162ZM9.17032 36.8866L11.0301 38.514L11.0772 38.4602L11.121 38.4039L9.17032 36.8866ZM16.5256 36.4401L18.273 38.1875L18.273 38.1875L16.5256 36.4401ZM16.5256 31.8693L14.6785 33.5111L14.7751 33.6198L14.8837 33.7164L16.5256 31.8693ZM4.46822 32.8413L6.03311 34.7539L6.04343 34.7455L6.05366 34.7369L4.46822 32.8413ZM4.12672 42.1666L2.51845 44.043L2.52934 44.0523L2.54034 44.0615L4.12672 42.1666ZM7.09509 43.375L6.7456 45.8214L6.75246 45.8224L7.09509 43.375ZM11.0354 43.9267L10.6928 46.374L10.7691 46.3847L10.8459 46.3906L11.0354 43.9267ZM11.5345 44.1631L9.55751 45.6458L9.61339 45.7203L9.67471 45.7904L11.5345 44.1631ZM11.5345 45.3714L9.58382 43.8542L9.57052 43.8713L9.55751 43.8887L11.5345 45.3714ZM3.23359 45.818L4.98102 47.5654L4.98103 47.5654L3.23359 45.818ZM3.23359 50.3362L1.38655 51.978L1.48312 52.0867L1.59176 52.1832L3.23359 50.3362ZM34.2068 25.747L31.888 24.8927L31.8815 24.9102L31.8753 24.9278L34.2068 25.747ZM34.2068 12.4025L31.8686 13.2025L31.8815 13.24L31.8955 13.2771L34.2068 12.4025ZM32.9459 10.6951L31.4091 12.6303L31.4227 12.6412L31.4365 12.6518L32.9459 10.6951ZM30.4504 9.59178L29.851 11.9893L29.8603 11.9916L30.4504 9.59178ZM19.8641 10.6951L18.3547 8.73837L18.3409 8.74899L18.3273 8.7598L19.8641 10.6951ZM18.6032 12.4025L16.2843 11.5482L16.2779 11.5657L16.2717 11.5833L18.6032 12.4025ZM18.6032 25.747L16.265 26.5469L16.2778 26.5845L16.2919 26.6216L18.6032 25.747ZM19.8641 27.4282L18.3273 29.3635L18.3585 29.3883L18.3904 29.412L19.8641 27.4282ZM22.3859 28.5052L22.976 26.1055L22.976 26.1055L22.3859 28.5052ZM30.4504 28.5052L29.8603 26.1055L29.851 26.1078L30.4504 28.5052ZM32.9459 27.4282L34.4471 29.3913L34.4554 29.3849L32.9459 27.4282ZM42.6754 3.00317L42.5727 0.534046L42.6754 3.00317ZM46.1327 5.55111L43.6912 5.93323L43.6912 5.93325L46.1327 5.55111ZM39.1648 6.20866L36.7247 5.81745V5.81745L39.1648 6.20866ZM39.7997 7.14011L39.3576 9.57151L39.3577 9.57151L39.7997 7.14011ZM40.7039 6.47513L43.144 6.86635V6.86634L40.7039 6.47513ZM42.7379 4.62259L42.8406 7.09171H42.8406L42.7379 4.62259ZM44.5926 5.8114L42.1511 6.19352L42.1511 6.19354L44.5926 5.8114ZM45.4942 6.48002L45.9261 8.91326L45.9261 8.91325L45.4942 6.48002ZM45.5106 5.64848L43.069 6.03061L43.069 6.03063L45.5106 5.64848ZM42.7016 3.63238L42.5989 1.16326L42.5989 1.16326L42.7016 3.63238ZM45.3842 5.85996L45.816 8.29319L45.816 8.29319L45.3842 5.85996ZM45.2148 5.71402L47.6564 5.33196L47.6564 5.33189L45.2148 5.71402ZM42.7118 3.99338L42.609 1.52425L42.7118 3.99338ZM40.0821 6.37544L37.642 5.98422L37.642 5.98423L40.0821 6.37544ZM39.9124 6.52051L40.3544 4.08911L40.3544 4.08911L39.9124 6.52051ZM39.7866 6.30835L42.2267 6.69959L42.2267 6.69957L39.7866 6.30835ZM4.78316 27.1918L3.2011 29.0903L3.2088 29.0967L3.21656 29.1031L4.78316 27.1918ZM4.78316 10.9315L6.36522 12.83L6.36827 12.8274L4.78316 10.9315ZM16.788 9.82822L14.9409 11.47L15.0375 11.5787L15.1462 11.6753L16.788 9.82822ZM16.788 14.4515L15.0405 12.7041L15.0405 12.7041L16.788 14.4515ZM9.59034 15.0031L11.1341 16.9329L11.1721 16.9025L11.2088 16.8706L9.59034 15.0031ZM9.59034 23.199L8.04656 25.1287L8.08708 25.1611L8.12893 25.1918L9.59034 23.199ZM16.788 23.7243L14.9409 25.3662L15.0375 25.4748L15.1462 25.5714L16.788 23.7243ZM16.788 28.2951L18.5354 30.0426L18.5354 30.0425L16.788 28.2951ZM69.1949 28.3157L67.4474 26.5682L67.4474 26.5683L69.1949 28.3157ZM69.4313 27.5802L66.9601 27.5631L66.96 27.5717V27.5802H69.4313ZM69.4693 22.0675L71.9405 22.0845L71.9406 22.076V22.0675H69.4693ZM69.1949 21.3582L67.3478 23L67.4444 23.1087L67.5531 23.2053L69.1949 21.3582ZM67.2123 21.1241L67.2057 18.6528L67.2123 21.1241ZM64.7069 21.1218L64.7281 18.6507L64.7175 18.6506H64.7069V21.1218ZM63.6864 23.5611V26.0323H66.1576V23.5611H63.6864ZM59.9162 23.5611H57.4449V26.0323H59.9162V23.5611ZM59.6797 9.84882L57.8327 11.4906L57.9293 11.5993L58.0379 11.6959L59.6797 9.84882ZM54.1633 9.84882L52.4159 8.10136L52.4158 8.10139L54.1633 9.84882ZM54.1633 28.3157L52.3162 29.9575L52.4128 30.0662L52.5215 30.1628L54.1633 28.3157ZM30.9415 5.16898C30.393 1.66413 27.1228 0.443246 24.9399 0.534046L25.1454 5.47229C25.415 5.46108 25.693 5.53906 25.8678 5.65227C25.9443 5.70175 25.9832 5.74586 26.0032 5.77525C26.0199 5.79962 26.0443 5.84305 26.0584 5.93323L30.9415 5.16898ZM28.2933 8.91325C30.2014 8.5746 31.1921 6.7699 30.9415 5.16898L26.0584 5.93323C25.94 5.17652 26.3991 4.22968 27.4296 4.04679L28.2933 8.91325ZM24.5183 6.19352C24.7738 7.8261 26.3297 9.26175 28.2933 8.91325L27.4296 4.04679C28.5035 3.85619 29.2792 4.64865 29.4014 5.42927L24.5183 6.19352ZM25.2079 7.09171C25.252 7.08987 25.1562 7.10523 24.9937 6.99574C24.8344 6.88829 24.5868 6.6308 24.5183 6.19352L29.4014 5.42927C29.0403 3.12233 26.8427 2.07691 25.0024 2.15346L25.2079 7.09171ZM25.5112 6.86634C25.5199 6.81227 25.527 6.81856 25.5042 6.85998C25.4806 6.90276 25.4406 6.95443 25.385 7.00046C25.2733 7.09294 25.1905 7.09243 25.2079 7.09171L25.0024 2.15346C24.076 2.192 23.0759 2.49559 22.233 3.19343C21.3656 3.91159 20.8172 4.92256 20.631 6.08391L25.5112 6.86634ZM21.7249 9.57151C23.6872 9.92827 25.2495 8.49879 25.5112 6.86635L20.631 6.08391C20.7562 5.30307 21.5357 4.51358 22.609 4.70871L21.7249 9.57151ZM19.0919 5.81744C18.8354 7.41751 19.8192 9.22504 21.7249 9.57151L22.609 4.70871C23.6378 4.89576 24.0934 5.84349 23.9721 6.59988L19.0919 5.81744ZM24.9399 0.534046C22.4113 0.639232 19.6488 2.34389 19.0919 5.81745L23.9721 6.59988C24.0509 6.10806 24.2438 5.87071 24.4045 5.73936C24.5944 5.58418 24.8598 5.48417 25.1454 5.47229L24.9399 0.534046ZM25.1715 6.1015C25.2475 6.09834 25.3243 6.10685 25.3917 6.12433C25.4594 6.14186 25.4987 6.16333 25.5128 6.17257C25.5249 6.18049 25.5062 6.17094 25.4805 6.13311C25.4518 6.09071 25.4391 6.04902 25.4362 6.03061L30.3193 5.26636C29.8415 2.21356 26.9876 1.07917 24.9661 1.16326L25.1715 6.1015ZM24.5939 6.69957C24.623 6.51796 24.6702 6.40953 24.7041 6.34946C24.7378 6.28962 24.7728 6.25176 24.8065 6.22413C24.8788 6.16481 25.0048 6.10844 25.1715 6.1015L24.9661 1.16326C22.6842 1.25818 20.2154 2.78818 19.7137 5.91714L24.5939 6.69957ZM22.7216 4.08911C24.0394 4.3287 24.7776 5.55353 24.5939 6.69955L19.7137 5.91715C19.4923 7.29848 20.3833 8.68752 21.8375 8.95191L22.7216 4.08911ZM20.0092 5.98419C20.202 4.78178 21.3703 3.84342 22.7216 4.08911L21.8375 8.95191C23.313 9.22017 24.6601 8.19646 24.8894 6.76669L20.0092 5.98419ZM24.9763 1.52425C22.761 1.6164 20.4727 3.09332 20.0092 5.98422L24.8894 6.76665C24.9097 6.63973 24.9405 6.57608 24.9536 6.55272C24.9664 6.52976 24.9754 6.52195 24.9801 6.51812C24.9916 6.50864 25.0519 6.4679 25.1817 6.4625L24.9763 1.52425ZM30.0236 5.33189C29.5923 2.57598 26.9827 1.44079 24.9763 1.52425L25.1817 6.4625C25.2474 6.45976 25.2996 6.46746 25.3344 6.4766C25.37 6.48592 25.3759 6.49358 25.3592 6.48252C25.3416 6.47084 25.295 6.4353 25.2458 6.36281C25.1939 6.28634 25.1556 6.19233 25.1405 6.09614L30.0236 5.33189ZM27.3195 3.42673C28.6717 3.18674 29.8354 4.12961 30.0236 5.33188L25.1405 6.09616C25.3643 7.52617 26.7068 8.55523 28.1832 8.29319L27.3195 3.42673ZM25.4362 6.03059C25.2567 4.8835 26.0001 3.6609 27.3195 3.42673L28.1832 8.29319C29.6389 8.03484 30.5357 6.64896 30.3193 5.26638L25.4362 6.03059ZM54.264 26.6014C54.6227 25.6278 54.7841 24.5984 54.7841 23.5405H49.8416C49.8416 24.0937 49.7579 24.5353 49.6262 24.8927L54.264 26.6014ZM52.1937 29.3849C53.1352 28.6586 53.8711 27.7205 54.2767 26.5662L49.6136 24.9278C49.5638 25.0695 49.4591 25.2522 49.1748 25.4715L52.1937 29.3849ZM48.7788 30.905C50.0361 30.5958 51.2239 30.1266 52.1854 29.3913L49.1831 25.4652C48.9537 25.6405 48.4778 25.8893 47.5986 26.1055L48.7788 30.905ZM44.1696 31.3705C45.9098 31.3705 47.4696 31.2323 48.7881 30.9027L47.5893 26.1078C46.8063 26.3035 45.6866 26.428 44.1696 26.428V31.3705ZM39.5341 30.905C40.8638 31.232 42.4275 31.3705 44.1696 31.3705V26.428C42.6544 26.428 41.5212 26.3039 40.7143 26.1055L39.5341 30.905ZM36.1287 29.412C37.0949 30.1297 38.276 30.5956 39.5341 30.905L40.7143 26.1055C39.8359 25.8895 39.3358 25.6374 39.0761 25.4444L36.1287 29.412ZM34.0302 26.6216C34.4482 27.7265 35.1561 28.6413 36.0656 29.3635L39.1392 25.493C38.8578 25.2695 38.7251 25.0635 38.6528 24.8725L34.0302 26.6216ZM33.5287 23.5405C33.5287 24.5793 33.6758 25.5896 34.0033 26.5469L38.6797 24.9471C38.5519 24.5735 38.4713 24.1128 38.4713 23.5405H33.5287ZM33.5287 14.5828V23.5405H38.4713V14.5828H33.5287ZM34.01 11.5833C33.6754 12.5356 33.5287 13.5455 33.5287 14.5828H38.4713C38.4713 14.0091 38.5523 13.5654 38.673 13.2217L34.01 11.5833ZM36.0656 8.7598C35.1419 9.49332 34.4358 10.4268 34.0226 11.5482L38.6604 13.2569C38.7376 13.0474 38.8721 12.8425 39.1392 12.6303L36.0656 8.7598ZM39.5341 7.19201C38.2623 7.50476 37.0675 7.9866 36.0929 8.73837L39.1118 12.6518C39.3632 12.4579 39.8496 12.2042 40.7143 11.9916L39.5341 7.19201ZM44.1696 6.7265C42.4275 6.7265 40.8638 6.86505 39.5341 7.19201L40.7143 11.9916C41.5212 11.7931 42.6544 11.669 44.1696 11.669V6.7265ZM48.7881 7.19431C47.4696 6.86469 45.9098 6.7265 44.1696 6.7265V11.669C45.6866 11.669 46.8063 11.7935 47.5893 11.9893L48.7881 7.19431ZM52.2211 8.75979C51.2515 7.98986 50.05 7.50459 48.7788 7.19201L47.5986 11.9916C48.464 12.2043 48.9261 12.4546 49.1474 12.6303L52.2211 8.75979ZM54.2833 11.6026C53.8832 10.4329 53.1501 9.47621 52.1937 8.73837L49.1748 12.6518C49.4442 12.8596 49.5518 13.0413 49.6069 13.2024L54.2833 11.6026ZM54.7841 14.5828C54.7841 13.5263 54.6231 12.4969 54.2565 11.528L49.6338 13.2771C49.7575 13.6041 49.8416 14.0282 49.8416 14.5828H54.7841ZM54.7841 23.5405V14.5828H49.8416V23.5405H54.7841ZM49.8473 45.5817C49.8473 46.135 49.7636 46.5766 49.6319 46.934L54.2697 48.6426C54.6284 47.6691 54.7898 46.6396 54.7898 45.5817H49.8473ZM49.8473 36.6241V45.5817H54.7898V36.6241H49.8473ZM49.6395 35.3184C49.7632 35.6454 49.8473 36.0695 49.8473 36.6241H54.7898C54.7898 35.5676 54.6287 34.5382 54.2621 33.5692L49.6395 35.3184ZM49.1804 34.693C49.4499 34.9009 49.5574 35.0825 49.6126 35.2437L54.289 33.6439C53.8888 32.4741 53.1558 31.5175 52.1993 30.7796L49.1804 34.693ZM47.6043 34.0328C48.4696 34.2456 48.9318 34.4959 49.1531 34.6716L52.2267 30.8011C51.2572 30.0311 50.0556 29.5459 48.7845 29.2333L47.6043 34.0328ZM44.1752 33.7103C45.6923 33.7103 46.812 33.8348 47.595 34.0305L48.7937 29.2356C47.4752 28.906 45.9155 28.7678 44.1752 28.7678V33.7103ZM40.72 34.0328C41.5268 33.8344 42.66 33.7103 44.1752 33.7103V28.7678C42.4331 28.7678 40.8694 28.9063 39.5398 29.2333L40.72 34.0328ZM39.1175 34.693C39.3689 34.4991 39.8553 34.2454 40.72 34.0328L39.5398 29.2333C38.2679 29.546 37.0731 30.0279 36.0986 30.7796L39.1175 34.693ZM38.666 35.2981C38.7432 35.0886 38.8777 34.8838 39.1449 34.6716L36.0712 30.8011C35.1475 31.5346 34.4414 32.468 34.0283 33.5895L38.666 35.2981ZM38.4769 36.6241C38.4769 36.0503 38.558 35.6066 38.6787 35.263L34.0156 33.6246C33.681 34.5769 33.5344 35.5867 33.5344 36.6241H38.4769ZM38.4769 45.5817V36.6241H33.5344V45.5817H38.4769ZM38.6854 46.9884C38.5576 46.6148 38.4769 46.1541 38.4769 45.5817H33.5344C33.5344 46.6205 33.6814 47.6308 34.0089 48.5882L38.6854 46.9884ZM39.1449 47.5342C38.8635 47.3108 38.7308 47.1047 38.6585 46.9137L34.0358 48.6629C34.4539 49.7678 35.1618 50.6825 36.0712 51.4048L39.1449 47.5342ZM40.72 48.1467C39.8415 47.9307 39.3415 47.6786 39.0817 47.4857L36.1344 51.4533C37.1005 52.171 38.2817 52.6369 39.5398 52.9463L40.72 48.1467ZM44.1752 48.4693C42.66 48.4693 41.5268 48.3451 40.72 48.1467L39.5398 52.9463C40.8694 53.2732 42.4331 53.4118 44.1752 53.4118V48.4693ZM47.595 48.149C46.812 48.3448 45.6923 48.4693 44.1752 48.4693V53.4118C45.9155 53.4118 47.4752 53.2736 48.7937 52.944L47.595 48.149ZM49.1887 47.5064C48.9594 47.6818 48.4835 47.9305 47.6043 48.1467L48.7845 52.9463C50.0418 52.6371 51.2295 52.1678 52.1911 51.4326L49.1887 47.5064ZM49.6193 46.9691C49.5695 47.1107 49.4648 47.2934 49.1804 47.5128L52.1994 51.4262C53.1409 50.6999 53.8768 49.7618 54.2823 48.6075L49.6193 46.9691ZM39.4974 44.6361C39.4974 45.6911 39.9278 46.637 40.6765 47.3358L44.0489 43.7226C44.1363 43.8041 44.2455 43.9371 44.3282 44.1245C44.4115 44.3134 44.4399 44.4943 44.4399 44.6361H39.4974ZM39.4974 37.5698V44.6361H44.4399V37.5698H39.4974ZM40.7442 34.8617C39.9675 35.5348 39.4974 36.4846 39.4974 37.5698H44.4399C44.4399 37.7382 44.4044 37.9466 44.3048 38.159C44.2066 38.3686 44.079 38.512 43.9812 38.5967L40.7442 34.8617ZM44.1752 33.8902C43.6148 33.8902 43.0467 33.9249 42.5215 34.0314C42.0539 34.1263 41.3031 34.3378 40.6765 34.9225L44.0489 38.5358C43.8493 38.7221 43.6684 38.8095 43.5889 38.8433C43.5062 38.8783 43.4689 38.8824 43.5043 38.8753C43.536 38.8688 43.6064 38.8573 43.7249 38.848C43.8417 38.8387 43.9905 38.8327 44.1752 38.8327V33.8902ZM47.674 34.9225C47.0474 34.3378 46.2966 34.1263 45.829 34.0314C45.3038 33.9249 44.7357 33.8902 44.1752 33.8902V38.8327C44.36 38.8327 44.5088 38.8387 44.6256 38.848C44.7441 38.8573 44.8145 38.8688 44.8462 38.8753C44.8816 38.8824 44.8443 38.8783 44.7616 38.8433C44.6821 38.8095 44.5012 38.7221 44.3016 38.5358L47.674 34.9225ZM48.8531 37.5698C48.8531 36.4846 48.383 35.5348 47.6063 34.8617L44.3693 38.5967C44.2715 38.512 44.1439 38.3686 44.0457 38.159C43.9461 37.9466 43.9106 37.7382 43.9106 37.5698H48.8531ZM48.8531 44.6361V37.5698H43.9106V44.6361H48.8531ZM47.674 47.3358C48.4227 46.637 48.8531 45.6911 48.8531 44.6361H43.9106C43.9106 44.4943 43.939 44.3134 44.0223 44.1245C44.105 43.9371 44.2142 43.8041 44.3016 43.7226L47.674 47.3358ZM44.1752 48.3419C44.7291 48.3419 45.2847 48.31 45.7952 48.2138C46.2414 48.1298 46.9782 47.941 47.6063 47.3967L44.3693 43.6617C44.5733 43.4849 44.7519 43.4065 44.821 43.3793C44.8951 43.3501 44.9234 43.3486 44.8801 43.3568C44.8406 43.3642 44.7633 43.3756 44.6395 43.3847C44.5172 43.3937 44.3637 43.3994 44.1752 43.3994V48.3419ZM40.7442 47.3967C41.3723 47.941 42.1091 48.1298 42.5553 48.2138C43.0658 48.31 43.6213 48.3419 44.1752 48.3419V43.3994C43.9868 43.3994 43.8333 43.3937 43.711 43.3847C43.5872 43.3756 43.5099 43.3642 43.4704 43.3568C43.4271 43.3486 43.4554 43.3501 43.5295 43.3793C43.5986 43.4065 43.7772 43.4849 43.9812 43.6617L40.7442 47.3967ZM58.8974 53.0175H63.1529V48.075H58.8974V53.0175ZM56.5201 52.1832C57.3287 52.902 58.2922 53.0175 58.8974 53.0175V48.075C58.8998 48.075 58.9224 48.0751 58.9616 48.0798C59.0007 48.0846 59.0632 48.0948 59.1429 48.1176C59.3034 48.1634 59.5533 48.2666 59.8037 48.4891L56.5201 52.1832ZM55.4804 49.6006C55.4804 50.2058 55.596 51.1693 56.3148 51.9779L60.0089 48.6943C60.2314 48.9446 60.3345 49.1945 60.3804 49.3551C60.4032 49.4348 60.4134 49.4973 60.4181 49.5364C60.4229 49.5756 60.423 49.5981 60.423 49.6006H55.4804ZM55.4804 36.7027V49.6006H60.423V36.7027H55.4804ZM54.0902 39.1739H57.9517V34.2314H54.0902V39.1739ZM51.7128 38.3395C52.5216 39.0584 53.4851 39.1739 54.0902 39.1739V34.2314C54.0926 34.2314 54.1152 34.2315 54.1544 34.2362C54.1935 34.241 54.256 34.2512 54.3357 34.274C54.4963 34.3198 54.7462 34.423 54.9965 34.6455L51.7128 38.3395ZM50.6733 35.757C50.6733 36.3621 50.7888 37.3257 51.5077 38.1344L55.2017 34.8507C55.4242 35.101 55.5274 35.3509 55.5732 35.5115C55.596 35.5912 55.6062 35.6537 55.611 35.6928C55.6157 35.732 55.6158 35.7545 55.6158 35.757H50.6733ZM50.6733 32.5785V35.757H55.6158V32.5785H50.6733ZM51.6073 30.1218C50.7736 30.9554 50.6733 32.01 50.6733 32.5785H55.6158C55.6158 32.5806 55.6158 32.6055 55.6104 32.6489C55.6051 32.6919 55.5934 32.7629 55.5665 32.8537C55.5127 33.0353 55.3861 33.3327 55.1021 33.6167L51.6073 30.1218ZM54.0902 29.1616C53.4218 29.1616 52.4138 29.3152 51.6072 30.1218L55.1021 33.6167C54.6108 34.108 54.0931 34.1041 54.0902 34.1041V29.1616ZM67.9601 29.1616H54.0902V34.1041H67.9601V29.1616ZM70.5164 30.2274C69.6939 29.3021 68.5965 29.1616 67.9601 29.1616V34.1041C67.9442 34.1041 67.8077 34.1038 67.6055 34.0364C67.3882 33.9639 67.0881 33.8101 66.8223 33.511L70.5164 30.2274ZM71.377 32.5785C71.377 31.9421 71.2365 30.8447 70.3112 30.0222L67.0276 33.7163C66.7285 33.4505 66.5747 33.1504 66.5022 32.9331C66.4348 32.7309 66.4345 32.5944 66.4345 32.5785H71.377ZM71.377 35.757V32.5785H66.4345V35.757H71.377ZM70.4168 38.24C71.2234 37.4334 71.377 36.4254 71.377 35.757H66.4345C66.4345 35.7541 66.4306 35.2364 66.9219 34.7451L70.4168 38.24ZM67.9601 39.1739C68.5286 39.1739 69.5831 39.0736 70.4168 38.2399L66.9219 34.7451C67.2059 34.4611 67.5033 34.3345 67.6849 34.2807C67.7757 34.2538 67.8467 34.2421 67.8897 34.2368C67.9331 34.2314 67.958 34.2314 67.9601 34.2314V39.1739ZM64.0986 39.1739H67.9601V34.2314H64.0986V39.1739ZM66.5699 49.6006V36.7027H61.6273V49.6006H66.5699ZM65.6096 52.0836C66.4162 51.277 66.5699 50.269 66.5699 49.6006H61.6273C61.6273 49.5977 61.6234 49.08 62.1147 48.5887L65.6096 52.0836ZM63.1529 53.0175C63.7215 53.0175 64.776 52.9172 65.6096 52.0836L62.1147 48.5887C62.3987 48.3047 62.6961 48.1781 62.8777 48.1243C62.9685 48.0974 63.0395 48.0857 63.0825 48.0804C63.1259 48.075 63.1508 48.075 63.1529 48.075V53.0175ZM97.5396 48.075H89.2386V53.0175H97.5396V48.075ZM99.9413 47.4515C99.5529 47.7693 98.8503 48.075 97.5396 48.075V53.0175C99.5912 53.0175 101.533 52.5352 103.071 51.2768L99.9413 47.4515ZM100.506 45.923C100.506 46.8144 100.245 47.2019 99.9375 47.4546L103.075 51.2738C104.729 49.9153 105.448 48.0087 105.448 45.923H100.506ZM100.506 43.1648V45.923H105.448V43.1648H100.506ZM100.261 41.9074C100.265 41.9109 100.275 41.9194 100.291 41.9424C100.307 41.9668 100.336 42.0172 100.368 42.1071C100.436 42.2951 100.506 42.6282 100.506 43.1648H105.448C105.448 41.3328 104.981 39.4125 103.434 38.1177L100.261 41.9074ZM98.5298 41.2506C99.4179 41.3775 99.9424 41.6405 100.261 41.9074L103.434 38.1177C102.247 37.1237 100.792 36.5811 99.2288 36.3577L98.5298 41.2506ZM94.6365 40.7281L98.5505 41.2535L99.208 36.3549L95.294 35.8295L94.6365 40.7281ZM92.4892 39.5333C93.1025 40.3219 93.9637 40.6803 94.7757 40.7428L95.1548 35.8148C95.3075 35.8266 95.5266 35.8688 95.7684 35.9896C96.0175 36.1142 96.2299 36.2924 96.3905 36.4989L92.4892 39.5333ZM91.7847 37.4382C91.7847 38.1346 91.9827 38.8822 92.4892 39.5333L96.3905 36.4989C96.6518 36.8348 96.7272 37.1971 96.7272 37.4382H91.7847ZM92.5801 35.2592C91.9804 35.9445 91.7847 36.7511 91.7847 37.4382H96.7272C96.7272 37.6699 96.6542 38.1088 96.2997 38.5139L92.5801 35.2592ZM94.9652 34.1789C94.0962 34.1789 93.1497 34.5201 92.4892 35.3694L96.3906 38.4038C96.2146 38.63 95.9721 38.8301 95.6773 38.9628C95.3924 39.091 95.137 39.1214 94.9652 39.1214V34.1789ZM101.086 34.1789H94.9652V39.1214H101.086V34.1789ZM100.048 34.6925C100.332 34.4085 100.629 34.2819 100.811 34.2282C100.901 34.2012 100.972 34.1895 101.015 34.1842C101.059 34.1789 101.084 34.1789 101.086 34.1789V39.1214C101.654 39.1214 102.709 39.0211 103.543 38.1874L100.048 34.6925ZM99.5603 35.7045C99.5603 35.7016 99.5563 35.1839 100.048 34.6926L103.543 38.1874C104.349 37.3808 104.503 36.3728 104.503 35.7045H99.5603ZM99.5603 32.5785V35.7045H104.503V32.5785H99.5603ZM100.153 33.7162C99.8542 33.4504 99.7004 33.1504 99.628 32.9331C99.5606 32.7309 99.5603 32.5944 99.5603 32.5785H104.503C104.503 31.9421 104.362 30.8448 103.437 30.0222L100.153 33.7162ZM101.086 34.1041C101.07 34.1041 100.933 34.1038 100.731 34.0364C100.514 33.9639 100.214 33.8101 99.9481 33.511L103.642 30.2274C102.82 29.302 101.722 29.1616 101.086 29.1616V34.1041ZM93.7306 34.1041H101.086V29.1616H93.7306V34.1041ZM91.3232 34.7368C91.7065 34.4162 92.4067 34.1041 93.7306 34.1041V29.1616C91.6571 29.1616 89.6954 29.655 88.1523 30.9455L91.3232 34.7368ZM90.7642 36.2561C90.7642 35.3477 91.0271 34.9793 91.3027 34.7538L88.1729 30.9285C86.522 32.2792 85.8217 34.1874 85.8217 36.2561H90.7642ZM90.7642 39.0143V36.2561H85.8217V39.0143H90.7642ZM91.0045 40.2902C91.0035 40.2894 90.995 40.2824 90.9797 40.259C90.9633 40.2341 90.9338 40.182 90.9013 40.0893C90.8334 39.8954 90.7642 39.5559 90.7642 39.0143H85.8217C85.8217 40.8298 86.2718 42.7433 87.788 44.0429L91.0045 40.2902ZM92.7141 40.9285C91.826 40.8016 91.3015 40.5386 90.9827 40.2717L87.8099 44.0614C88.9971 45.0554 90.4515 45.598 92.0151 45.8213L92.7141 40.9285ZM96.6476 41.4792L92.7073 40.9275L92.022 45.8223L95.9623 46.374L96.6476 41.4792ZM98.7811 42.6802C98.1283 41.8098 97.2022 41.517 96.4945 41.4626L96.1154 46.3905C95.9979 46.3815 95.7891 46.349 95.5426 46.2322C95.2821 46.1088 95.0278 45.9134 94.827 45.6457L98.7811 42.6802ZM99.4592 44.8197C99.4592 44.2621 99.3576 43.3285 98.6639 42.5356L94.9442 45.7903C94.715 45.5283 94.6094 45.2672 94.5622 45.0986C94.5167 44.9361 94.5167 44.8307 94.5167 44.8197H99.4592ZM98.7547 46.8886C99.2332 46.2734 99.4592 45.5485 99.4592 44.8197H94.5167C94.5167 44.6815 94.5374 44.5141 94.5975 44.3337C94.6581 44.1519 94.7479 43.9897 94.8534 43.8541L98.7547 46.8886ZM96.3049 48.0527C97.0551 48.0527 98.0748 47.7958 98.7811 46.854L94.827 43.8886C95.0457 43.597 95.3338 43.3809 95.6415 43.2514C95.9299 43.1299 96.1723 43.1102 96.3049 43.1102V48.0527ZM89.2386 48.0527H96.3049V43.1102H89.2386V48.0527ZM90.2506 47.5653C89.7592 48.0567 89.2415 48.0527 89.2386 48.0527V43.1102C88.5703 43.1102 87.5622 43.2639 86.7556 44.0705L90.2506 47.5653ZM90.7642 46.5272C90.7642 46.5293 90.7642 46.5542 90.7589 46.5976C90.7536 46.6406 90.7419 46.7116 90.7149 46.8024C90.6611 46.984 90.5345 47.2814 90.2505 47.5654L86.7557 44.0704C85.922 44.9041 85.8217 45.9586 85.8217 46.5272H90.7642ZM90.7642 49.6006V46.5272H85.8217V49.6006H90.7642ZM90.3501 48.6943C90.5726 48.9446 90.6758 49.1945 90.7217 49.3551C90.7444 49.4348 90.7547 49.4973 90.7594 49.5363C90.7642 49.5756 90.7642 49.5981 90.7642 49.6006H85.8217C85.8217 50.2058 85.9373 51.1693 86.6561 51.978L90.3501 48.6943ZM89.2386 48.075C89.2411 48.075 89.2637 48.0751 89.3029 48.0798C89.342 48.0846 89.4044 48.0948 89.4841 48.1176C89.6447 48.1634 89.8946 48.2666 90.145 48.4891L86.8613 52.1831C87.67 52.902 88.6335 53.0175 89.2386 53.0175V48.075ZM75.1639 48.0751H71.0923V53.0176H75.1639V48.0751ZM74.1257 48.5888C74.4097 48.3048 74.7072 48.1782 74.8887 48.1244C74.9796 48.0975 75.0505 48.0858 75.0936 48.0805C75.1369 48.0751 75.1618 48.0751 75.1639 48.0751V53.0176C75.7324 53.0176 76.787 52.9173 77.6207 52.0836L74.1257 48.5888ZM73.6384 49.6007C73.6384 49.5978 73.6344 49.0801 74.1258 48.5887L77.6206 52.0837C78.4272 51.2771 78.5809 50.269 78.5809 49.6007H73.6384ZM73.6384 43.769V49.6007H78.5809V43.769H73.6384ZM80.4965 41.2978H76.1096V46.2403H80.4965V41.2978ZM82.9678 49.6007V43.769H78.0252V49.6007H82.9678ZM82.5537 48.6944C82.7762 48.9447 82.8793 49.1946 82.9252 49.3552C82.948 49.4349 82.9582 49.4974 82.9629 49.5364C82.9677 49.5757 82.9678 49.5982 82.9678 49.6007H78.0252C78.0252 50.2059 78.1408 51.1693 78.8596 51.978L82.5537 48.6944ZM81.4422 48.0751C81.4446 48.0751 81.4672 48.0752 81.5064 48.0799C81.5455 48.0847 81.6079 48.0949 81.6876 48.1176C81.8482 48.1635 82.0982 48.2667 82.3485 48.4892L79.0648 52.1832C79.8735 52.9021 80.8371 53.0176 81.4422 53.0176V48.0751ZM85.5138 48.0751H81.4422V53.0176H85.5138V48.0751ZM84.4756 48.5888C84.7596 48.3048 85.057 48.1782 85.2386 48.1244C85.3294 48.0975 85.4004 48.0858 85.4434 48.0805C85.4868 48.0751 85.5117 48.0751 85.5138 48.0751V53.0176C86.0824 53.0176 87.1369 52.9173 87.9705 52.0836L84.4756 48.5888ZM83.9882 49.6007C83.9882 49.5978 83.9843 49.0801 84.4757 48.5887L87.9705 52.0837C88.7771 51.2771 88.9308 50.269 88.9308 49.6007H83.9882ZM83.9882 32.5786V49.6007H88.9308V32.5786H83.9882ZM84.5813 33.7164C84.2822 33.4505 84.1284 33.1505 84.0559 32.9332C83.9885 32.731 83.9882 32.5945 83.9882 32.5786H88.9308C88.9308 31.9422 88.7903 30.8448 87.8649 30.0223L84.5813 33.7164ZM85.5138 34.1042C85.4979 34.1042 85.3614 34.1039 85.1592 34.0364C84.9419 33.964 84.6419 33.8102 84.376 33.5111L88.0701 30.2275C87.2476 29.3022 86.1502 29.1616 85.5138 29.1616V34.1042ZM81.4422 34.1042H85.5138V29.1616H81.4422V34.1042ZM82.4541 33.6167C81.9627 34.1081 81.445 34.1042 81.4422 34.1042V29.1616C80.7738 29.1616 79.7658 29.3153 78.9592 30.1219L82.4541 33.6167ZM82.9678 32.5786C82.9678 32.5807 82.9677 32.6056 82.9624 32.649C82.9571 32.692 82.9454 32.763 82.9185 32.8538C82.8647 33.0354 82.7381 33.3328 82.4541 33.6168L78.9592 30.1219C78.1255 30.9555 78.0252 32.01 78.0252 32.5786H82.9678ZM82.9678 38.2789V32.5786H78.0252V38.2789H82.9678ZM76.1096 40.7501H80.4965V35.8076H76.1096V40.7501ZM73.6384 32.5786V38.2789H78.5809V32.5786H73.6384ZM74.2314 33.7164C73.9323 33.4505 73.7785 33.1505 73.7061 32.9332C73.6387 32.731 73.6384 32.5945 73.6384 32.5786H78.5809C78.5809 31.9422 78.4404 30.8448 77.515 30.0223L74.2314 33.7164ZM75.1639 34.1042C75.148 34.1042 75.0116 34.1039 74.8093 34.0365C74.592 33.964 74.292 33.8102 74.0261 33.5111L77.7202 30.2275C76.8977 29.3021 75.8003 29.1616 75.1639 29.1616V34.1042ZM71.0923 34.1042H75.1639V29.1616H71.0923V34.1042ZM72.1042 33.6167C71.6129 34.1081 71.0952 34.1042 71.0923 34.1042V29.1616C70.4239 29.1616 69.4159 29.3153 68.6093 30.1219L72.1042 33.6167ZM72.6179 32.5786C72.6179 32.5807 72.6178 32.6056 72.6125 32.649C72.6072 32.692 72.5955 32.763 72.5686 32.8538C72.5148 33.0354 72.3882 33.3328 72.1042 33.6168L68.6093 30.1219C67.7757 30.9555 67.6753 32.01 67.6753 32.5786H72.6179ZM72.6179 49.6007V32.5786H67.6753V49.6007H72.6179ZM72.2038 48.6944C72.4263 48.9447 72.5294 49.1946 72.5753 49.3552C72.5981 49.4349 72.6083 49.4974 72.613 49.5364C72.6178 49.5757 72.6179 49.5982 72.6179 49.6007H67.6753C67.6753 50.2059 67.7909 51.1693 68.5097 51.978L72.2038 48.6944ZM71.0923 48.0751C71.0947 48.0751 71.1173 48.0752 71.1565 48.0799C71.1956 48.0847 71.258 48.0949 71.3378 48.1176C71.4983 48.1635 71.7483 48.2667 71.9986 48.4892L68.7149 52.1832C69.5236 52.9021 70.4872 53.0176 71.0923 53.0176V48.0751ZM20.2133 53.0175H33.8V48.075H20.2133V53.0175ZM17.8359 52.1832C18.6446 52.902 19.6081 53.0175 20.2133 53.0175V48.075C20.2157 48.075 20.2383 48.0751 20.2775 48.0798C20.3166 48.0846 20.379 48.0948 20.4587 48.1176C20.6193 48.1634 20.8692 48.2666 21.1195 48.4891L17.8359 52.1832ZM16.7963 49.6006C16.7963 50.2057 16.9119 51.1693 17.6307 51.9779L21.3248 48.6943C21.5473 48.9446 21.6504 49.1945 21.6963 49.3551C21.7191 49.4348 21.7293 49.4973 21.734 49.5364C21.7388 49.5756 21.7388 49.5981 21.7388 49.6006H16.7963ZM16.7963 32.5785V49.6006H21.7388V32.5785H16.7963ZM17.7303 30.1218C16.8966 30.9555 16.7963 32.01 16.7963 32.5785H21.7388C21.7388 32.5806 21.7388 32.6055 21.7335 32.6489C21.7282 32.6919 21.7165 32.7629 21.6896 32.8537C21.6357 33.0353 21.5092 33.3327 21.2252 33.6167L17.7303 30.1218ZM20.2133 29.1616C19.5449 29.1616 18.5369 29.3152 17.7303 30.1218L21.2252 33.6167C20.7338 34.108 20.2161 34.1041 20.2133 34.1041V29.1616ZM24.2849 29.1616H20.2133V34.1041H24.2849V29.1616ZM26.8412 30.2274C26.0187 29.3021 24.9213 29.1616 24.2849 29.1616V34.1041C24.269 34.1041 24.1325 34.1038 23.9303 34.0364C23.713 33.9639 23.413 33.8101 23.1471 33.5111L26.8412 30.2274ZM27.7018 32.5785C27.7018 31.9421 27.5613 30.8447 26.636 30.0222L23.3523 33.7163C23.0533 33.4504 22.8995 33.1504 22.827 32.9331C22.7596 32.7309 22.7593 32.5944 22.7593 32.5785H27.7018ZM27.7018 45.5815V32.5785H22.7593V45.5815H27.7018ZM33.8 43.1102H25.2306V48.0527H33.8V43.1102ZM36.3563 44.1761C35.5338 43.2507 34.4365 43.1102 33.8 43.1102V48.0527C33.7841 48.0527 33.6477 48.0524 33.4454 47.985C33.2281 47.9126 32.9281 47.7588 32.6623 47.4597L36.3563 44.1761ZM37.217 46.5272C37.217 45.8908 37.0765 44.7934 36.1511 43.9709L32.8675 47.6649C32.5684 47.3991 32.4146 47.0991 32.3422 46.8818C32.2748 46.6795 32.2745 46.5431 32.2745 46.5272H37.217ZM37.217 49.6006V46.5272H32.2745V49.6006H37.217ZM36.2567 52.0836C37.0633 51.277 37.217 50.2689 37.217 49.6006H32.2745C32.2745 49.5977 32.2705 49.08 32.7619 48.5887L36.2567 52.0836ZM33.8 53.0175C34.3686 53.0175 35.4231 52.9172 36.2567 52.0836L32.7619 48.5887C33.0459 48.3047 33.3433 48.1781 33.5248 48.1243C33.6157 48.0974 33.6866 48.0857 33.7297 48.0804C33.773 48.075 33.7979 48.075 33.8 48.075V53.0175ZM12.27 48.0751H3.96911V53.0176H12.27V48.0751ZM14.6717 47.4516C14.2834 47.7694 13.5808 48.0751 12.27 48.0751V53.0176C14.3217 53.0176 16.2635 52.5353 17.8015 51.2769L14.6717 47.4516ZM15.2364 45.9231C15.2364 46.8145 14.9756 47.202 14.668 47.4547L17.8052 51.2739C19.459 49.9154 20.1789 48.0087 20.1789 45.9231H15.2364ZM15.2364 43.1649V45.9231H20.1789V43.1649H15.2364ZM14.9917 41.9075C14.9959 41.911 15.0056 41.9195 15.021 41.9425C15.0374 41.9669 15.0667 42.0173 15.0989 42.1071C15.1662 42.2952 15.2364 42.6283 15.2364 43.1649H20.1789C20.1789 41.3329 19.7111 39.4126 18.1645 38.1178L14.9917 41.9075ZM13.2603 41.2507C14.1484 41.3776 14.6729 41.6406 14.9917 41.9075L18.1645 38.1178C16.9772 37.1238 15.5228 36.5812 13.9592 36.3578L13.2603 41.2507ZM9.36694 40.7282L13.281 41.2535L13.9385 36.355L10.0245 35.8296L9.36694 40.7282ZM7.21963 39.5334C7.83299 40.322 8.69422 40.6804 9.50615 40.7429L9.88524 35.8149C10.0379 35.8267 10.257 35.8688 10.4988 35.9897C10.748 36.1143 10.9604 36.2925 11.121 36.499L7.21963 39.5334ZM6.51518 37.4383C6.51518 38.1347 6.71317 38.8822 7.21963 39.5334L11.121 36.499C11.3823 36.8349 11.4577 37.1972 11.4577 37.4383H6.51518ZM7.31052 35.2593C6.71083 35.9446 6.51518 36.7512 6.51518 37.4383H11.4577C11.4577 37.67 11.3846 38.1088 11.0301 38.514L7.31052 35.2593ZM9.6957 34.179C8.82674 34.179 7.88017 34.5202 7.21963 35.3694L11.121 38.4039C10.945 38.6301 10.7026 38.8302 10.4077 38.9629C10.1228 39.0911 9.8675 39.1215 9.6957 39.1215V34.179ZM15.8163 34.179H9.6957V39.1215H15.8163V34.179ZM14.7781 34.6926C15.0621 34.4086 15.3595 34.2821 15.5411 34.2283C15.6319 34.2013 15.7029 34.1896 15.7459 34.1843C15.7893 34.179 15.8142 34.179 15.8163 34.179V39.1215C16.3848 39.1215 17.4393 39.0212 18.273 38.1875L14.7781 34.6926ZM14.2907 35.7046C14.2907 35.7016 14.2868 35.184 14.7781 34.6927L18.273 38.1875C19.0796 37.3809 19.2332 36.3729 19.2332 35.7046H14.2907ZM14.2907 32.5786V35.7046H19.2332V32.5786H14.2907ZM14.8837 33.7164C14.5847 33.4505 14.4309 33.1505 14.3584 32.9332C14.291 32.731 14.2907 32.5945 14.2907 32.5786H19.2332C19.2332 31.9422 19.0927 30.8448 18.1674 30.0223L14.8837 33.7164ZM15.8163 34.1042C15.8004 34.1042 15.6639 34.1039 15.4617 34.0365C15.2444 33.964 14.9444 33.8102 14.6785 33.5111L18.3726 30.2275C17.5501 29.3021 16.4527 29.1616 15.8163 29.1616V34.1042ZM8.46107 34.1042H15.8163V29.1616H8.46107V34.1042ZM6.05366 34.7369C6.43699 34.4163 7.13713 34.1042 8.46107 34.1042V29.1616C6.38758 29.1616 4.42582 29.6551 2.88277 30.9456L6.05366 34.7369ZM5.4947 36.2562C5.4947 35.3478 5.75758 34.9793 6.03311 34.7539L2.90333 30.9286C1.25248 32.2793 0.552179 34.1875 0.552179 36.2562H5.4947ZM5.4947 39.0144V36.2562H0.552179V39.0144H5.4947ZM5.73499 40.2903C5.734 40.2895 5.72549 40.2825 5.71012 40.2591C5.69374 40.2342 5.66423 40.1821 5.63178 40.0894C5.56391 39.8955 5.4947 39.556 5.4947 39.0144H0.552179C0.552179 40.8299 1.00225 42.7434 2.51845 44.043L5.73499 40.2903ZM7.44458 40.9286C6.55645 40.8017 6.03191 40.5387 5.71311 40.2718L2.54034 44.0615C3.72761 45.0555 5.18199 45.5981 6.7456 45.8214L7.44458 40.9286ZM11.378 41.4793L7.43773 40.9276L6.75246 45.8224L10.6928 46.374L11.378 41.4793ZM13.5115 42.6803C12.8587 41.81 11.9327 41.5171 11.2249 41.4627L10.8459 46.3906C10.7284 46.3816 10.5196 46.3491 10.273 46.2323C10.0126 46.1089 9.75824 45.9135 9.55751 45.6458L13.5115 42.6803ZM14.1896 44.8198C14.1896 44.2622 14.0881 43.3286 13.3943 42.5357L9.67471 45.7904C9.44546 45.5284 9.3399 45.2673 9.29269 45.0986C9.2472 44.9362 9.24713 44.8308 9.24713 44.8198H14.1896ZM13.4852 46.8886C13.9637 46.2734 14.1896 45.5485 14.1896 44.8198H9.24713C9.24713 44.6816 9.26785 44.5142 9.32798 44.3338C9.3886 44.152 9.47837 43.9898 9.58382 43.8542L13.4852 46.8886ZM11.0354 48.0528C11.7856 48.0528 12.8053 47.7958 13.5115 46.8542L9.55751 43.8887C9.77619 43.5971 10.0643 43.381 10.3719 43.2514C10.6604 43.13 10.9028 43.1103 11.0354 43.1103V48.0528ZM3.96911 48.0528H11.0354V43.1103H3.96911V48.0528ZM4.98103 47.5654C4.48968 48.0568 3.97199 48.0528 3.96911 48.0528V43.1103C3.30076 43.1103 2.29272 43.264 1.48615 44.0705L4.98103 47.5654ZM5.4947 46.5272C5.4947 46.5294 5.49466 46.5543 5.48932 46.5976C5.48402 46.6407 5.47232 46.7116 5.44541 46.8024C5.3916 46.984 5.26502 47.2815 4.98102 47.5654L1.48615 44.0705C0.652479 44.9042 0.552179 45.9587 0.552179 46.5272H5.4947ZM5.4947 49.6007V46.5272H0.552179V49.6007H5.4947ZM5.08063 48.6944C5.30314 48.9447 5.40627 49.1946 5.45215 49.3552C5.47492 49.4349 5.48514 49.4974 5.48987 49.5364C5.49463 49.5757 5.4947 49.5982 5.4947 49.6007H0.552179C0.552179 50.2058 0.667714 51.1693 1.38655 51.978L5.08063 48.6944ZM3.96911 48.0751C3.97156 48.0751 3.99414 48.0752 4.03335 48.0799C4.07242 48.0847 4.13488 48.0949 4.21459 48.1176C4.37516 48.1635 4.62509 48.2667 4.87542 48.4892L1.59176 52.1832C2.40045 52.9021 3.36398 53.0176 3.96911 53.0176V48.0751ZM32.1034 23.5405C32.1034 24.0937 32.0196 24.5353 31.888 24.8927L36.5257 26.6014C36.8844 25.6278 37.0459 24.5984 37.0459 23.5405H32.1034ZM32.1034 14.5828V23.5405H37.0459V14.5828H32.1034ZM31.8955 13.2771C32.0192 13.6041 32.1034 14.0282 32.1034 14.5828H37.0459C37.0459 13.5263 36.8848 12.4969 36.5182 11.528L31.8955 13.2771ZM31.4365 12.6518C31.7059 12.8596 31.8135 13.0413 31.8686 13.2025L36.5451 11.6026C36.1449 10.4329 35.4119 9.47621 34.4554 8.73837L31.4365 12.6518ZM29.8603 11.9916C30.7257 12.2043 31.1878 12.4546 31.4091 12.6303L34.4828 8.7598C33.5132 7.98986 32.3117 7.50459 31.0405 7.19201L29.8603 11.9916ZM26.4313 11.669C27.9484 11.669 29.068 11.7935 29.851 11.9893L31.0498 7.19431C29.7313 6.86469 28.1715 6.7265 26.4313 6.7265V11.669ZM22.976 11.9916C23.7829 11.7931 24.9161 11.669 26.4313 11.669V6.7265C24.6892 6.7265 23.1255 6.86505 21.7958 7.19201L22.976 11.9916ZM21.3736 12.6518C21.6249 12.4579 22.1113 12.2042 22.976 11.9916L21.7958 7.19201C20.524 7.50476 19.3292 7.9866 18.3547 8.73837L21.3736 12.6518ZM20.9221 13.2569C20.9993 13.0474 21.1338 12.8425 21.4009 12.6303L18.3273 8.7598C17.4036 9.49332 16.6975 10.4268 16.2843 11.5482L20.9221 13.2569ZM20.733 14.5828C20.733 14.0091 20.814 13.5654 20.9347 13.2217L16.2717 11.5833C15.9371 12.5356 15.7905 13.5454 15.7905 14.5828H20.733ZM20.733 23.5405V14.5828H15.7905V23.5405H20.733ZM20.9414 24.9471C20.8136 24.5735 20.733 24.1128 20.733 23.5405H15.7905C15.7905 24.5793 15.9375 25.5896 16.265 26.5469L20.9414 24.9471ZM21.4009 25.493C21.1196 25.2695 20.9868 25.0635 20.9145 24.8725L16.2919 26.6216C16.71 27.7265 17.4178 28.6413 18.3273 29.3635L21.4009 25.493ZM22.976 26.1055C22.0976 25.8895 21.5975 25.6374 21.3378 25.4444L18.3904 29.412C19.3566 30.1297 20.5377 30.5956 21.7958 30.905L22.976 26.1055ZM26.4313 26.428C24.9161 26.428 23.7829 26.3039 22.976 26.1055L21.7958 30.905C23.1255 31.232 24.6892 31.3705 26.4313 31.3705V26.428ZM29.851 26.1078C29.068 26.3035 27.9484 26.428 26.4313 26.428V31.3705C28.1715 31.3705 29.7313 31.2323 31.0498 30.9027L29.851 26.1078ZM31.4448 25.4652C31.2154 25.6405 30.7395 25.8893 29.8603 26.1055L31.0405 30.905C32.2978 30.5958 33.4856 30.1266 34.4471 29.3913L31.4448 25.4652ZM31.8753 24.9278C31.8255 25.0695 31.7208 25.2522 31.4365 25.4715L34.4554 29.3849C35.3969 28.6586 36.1328 27.7205 36.5384 26.5662L31.8753 24.9278ZM42.7781 5.47229C43.0478 5.46108 43.3257 5.53906 43.5006 5.65227C43.5771 5.70175 43.616 5.74586 43.636 5.77525C43.6526 5.79962 43.6771 5.84305 43.6912 5.93323L48.5743 5.16898C48.0257 1.66413 44.7556 0.443246 42.5727 0.534046L42.7781 5.47229ZM41.6049 6.59987C41.6837 6.10806 41.8766 5.87071 42.0373 5.73936C42.2271 5.58418 42.4926 5.48417 42.7781 5.47229L42.5727 0.534046C40.0441 0.639232 37.2816 2.34389 36.7247 5.81745L41.6049 6.59987ZM40.2418 4.70871C41.2706 4.89576 41.7261 5.8435 41.6049 6.59987L36.7247 5.81745C36.4682 7.4175 37.452 9.22503 39.3576 9.57151L40.2418 4.70871ZM38.2638 6.08391C38.389 5.30307 39.1685 4.51358 40.2418 4.70871L39.3577 9.57151C41.32 9.92827 42.8823 8.49879 43.144 6.86635L38.2638 6.08391ZM42.6352 2.15346C41.7087 2.192 40.7087 2.49559 39.8658 3.19343C38.9984 3.91159 38.45 4.92255 38.2638 6.08391L43.144 6.86634C43.1527 6.81227 43.1598 6.81856 43.137 6.85998C43.1134 6.90276 43.0734 6.95443 43.0178 7.00046C42.9061 7.09294 42.8232 7.09243 42.8406 7.09171L42.6352 2.15346ZM47.0342 5.42928C46.6731 3.12232 44.4754 2.07691 42.6352 2.15346L42.8406 7.09171C42.8848 7.08987 42.7889 7.10523 42.6265 6.99574C42.4672 6.88829 42.2195 6.63079 42.1511 6.19352L47.0342 5.42928ZM45.0624 4.04679C46.1363 3.85619 46.912 4.64866 47.0342 5.42925L42.1511 6.19354C42.4066 7.82609 43.9625 9.26175 45.9261 8.91326L45.0624 4.04679ZM43.6912 5.93325C43.5728 5.17651 44.0319 4.22968 45.0624 4.04679L45.9261 8.91325C47.8342 8.5746 48.8249 6.76991 48.5743 5.16896L43.6912 5.93325ZM47.9521 5.26636C47.4743 2.21356 44.6204 1.07917 42.5989 1.16326L42.8043 6.1015C42.8802 6.09834 42.957 6.10685 43.0245 6.12433C43.0922 6.14186 43.1315 6.16333 43.1456 6.17257C43.1577 6.18049 43.139 6.17094 43.1133 6.1331C43.0846 6.0907 43.0719 6.04902 43.069 6.03061L47.9521 5.26636ZM45.816 8.29319C47.2717 8.03483 48.1685 6.64891 47.9521 5.26634L43.069 6.03063C42.8895 4.88355 43.6329 3.66091 44.9523 3.42673L45.816 8.29319ZM42.7733 6.09608C42.9971 7.52622 44.3397 8.55521 45.816 8.29319L44.9523 3.42672C46.3044 3.18676 47.4682 4.12955 47.6564 5.33196L42.7733 6.09608ZM42.8145 6.4625C42.8802 6.45976 42.9324 6.46746 42.9672 6.4766C43.0027 6.48592 43.0087 6.49358 42.992 6.48252C42.9743 6.47084 42.9278 6.4353 42.8786 6.36281C42.8267 6.28634 42.7884 6.19234 42.7733 6.09615L47.6564 5.33189C47.225 2.57598 44.6155 1.44079 42.609 1.52425L42.8145 6.4625ZM42.5222 6.76665C42.5425 6.63973 42.5732 6.57608 42.5863 6.55272C42.5992 6.52976 42.6082 6.52196 42.6129 6.51812C42.6244 6.50864 42.6847 6.4679 42.8145 6.4625L42.609 1.52425C40.3938 1.6164 38.1055 3.09332 37.642 5.98422L42.5222 6.76665ZM39.4703 8.95191C40.9458 9.22017 42.2929 8.19646 42.5222 6.76665L37.642 5.98423C37.8348 4.78178 39.0031 3.84342 40.3544 4.08911L39.4703 8.95191ZM37.3465 5.91712C37.125 7.29854 38.0162 8.68753 39.4703 8.95191L40.3544 4.08911C41.6722 4.32869 42.4105 5.55347 42.2267 6.69959L37.3465 5.91712ZM42.5989 1.16326C40.317 1.25818 37.8482 2.78818 37.3465 5.91714L42.2267 6.69957C42.2558 6.51796 42.303 6.40953 42.3369 6.34946C42.3706 6.28962 42.4056 6.25176 42.4393 6.22413C42.5116 6.16481 42.6376 6.10844 42.8043 6.1015L42.5989 1.16326ZM9.66914 30.9765H16.0787V26.034H9.66914V30.9765ZM3.21656 29.1031C4.92013 30.4994 7.2228 30.9765 9.66914 30.9765V26.034C7.73736 26.034 6.78271 25.6354 6.34975 25.2806L3.21656 29.1031ZM0.735773 23.1464C0.735773 25.4422 1.41434 27.6013 3.2011 29.0903L6.36521 25.2933C6.05047 25.0311 5.67829 24.4933 5.67829 23.1464H0.735773ZM0.735773 14.9769V23.1464H5.67829V14.9769H0.735773ZM3.2011 9.03303C1.41434 10.522 0.735773 12.6812 0.735773 14.9769H5.67829C5.67829 13.63 6.05047 13.0923 6.36522 12.83L3.2011 9.03303ZM9.66914 7.12054C7.21399 7.12054 4.90326 7.60991 3.19804 9.03558L6.36827 12.8274C6.79958 12.4668 7.74617 12.0631 9.66914 12.0631V7.12054ZM16.0787 7.12054H9.66914V12.0631H16.0787V7.12054ZM18.635 8.18639C17.8125 7.26104 16.7151 7.12054 16.0787 7.12054V12.0631C16.0628 12.0631 15.9263 12.0628 15.7241 11.9953C15.5068 11.9229 15.2068 11.7691 14.9409 11.47L18.635 8.18639ZM19.4957 10.5375C19.4957 9.90106 19.3551 8.80371 18.4298 7.98117L15.1462 11.6753C14.8471 11.4094 14.6933 11.1094 14.6208 10.8921C14.5534 10.6899 14.5531 10.5534 14.5531 10.5375H19.4957ZM19.4957 13.716V10.5375H14.5531V13.716H19.4957ZM18.5354 16.199C19.342 15.3924 19.4957 14.3844 19.4957 13.716H14.5531C14.5531 13.7131 14.5492 13.1954 15.0405 12.7041L18.5354 16.199ZM16.0787 17.1329C16.6472 17.1329 17.7017 17.0326 18.5354 16.1989L15.0405 12.7041C15.3245 12.4201 15.6219 12.2935 15.8035 12.2397C15.8943 12.2128 15.9653 12.2011 16.0083 12.1958C16.0517 12.1904 16.0766 12.1904 16.0787 12.1904V17.1329ZM10.7987 17.1329H16.0787V12.1904H10.7987V17.1329ZM11.2088 16.8706C11.0158 17.038 10.8391 17.1032 10.7615 17.1251C10.6906 17.1452 10.691 17.1329 10.7987 17.1329V12.1904C9.97935 12.1904 8.87678 12.3514 7.97183 13.1356L11.2088 16.8706ZM11.6676 15.9751C11.6676 15.997 11.6649 16.1351 11.585 16.3322C11.4982 16.5464 11.3464 16.763 11.1341 16.9329L8.04656 13.0734C7.03002 13.8866 6.72505 15.0313 6.72505 15.9751H11.6676ZM11.6676 22.227V15.9751H6.72505V22.227H11.6676ZM11.1341 21.2692C11.3464 21.4391 11.4982 21.6557 11.585 21.8699C11.6649 22.067 11.6676 22.2051 11.6676 22.227H6.72505C6.72505 23.1709 7.03002 24.3155 8.04656 25.1287L11.1341 21.2692ZM10.7987 21.0167C10.6647 21.0167 10.6296 21.0039 10.6642 21.0122C10.6993 21.0206 10.8564 21.0629 11.0517 21.2061L8.12893 25.1918C9.01505 25.8416 10.0483 25.9592 10.7987 25.9592V21.0167ZM16.0787 21.0167H10.7987V25.9592H16.0787V21.0167ZM18.635 22.0825C17.8125 21.1572 16.7151 21.0167 16.0787 21.0167V25.9592C16.0628 25.9592 15.9263 25.9589 15.7241 25.8915C15.5068 25.819 15.2068 25.6652 14.9409 25.3662L18.635 22.0825ZM19.4957 24.4336C19.4957 23.7972 19.3551 22.6998 18.4298 21.8773L15.1462 25.5714C14.8471 25.3056 14.6933 25.0056 14.6208 24.7882C14.5534 24.586 14.5531 24.4495 14.5531 24.4336H19.4957ZM19.4957 27.5596V24.4336H14.5531V27.5596H19.4957ZM18.5354 30.0425C19.342 29.236 19.4957 28.228 19.4957 27.5596H14.5531C14.5531 27.5567 14.5492 27.039 15.0405 26.5477L18.5354 30.0425ZM16.0787 30.9765C16.6473 30.9765 17.7017 30.8762 18.5354 30.0426L15.0405 26.5476C15.3245 26.2637 15.6219 26.1371 15.8035 26.0833C15.8943 26.0564 15.9653 26.0447 16.0083 26.0394C16.0517 26.034 16.0766 26.034 16.0787 26.034V30.9765ZM68.4856 26.0546H54.8988V30.9971H68.4856V26.0546ZM67.4474 26.5683C67.7314 26.2843 68.0288 26.1577 68.2104 26.1039C68.3012 26.077 68.3722 26.0653 68.4152 26.06C68.4586 26.0546 68.4835 26.0546 68.4856 26.0546V30.9971C69.0541 30.9971 70.1087 30.8968 70.9423 30.0631L67.4474 26.5683ZM66.96 27.5802C66.96 27.5773 66.9561 27.0596 67.4474 26.5682L70.9423 30.0632C71.7489 29.2566 71.9025 28.2485 71.9025 27.5802H66.96ZM66.9981 22.0504L66.9601 27.5631L71.9025 27.5972L71.9405 22.0845L66.9981 22.0504ZM67.5531 23.2053C67.1054 22.8074 66.9981 22.3296 66.9981 22.0675H71.9406C71.9406 21.1399 71.5995 20.1893 70.8367 19.5112L67.5531 23.2053ZM68.4856 23.5931C68.4697 23.5931 68.3332 23.5928 68.131 23.5254C67.9137 23.4529 67.6136 23.2991 67.3478 23L71.0419 19.7164C70.2194 18.7911 69.122 18.6506 68.4856 18.6506V23.5931ZM67.2188 23.5953C67.6467 23.5942 68.0705 23.5931 68.4856 23.5931V18.6506C68.0628 18.6506 67.6324 18.6517 67.2057 18.6528L67.2188 23.5953ZM64.6857 23.593C65.4961 23.5999 66.3666 23.5976 67.2188 23.5953L67.2057 18.6528C66.3474 18.6551 65.5056 18.6573 64.7281 18.6507L64.6857 23.593ZM66.1576 21.9825C66.1576 21.8912 66.1623 21.9962 66.1392 22.1331C66.1128 22.2899 66.0392 22.578 65.8225 22.8803C65.3024 23.6059 64.6149 23.5931 64.7069 23.5931V18.6506C63.7784 18.6506 62.5806 18.9193 61.8054 20.0008C61.1525 20.9117 61.2151 21.9254 61.2151 21.9825H66.1576ZM66.1576 23.5611V21.9825H61.2151V23.5611H66.1576ZM59.9162 26.0323H63.6864V21.0898H59.9162V26.0323ZM57.4449 10.5581V23.5611H62.3874V10.5581H57.4449ZM58.0379 11.6959C57.7389 11.43 57.5851 11.13 57.5126 10.9127C57.4452 10.7105 57.4449 10.574 57.4449 10.5581H62.3874C62.3874 9.92166 62.2469 8.82432 61.3216 8.00178L58.0379 11.6959ZM58.9705 12.0837C58.9545 12.0837 58.8181 12.0834 58.6159 12.016C58.3985 11.9435 58.0985 11.7897 57.8327 11.4906L61.5268 8.20701C60.7042 7.28164 59.6069 7.14115 58.9705 7.14115V12.0837ZM54.8988 12.0837H58.9705V7.14115H54.8988V12.0837ZM55.9107 11.5963C55.4194 12.0876 54.9017 12.0837 54.8988 12.0837V7.14115C54.2304 7.14115 53.2224 7.29482 52.4159 8.10136L55.9107 11.5963ZM56.4244 10.5581C56.4244 10.5602 56.4244 10.5851 56.419 10.6285C56.4137 10.6715 56.402 10.7424 56.3751 10.8333C56.3213 11.0149 56.1947 11.3123 55.9107 11.5963L52.4158 8.10139C51.5822 8.93505 51.4819 9.98956 51.4819 10.5581H56.4244ZM56.4244 27.5802V10.5581H51.4819V27.5802H56.4244ZM56.0103 26.6739C56.2329 26.9242 56.336 27.1741 56.3819 27.3347C56.4046 27.4144 56.4148 27.4769 56.4196 27.516C56.4243 27.5552 56.4244 27.5777 56.4244 27.5802H51.4819C51.4819 28.1853 51.5974 29.1488 52.3162 29.9575L56.0103 26.6739ZM54.8988 26.0546C54.9013 26.0546 54.9239 26.0547 54.9631 26.0594C55.0021 26.0642 55.0646 26.0744 55.1443 26.0971C55.3049 26.143 55.5548 26.2462 55.8051 26.4687L52.5215 30.1628C53.3302 30.8816 54.2937 30.9971 54.8988 30.9971V26.0546Z" fill="#1E1E1E" mask="url(#path-1-outside-1_11749_807)"/>
<path d="M8.67179 12.6002L8.10708 22.2002L8.95414 28.6944L6.69531 35.4708L10.6483 47.8944L41.1424 51.0002L53.3125 50.3871L54.6954 49.5885L55.6086 50.6423L66.4942 50.4355L67.119 49.5885L67.7698 50.4355L75.8719 50.1532H80.6719C82.1778 52.412 84.3425 47.8944 86.6014 47.8944C89.4249 47.8944 91.119 48.1767 92.5308 47.8944C93.9426 47.612 94.2249 45.6355 94.7896 45.0708C95.3543 44.5061 94.7896 43.0944 95.919 41.1179C96.8226 39.5367 86.1308 31.7061 84.9072 31.5179H75.0249L69.0955 33.7767C67.6837 32.5532 64.7472 29.9367 64.2954 29.2591C63.8437 28.5814 60.5307 25.0238 58.9307 23.3296L52.7189 19.9414L46.5072 14.012L44.813 9.77671V4.12965H41.7072L40.2954 8.64729L41.1424 12.6002L32.9542 14.012L27.8718 9.77671L26.4601 3.56494H23.9189L22.7895 8.64729L8.67179 12.6002Z" fill="#1E1E1E"/>
<path d="M68.511 28.4455H54.9512C54.6138 28.4455 54.3651 28.3756 54.2053 28.2357C54.0632 28.0784 53.9922 27.8337 53.9922 27.5015V10.5099C53.9922 10.1778 54.0632 9.94176 54.2053 9.80191C54.3651 9.64458 54.6138 9.56592 54.9512 9.56592H59.0804C59.4179 9.56592 59.6576 9.64458 59.7997 9.80191C59.9596 9.94176 60.0395 10.1778 60.0395 10.5099V23.4896H63.6892V22.0705C63.6892 21.7384 63.7602 21.5024 63.9023 21.3625C64.0621 21.2052 64.3108 21.1266 64.6482 21.1266H68.511C68.8485 21.1266 69.0882 21.2052 69.2303 21.3625C69.3902 21.5024 69.4701 21.7384 69.4701 22.0705V27.5015C69.4701 27.8337 69.3902 28.0784 69.2303 28.2357C69.0882 28.3756 68.8485 28.4455 68.511 28.4455Z" fill="white"/>
<path d="M16.0787 28.5053H9.66914C7.48008 28.5053 5.85142 28.0674 4.78316 27.1918C3.73241 26.3162 3.20703 24.9677 3.20703 23.1464V14.9769C3.20703 13.1556 3.73241 11.8071 4.78316 10.9315C5.85142 10.0384 7.48008 9.5918 9.66914 9.5918H16.0787C16.4115 9.5918 16.6479 9.6706 16.788 9.82822C16.9456 9.96832 17.0244 10.2047 17.0244 10.5375V13.716C17.0244 14.0487 16.9456 14.2939 16.788 14.4515C16.6479 14.5916 16.4115 14.6617 16.0787 14.6617H10.7987C10.2558 14.6617 9.85302 14.7755 9.59034 15.0031C9.32765 15.2133 9.1963 15.5373 9.1963 15.9751V22.227C9.1963 22.6648 9.32765 22.9888 9.59034 23.199C9.85302 23.3916 10.2558 23.4879 10.7987 23.4879H16.0787C16.4115 23.4879 16.6479 23.5667 16.788 23.7244C16.9456 23.8645 17.0244 24.1009 17.0244 24.4336V27.5596C17.0244 27.8923 16.9456 28.1375 16.788 28.2951C16.6479 28.4352 16.4115 28.5053 16.0787 28.5053Z" fill="white"/>
<path d="M97.5396 50.5463H89.2387C88.9059 50.5463 88.6607 50.4762 88.5031 50.3361C88.363 50.1785 88.293 49.9333 88.293 49.6006V46.5272C88.293 46.1944 88.363 45.958 88.5031 45.8179C88.6607 45.6603 88.9059 45.5815 89.2387 45.5815H96.3049C96.5326 45.5815 96.699 45.5114 96.804 45.3713C96.9266 45.2137 96.9879 45.0298 96.9879 44.8197C96.9879 44.522 96.9266 44.3031 96.804 44.163C96.699 44.0229 96.5326 43.9441 96.3049 43.9266L92.3646 43.3749C91.1388 43.1998 90.1493 42.797 89.3963 42.1666C88.6607 41.5361 88.293 40.4854 88.293 39.0143V36.2561C88.293 34.7675 88.7746 33.6292 89.7378 32.8412C90.7009 32.0356 92.0319 31.6328 93.7306 31.6328H101.086C101.419 31.6328 101.655 31.7116 101.795 31.8692C101.953 32.0093 102.032 32.2457 102.032 32.5785V35.7045C102.032 36.0372 101.953 36.2824 101.795 36.44C101.655 36.5801 101.419 36.6501 101.086 36.6501H94.9652C94.7376 36.6501 94.5625 36.7289 94.4399 36.8865C94.3173 37.0266 94.256 37.2105 94.256 37.4382C94.256 37.6659 94.3173 37.8585 94.4399 38.0161C94.5625 38.1737 94.7376 38.2613 94.9652 38.2788L98.8793 38.8042C100.105 38.9793 101.095 39.3821 101.848 40.0125C102.601 40.643 102.977 41.6937 102.977 43.1648V45.923C102.977 47.4115 102.487 48.5586 101.506 49.3642C100.543 50.1522 99.2208 50.5463 97.5396 50.5463Z" fill="white"/>
<path d="M75.1658 50.5463H71.0941C70.7614 50.5463 70.5162 50.4762 70.3586 50.3361C70.2185 50.1785 70.1484 49.9333 70.1484 49.6006V32.5785C70.1484 32.2457 70.2185 32.0093 70.3586 31.8692C70.5162 31.7116 70.7614 31.6328 71.0941 31.6328H75.1658C75.4985 31.6328 75.7349 31.7116 75.875 31.8692C76.0326 32.0093 76.1114 32.2457 76.1114 32.5785V38.2788H80.4983V32.5785C80.4983 32.2457 80.5684 32.0093 80.7085 31.8692C80.8661 31.7116 81.1113 31.6328 81.444 31.6328H85.5157C85.8484 31.6328 86.0848 31.7116 86.2249 31.8692C86.3825 32.0093 86.4613 32.2457 86.4613 32.5785V49.6006C86.4613 49.9333 86.3825 50.1785 86.2249 50.3361C86.0848 50.4762 85.8484 50.5463 85.5157 50.5463H81.444C81.1113 50.5463 80.8661 50.4762 80.7085 50.3361C80.5684 50.1785 80.4983 49.9333 80.4983 49.6006V43.7689H76.1114V49.6006C76.1114 49.9333 76.0326 50.1785 75.875 50.3361C75.7349 50.4762 75.4985 50.5463 75.1658 50.5463Z" fill="white"/>
<path d="M63.1529 50.5463H58.8974C58.5646 50.5463 58.3195 50.4762 58.1619 50.3361C58.0218 50.1785 57.9517 49.9333 57.9517 49.6006V36.7027H54.0902C53.7575 36.7027 53.5123 36.6326 53.3547 36.4925C53.2146 36.3349 53.1445 36.0897 53.1445 35.757V32.5785C53.1445 32.2457 53.2146 32.0093 53.3547 31.8692C53.5123 31.7116 53.7575 31.6328 54.0902 31.6328H67.9601C68.2928 31.6328 68.5293 31.7116 68.6694 31.8692C68.827 32.0093 68.9058 32.2457 68.9058 32.5785V35.757C68.9058 36.0897 68.827 36.3349 68.6694 36.4925C68.5293 36.6326 68.2928 36.7027 67.9601 36.7027H64.0986V49.6006C64.0986 49.9333 64.0198 50.1785 63.8622 50.3361C63.7221 50.4762 63.4857 50.5463 63.1529 50.5463Z" fill="white"/>
<path d="M52.3168 45.582C52.3168 46.3875 52.1942 47.1231 51.949 47.7885C51.7214 48.4365 51.3011 48.9969 50.6881 49.4697C50.0927 49.9251 49.2609 50.2841 48.1926 50.5467C47.1419 50.8094 45.8021 50.9408 44.1735 50.9408C42.5448 50.9408 41.1964 50.8094 40.1281 50.5467C39.0598 50.2841 38.2192 49.9251 37.6063 49.4697C37.0109 48.9969 36.5906 48.4365 36.3454 47.7885C36.1177 47.1231 36.0039 46.3875 36.0039 45.582V36.6243C36.0039 35.8188 36.1177 35.092 36.3454 34.444C36.5906 33.7786 37.0109 33.2094 37.6063 32.7366C38.2192 32.2637 39.0598 31.896 40.1281 31.6333C41.1964 31.3706 42.5448 31.2393 44.1735 31.2393C45.8021 31.2393 47.1419 31.3706 48.1926 31.6333C49.2609 31.896 50.0927 32.2637 50.6881 32.7366C51.3011 33.2094 51.7214 33.7786 51.949 34.444C52.1942 35.092 52.3168 35.8188 52.3168 36.6243V45.582ZM41.9669 44.6363C41.9669 44.9865 42.0983 45.2842 42.3609 45.5294C42.6236 45.7571 43.2278 45.8709 44.1735 45.8709C45.1192 45.8709 45.7233 45.7571 45.986 45.5294C46.2487 45.2842 46.3801 44.9865 46.3801 44.6363V37.57C46.3801 37.2373 46.2487 36.9571 45.986 36.7294C45.7233 36.4842 45.1192 36.3617 44.1735 36.3617C43.2278 36.3617 42.6236 36.4842 42.3609 36.7294C42.0983 36.9571 41.9669 37.2373 41.9669 37.57V44.6363Z" fill="white"/>
<path d="M33.8157 50.5573H20.2559C19.9185 50.5573 19.6698 50.4874 19.51 50.3476C19.3679 50.1902 19.2969 49.9455 19.2969 49.6133V32.6217C19.2969 32.2896 19.3679 32.0536 19.51 31.9137C19.6698 31.7564 19.9185 31.6777 20.2559 31.6777H24.3851C24.7226 31.6777 24.9623 31.7564 25.1044 31.9137C25.2643 32.0536 25.3442 32.2896 25.3442 32.6217V45.6014H28.9939V44.1823C28.9939 43.8502 29.0649 43.6142 29.207 43.4744C29.3668 43.317 29.6155 43.2384 29.9529 43.2384H33.8157C34.1532 43.2384 34.3929 43.317 34.535 43.4744C34.6949 43.6142 34.7748 43.8502 34.7748 44.1823V49.6133C34.7748 49.9455 34.6949 50.1902 34.535 50.3476C34.3929 50.4874 34.1532 50.5573 33.8157 50.5573Z" fill="white"/>
<path d="M12.27 50.5463H3.96911C3.63637 50.5463 3.3912 50.4762 3.23359 50.3361C3.09349 50.1785 3.02344 49.9333 3.02344 49.6006V46.5272C3.02344 46.1944 3.09349 45.958 3.23359 45.8179C3.3912 45.6603 3.63637 45.5815 3.96911 45.5815H11.0354C11.2631 45.5815 11.4294 45.5114 11.5345 45.3713C11.6571 45.2137 11.7184 45.0298 11.7184 44.8197C11.7184 44.522 11.6571 44.3031 11.5345 44.163C11.4294 44.0229 11.2631 43.9441 11.0354 43.9266L7.09509 43.3749C5.86922 43.1998 4.87976 42.797 4.12672 42.1666C3.3912 41.5361 3.02344 40.4854 3.02344 39.0143V36.2561C3.02344 34.7675 3.50503 33.6292 4.46822 32.8412C5.43141 32.0356 6.76236 31.6328 8.46107 31.6328H15.8163C16.1491 31.6328 16.3855 31.7116 16.5256 31.8692C16.6832 32.0093 16.762 32.2457 16.762 32.5785V35.7045C16.762 36.0372 16.6832 36.2824 16.5256 36.44C16.3855 36.5801 16.1491 36.6501 15.8163 36.6501H9.6957C9.46804 36.6501 9.29291 36.7289 9.17032 36.8865C9.04774 37.0266 8.98644 37.2105 8.98644 37.4382C8.98644 37.6659 9.04774 37.8585 9.17032 38.0161C9.29291 38.1737 9.46804 38.2613 9.6957 38.2788L13.6097 38.8042C14.8356 38.9793 15.8251 39.3821 16.5781 40.0125C17.3311 40.643 17.7077 41.6937 17.7077 43.1648V45.923C17.7077 47.4115 17.2173 48.5586 16.2366 49.3642C15.2734 50.1522 13.9512 50.5463 12.27 50.5463Z" fill="white"/>
<path d="M52.3129 23.5405C52.3129 24.346 52.1903 25.0816 51.9451 25.747C51.7175 26.395 51.2972 26.9554 50.6842 27.4282C50.0888 27.8835 49.257 28.2426 48.1887 28.5052C47.1379 28.7679 45.7982 28.8993 44.1696 28.8993C42.5409 28.8993 41.1925 28.7679 40.1242 28.5052C39.0559 28.2426 38.2153 27.8835 37.6024 27.4282C37.007 26.9554 36.5867 26.395 36.3415 25.747C36.1138 25.0816 36 24.346 36 23.5405V14.5828C36 13.7773 36.1138 13.0505 36.3415 12.4025C36.5867 11.7371 37.007 11.1679 37.6024 10.6951C38.2153 10.2222 39.0559 9.85447 40.1242 9.59178C41.1925 9.3291 42.5409 9.19775 44.1696 9.19775C45.7982 9.19775 47.1379 9.3291 48.1887 9.59178C49.257 9.85447 50.0888 10.2222 50.6842 10.6951C51.2972 11.1679 51.7175 11.7371 51.9451 12.4025C52.1903 13.0505 52.3129 13.7773 52.3129 14.5828V23.5405Z" fill="white"/>
<path d="M34.5746 23.5405C34.5746 24.346 34.452 25.0816 34.2068 25.747C33.9792 26.395 33.5589 26.9554 32.9459 27.4282C32.3505 27.8835 31.5187 28.2426 30.4504 28.5052C29.3997 28.7679 28.06 28.8993 26.4313 28.8993C24.8026 28.8993 23.4542 28.7679 22.3859 28.5052C21.3176 28.2426 20.4771 27.8835 19.8641 27.4282C19.2687 26.9554 18.8484 26.395 18.6032 25.747C18.3756 25.0816 18.2617 24.346 18.2617 23.5405V14.5828C18.2617 13.7773 18.3756 13.0505 18.6032 12.4025C18.8484 11.7371 19.2687 11.1679 19.8641 10.6951C20.4771 10.2222 21.3176 9.85447 22.3859 9.59178C23.4542 9.3291 24.8026 9.19775 26.4313 9.19775C28.06 9.19775 29.3997 9.3291 30.4504 9.59178C31.5187 9.85447 32.3505 10.2222 32.9459 10.6951C33.5589 11.1679 33.9792 11.7371 34.2068 12.4025C34.452 13.0505 34.5746 13.7773 34.5746 14.5828V23.5405Z" fill="white"/>
<path fill-rule="evenodd" clip-rule="evenodd" d="M25.0446 3.00317C26.4988 2.94268 28.2195 3.74645 28.5019 5.55111C28.568 5.97321 28.3022 6.40214 27.8634 6.48002C27.4186 6.55897 27.0285 6.23738 26.9618 5.8114C26.8556 5.13291 26.1271 4.58016 25.1071 4.62259C24.1632 4.66185 23.2726 5.23077 23.0731 6.47513C23.0048 6.90093 22.6134 7.22093 22.1689 7.14011C21.7305 7.0604 21.4663 6.6305 21.534 6.20866C21.8776 4.06499 23.5094 3.06703 25.0446 3.00317Z" fill="white"/>
<path fill-rule="evenodd" clip-rule="evenodd" d="M42.6735 3.00317C44.1277 2.94268 45.8484 3.74645 46.1308 5.55111C46.1969 5.97321 45.9311 6.40214 45.4923 6.48002C45.0475 6.55897 44.6574 6.23738 44.5907 5.8114C44.4845 5.13291 43.756 4.58016 42.736 4.62259C41.7921 4.66185 40.9015 5.23077 40.702 6.47513C40.6337 6.90093 40.2423 7.22093 39.7978 7.14011C39.3594 7.0604 39.0952 6.6305 39.1629 6.20866C39.5065 4.06499 41.1383 3.06703 42.6735 3.00317Z" fill="white"/>
<path d="M31.25 20.7613C31.25 20.9455 31.0097 21.0428 30.8895 21.0683C30.8655 22.4758 30.6012 25.2908 27.2128 25.2908C24.1849 25.2908 23.7043 22.3735 23.7523 20.9148L23.3198 20.838C22.57 20.7766 22.7671 20.5565 22.9593 20.4542C24.9779 19.6097 29.8081 19.9936 30.8174 20.3006C31.2391 20.4289 31.25 20.531 31.25 20.7613Z" fill="#121212"/>
<ellipse cx="0.576743" cy="0.614168" rx="0.576743" ry="0.614168" transform="matrix(-1 0 0 1 29.5195 21.1455)" fill="#D9D9D9"/>
<path d="M49.2031 20.7613C49.2031 20.9455 48.9628 21.0428 48.8427 21.0683C48.8186 22.4758 48.5543 25.2908 45.1659 25.2908C42.138 25.2908 41.6574 22.3735 41.7055 20.9148L41.2729 20.838C40.5231 20.7766 40.7202 20.5565 40.9124 20.4542C42.931 19.6097 47.7613 19.9936 48.7706 20.3006C49.1922 20.4289 49.2031 20.531 49.2031 20.7613Z" fill="#121212"/>
<ellipse cx="0.576743" cy="0.614168" rx="0.576743" ry="0.614168" transform="matrix(-1 0 0 1 47.4727 21.1455)" fill="#D9D9D9"/>
</svg>
